<svg width="1200" height="675" viewBox="0 0 1200 675" fill="none" xmlns="http://www.w3.org/2000/svg">
<g clip-path="url(#clip0_771_18)">
<rect width="1200" height="675" fill="#F46096"/>
<g filter="url(#filter0_n_771_18)">
<g filter="url(#filter1_f_771_18)">
<rect width="1200" height="600" transform="matrix(-1 0 0 1 1200 -39)" fill="#F04886"/>
<g opacity="0.7" filter="url(#filter2_f_771_18)">
<path d="M475 400.5C509.297 272.5 898 61 711 -87.5L96.5001 -213L71 846C71 846 715 860.833 946.5 875C848.543 806 415.917 621 475 400.5Z" fill="#8F4EFF"/>
</g>
<g filter="url(#filter3_f_771_18)">
<path d="M289.003 202.796L345.026 -90.4028C345.674 -93.7934 346 -97.2375 346 -100.689C346 -131.73 320.247 -156.577 289.226 -155.464L-181.367 -138.589C-296.241 -134.47 -384.009 -34.5968 -373.336 79.8538L-315.015 705.219C-303.178 832.144 -177.211 915.751 -55.6523 877.364L182.252 802.236C281.785 770.805 328.837 657.15 280.647 564.562L154.273 321.763C131.844 278.669 172.709 229.968 219.043 244.573C250.165 254.384 282.879 234.849 289.003 202.796Z" fill="#506CDC"/>
</g>
<g filter="url(#filter4_f_771_18)">
<path d="M913.012 255.462L950.3 192.291C961.137 173.933 965.687 152.54 963.26 131.361C958.847 92.8442 977.571 55.3495 1011.01 35.7367L1028.27 25.6169C1114.03 -24.6804 1222 37.1659 1222 136.59V466.849C1222 532.654 1168.65 586 1102.85 586H974.71C906.207 586 875.359 500.214 928.174 456.589L931.798 453.595C966.012 425.335 965.223 372.65 930.179 345.426C902.635 324.03 895.282 285.498 913.012 255.462Z" fill="#FF907F"/>
</g>
<circle cx="148" cy="148" r="148" transform="matrix(-1 0 0 1 244 -63)" fill="#08B4CF"/>
</g>
</g>
<path d="M271.541 276H240.521V261.15H271.541C276.601 261.15 280.634 260.563 283.641 259.39C286.721 258.143 288.958 255.943 290.351 252.79C291.818 249.563 292.551 245.017 292.551 239.15C292.551 233.21 291.818 228.663 290.351 225.51C288.958 222.357 286.721 220.193 283.641 219.02C280.634 217.773 276.601 217.15 271.541 217.15H240.521V202.3H271.541C279.461 202.3 286.281 203.767 292.001 206.7C297.794 209.633 302.268 213.85 305.421 219.35C308.574 224.85 310.151 231.45 310.151 239.15C310.151 246.85 308.574 253.45 305.421 258.95C302.268 264.45 297.794 268.667 292.001 271.6C286.281 274.533 279.461 276 271.541 276ZM252.511 276H236.011V202.3H252.511V276ZM345.469 277.1C339.382 277.1 333.992 276.073 329.299 274.02C324.605 271.967 320.975 268.813 318.409 264.56C315.842 260.307 314.559 254.953 314.559 248.5C314.559 242.633 315.842 237.573 318.409 233.32C320.975 228.993 324.532 225.657 329.079 223.31C333.699 220.963 339.052 219.79 345.139 219.79C351.152 219.79 356.395 220.817 360.869 222.87C365.415 224.923 368.935 227.967 371.429 232C373.922 235.96 375.169 240.8 375.169 246.52C375.169 247.473 375.132 248.353 375.059 249.16C374.985 249.967 374.875 250.847 374.729 251.8H325.229V243.11H363.069L359.329 248.5C359.329 247.767 359.329 247.07 359.329 246.41C359.329 245.75 359.329 245.09 359.329 244.43C359.329 240.25 358.192 237.243 355.919 235.41C353.645 233.577 349.942 232.66 344.809 232.66C339.235 232.66 335.349 233.76 333.149 235.96C330.949 238.087 329.849 241.497 329.849 246.19V250.37C329.849 255.063 330.949 258.51 333.149 260.71C335.349 262.837 339.272 263.9 344.919 263.9C349.759 263.9 353.169 263.277 355.149 262.03C357.129 260.783 358.119 258.987 358.119 256.64V255.54H374.619V256.75C374.619 260.71 373.409 264.23 370.989 267.31C368.569 270.39 365.159 272.81 360.759 274.57C356.432 276.257 351.335 277.1 345.469 277.1ZM408.896 277.1C399.656 277.1 392.542 275.377 387.556 271.93C382.569 268.41 380.076 263.46 380.076 257.08V256.75H396.576V257.74C396.576 260.233 397.456 261.92 399.216 262.8C401.049 263.607 404.312 264.01 409.006 264.01C413.406 264.01 416.302 263.643 417.696 262.91C419.162 262.103 419.896 260.893 419.896 259.28C419.896 257.74 419.346 256.677 418.246 256.09C417.146 255.43 414.982 254.88 411.756 254.44L396.246 252.57C390.746 251.983 386.492 250.443 383.486 247.95C380.552 245.457 379.086 241.863 379.086 237.17C379.086 233.943 380.039 231.047 381.946 228.48C383.852 225.84 386.786 223.75 390.746 222.21C394.779 220.597 399.949 219.79 406.256 219.79C412.269 219.79 417.366 220.56 421.546 222.1C425.799 223.567 429.026 225.803 431.226 228.81C433.426 231.817 434.526 235.557 434.526 240.03V240.36H418.026V239.7C418.026 238.16 417.696 236.913 417.036 235.96C416.449 234.933 415.239 234.163 413.406 233.65C411.646 233.137 409.079 232.88 405.706 232.88C401.599 232.88 398.849 233.283 397.456 234.09C396.062 234.823 395.366 236.07 395.366 237.83C395.366 239.223 395.916 240.287 397.016 241.02C398.189 241.68 400.572 242.267 404.166 242.78L415.936 244.21C423.269 245.017 428.476 246.703 431.556 249.27C434.636 251.837 436.176 255.393 436.176 259.94C436.176 263.387 435.076 266.393 432.876 268.96C430.676 271.527 427.559 273.543 423.526 275.01C419.492 276.403 414.616 277.1 408.896 277.1ZM458.233 276H441.733V220.89H458.233V276ZM458.233 215.28H441.733V202.3H458.233V215.28ZM496.57 295.8C490.63 295.8 485.46 294.92 481.06 293.16C476.733 291.473 473.397 289.017 471.05 285.79C468.703 282.563 467.53 278.64 467.53 274.02H484.03C484.03 276 484.36 277.577 485.02 278.75C485.753 279.997 487.11 280.84 489.09 281.28C491.07 281.793 493.93 282.05 497.67 282.05C501.19 282.05 503.94 281.72 505.92 281.06C507.973 280.4 509.403 279.117 510.21 277.21C511.017 275.377 511.42 272.663 511.42 269.07V236.07L512.52 235.74V220.89H527.92V267.97C527.92 274.423 526.673 279.667 524.18 283.7C521.687 287.807 518.093 290.85 513.4 292.83C508.78 294.81 503.17 295.8 496.57 295.8ZM489.97 270.39C484.47 270.39 479.813 269.363 476 267.31C472.187 265.257 469.253 262.323 467.2 258.51C465.147 254.697 464.12 250.223 464.12 245.09C464.12 239.957 465.183 235.52 467.31 231.78C469.437 227.967 472.48 225.033 476.44 222.98C480.4 220.853 485.13 219.79 490.63 219.79C496.277 219.79 500.97 221 504.71 223.42C508.45 225.84 510.76 229.433 511.64 234.2H514.72L513.51 244.43H511.42C511.42 241.937 510.833 239.957 509.66 238.49C508.487 236.95 506.763 235.85 504.49 235.19C502.217 234.457 499.357 234.09 495.91 234.09C492.39 234.09 489.493 234.457 487.22 235.19C485.02 235.85 483.37 236.987 482.27 238.6C481.243 240.14 480.73 242.303 480.73 245.09C480.73 247.803 481.243 249.967 482.27 251.58C483.37 253.193 485.02 254.367 487.22 255.1C489.42 255.833 492.243 256.2 495.69 256.2C500.97 256.2 504.893 255.393 507.46 253.78C510.1 252.167 511.42 249.453 511.42 245.64H513.51V256.64H510.54C509.66 260.747 507.533 264.083 504.16 266.65C500.787 269.143 496.057 270.39 489.97 270.39ZM596.508 276H580.008V247.18C580.008 242.707 578.982 239.517 576.928 237.61C574.875 235.63 571.318 234.64 566.258 234.64C560.978 234.64 557.275 235.74 555.148 237.94C553.095 240.067 552.068 243.477 552.068 248.17H549.978L548.768 237.83H551.848C552.362 234.75 553.462 231.853 555.148 229.14C556.835 226.353 559.218 224.117 562.298 222.43C565.452 220.67 569.448 219.79 574.288 219.79C579.275 219.79 583.418 220.78 586.718 222.76C590.018 224.667 592.475 227.27 594.088 230.57C595.702 233.87 596.508 237.573 596.508 241.68V276ZM552.068 276H535.568V220.89H550.858V238.05L552.068 238.6V276ZM620.255 276H603.755V220.89H620.255V276ZM620.255 215.28H603.755V202.3H620.255V215.28ZM688.732 276H672.232V247.18C672.232 242.707 671.206 239.517 669.152 237.61C667.099 235.63 663.542 234.64 658.482 234.64C653.202 234.64 649.499 235.74 647.372 237.94C645.319 240.067 644.292 243.477 644.292 248.17H642.202L640.992 237.83H644.072C644.586 234.75 645.686 231.853 647.372 229.14C649.059 226.353 651.442 224.117 654.522 222.43C657.676 220.67 661.672 219.79 666.512 219.79C671.499 219.79 675.642 220.78 678.942 222.76C682.242 224.667 684.699 227.27 686.312 230.57C687.926 233.87 688.732 237.573 688.732 241.68V276ZM644.292 276H627.792V220.89H643.082V238.05L644.292 238.6V276ZM726.779 295.8C720.839 295.8 715.669 294.92 711.269 293.16C706.943 291.473 703.606 289.017 701.259 285.79C698.913 282.563 697.739 278.64 697.739 274.02H714.239C714.239 276 714.569 277.577 715.229 278.75C715.963 279.997 717.319 280.84 719.299 281.28C721.279 281.793 724.139 282.05 727.879 282.05C731.399 282.05 734.149 281.72 736.129 281.06C738.183 280.4 739.613 279.117 740.419 277.21C741.226 275.377 741.629 272.663 741.629 269.07V236.07L742.729 235.74V220.89H758.129V267.97C758.129 274.423 756.883 279.667 754.389 283.7C751.896 287.807 748.303 290.85 743.609 292.83C738.989 294.81 733.379 295.8 726.779 295.8ZM720.179 270.39C714.679 270.39 710.023 269.363 706.209 267.31C702.396 265.257 699.463 262.323 697.409 258.51C695.356 254.697 694.329 250.223 694.329 245.09C694.329 239.957 695.393 235.52 697.519 231.78C699.646 227.967 702.689 225.033 706.649 222.98C710.609 220.853 715.339 219.79 720.839 219.79C726.486 219.79 731.179 221 734.919 223.42C738.659 225.84 740.969 229.433 741.849 234.2H744.929L743.719 244.43H741.629C741.629 241.937 741.043 239.957 739.869 238.49C738.696 236.95 736.973 235.85 734.699 235.19C732.426 234.457 729.566 234.09 726.119 234.09C722.599 234.09 719.703 234.457 717.429 235.19C715.229 235.85 713.579 236.987 712.479 238.6C711.453 240.14 710.939 242.303 710.939 245.09C710.939 247.803 711.453 249.967 712.479 251.58C713.579 253.193 715.229 254.367 717.429 255.1C719.629 255.833 722.453 256.2 725.899 256.2C731.179 256.2 735.103 255.393 737.669 253.78C740.309 252.167 741.629 249.453 741.629 245.64H743.719V256.64H740.749C739.869 260.747 737.743 264.083 734.369 266.65C730.996 269.143 726.266 270.39 720.179 270.39ZM882.19 276H865.69V247.18C865.69 242.633 864.774 239.407 862.94 237.5C861.107 235.593 857.807 234.64 853.04 234.64C848.054 234.64 844.644 235.703 842.81 237.83C841.05 239.957 840.17 243.403 840.17 248.17H838.08L836.76 237.83H839.95C840.39 234.677 841.344 231.743 842.81 229.03C844.35 226.317 846.587 224.117 849.52 222.43C852.527 220.67 856.377 219.79 861.07 219.79C865.837 219.79 869.76 220.743 872.84 222.65C875.994 224.557 878.34 227.16 879.88 230.46C881.42 233.76 882.19 237.5 882.19 241.68V276ZM798.15 276H781.65V220.89H796.94V238.05L798.15 238.6V276ZM840.17 276H823.67V247.18C823.67 242.633 822.754 239.407 820.92 237.5C819.087 235.593 815.787 234.64 811.02 234.64C805.96 234.64 802.55 235.703 800.79 237.83C799.03 239.957 798.15 243.403 798.15 248.17H796.06L794.85 237.61H797.82C798.334 234.53 799.324 231.67 800.79 229.03C802.257 226.317 804.42 224.117 807.28 222.43C810.14 220.67 813.88 219.79 818.5 219.79C823.267 219.79 827.154 220.78 830.16 222.76C833.24 224.74 835.514 227.38 836.98 230.68C838.447 233.98 839.18 237.647 839.18 241.68H840.17V276ZM900.036 294.7H891.016V279.74H904.546C906.6 279.74 908.14 279.447 909.166 278.86C910.193 278.273 911.036 277.247 911.696 275.78L914.006 270.39L912.356 278.09L884.526 220.89H903.226L914.886 246.08L919.506 259.06H920.606L925.006 245.97L935.456 220.89H953.826L926.546 279.96C924.786 283.773 922.733 286.743 920.386 288.87C918.04 291.07 915.216 292.573 911.916 293.38C908.616 294.26 904.656 294.7 900.036 294.7ZM181.869 380H161.299L146.229 324.89H163.279L169.769 350.08L172.079 367.24H173.179L177.579 348.43L185.939 324.89H207.169L215.419 348.43L219.819 367.24H220.919L223.339 350.08L229.719 324.89H246.549L230.929 380H210.359L200.899 353.49L196.829 338.31H195.619L191.439 353.49L181.869 380ZM305.521 380H290.121V366.91L289.241 366.69V347.44C289.241 343.847 288.324 341.427 286.491 340.18C284.731 338.933 281.651 338.31 277.251 338.31C273.071 338.31 270.064 338.933 268.231 340.18C266.397 341.427 265.481 343.627 265.481 346.78V347.22H248.871V346.89C248.871 342.343 250.081 338.347 252.501 334.9C254.921 331.38 258.331 328.667 262.731 326.76C267.204 324.78 272.447 323.79 278.461 323.79C284.621 323.79 289.681 324.78 293.641 326.76C297.674 328.74 300.644 331.527 302.551 335.12C304.531 338.64 305.521 342.82 305.521 347.66V380ZM266.801 381.1C260.861 381.1 256.204 379.78 252.831 377.14C249.457 374.5 247.771 370.907 247.771 366.36C247.771 363.573 248.431 361.19 249.751 359.21C251.071 357.23 253.051 355.653 255.691 354.48C258.331 353.233 261.631 352.39 265.591 351.95L290.341 349.42V358.88L270.101 361.19C268.121 361.337 266.654 361.74 265.701 362.4C264.821 362.987 264.381 363.94 264.381 365.26C264.381 366.727 264.967 367.79 266.141 368.45C267.314 369.11 269.111 369.44 271.531 369.44C275.491 369.44 278.754 369.073 281.321 368.34C283.887 367.607 285.831 366.433 287.151 364.82C288.544 363.133 289.241 360.897 289.241 358.11L290.781 358V367.35H289.241C287.994 371.603 285.464 374.977 281.651 377.47C277.911 379.89 272.961 381.1 266.801 381.1ZM323.344 398.7H314.324V383.74H327.854C329.907 383.74 331.447 383.447 332.474 382.86C333.501 382.273 334.344 381.247 335.004 379.78L337.314 374.39L335.664 382.09L307.834 324.89H326.534L338.194 350.08L342.814 363.06H343.914L348.314 349.97L358.764 324.89H377.134L349.854 383.96C348.094 387.773 346.041 390.743 343.694 392.87C341.347 395.07 338.524 396.573 335.224 397.38C331.924 398.26 327.964 398.7 323.344 398.7ZM412.377 380H395.877V324.89H412.377V380ZM412.377 319.28H395.877V306.3H412.377V319.28ZM480.854 380H464.354V351.18C464.354 346.707 463.327 343.517 461.274 341.61C459.22 339.63 455.664 338.64 450.604 338.64C445.324 338.64 441.62 339.74 439.494 341.94C437.44 344.067 436.414 347.477 436.414 352.17H434.324L433.114 341.83H436.194C436.707 338.75 437.807 335.853 439.494 333.14C441.18 330.353 443.564 328.117 446.644 326.43C449.797 324.67 453.794 323.79 458.634 323.79C463.62 323.79 467.764 324.78 471.064 326.76C474.364 328.667 476.82 331.27 478.434 334.57C480.047 337.87 480.854 341.573 480.854 345.68V380ZM436.414 380H419.914V324.89H435.204V342.05L436.414 342.6V380ZM526.931 380H513.291C506.837 380 501.777 378.423 498.111 375.27C494.444 372.117 492.611 367.057 492.611 360.09V314.22H509.111V358.22C509.111 361.007 509.697 362.877 510.871 363.83C512.117 364.71 514.171 365.15 517.031 365.15H526.931V380ZM526.931 338.53H483.921V324.89H526.931V338.53ZM561.381 381.1C555.147 381.1 549.647 379.927 544.881 377.58C540.187 375.233 536.521 371.933 533.881 367.68C531.241 363.353 529.921 358.293 529.921 352.5C529.921 346.633 531.241 341.573 533.881 337.32C536.521 332.993 540.187 329.657 544.881 327.31C549.647 324.963 555.147 323.79 561.381 323.79C567.687 323.79 573.187 324.963 577.881 327.31C582.574 329.657 586.241 332.993 588.881 337.32C591.521 341.573 592.841 346.633 592.841 352.5C592.841 358.293 591.521 363.353 588.881 367.68C586.241 371.933 582.574 375.233 577.881 377.58C573.187 379.927 567.687 381.1 561.381 381.1ZM561.381 366.47C566.954 366.47 570.841 365.37 573.041 363.17C575.314 360.897 576.451 357.34 576.451 352.5C576.451 347.587 575.314 343.993 573.041 341.72C570.841 339.447 566.954 338.31 561.381 338.31C555.807 338.31 551.884 339.447 549.611 341.72C547.411 343.993 546.311 347.587 546.311 352.5C546.311 357.34 547.411 360.897 549.611 363.17C551.884 365.37 555.807 366.47 561.381 366.47ZM653.292 381.1C646.912 381.1 641.925 379.67 638.332 376.81C634.812 373.877 632.575 369.99 631.622 365.15H628.762V353.27H630.852C630.852 356.35 631.475 358.843 632.722 360.75C633.968 362.657 635.765 364.013 638.112 364.82C640.532 365.627 643.465 366.03 646.912 366.03C650.505 366.03 653.438 365.59 655.712 364.71C657.985 363.83 659.672 362.4 660.772 360.42C661.872 358.44 662.422 355.8 662.422 352.5C662.422 349.053 661.872 346.377 660.772 344.47C659.672 342.49 657.985 341.097 655.712 340.29C653.438 339.41 650.542 338.97 647.022 338.97C641.668 338.97 637.635 339.997 634.922 342.05C632.208 344.03 630.852 347.477 630.852 352.39H628.762L627.552 339.96H630.742C631.695 334.68 633.968 330.683 637.562 327.97C641.228 325.183 646.288 323.79 652.742 323.79C658.388 323.79 663.155 324.963 667.042 327.31C671.002 329.657 674.008 332.993 676.062 337.32C678.115 341.573 679.142 346.633 679.142 352.5C679.142 358.293 678.115 363.353 676.062 367.68C674.082 371.933 671.148 375.233 667.262 377.58C663.448 379.927 658.792 381.1 653.292 381.1ZM630.852 398.7H614.352V324.89H629.642V341.28L630.852 342.71V398.7ZM701.402 380H684.902V324.89H700.192V340.62L701.402 341.17V380ZM701.402 348.1H698.102V339.52H701.182C701.695 336.513 702.685 333.837 704.152 331.49C705.692 329.07 707.745 327.2 710.312 325.88C712.879 324.487 715.995 323.79 719.662 323.79C723.842 323.79 727.179 324.67 729.672 326.43C732.239 328.117 734.109 330.427 735.282 333.36C736.455 336.22 737.042 339.447 737.042 343.04V352.17H720.542V346.45C720.542 343.37 719.845 341.17 718.452 339.85C717.132 338.457 714.785 337.76 711.412 337.76C707.745 337.76 705.142 338.603 703.602 340.29C702.135 341.977 701.402 344.58 701.402 348.1ZM771.287 381.1C765.054 381.1 759.554 379.927 754.787 377.58C750.094 375.233 746.427 371.933 743.787 367.68C741.147 363.353 739.827 358.293 739.827 352.5C739.827 346.633 741.147 341.573 743.787 337.32C746.427 332.993 750.094 329.657 754.787 327.31C759.554 324.963 765.054 323.79 771.287 323.79C777.594 323.79 783.094 324.963 787.787 327.31C792.481 329.657 796.147 332.993 798.787 337.32C801.427 341.573 802.747 346.633 802.747 352.5C802.747 358.293 801.427 363.353 798.787 367.68C796.147 371.933 792.481 375.233 787.787 377.58C783.094 379.927 777.594 381.1 771.287 381.1ZM771.287 366.47C776.861 366.47 780.747 365.37 782.947 363.17C785.221 360.897 786.357 357.34 786.357 352.5C786.357 347.587 785.221 343.993 782.947 341.72C780.747 339.447 776.861 338.31 771.287 338.31C765.714 338.31 761.791 339.447 759.517 341.72C757.317 343.993 756.217 347.587 756.217 352.5C756.217 357.34 757.317 360.897 759.517 363.17C761.791 365.37 765.714 366.47 771.287 366.47ZM833.026 381.1C827.306 381.1 822.466 379.927 818.506 377.58C814.546 375.233 811.539 371.933 809.486 367.68C807.432 363.353 806.406 358.293 806.406 352.5C806.406 346.633 807.396 341.573 809.376 337.32C811.429 332.993 814.362 329.657 818.176 327.31C822.062 324.963 826.719 323.79 832.146 323.79C838.672 323.79 843.696 325.257 847.216 328.19C850.736 331.123 852.936 334.9 853.816 339.52H856.896V351.95H854.806C854.806 347.183 853.412 343.81 850.626 341.83C847.912 339.85 843.916 338.86 838.636 338.86C835.116 338.86 832.182 339.3 829.836 340.18C827.562 341.06 825.876 342.49 824.776 344.47C823.676 346.377 823.126 349.053 823.126 352.5C823.126 355.8 823.676 358.44 824.776 360.42C825.876 362.4 827.562 363.83 829.836 364.71C832.182 365.59 835.116 366.03 838.636 366.03C842.156 366.03 845.089 365.59 847.436 364.71C849.856 363.83 851.689 362.437 852.936 360.53C854.182 358.55 854.806 355.983 854.806 352.83H856.896L857.996 364.71H855.026C853.999 370.137 851.652 374.243 847.986 377.03C844.319 379.743 839.332 381.1 833.026 381.1ZM871.306 380H855.906V363.72L854.806 362.29V306.3H871.306V380ZM901.706 381.1C896.573 381.1 892.283 380.147 888.836 378.24C885.463 376.26 882.933 373.62 881.246 370.32C879.633 367.02 878.826 363.317 878.826 359.21V324.89H895.326V353.71C895.326 358.11 896.389 361.337 898.516 363.39C900.643 365.37 904.309 366.36 909.516 366.36C914.943 366.36 918.719 365.297 920.846 363.17C923.046 360.97 924.146 357.523 924.146 352.83L926.236 352.72L927.446 363.17H924.366C923.926 366.25 922.826 369.147 921.066 371.86C919.379 374.573 916.923 376.81 913.696 378.57C910.543 380.257 906.546 381.1 901.706 381.1ZM940.646 380H925.246V362.95L924.146 362.4V324.89H940.646V380ZM977.352 381.1C971.119 381.1 965.656 379.927 960.962 377.58C956.269 375.233 952.639 371.933 950.072 367.68C947.579 363.353 946.332 358.293 946.332 352.5C946.332 346.633 947.579 341.573 950.072 337.32C952.639 332.993 956.269 329.657 960.962 327.31C965.656 324.963 971.119 323.79 977.352 323.79C983.292 323.79 988.499 324.78 992.972 326.76C997.446 328.74 1000.93 331.527 1003.42 335.12C1005.92 338.64 1007.16 342.783 1007.16 347.55V349.09H990.772V348.21C990.772 344.69 989.562 342.233 987.142 340.84C984.722 339.373 981.349 338.64 977.022 338.64C972.109 338.64 968.479 339.667 966.132 341.72C963.859 343.773 962.722 347.367 962.722 352.5C962.722 357.487 963.859 361.043 966.132 363.17C968.479 365.223 972.109 366.25 977.022 366.25C981.349 366.25 984.722 365.553 987.142 364.16C989.562 362.693 990.772 360.2 990.772 356.68V355.8H1007.16V357.34C1007.16 362.107 1005.92 366.287 1003.42 369.88C1000.93 373.4 997.446 376.15 992.972 378.13C988.499 380.11 983.292 381.1 977.352 381.1ZM1051.99 380H1038.35C1031.9 380 1026.84 378.423 1023.17 375.27C1019.51 372.117 1017.67 367.057 1017.67 360.09V314.22H1034.17V358.22C1034.17 361.007 1034.76 362.877 1035.93 363.83C1037.18 364.71 1039.23 365.15 1042.09 365.15H1051.99V380ZM1051.99 338.53H1008.98V324.89H1051.99V338.53Z" fill="white"/>
<path opacity="0.6" d="M338.802 453H337.026V437.376H331.242V435.768H344.586V437.376H338.802V453ZM348.563 445.632V453H346.883V435.768H348.563V442.68C348.947 441.928 349.491 441.312 350.195 440.832C350.899 440.352 351.707 440.112 352.619 440.112C353.931 440.112 354.979 440.52 355.763 441.336C356.563 442.152 356.963 443.304 356.963 444.792V453H355.283V445.368C355.283 444.152 355.011 443.216 354.467 442.56C353.939 441.904 353.155 441.576 352.115 441.576C351.459 441.576 350.859 441.752 350.315 442.104C349.771 442.44 349.339 442.912 349.019 443.52C348.715 444.128 348.563 444.832 348.563 445.632ZM365.468 453.24C364.284 453.24 363.244 452.968 362.348 452.424C361.468 451.864 360.78 451.08 360.284 450.072C359.804 449.064 359.564 447.896 359.564 446.568C359.564 445.336 359.812 444.24 360.308 443.28C360.82 442.304 361.508 441.536 362.372 440.976C363.252 440.4 364.252 440.112 365.372 440.112C366.268 440.112 367.076 440.288 367.796 440.64C368.532 440.976 369.148 441.456 369.644 442.08C370.156 442.704 370.532 443.44 370.772 444.288C371.028 445.12 371.116 446.048 371.036 447.072H360.476V445.92H369.284C369.22 444.496 368.836 443.392 368.132 442.608C367.444 441.808 366.516 441.408 365.348 441.408C364.532 441.408 363.812 441.624 363.188 442.056C362.58 442.472 362.1 443.064 361.748 443.832C361.396 444.6 361.22 445.512 361.22 446.568C361.22 447.656 361.388 448.608 361.724 449.424C362.06 450.224 362.54 450.84 363.164 451.272C363.804 451.704 364.564 451.92 365.444 451.92C366.5 451.92 367.372 451.64 368.06 451.08C368.764 450.504 369.22 449.72 369.428 448.728H371.084C370.796 450.12 370.148 451.224 369.14 452.04C368.148 452.84 366.924 453.24 365.468 453.24ZM388.284 449.472C388.284 450.64 387.844 451.56 386.964 452.232C386.084 452.904 384.86 453.24 383.292 453.24C381.724 453.24 380.476 452.864 379.548 452.112C378.636 451.36 378.116 450.336 377.988 449.04H379.596C379.644 449.936 380.004 450.648 380.676 451.176C381.348 451.704 382.22 451.968 383.292 451.968C384.332 451.968 385.14 451.776 385.716 451.392C386.308 451.008 386.604 450.456 386.604 449.736C386.604 449.112 386.404 448.64 386.004 448.32C385.604 447.984 384.924 447.72 383.964 447.528L382.14 447.168C380.94 446.944 380.028 446.544 379.404 445.968C378.78 445.376 378.468 444.624 378.468 443.712C378.468 443.008 378.66 442.384 379.044 441.84C379.444 441.296 379.988 440.872 380.676 440.568C381.38 440.264 382.188 440.112 383.1 440.112C384.076 440.112 384.924 440.28 385.644 440.616C386.38 440.936 386.964 441.4 387.396 442.008C387.828 442.616 388.068 443.344 388.116 444.192H386.532C386.452 443.312 386.108 442.632 385.5 442.152C384.892 441.656 384.092 441.408 383.1 441.408C382.204 441.408 381.476 441.6 380.916 441.984C380.372 442.368 380.1 442.896 380.1 443.568C380.1 444.192 380.3 444.672 380.7 445.008C381.116 445.344 381.796 445.6 382.74 445.776L384.636 446.136C385.884 446.376 386.804 446.768 387.396 447.312C387.988 447.856 388.284 448.576 388.284 449.472ZM397.613 451.392V452.88C397.293 453.024 396.989 453.12 396.701 453.168C396.413 453.216 396.109 453.24 395.789 453.24C395.101 453.24 394.477 453.112 393.917 452.856C393.357 452.6 392.909 452.192 392.573 451.632C392.253 451.072 392.093 450.336 392.093 449.424V441.768H389.117V440.352H392.093V436.608H393.773V440.352H397.733V441.768H393.773V449.064C393.773 450.056 393.989 450.744 394.421 451.128C394.869 451.512 395.437 451.704 396.125 451.704C396.397 451.704 396.645 451.68 396.869 451.632C397.109 451.584 397.357 451.504 397.613 451.392ZM404.915 453.24C404.051 453.24 403.251 453.08 402.515 452.76C401.779 452.44 401.139 451.984 400.595 451.392C400.067 450.8 399.651 450.104 399.347 449.304C399.059 448.504 398.915 447.624 398.915 446.664C398.915 445.72 399.059 444.848 399.347 444.048C399.651 443.248 400.067 442.56 400.595 441.984C401.139 441.392 401.779 440.936 402.515 440.616C403.251 440.296 404.051 440.136 404.915 440.136C405.795 440.136 406.603 440.296 407.339 440.616C408.075 440.936 408.707 441.392 409.235 441.984C409.779 442.56 410.195 443.248 410.483 444.048C410.787 444.848 410.939 445.72 410.939 446.664C410.939 447.624 410.787 448.504 410.483 449.304C410.195 450.104 409.779 450.8 409.235 451.392C408.707 451.984 408.075 452.44 407.339 452.76C406.603 453.08 405.795 453.24 404.915 453.24ZM404.915 451.8C405.747 451.8 406.483 451.592 407.123 451.176C407.779 450.744 408.291 450.144 408.659 449.376C409.043 448.608 409.235 447.704 409.235 446.664C409.235 445.624 409.043 444.728 408.659 443.976C408.291 443.224 407.779 442.64 407.123 442.224C406.483 441.808 405.747 441.6 404.915 441.6C404.099 441.6 403.363 441.808 402.707 442.224C402.067 442.64 401.555 443.224 401.171 443.976C400.803 444.728 400.619 445.624 400.619 446.664C400.619 447.704 400.803 448.608 401.171 449.376C401.555 450.144 402.067 450.744 402.707 451.176C403.363 451.592 404.099 451.8 404.915 451.8ZM415.336 446.232V453H413.656V440.352H415.216V443.232C415.664 442.304 416.32 441.56 417.184 441C418.048 440.44 419 440.16 420.04 440.16V441.912C419.16 441.88 418.36 442.032 417.64 442.368C416.936 442.704 416.376 443.2 415.96 443.856C415.544 444.512 415.336 445.304 415.336 446.232ZM432.072 440.352L425.592 457.632H423.792L425.64 452.832L420.624 440.352H422.424L426.504 450.816L430.368 440.352H432.072ZM444.103 453.24C443.239 453.24 442.439 453.08 441.703 452.76C440.967 452.44 440.327 451.984 439.783 451.392C439.255 450.8 438.839 450.104 438.535 449.304C438.247 448.504 438.103 447.624 438.103 446.664C438.103 445.72 438.247 444.848 438.535 444.048C438.839 443.248 439.255 442.56 439.783 441.984C440.327 441.392 440.967 440.936 441.703 440.616C442.439 440.296 443.239 440.136 444.103 440.136C444.983 440.136 445.791 440.296 446.527 440.616C447.263 440.936 447.895 441.392 448.423 441.984C448.967 442.56 449.383 443.248 449.671 444.048C449.975 444.848 450.127 445.72 450.127 446.664C450.127 447.624 449.975 448.504 449.671 449.304C449.383 450.104 448.967 450.8 448.423 451.392C447.895 451.984 447.263 452.44 446.527 452.76C445.791 453.08 444.983 453.24 444.103 453.24ZM444.103 451.8C444.935 451.8 445.671 451.592 446.311 451.176C446.967 450.744 447.479 450.144 447.847 449.376C448.231 448.608 448.423 447.704 448.423 446.664C448.423 445.624 448.231 444.728 447.847 443.976C447.479 443.224 446.967 442.64 446.311 442.224C445.671 441.808 444.935 441.6 444.103 441.6C443.287 441.6 442.551 441.808 441.895 442.224C441.255 442.64 440.743 443.224 440.359 443.976C439.991 444.728 439.807 445.624 439.807 446.664C439.807 447.704 439.991 448.608 440.359 449.376C440.743 450.144 441.255 450.744 441.895 451.176C442.551 451.592 443.287 451.8 444.103 451.8ZM455.276 453H453.596V441.768H450.62V440.352H453.596V439.2C453.596 438.032 453.9 437.136 454.508 436.512C455.116 435.888 455.972 435.576 457.076 435.576C457.364 435.576 457.628 435.6 457.868 435.648C458.124 435.696 458.356 435.76 458.564 435.84V437.232C458.372 437.152 458.18 437.104 457.988 437.088C457.796 437.056 457.588 437.04 457.364 437.04C456.692 437.04 456.172 437.216 455.804 437.568C455.452 437.904 455.276 438.448 455.276 439.2V440.352H458.996V441.768H455.276V453ZM467.625 445.632V453H465.945V435.768H467.625V442.68C468.009 441.928 468.553 441.312 469.257 440.832C469.961 440.352 470.769 440.112 471.681 440.112C472.993 440.112 474.041 440.52 474.825 441.336C475.625 442.152 476.025 443.304 476.025 444.792V453H474.345V445.368C474.345 444.152 474.073 443.216 473.529 442.56C473.001 441.904 472.217 441.576 471.177 441.576C470.521 441.576 469.921 441.752 469.377 442.104C468.833 442.44 468.401 442.912 468.081 443.52C467.777 444.128 467.625 444.832 467.625 445.632ZM484.626 453.24C483.762 453.24 482.962 453.08 482.226 452.76C481.49 452.44 480.85 451.984 480.306 451.392C479.778 450.8 479.362 450.104 479.058 449.304C478.77 448.504 478.626 447.624 478.626 446.664C478.626 445.72 478.77 444.848 479.058 444.048C479.362 443.248 479.778 442.56 480.306 441.984C480.85 441.392 481.49 440.936 482.226 440.616C482.962 440.296 483.762 440.136 484.626 440.136C485.506 440.136 486.314 440.296 487.05 440.616C487.786 440.936 488.418 441.392 488.946 441.984C489.49 442.56 489.906 443.248 490.194 444.048C490.498 444.848 490.65 445.72 490.65 446.664C490.65 447.624 490.498 448.504 490.194 449.304C489.906 450.104 489.49 450.8 488.946 451.392C488.418 451.984 487.786 452.44 487.05 452.76C486.314 453.08 485.506 453.24 484.626 453.24ZM484.626 451.8C485.458 451.8 486.194 451.592 486.834 451.176C487.49 450.744 488.002 450.144 488.37 449.376C488.754 448.608 488.946 447.704 488.946 446.664C488.946 445.624 488.754 444.728 488.37 443.976C488.002 443.224 487.49 442.64 486.834 442.224C486.194 441.808 485.458 441.6 484.626 441.6C483.81 441.6 483.074 441.808 482.418 442.224C481.778 442.64 481.266 443.224 480.882 443.976C480.514 444.728 480.33 445.624 480.33 446.664C480.33 447.704 480.514 448.608 480.882 449.376C481.266 450.144 481.778 450.744 482.418 451.176C483.074 451.592 483.81 451.8 484.626 451.8ZM503.645 453L500.333 442.584L497.045 453H495.341L491.645 440.352H493.301L496.229 450.624L499.517 440.352H501.173L504.437 450.648L507.365 440.352H509.045L505.325 453H503.645ZM518.162 453H516.362V435.768H518.162V453ZM533.457 451.392V452.88C533.137 453.024 532.833 453.12 532.545 453.168C532.257 453.216 531.953 453.24 531.633 453.24C530.945 453.24 530.321 453.112 529.761 452.856C529.201 452.6 528.753 452.192 528.417 451.632C528.097 451.072 527.937 450.336 527.937 449.424V441.768H524.961V440.352H527.937V436.608H529.617V440.352H533.577V441.768H529.617V449.064C529.617 450.056 529.833 450.744 530.265 451.128C530.713 451.512 531.281 451.704 531.969 451.704C532.241 451.704 532.489 451.68 532.713 451.632C532.953 451.584 533.201 451.504 533.457 451.392ZM537.797 446.232V453H536.117V440.352H537.677V443.232C538.125 442.304 538.781 441.56 539.645 441C540.509 440.44 541.461 440.16 542.501 440.16V441.912C541.621 441.88 540.821 442.032 540.101 442.368C539.397 442.704 538.837 443.2 538.421 443.856C538.005 444.512 537.797 445.304 537.797 446.232ZM552.33 453V450.696C551.962 451.48 551.41 452.104 550.674 452.568C549.938 453.016 549.074 453.24 548.082 453.24C546.77 453.24 545.722 452.904 544.938 452.232C544.154 451.544 543.762 450.632 543.762 449.496C543.762 448.264 544.25 447.336 545.226 446.712C546.202 446.072 547.65 445.752 549.57 445.752C549.954 445.752 550.33 445.76 550.698 445.776C551.066 445.792 551.554 445.832 552.162 445.896V444.816C552.162 443.76 551.89 442.936 551.346 442.344C550.818 441.752 550.074 441.456 549.114 441.456C548.09 441.456 547.274 441.76 546.666 442.368C546.058 442.96 545.746 443.768 545.73 444.792H544.194C544.21 443.848 544.426 443.032 544.842 442.344C545.258 441.64 545.826 441.096 546.546 440.712C547.282 440.312 548.13 440.112 549.09 440.112C550.578 440.112 551.73 440.52 552.546 441.336C553.362 442.152 553.77 443.296 553.77 444.768V453H552.33ZM545.37 449.448C545.37 450.216 545.642 450.84 546.186 451.32C546.73 451.784 547.442 452.016 548.322 452.016C549.506 452.016 550.442 451.664 551.13 450.96C551.818 450.24 552.162 449.288 552.162 448.104V446.976C551.618 446.928 551.146 446.896 550.746 446.88C550.362 446.864 549.994 446.856 549.642 446.856C548.218 446.856 547.146 447.072 546.426 447.504C545.722 447.92 545.37 448.568 545.37 449.448ZM558.984 445.632V453H557.304V440.352H558.864V442.728C559.28 441.96 559.848 441.336 560.568 440.856C561.304 440.36 562.128 440.112 563.04 440.112C564.352 440.112 565.4 440.52 566.184 441.336C566.984 442.152 567.384 443.304 567.384 444.792V453H565.704V445.368C565.704 444.152 565.432 443.216 564.888 442.56C564.36 441.904 563.576 441.576 562.536 441.576C561.88 441.576 561.28 441.752 560.736 442.104C560.192 442.44 559.76 442.912 559.44 443.52C559.136 444.128 558.984 444.832 558.984 445.632ZM580.378 449.472C580.378 450.64 579.938 451.56 579.058 452.232C578.178 452.904 576.954 453.24 575.386 453.24C573.818 453.24 572.57 452.864 571.642 452.112C570.73 451.36 570.21 450.336 570.082 449.04H571.69C571.738 449.936 572.098 450.648 572.77 451.176C573.442 451.704 574.314 451.968 575.386 451.968C576.426 451.968 577.234 451.776 577.81 451.392C578.402 451.008 578.698 450.456 578.698 449.736C578.698 449.112 578.498 448.64 578.098 448.32C577.698 447.984 577.018 447.72 576.058 447.528L574.234 447.168C573.034 446.944 572.122 446.544 571.498 445.968C570.874 445.376 570.562 444.624 570.562 443.712C570.562 443.008 570.754 442.384 571.138 441.84C571.538 441.296 572.082 440.872 572.77 440.568C573.474 440.264 574.282 440.112 575.194 440.112C576.17 440.112 577.018 440.28 577.738 440.616C578.474 440.936 579.058 441.4 579.49 442.008C579.922 442.616 580.162 443.344 580.21 444.192H578.626C578.546 443.312 578.202 442.632 577.594 442.152C576.986 441.656 576.186 441.408 575.194 441.408C574.298 441.408 573.57 441.6 573.01 441.984C572.466 442.368 572.194 442.896 572.194 443.568C572.194 444.192 572.394 444.672 572.794 445.008C573.21 445.344 573.89 445.6 574.834 445.776L576.73 446.136C577.978 446.376 578.898 446.768 579.49 447.312C580.082 447.856 580.378 448.576 580.378 449.472ZM584.977 453H583.297V440.352H584.977V453ZM585.481 437.424C585.481 437.792 585.353 438.096 585.097 438.336C584.857 438.576 584.529 438.696 584.113 438.696C583.729 438.696 583.409 438.576 583.153 438.336C582.897 438.096 582.769 437.792 582.769 437.424C582.769 437.056 582.897 436.76 583.153 436.536C583.409 436.296 583.729 436.176 584.113 436.176C584.529 436.176 584.857 436.296 585.097 436.536C585.353 436.76 585.481 437.056 585.481 437.424ZM595.121 451.392V452.88C594.801 453.024 594.497 453.12 594.209 453.168C593.921 453.216 593.617 453.24 593.297 453.24C592.609 453.24 591.985 453.112 591.425 452.856C590.865 452.6 590.417 452.192 590.081 451.632C589.761 451.072 589.601 450.336 589.601 449.424V441.768H586.625V440.352H589.601V436.608H591.281V440.352H595.241V441.768H591.281V449.064C591.281 450.056 591.497 450.744 591.929 451.128C592.377 451.512 592.945 451.704 593.633 451.704C593.905 451.704 594.153 451.68 594.377 451.632C594.617 451.584 594.865 451.504 595.121 451.392ZM599.461 453H597.781V440.352H599.461V453ZM599.965 437.424C599.965 437.792 599.837 438.096 599.581 438.336C599.341 438.576 599.013 438.696 598.597 438.696C598.213 438.696 597.893 438.576 597.637 438.336C597.381 438.096 597.253 437.792 597.253 437.424C597.253 437.056 597.381 436.76 597.637 436.536C597.893 436.296 598.213 436.176 598.597 436.176C599.013 436.176 599.341 436.296 599.581 436.536C599.837 436.76 599.965 437.056 599.965 437.424ZM608.165 453.24C607.301 453.24 606.501 453.08 605.765 452.76C605.029 452.44 604.389 451.984 603.845 451.392C603.317 450.8 602.901 450.104 602.597 449.304C602.309 448.504 602.165 447.624 602.165 446.664C602.165 445.72 602.309 444.848 602.597 444.048C602.901 443.248 603.317 442.56 603.845 441.984C604.389 441.392 605.029 440.936 605.765 440.616C606.501 440.296 607.301 440.136 608.165 440.136C609.045 440.136 609.853 440.296 610.589 440.616C611.325 440.936 611.957 441.392 612.485 441.984C613.029 442.56 613.445 443.248 613.733 444.048C614.037 444.848 614.189 445.72 614.189 446.664C614.189 447.624 614.037 448.504 613.733 449.304C613.445 450.104 613.029 450.8 612.485 451.392C611.957 451.984 611.325 452.44 610.589 452.76C609.853 453.08 609.045 453.24 608.165 453.24ZM608.165 451.8C608.997 451.8 609.733 451.592 610.373 451.176C611.029 450.744 611.541 450.144 611.909 449.376C612.293 448.608 612.485 447.704 612.485 446.664C612.485 445.624 612.293 444.728 611.909 443.976C611.541 443.224 611.029 442.64 610.373 442.224C609.733 441.808 608.997 441.6 608.165 441.6C607.349 441.6 606.613 441.808 605.957 442.224C605.317 442.64 604.805 443.224 604.421 443.976C604.053 444.728 603.869 445.624 603.869 446.664C603.869 447.704 604.053 448.608 604.421 449.376C604.805 450.144 605.317 450.744 605.957 451.176C606.613 451.592 607.349 451.8 608.165 451.8ZM618.586 445.632V453H616.906V440.352H618.466V442.728C618.882 441.96 619.45 441.336 620.17 440.856C620.906 440.36 621.73 440.112 622.642 440.112C623.954 440.112 625.002 440.52 625.786 441.336C626.586 442.152 626.986 443.304 626.986 444.792V453H625.306V445.368C625.306 444.152 625.034 443.216 624.49 442.56C623.962 441.904 623.178 441.576 622.138 441.576C621.482 441.576 620.882 441.752 620.338 442.104C619.794 442.44 619.362 442.912 619.042 443.52C618.738 444.128 618.586 444.832 618.586 445.632ZM635.491 453.24C634.307 453.24 633.267 452.968 632.371 452.424C631.491 451.864 630.803 451.08 630.307 450.072C629.827 449.064 629.587 447.896 629.587 446.568C629.587 445.336 629.835 444.24 630.331 443.28C630.843 442.304 631.531 441.536 632.395 440.976C633.275 440.4 634.275 440.112 635.395 440.112C636.291 440.112 637.099 440.288 637.819 440.64C638.555 440.976 639.171 441.456 639.667 442.08C640.179 442.704 640.555 443.44 640.795 444.288C641.051 445.12 641.139 446.048 641.059 447.072H630.499V445.92H639.307C639.243 444.496 638.859 443.392 638.155 442.608C637.467 441.808 636.539 441.408 635.371 441.408C634.555 441.408 633.835 441.624 633.211 442.056C632.603 442.472 632.123 443.064 631.771 443.832C631.419 444.6 631.243 445.512 631.243 446.568C631.243 447.656 631.411 448.608 631.747 449.424C632.083 450.224 632.563 450.84 633.187 451.272C633.827 451.704 634.587 451.92 635.467 451.92C636.523 451.92 637.395 451.64 638.083 451.08C638.787 450.504 639.243 449.72 639.451 448.728H641.107C640.819 450.12 640.171 451.224 639.163 452.04C638.171 452.84 636.947 453.24 635.491 453.24ZM642.665 446.664C642.665 445.368 642.889 444.232 643.337 443.256C643.801 442.264 644.449 441.496 645.281 440.952C646.113 440.392 647.097 440.112 648.233 440.112C649.177 440.112 650.033 440.368 650.801 440.88C651.569 441.376 652.161 442.08 652.577 442.992V435.768H654.257V453H652.697V450.336C652.249 451.248 651.633 451.96 650.849 452.472C650.081 452.984 649.209 453.24 648.233 453.24C647.097 453.24 646.113 452.968 645.281 452.424C644.449 451.864 643.801 451.088 643.337 450.096C642.889 449.104 642.665 447.96 642.665 446.664ZM644.369 446.664C644.369 448.28 644.745 449.536 645.497 450.432C646.249 451.328 647.241 451.776 648.473 451.776C649.305 451.776 650.025 451.568 650.633 451.152C651.257 450.736 651.737 450.144 652.073 449.376C652.425 448.592 652.601 447.672 652.601 446.616C652.601 445.56 652.417 444.656 652.049 443.904C651.697 443.152 651.209 442.576 650.585 442.176C649.977 441.776 649.273 441.576 648.473 441.576C647.241 441.576 646.249 442.024 645.497 442.92C644.745 443.816 644.369 445.064 644.369 446.664ZM665.698 453H664.018V441.768H661.042V440.352H664.018V439.2C664.018 438.032 664.322 437.136 664.93 436.512C665.538 435.888 666.394 435.576 667.498 435.576C667.786 435.576 668.05 435.6 668.29 435.648C668.546 435.696 668.778 435.76 668.986 435.84V437.232C668.794 437.152 668.602 437.104 668.41 437.088C668.218 437.056 668.01 437.04 667.786 437.04C667.114 437.04 666.594 437.216 666.226 437.568C665.874 437.904 665.698 438.448 665.698 439.2V440.352H669.418V441.768H665.698V453ZM673.031 446.232V453H671.351V440.352H672.911V443.232C673.359 442.304 674.015 441.56 674.879 441C675.743 440.44 676.695 440.16 677.735 440.16V441.912C676.855 441.88 676.055 442.032 675.335 442.368C674.631 442.704 674.071 443.2 673.655 443.856C673.239 444.512 673.031 445.304 673.031 446.232ZM684.829 453.24C683.965 453.24 683.165 453.08 682.429 452.76C681.693 452.44 681.053 451.984 680.509 451.392C679.981 450.8 679.565 450.104 679.261 449.304C678.973 448.504 678.829 447.624 678.829 446.664C678.829 445.72 678.973 444.848 679.261 444.048C679.565 443.248 679.981 442.56 680.509 441.984C681.053 441.392 681.693 440.936 682.429 440.616C683.165 440.296 683.965 440.136 684.829 440.136C685.709 440.136 686.517 440.296 687.253 440.616C687.989 440.936 688.621 441.392 689.149 441.984C689.693 442.56 690.109 443.248 690.397 444.048C690.701 444.848 690.853 445.72 690.853 446.664C690.853 447.624 690.701 448.504 690.397 449.304C690.109 450.104 689.693 450.8 689.149 451.392C688.621 451.984 687.989 452.44 687.253 452.76C686.517 453.08 685.709 453.24 684.829 453.24ZM684.829 451.8C685.661 451.8 686.397 451.592 687.037 451.176C687.693 450.744 688.205 450.144 688.573 449.376C688.957 448.608 689.149 447.704 689.149 446.664C689.149 445.624 688.957 444.728 688.573 443.976C688.205 443.224 687.693 442.64 687.037 442.224C686.397 441.808 685.661 441.6 684.829 441.6C684.013 441.6 683.277 441.808 682.621 442.224C681.981 442.64 681.469 443.224 681.085 443.976C680.717 444.728 680.533 445.624 680.533 446.664C680.533 447.704 680.717 448.608 681.085 449.376C681.469 450.144 681.981 450.744 682.621 451.176C683.277 451.592 684.013 451.8 684.829 451.8ZM695.25 453H693.57V440.352H695.13V442.728C695.562 441.912 696.13 441.272 696.834 440.808C697.554 440.344 698.362 440.112 699.258 440.112C700.25 440.112 701.09 440.368 701.778 440.88C702.482 441.392 702.962 442.112 703.218 443.04C703.602 442.144 704.178 441.432 704.946 440.904C705.714 440.376 706.594 440.112 707.586 440.112C708.898 440.112 709.93 440.528 710.682 441.36C711.45 442.176 711.834 443.32 711.834 444.792V453H710.178V445.344C710.178 444.128 709.906 443.2 709.362 442.56C708.834 441.904 708.058 441.576 707.034 441.576C706.394 441.576 705.81 441.752 705.282 442.104C704.754 442.44 704.33 442.912 704.01 443.52C703.706 444.112 703.554 444.8 703.554 445.584V453H701.874V445.344C701.874 444.128 701.61 443.2 701.082 442.56C700.554 441.904 699.77 441.576 698.73 441.576C698.09 441.576 697.498 441.752 696.954 442.104C696.426 442.44 696.01 442.912 695.706 443.52C695.402 444.112 695.25 444.8 695.25 445.584V453ZM733.055 435.768V447.096C733.055 448.376 732.791 449.488 732.263 450.432C731.751 451.376 731.023 452.104 730.079 452.616C729.135 453.112 728.031 453.36 726.767 453.36C725.487 453.36 724.375 453.112 723.431 452.616C722.487 452.104 721.751 451.376 721.223 450.432C720.711 449.488 720.455 448.376 720.455 447.096V435.768H722.255V447.192C722.255 448.12 722.447 448.928 722.831 449.616C723.215 450.304 723.743 450.832 724.415 451.2C725.087 451.568 725.871 451.752 726.767 451.752C727.663 451.752 728.447 451.568 729.119 451.2C729.791 450.832 730.311 450.304 730.679 449.616C731.063 448.928 731.255 448.12 731.255 447.192V435.768H733.055ZM737.797 453H735.757L741.445 444.168L736.189 435.768H738.253L742.693 442.944L747.229 435.768H749.221L743.893 444.216L749.485 453H747.421L742.621 445.392L737.797 453ZM763.637 451.392V452.88C763.317 453.024 763.013 453.12 762.725 453.168C762.437 453.216 762.133 453.24 761.813 453.24C761.125 453.24 760.501 453.112 759.941 452.856C759.381 452.6 758.933 452.192 758.597 451.632C758.277 451.072 758.117 450.336 758.117 449.424V441.768H755.141V440.352H758.117V436.608H759.797V440.352H763.757V441.768H759.797V449.064C759.797 450.056 760.013 450.744 760.445 451.128C760.893 451.512 761.461 451.704 762.149 451.704C762.421 451.704 762.669 451.68 762.893 451.632C763.133 451.584 763.381 451.504 763.637 451.392ZM770.939 453.24C770.075 453.24 769.275 453.08 768.539 452.76C767.803 452.44 767.163 451.984 766.619 451.392C766.091 450.8 765.675 450.104 765.371 449.304C765.083 448.504 764.939 447.624 764.939 446.664C764.939 445.72 765.083 444.848 765.371 444.048C765.675 443.248 766.091 442.56 766.619 441.984C767.163 441.392 767.803 440.936 768.539 440.616C769.275 440.296 770.075 440.136 770.939 440.136C771.819 440.136 772.627 440.296 773.363 440.616C774.099 440.936 774.731 441.392 775.259 441.984C775.803 442.56 776.219 443.248 776.507 444.048C776.811 444.848 776.963 445.72 776.963 446.664C776.963 447.624 776.811 448.504 776.507 449.304C776.219 450.104 775.803 450.8 775.259 451.392C774.731 451.984 774.099 452.44 773.363 452.76C772.627 453.08 771.819 453.24 770.939 453.24ZM770.939 451.8C771.771 451.8 772.507 451.592 773.147 451.176C773.803 450.744 774.315 450.144 774.683 449.376C775.067 448.608 775.259 447.704 775.259 446.664C775.259 445.624 775.067 444.728 774.683 443.976C774.315 443.224 773.803 442.64 773.147 442.224C772.507 441.808 771.771 441.6 770.939 441.6C770.123 441.6 769.387 441.808 768.731 442.224C768.091 442.64 767.579 443.224 767.195 443.976C766.827 444.728 766.643 445.624 766.643 446.664C766.643 447.704 766.827 448.608 767.195 449.376C767.579 450.144 768.091 450.744 768.731 451.176C769.387 451.592 770.123 451.8 770.939 451.8ZM796.287 446.664C796.287 447.96 796.055 449.104 795.591 450.096C795.143 451.088 794.503 451.864 793.671 452.424C792.855 452.968 791.879 453.24 790.743 453.24C789.799 453.24 788.943 452.992 788.175 452.496C787.407 452 786.807 451.304 786.375 450.408V457.632H784.695V440.352H786.255V443.088C786.687 442.144 787.303 441.416 788.103 440.904C788.903 440.376 789.783 440.112 790.743 440.112C791.863 440.112 792.839 440.392 793.671 440.952C794.503 441.496 795.143 442.264 795.591 443.256C796.055 444.232 796.287 445.368 796.287 446.664ZM794.583 446.664C794.583 445.064 794.199 443.816 793.431 442.92C792.679 442.024 791.687 441.576 790.455 441.576C789.687 441.576 788.991 441.776 788.367 442.176C787.743 442.576 787.247 443.152 786.879 443.904C786.527 444.656 786.351 445.576 786.351 446.664C786.351 447.704 786.527 448.608 786.879 449.376C787.231 450.144 787.719 450.736 788.343 451.152C788.967 451.568 789.671 451.776 790.455 451.776C791.687 451.776 792.679 451.328 793.431 450.432C794.199 449.536 794.583 448.28 794.583 446.664ZM800.672 446.232V453H798.992V440.352H800.552V443.232C801 442.304 801.656 441.56 802.52 441C803.384 440.44 804.336 440.16 805.376 440.16V441.912C804.496 441.88 803.696 442.032 802.976 442.368C802.272 442.704 801.712 443.2 801.296 443.856C800.88 444.512 800.672 445.304 800.672 446.232ZM812.47 453.24C811.606 453.24 810.806 453.08 810.07 452.76C809.334 452.44 808.694 451.984 808.15 451.392C807.622 450.8 807.206 450.104 806.902 449.304C806.614 448.504 806.47 447.624 806.47 446.664C806.47 445.72 806.614 444.848 806.902 444.048C807.206 443.248 807.622 442.56 808.15 441.984C808.694 441.392 809.334 440.936 810.07 440.616C810.806 440.296 811.606 440.136 812.47 440.136C813.35 440.136 814.158 440.296 814.894 440.616C815.63 440.936 816.262 441.392 816.79 441.984C817.334 442.56 817.75 443.248 818.038 444.048C818.342 444.848 818.494 445.72 818.494 446.664C818.494 447.624 818.342 448.504 818.038 449.304C817.75 450.104 817.334 450.8 816.79 451.392C816.262 451.984 815.63 452.44 814.894 452.76C814.158 453.08 813.35 453.24 812.47 453.24ZM812.47 451.8C813.302 451.8 814.038 451.592 814.678 451.176C815.334 450.744 815.846 450.144 816.214 449.376C816.598 448.608 816.79 447.704 816.79 446.664C816.79 445.624 816.598 444.728 816.214 443.976C815.846 443.224 815.334 442.64 814.678 442.224C814.038 441.808 813.302 441.6 812.47 441.6C811.654 441.6 810.918 441.808 810.262 442.224C809.622 442.64 809.11 443.224 808.726 443.976C808.358 444.728 808.174 445.624 808.174 446.664C808.174 447.704 808.358 448.608 808.726 449.376C809.11 450.144 809.622 450.744 810.262 451.176C810.918 451.592 811.654 451.8 812.47 451.8ZM820.275 446.664C820.275 445.368 820.499 444.232 820.947 443.256C821.411 442.264 822.059 441.496 822.891 440.952C823.723 440.392 824.707 440.112 825.843 440.112C826.787 440.112 827.643 440.368 828.411 440.88C829.179 441.376 829.771 442.08 830.187 442.992V435.768H831.867V453H830.307V450.336C829.859 451.248 829.243 451.96 828.459 452.472C827.691 452.984 826.819 453.24 825.843 453.24C824.707 453.24 823.723 452.968 822.891 452.424C822.059 451.864 821.411 451.088 820.947 450.096C820.499 449.104 820.275 447.96 820.275 446.664ZM821.979 446.664C821.979 448.28 822.355 449.536 823.107 450.432C823.859 451.328 824.851 451.776 826.083 451.776C826.915 451.776 827.635 451.568 828.243 451.152C828.867 450.736 829.347 450.144 829.683 449.376C830.035 448.592 830.211 447.672 830.211 446.616C830.211 445.56 830.027 444.656 829.659 443.904C829.307 443.152 828.819 442.576 828.195 442.176C827.587 441.776 826.883 441.576 826.083 441.576C824.851 441.576 823.859 442.024 823.107 442.92C822.355 443.816 821.979 445.064 821.979 446.664ZM843.596 447.912V440.352H845.252V453H843.692V450.72C843.372 451.456 842.852 452.064 842.132 452.544C841.412 453.008 840.588 453.24 839.66 453.24C838.812 453.24 838.06 453.08 837.404 452.76C836.764 452.424 836.268 451.912 835.916 451.224C835.564 450.52 835.388 449.64 835.388 448.584V440.352H837.068V448.224C837.068 449.504 837.356 450.424 837.932 450.984C838.508 451.528 839.236 451.8 840.116 451.8C840.788 451.8 841.38 451.632 841.892 451.296C842.42 450.96 842.836 450.496 843.14 449.904C843.444 449.312 843.596 448.648 843.596 447.912ZM853.618 453.264C852.498 453.264 851.514 452.984 850.666 452.424C849.818 451.864 849.154 451.088 848.674 450.096C848.194 449.104 847.954 447.96 847.954 446.664C847.954 445.384 848.194 444.256 848.674 443.28C849.154 442.288 849.818 441.512 850.666 440.952C851.53 440.392 852.514 440.112 853.618 440.112C854.594 440.112 855.474 440.32 856.258 440.736C857.042 441.152 857.682 441.744 858.178 442.512C858.69 443.28 859.026 444.192 859.186 445.248H857.482C857.29 444.096 856.85 443.2 856.162 442.56C855.49 441.904 854.642 441.576 853.618 441.576C852.834 441.576 852.138 441.792 851.53 442.224C850.938 442.656 850.474 443.248 850.138 444C849.818 444.752 849.658 445.64 849.658 446.664C849.658 447.688 849.818 448.592 850.138 449.376C850.474 450.144 850.938 450.744 851.53 451.176C852.138 451.592 852.834 451.8 853.618 451.8C854.658 451.8 855.514 451.48 856.186 450.84C856.858 450.184 857.29 449.272 857.482 448.104H859.186C859.042 449.176 858.714 450.096 858.202 450.864C857.706 451.632 857.066 452.224 856.282 452.64C855.498 453.056 854.61 453.264 853.618 453.264ZM868.402 451.392V452.88C868.082 453.024 867.778 453.12 867.49 453.168C867.202 453.216 866.898 453.24 866.578 453.24C865.89 453.24 865.266 453.112 864.706 452.856C864.146 452.6 863.698 452.192 863.362 451.632C863.042 451.072 862.882 450.336 862.882 449.424V441.768H859.906V440.352H862.882V436.608H864.562V440.352H868.522V441.768H864.562V449.064C864.562 450.056 864.778 450.744 865.21 451.128C865.658 451.512 866.226 451.704 866.914 451.704C867.186 451.704 867.434 451.68 867.658 451.632C867.898 451.584 868.146 451.504 868.402 451.392ZM409.303 482V479.696C408.935 480.48 408.383 481.104 407.647 481.568C406.911 482.016 406.047 482.24 405.055 482.24C403.743 482.24 402.695 481.904 401.911 481.232C401.127 480.544 400.735 479.632 400.735 478.496C400.735 477.264 401.223 476.336 402.199 475.712C403.175 475.072 404.623 474.752 406.543 474.752C406.927 474.752 407.303 474.76 407.671 474.776C408.039 474.792 408.527 474.832 409.135 474.896V473.816C409.135 472.76 408.863 471.936 408.319 471.344C407.791 470.752 407.047 470.456 406.087 470.456C405.063 470.456 404.247 470.76 403.639 471.368C403.031 471.96 402.719 472.768 402.703 473.792H401.167C401.183 472.848 401.399 472.032 401.815 471.344C402.231 470.64 402.799 470.096 403.519 469.712C404.255 469.312 405.103 469.112 406.063 469.112C407.551 469.112 408.703 469.52 409.519 470.336C410.335 471.152 410.743 472.296 410.743 473.768V482H409.303ZM402.343 478.448C402.343 479.216 402.615 479.84 403.159 480.32C403.703 480.784 404.415 481.016 405.295 481.016C406.479 481.016 407.415 480.664 408.103 479.96C408.791 479.24 409.135 478.288 409.135 477.104V475.976C408.591 475.928 408.119 475.896 407.719 475.88C407.335 475.864 406.967 475.856 406.615 475.856C405.191 475.856 404.119 476.072 403.399 476.504C402.695 476.92 402.343 477.568 402.343 478.448ZM415.957 474.632V482H414.277V469.352H415.837V471.728C416.253 470.96 416.821 470.336 417.541 469.856C418.277 469.36 419.101 469.112 420.013 469.112C421.325 469.112 422.373 469.52 423.157 470.336C423.957 471.152 424.357 472.304 424.357 473.792V482H422.677V474.368C422.677 473.152 422.405 472.216 421.861 471.56C421.333 470.904 420.549 470.576 419.509 470.576C418.853 470.576 418.253 470.752 417.709 471.104C417.165 471.44 416.733 471.912 416.413 472.52C416.109 473.128 415.957 473.832 415.957 474.632ZM426.958 475.664C426.958 474.368 427.182 473.232 427.63 472.256C428.094 471.264 428.742 470.496 429.574 469.952C430.406 469.392 431.39 469.112 432.526 469.112C433.47 469.112 434.326 469.368 435.094 469.88C435.862 470.376 436.454 471.08 436.87 471.992V464.768H438.55V482H436.99V479.336C436.542 480.248 435.926 480.96 435.142 481.472C434.374 481.984 433.502 482.24 432.526 482.24C431.39 482.24 430.406 481.968 429.574 481.424C428.742 480.864 428.094 480.088 427.63 479.096C427.182 478.104 426.958 476.96 426.958 475.664ZM428.662 475.664C428.662 477.28 429.038 478.536 429.79 479.432C430.542 480.328 431.534 480.776 432.766 480.776C433.598 480.776 434.318 480.568 434.926 480.152C435.55 479.736 436.03 479.144 436.366 478.376C436.718 477.592 436.894 476.672 436.894 475.616C436.894 474.56 436.71 473.656 436.342 472.904C435.99 472.152 435.502 471.576 434.878 471.176C434.27 470.776 433.566 470.576 432.766 470.576C431.534 470.576 430.542 471.024 429.79 471.92C429.038 472.816 428.662 474.064 428.662 475.664ZM453.711 480.392V481.88C453.391 482.024 453.087 482.12 452.799 482.168C452.511 482.216 452.207 482.24 451.887 482.24C451.199 482.24 450.575 482.112 450.015 481.856C449.455 481.6 449.007 481.192 448.671 480.632C448.351 480.072 448.191 479.336 448.191 478.424V470.768H445.215V469.352H448.191V465.608H449.871V469.352H453.831V470.768H449.871V478.064C449.871 479.056 450.087 479.744 450.519 480.128C450.967 480.512 451.535 480.704 452.223 480.704C452.495 480.704 452.743 480.68 452.967 480.632C453.207 480.584 453.455 480.504 453.711 480.392ZM458.051 474.632V482H456.371V464.768H458.051V471.68C458.435 470.928 458.979 470.312 459.683 469.832C460.387 469.352 461.195 469.112 462.107 469.112C463.419 469.112 464.467 469.52 465.251 470.336C466.051 471.152 466.451 472.304 466.451 473.792V482H464.771V474.368C464.771 473.152 464.499 472.216 463.955 471.56C463.427 470.904 462.643 470.576 461.603 470.576C460.947 470.576 460.347 470.752 459.803 471.104C459.259 471.44 458.827 471.912 458.507 472.52C458.203 473.128 458.051 473.832 458.051 474.632ZM474.956 482.24C473.772 482.24 472.732 481.968 471.836 481.424C470.956 480.864 470.268 480.08 469.772 479.072C469.292 478.064 469.052 476.896 469.052 475.568C469.052 474.336 469.3 473.24 469.796 472.28C470.308 471.304 470.996 470.536 471.86 469.976C472.74 469.4 473.74 469.112 474.86 469.112C475.756 469.112 476.564 469.288 477.284 469.64C478.02 469.976 478.636 470.456 479.132 471.08C479.644 471.704 480.02 472.44 480.26 473.288C480.516 474.12 480.604 475.048 480.524 476.072H469.964V474.92H478.772C478.708 473.496 478.324 472.392 477.62 471.608C476.932 470.808 476.004 470.408 474.836 470.408C474.02 470.408 473.3 470.624 472.676 471.056C472.068 471.472 471.588 472.064 471.236 472.832C470.884 473.6 470.708 474.512 470.708 475.568C470.708 476.656 470.876 477.608 471.212 478.424C471.548 479.224 472.028 479.84 472.652 480.272C473.292 480.704 474.052 480.92 474.932 480.92C475.988 480.92 476.86 480.64 477.548 480.08C478.252 479.504 478.708 478.72 478.916 477.728H480.572C480.284 479.12 479.636 480.224 478.628 481.04C477.636 481.84 476.412 482.24 474.956 482.24ZM489.996 482H488.316V464.768H489.996V482ZM498.605 482.24C497.421 482.24 496.381 481.968 495.485 481.424C494.605 480.864 493.917 480.08 493.421 479.072C492.941 478.064 492.701 476.896 492.701 475.568C492.701 474.336 492.949 473.24 493.445 472.28C493.957 471.304 494.645 470.536 495.509 469.976C496.389 469.4 497.389 469.112 498.509 469.112C499.405 469.112 500.213 469.288 500.933 469.64C501.669 469.976 502.285 470.456 502.781 471.08C503.293 471.704 503.669 472.44 503.909 473.288C504.165 474.12 504.253 475.048 504.173 476.072H493.613V474.92H502.421C502.357 473.496 501.973 472.392 501.269 471.608C500.581 470.808 499.653 470.408 498.485 470.408C497.669 470.408 496.949 470.624 496.325 471.056C495.717 471.472 495.237 472.064 494.885 472.832C494.533 473.6 494.357 474.512 494.357 475.568C494.357 476.656 494.525 477.608 494.861 478.424C495.197 479.224 495.677 479.84 496.301 480.272C496.941 480.704 497.701 480.92 498.581 480.92C499.637 480.92 500.509 480.64 501.197 480.08C501.901 479.504 502.357 478.72 502.565 477.728H504.221C503.933 479.12 503.285 480.224 502.277 481.04C501.285 481.84 500.061 482.24 498.605 482.24ZM516.405 478.472C516.405 479.64 515.965 480.56 515.085 481.232C514.205 481.904 512.981 482.24 511.413 482.24C509.845 482.24 508.597 481.864 507.669 481.112C506.757 480.36 506.237 479.336 506.109 478.04H507.717C507.765 478.936 508.125 479.648 508.797 480.176C509.469 480.704 510.341 480.968 511.413 480.968C512.453 480.968 513.261 480.776 513.837 480.392C514.429 480.008 514.725 479.456 514.725 478.736C514.725 478.112 514.525 477.64 514.125 477.32C513.725 476.984 513.045 476.72 512.085 476.528L510.261 476.168C509.061 475.944 508.149 475.544 507.525 474.968C506.901 474.376 506.589 473.624 506.589 472.712C506.589 472.008 506.781 471.384 507.165 470.84C507.565 470.296 508.109 469.872 508.797 469.568C509.501 469.264 510.309 469.112 511.221 469.112C512.197 469.112 513.045 469.28 513.765 469.616C514.501 469.936 515.085 470.4 515.517 471.008C515.949 471.616 516.189 472.344 516.237 473.192H514.653C514.573 472.312 514.229 471.632 513.621 471.152C513.013 470.656 512.213 470.408 511.221 470.408C510.325 470.408 509.597 470.6 509.037 470.984C508.493 471.368 508.221 471.896 508.221 472.568C508.221 473.192 508.421 473.672 508.821 474.008C509.237 474.344 509.917 474.6 510.861 474.776L512.757 475.136C514.005 475.376 514.925 475.768 515.517 476.312C516.109 476.856 516.405 477.576 516.405 478.472ZM528.78 478.472C528.78 479.64 528.34 480.56 527.46 481.232C526.58 481.904 525.356 482.24 523.788 482.24C522.22 482.24 520.972 481.864 520.044 481.112C519.132 480.36 518.612 479.336 518.484 478.04H520.092C520.14 478.936 520.5 479.648 521.172 480.176C521.844 480.704 522.716 480.968 523.788 480.968C524.828 480.968 525.636 480.776 526.212 480.392C526.804 480.008 527.1 479.456 527.1 478.736C527.1 478.112 526.9 477.64 526.5 477.32C526.1 476.984 525.42 476.72 524.46 476.528L522.636 476.168C521.436 475.944 520.524 475.544 519.9 474.968C519.276 474.376 518.964 473.624 518.964 472.712C518.964 472.008 519.156 471.384 519.54 470.84C519.94 470.296 520.484 469.872 521.172 469.568C521.876 469.264 522.684 469.112 523.596 469.112C524.572 469.112 525.42 469.28 526.14 469.616C526.876 469.936 527.46 470.4 527.892 471.008C528.324 471.616 528.564 472.344 528.612 473.192H527.028C526.948 472.312 526.604 471.632 525.996 471.152C525.388 470.656 524.588 470.408 523.596 470.408C522.7 470.408 521.972 470.6 521.412 470.984C520.868 471.368 520.596 471.896 520.596 472.568C520.596 473.192 520.796 473.672 521.196 474.008C521.612 474.344 522.292 474.6 523.236 474.776L525.132 475.136C526.38 475.376 527.3 475.768 527.892 476.312C528.484 476.856 528.78 477.576 528.78 478.472ZM536.763 482.24C535.899 482.24 535.099 482.08 534.363 481.76C533.627 481.44 532.987 480.984 532.443 480.392C531.915 479.8 531.499 479.104 531.195 478.304C530.907 477.504 530.763 476.624 530.763 475.664C530.763 474.72 530.907 473.848 531.195 473.048C531.499 472.248 531.915 471.56 532.443 470.984C532.987 470.392 533.627 469.936 534.363 469.616C535.099 469.296 535.899 469.136 536.763 469.136C537.643 469.136 538.451 469.296 539.187 469.616C539.923 469.936 540.555 470.392 541.083 470.984C541.627 471.56 542.043 472.248 542.331 473.048C542.635 473.848 542.787 474.72 542.787 475.664C542.787 476.624 542.635 477.504 542.331 478.304C542.043 479.104 541.627 479.8 541.083 480.392C540.555 480.984 539.923 481.44 539.187 481.76C538.451 482.08 537.643 482.24 536.763 482.24ZM536.763 480.8C537.595 480.8 538.331 480.592 538.971 480.176C539.627 479.744 540.139 479.144 540.507 478.376C540.891 477.608 541.083 476.704 541.083 475.664C541.083 474.624 540.891 473.728 540.507 472.976C540.139 472.224 539.627 471.64 538.971 471.224C538.331 470.808 537.595 470.6 536.763 470.6C535.947 470.6 535.211 470.808 534.555 471.224C533.915 471.64 533.403 472.224 533.019 472.976C532.651 473.728 532.467 474.624 532.467 475.664C532.467 476.704 532.651 477.608 533.019 478.376C533.403 479.144 533.915 479.744 534.555 480.176C535.211 480.592 535.947 480.8 536.763 480.8ZM547.184 474.632V482H545.504V469.352H547.064V471.728C547.48 470.96 548.048 470.336 548.768 469.856C549.504 469.36 550.328 469.112 551.24 469.112C552.552 469.112 553.6 469.52 554.384 470.336C555.184 471.152 555.584 472.304 555.584 473.792V482H553.904V474.368C553.904 473.152 553.632 472.216 553.088 471.56C552.56 470.904 551.776 470.576 550.736 470.576C550.08 470.576 549.48 470.752 548.936 471.104C548.392 471.44 547.96 471.912 547.64 472.52C547.336 473.128 547.184 473.832 547.184 474.632ZM568.577 478.472C568.577 479.64 568.137 480.56 567.257 481.232C566.377 481.904 565.153 482.24 563.585 482.24C562.017 482.24 560.769 481.864 559.841 481.112C558.929 480.36 558.409 479.336 558.281 478.04H559.889C559.937 478.936 560.297 479.648 560.969 480.176C561.641 480.704 562.513 480.968 563.585 480.968C564.625 480.968 565.433 480.776 566.009 480.392C566.601 480.008 566.897 479.456 566.897 478.736C566.897 478.112 566.697 477.64 566.297 477.32C565.897 476.984 565.217 476.72 564.257 476.528L562.433 476.168C561.233 475.944 560.321 475.544 559.697 474.968C559.073 474.376 558.761 473.624 558.761 472.712C558.761 472.008 558.953 471.384 559.337 470.84C559.737 470.296 560.281 469.872 560.969 469.568C561.673 469.264 562.481 469.112 563.393 469.112C564.369 469.112 565.217 469.28 565.937 469.616C566.673 469.936 567.257 470.4 567.689 471.008C568.121 471.616 568.361 472.344 568.409 473.192H566.825C566.745 472.312 566.401 471.632 565.793 471.152C565.185 470.656 564.385 470.408 563.393 470.408C562.497 470.408 561.769 470.6 561.209 470.984C560.665 471.368 560.393 471.896 560.393 472.568C560.393 473.192 560.593 473.672 560.993 474.008C561.409 474.344 562.089 474.6 563.033 474.776L564.929 475.136C566.177 475.376 567.097 475.768 567.689 476.312C568.281 476.856 568.577 477.576 568.577 478.472ZM578.432 482H576.632V464.768H578.432V482ZM588.902 482H587.222V464.768H588.902V482ZM597.511 482.24C596.327 482.24 595.287 481.968 594.391 481.424C593.511 480.864 592.823 480.08 592.327 479.072C591.847 478.064 591.607 476.896 591.607 475.568C591.607 474.336 591.855 473.24 592.351 472.28C592.863 471.304 593.551 470.536 594.415 469.976C595.295 469.4 596.295 469.112 597.415 469.112C598.311 469.112 599.119 469.288 599.839 469.64C600.575 469.976 601.191 470.456 601.687 471.08C602.199 471.704 602.575 472.44 602.815 473.288C603.071 474.12 603.159 475.048 603.079 476.072H592.519V474.92H601.327C601.263 473.496 600.879 472.392 600.175 471.608C599.487 470.808 598.559 470.408 597.391 470.408C596.575 470.408 595.855 470.624 595.231 471.056C594.623 471.472 594.143 472.064 593.791 472.832C593.439 473.6 593.263 474.512 593.263 475.568C593.263 476.656 593.431 477.608 593.767 478.424C594.103 479.224 594.583 479.84 595.207 480.272C595.847 480.704 596.607 480.92 597.487 480.92C598.543 480.92 599.415 480.64 600.103 480.08C600.807 479.504 601.263 478.72 601.471 477.728H603.127C602.839 479.12 602.191 480.224 601.183 481.04C600.191 481.84 598.967 482.24 597.511 482.24ZM613.631 482V479.696C613.263 480.48 612.711 481.104 611.975 481.568C611.239 482.016 610.375 482.24 609.383 482.24C608.071 482.24 607.023 481.904 606.239 481.232C605.455 480.544 605.063 479.632 605.063 478.496C605.063 477.264 605.551 476.336 606.527 475.712C607.503 475.072 608.951 474.752 610.871 474.752C611.255 474.752 611.631 474.76 611.999 474.776C612.367 474.792 612.855 474.832 613.463 474.896V473.816C613.463 472.76 613.191 471.936 612.647 471.344C612.119 470.752 611.375 470.456 610.415 470.456C609.391 470.456 608.575 470.76 607.967 471.368C607.359 471.96 607.047 472.768 607.031 473.792H605.495C605.511 472.848 605.727 472.032 606.143 471.344C606.559 470.64 607.127 470.096 607.847 469.712C608.583 469.312 609.431 469.112 610.391 469.112C611.879 469.112 613.031 469.52 613.847 470.336C614.663 471.152 615.071 472.296 615.071 473.768V482H613.631ZM606.671 478.448C606.671 479.216 606.943 479.84 607.487 480.32C608.031 480.784 608.743 481.016 609.623 481.016C610.807 481.016 611.743 480.664 612.431 479.96C613.119 479.24 613.463 478.288 613.463 477.104V475.976C612.919 475.928 612.447 475.896 612.047 475.88C611.663 475.864 611.295 475.856 610.943 475.856C609.519 475.856 608.447 476.072 607.727 476.504C607.023 476.92 606.671 477.568 606.671 478.448ZM620.285 475.232V482H618.605V469.352H620.165V472.232C620.613 471.304 621.269 470.56 622.133 470C622.997 469.44 623.949 469.16 624.989 469.16V470.912C624.109 470.88 623.309 471.032 622.589 471.368C621.885 471.704 621.325 472.2 620.909 472.856C620.493 473.512 620.285 474.304 620.285 475.232ZM628.723 474.632V482H627.043V469.352H628.603V471.728C629.019 470.96 629.587 470.336 630.307 469.856C631.043 469.36 631.867 469.112 632.779 469.112C634.091 469.112 635.139 469.52 635.923 470.336C636.723 471.152 637.123 472.304 637.123 473.792V482H635.443V474.368C635.443 473.152 635.171 472.216 634.627 471.56C634.099 470.904 633.315 470.576 632.275 470.576C631.619 470.576 631.019 470.752 630.475 471.104C629.931 471.44 629.499 471.912 629.179 472.52C628.875 473.128 628.723 473.832 628.723 474.632ZM647.141 480.392V481.88C646.821 482.024 646.517 482.12 646.229 482.168C645.941 482.216 645.637 482.24 645.317 482.24C644.629 482.24 644.005 482.112 643.445 481.856C642.885 481.6 642.437 481.192 642.101 480.632C641.781 480.072 641.621 479.336 641.621 478.424V470.768H638.644V469.352H641.621V465.608H643.301V469.352H647.261V470.768H643.301V478.064C643.301 479.056 643.517 479.744 643.949 480.128C644.397 480.512 644.965 480.704 645.653 480.704C645.925 480.704 646.173 480.68 646.397 480.632C646.637 480.584 646.885 480.504 647.141 480.392ZM662.592 482V479.696C662.224 480.48 661.672 481.104 660.936 481.568C660.2 482.016 659.336 482.24 658.344 482.24C657.032 482.24 655.984 481.904 655.2 481.232C654.416 480.544 654.024 479.632 654.024 478.496C654.024 477.264 654.512 476.336 655.488 475.712C656.464 475.072 657.912 474.752 659.832 474.752C660.216 474.752 660.592 474.76 660.96 474.776C661.328 474.792 661.816 474.832 662.424 474.896V473.816C662.424 472.76 662.152 471.936 661.608 471.344C661.08 470.752 660.336 470.456 659.376 470.456C658.352 470.456 657.536 470.76 656.928 471.368C656.32 471.96 656.008 472.768 655.992 473.792H654.456C654.472 472.848 654.688 472.032 655.104 471.344C655.52 470.64 656.088 470.096 656.808 469.712C657.544 469.312 658.392 469.112 659.352 469.112C660.84 469.112 661.992 469.52 662.808 470.336C663.624 471.152 664.032 472.296 664.032 473.768V482H662.592ZM655.632 478.448C655.632 479.216 655.904 479.84 656.448 480.32C656.992 480.784 657.704 481.016 658.584 481.016C659.768 481.016 660.704 480.664 661.392 479.96C662.08 479.24 662.424 478.288 662.424 477.104V475.976C661.88 475.928 661.408 475.896 661.008 475.88C660.624 475.864 660.256 475.856 659.904 475.856C658.48 475.856 657.408 476.072 656.688 476.504C655.984 476.92 655.632 477.568 655.632 478.448ZM669.246 482H667.566V464.768H669.246V482ZM677.951 482.24C677.087 482.24 676.287 482.08 675.551 481.76C674.815 481.44 674.175 480.984 673.631 480.392C673.103 479.8 672.687 479.104 672.383 478.304C672.095 477.504 671.951 476.624 671.951 475.664C671.951 474.72 672.095 473.848 672.383 473.048C672.687 472.248 673.103 471.56 673.631 470.984C674.175 470.392 674.815 469.936 675.551 469.616C676.287 469.296 677.087 469.136 677.951 469.136C678.831 469.136 679.639 469.296 680.375 469.616C681.111 469.936 681.743 470.392 682.271 470.984C682.815 471.56 683.231 472.248 683.519 473.048C683.823 473.848 683.975 474.72 683.975 475.664C683.975 476.624 683.823 477.504 683.519 478.304C683.231 479.104 682.815 479.8 682.271 480.392C681.743 480.984 681.111 481.44 680.375 481.76C679.639 482.08 678.831 482.24 677.951 482.24ZM677.951 480.8C678.783 480.8 679.519 480.592 680.159 480.176C680.815 479.744 681.327 479.144 681.695 478.376C682.079 477.608 682.271 476.704 682.271 475.664C682.271 474.624 682.079 473.728 681.695 472.976C681.327 472.224 680.815 471.64 680.159 471.224C679.519 470.808 678.783 470.6 677.951 470.6C677.135 470.6 676.399 470.808 675.743 471.224C675.103 471.64 674.591 472.224 674.207 472.976C673.839 473.728 673.655 474.624 673.655 475.664C673.655 476.704 673.839 477.608 674.207 478.376C674.591 479.144 675.103 479.744 675.743 480.176C676.399 480.592 677.135 480.8 677.951 480.8ZM688.371 474.632V482H686.691V469.352H688.251V471.728C688.667 470.96 689.235 470.336 689.955 469.856C690.691 469.36 691.515 469.112 692.427 469.112C693.739 469.112 694.787 469.52 695.571 470.336C696.371 471.152 696.771 472.304 696.771 473.792V482H695.091V474.368C695.091 473.152 694.819 472.216 694.275 471.56C693.747 470.904 692.963 470.576 691.923 470.576C691.267 470.576 690.667 470.752 690.123 471.104C689.579 471.44 689.147 471.912 688.827 472.52C688.523 473.128 688.371 473.832 688.371 474.632ZM705.084 486.896C704.028 486.896 703.1 486.712 702.3 486.344C701.5 485.992 700.876 485.472 700.428 484.784C699.996 484.112 699.756 483.312 699.708 482.384H701.316C701.396 483.408 701.756 484.192 702.396 484.736C703.036 485.28 703.924 485.552 705.06 485.552C706.324 485.552 707.276 485.224 707.916 484.568C708.556 483.928 708.876 482.992 708.876 481.76V479.096C708.492 479.976 707.932 480.664 707.196 481.16C706.476 481.656 705.644 481.904 704.7 481.904C703.644 481.904 702.716 481.64 701.916 481.112C701.116 480.584 700.492 479.84 700.044 478.88C699.596 477.904 699.372 476.776 699.372 475.496C699.372 474.216 699.588 473.096 700.02 472.136C700.468 471.176 701.092 470.432 701.892 469.904C702.692 469.376 703.62 469.112 704.676 469.112C705.636 469.112 706.484 469.368 707.22 469.88C707.972 470.392 708.556 471.112 708.972 472.04V469.352H710.532V481.712C710.532 483.36 710.052 484.632 709.092 485.528C708.148 486.44 706.812 486.896 705.084 486.896ZM701.052 475.496C701.052 477.048 701.396 478.264 702.084 479.144C702.788 480.024 703.74 480.464 704.94 480.464C705.74 480.464 706.428 480.264 707.004 479.864C707.596 479.464 708.06 478.904 708.396 478.184C708.732 477.448 708.9 476.592 708.9 475.616C708.9 474.08 708.54 472.856 707.82 471.944C707.116 471.016 706.156 470.552 704.94 470.552C703.74 470.552 702.788 470.992 702.084 471.872C701.396 472.752 701.052 473.96 701.052 475.496ZM725.703 480.392V481.88C725.383 482.024 725.079 482.12 724.791 482.168C724.503 482.216 724.199 482.24 723.879 482.24C723.191 482.24 722.567 482.112 722.007 481.856C721.447 481.6 720.999 481.192 720.663 480.632C720.343 480.072 720.183 479.336 720.183 478.424V470.768H717.207V469.352H720.183V465.608H721.863V469.352H725.823V470.768H721.863V478.064C721.863 479.056 722.079 479.744 722.511 480.128C722.959 480.512 723.527 480.704 724.215 480.704C724.487 480.704 724.735 480.68 724.959 480.632C725.199 480.584 725.447 480.504 725.703 480.392ZM730.043 474.632V482H728.363V464.768H730.043V471.68C730.427 470.928 730.971 470.312 731.675 469.832C732.379 469.352 733.187 469.112 734.099 469.112C735.411 469.112 736.459 469.52 737.243 470.336C738.043 471.152 738.443 472.304 738.443 473.792V482H736.763V474.368C736.763 473.152 736.491 472.216 735.947 471.56C735.419 470.904 734.635 470.576 733.595 470.576C732.939 470.576 732.339 470.752 731.795 471.104C731.251 471.44 730.819 471.912 730.499 472.52C730.195 473.128 730.043 473.832 730.043 474.632ZM746.948 482.24C745.764 482.24 744.724 481.968 743.828 481.424C742.948 480.864 742.26 480.08 741.764 479.072C741.284 478.064 741.044 476.896 741.044 475.568C741.044 474.336 741.292 473.24 741.788 472.28C742.3 471.304 742.988 470.536 743.852 469.976C744.732 469.4 745.732 469.112 746.852 469.112C747.748 469.112 748.556 469.288 749.276 469.64C750.012 469.976 750.628 470.456 751.124 471.08C751.636 471.704 752.012 472.44 752.252 473.288C752.508 474.12 752.596 475.048 752.516 476.072H741.956V474.92H750.764C750.7 473.496 750.316 472.392 749.612 471.608C748.924 470.808 747.996 470.408 746.828 470.408C746.012 470.408 745.292 470.624 744.668 471.056C744.06 471.472 743.58 472.064 743.228 472.832C742.876 473.6 742.7 474.512 742.7 475.568C742.7 476.656 742.868 477.608 743.204 478.424C743.54 479.224 744.02 479.84 744.644 480.272C745.284 480.704 746.044 480.92 746.924 480.92C747.98 480.92 748.852 480.64 749.54 480.08C750.244 479.504 750.7 478.72 750.908 477.728H752.564C752.276 479.12 751.628 480.224 750.62 481.04C749.628 481.84 748.404 482.24 746.948 482.24ZM770.844 482L767.532 471.584L764.244 482H762.54L758.844 469.352H760.5L763.428 479.624L766.716 469.352H768.372L771.636 479.648L774.564 469.352H776.244L772.524 482H770.844ZM785.827 482V479.696C785.459 480.48 784.907 481.104 784.171 481.568C783.435 482.016 782.571 482.24 781.579 482.24C780.267 482.24 779.219 481.904 778.435 481.232C777.651 480.544 777.259 479.632 777.259 478.496C777.259 477.264 777.747 476.336 778.723 475.712C779.699 475.072 781.147 474.752 783.067 474.752C783.451 474.752 783.827 474.76 784.195 474.776C784.563 474.792 785.051 474.832 785.659 474.896V473.816C785.659 472.76 785.387 471.936 784.843 471.344C784.315 470.752 783.571 470.456 782.611 470.456C781.587 470.456 780.771 470.76 780.163 471.368C779.555 471.96 779.243 472.768 779.227 473.792H777.691C777.707 472.848 777.923 472.032 778.339 471.344C778.755 470.64 779.323 470.096 780.043 469.712C780.779 469.312 781.627 469.112 782.587 469.112C784.075 469.112 785.227 469.52 786.043 470.336C786.859 471.152 787.267 472.296 787.267 473.768V482H785.827ZM778.867 478.448C778.867 479.216 779.139 479.84 779.683 480.32C780.227 480.784 780.939 481.016 781.819 481.016C783.003 481.016 783.939 480.664 784.627 479.96C785.315 479.24 785.659 478.288 785.659 477.104V475.976C785.115 475.928 784.643 475.896 784.243 475.88C783.859 475.864 783.491 475.856 783.139 475.856C781.715 475.856 780.643 476.072 779.923 476.504C779.219 476.92 778.867 477.568 778.867 478.448ZM800.17 469.352L793.69 486.632H791.89L793.738 481.832L788.722 469.352H790.522L794.602 479.816L798.466 469.352H800.17Z" fill="white"/>
</g>
<defs>
<filter id="filter0_n_771_18" x="-374.216" y="-213" width="1596.22" height="1108" filterUnits="userSpaceOnUse" color-interpolation-filters="sRGB">
<feFlood flood-opacity="0" result="BackgroundImageFix"/>
<feBlend mode="normal" in="SourceGraphic" in2="BackgroundImageFix" result="shape"/>
<feTurbulence type="fractalNoise" baseFrequency="1 1" stitchTiles="stitch" numOctaves="3" result="noise" seed="1526" />
<feComponentTransfer in="noise" result="coloredNoise1">
<feFuncR type="linear" slope="2" intercept="-0.5" />
<feFuncG type="linear" slope="2" intercept="-0.5" />
<feFuncB type="linear" slope="2" intercept="-0.5" />
<feFuncA type="discrete" tableValues="1 1 1 1 1 1 1 1 1 1 1 1 1 1 1 1 1 1 1 1 1 1 1 1 1 1 1 1 1 1 1 1 1 1 1 1 1 1 1 1 1 1 1 1 1 1 1 1 1 1 1 0 0 0 0 0 0 0 0 0 0 0 0 0 0 0 0 0 0 0 0 0 0 0 0 0 0 0 0 0 0 0 0 0 0 0 0 0 0 0 0 0 0 0 0 0 0 0 0 0 "/>
</feComponentTransfer>
<feComposite operator="in" in2="shape" in="coloredNoise1" result="noise1Clipped" />
<feComponentTransfer in="noise1Clipped" result="color1">
<feFuncA type="table" tableValues="0 0.2" />
</feComponentTransfer>
<feMerge result="effect1_noise_771_18">
<feMergeNode in="shape" />
<feMergeNode in="color1" />
</feMerge>
</filter>
<filter id="filter1_f_771_18" x="-594.716" y="-433.5" width="2037.22" height="1540.76" filterUnits="userSpaceOnUse" color-interpolation-filters="sRGB">
<feFlood flood-opacity="0" result="BackgroundImageFix"/>
<feBlend mode="normal" in="SourceGraphic" in2="BackgroundImageFix" result="shape"/>
<feGaussianBlur stdDeviation="110.25" result="effect1_foregroundBlur_771_18"/>
</filter>
<filter id="filter2_f_771_18" x="-29" y="-313" width="1075.5" height="1288" filterUnits="userSpaceOnUse" color-interpolation-filters="sRGB">
<feFlood flood-opacity="0" result="BackgroundImageFix"/>
<feBlend mode="normal" in="SourceGraphic" in2="BackgroundImageFix" result="shape"/>
<feGaussianBlur stdDeviation="50" result="effect1_foregroundBlur_771_18"/>
</filter>
<filter id="filter3_f_771_18" x="-474.216" y="-255.5" width="920.216" height="1242.26" filterUnits="userSpaceOnUse" color-interpolation-filters="sRGB">
<feFlood flood-opacity="0" result="BackgroundImageFix"/>
<feBlend mode="normal" in="SourceGraphic" in2="BackgroundImageFix" result="shape"/>
<feGaussianBlur stdDeviation="50" result="effect1_foregroundBlur_771_18"/>
</filter>
<filter id="filter4_f_771_18" x="801.491" y="-92.2542" width="520.509" height="778.254" filterUnits="userSpaceOnUse" color-interpolation-filters="sRGB">
<feFlood flood-opacity="0" result="BackgroundImageFix"/>
<feBlend mode="normal" in="SourceGraphic" in2="BackgroundImageFix" result="shape"/>
<feGaussianBlur stdDeviation="50" result="effect1_foregroundBlur_771_18"/>
</filter>
<clipPath id="clip0_771_18">
<rect width="1200" height="675" fill="white"/>
</clipPath>
</defs>
</svg>
