<svg width="100" height="190" viewBox="0 0 100 190" fill="none" xmlns="http://www.w3.org/2000/svg">
<path fill-rule="evenodd" clip-rule="evenodd" d="M60.0413 70.3359C70.8622 68.5484 79.1151 59.1485 79.1151 47.821C79.1151 35.2173 68.8978 25 56.2941 25C53.0983 25 50.1744 25 47.5 25.0082V25H35H17.5H5V27.5H5.22987C5.15194 27.5 5.07529 27.5008 5 27.5024H5.46631C9.75633 27.5898 17.4989 30.0722 17.4989 39.6256V27.5024H5.46631C5.3869 27.5008 5.30867 27.5 5.23169 27.5H17.5V58.5768H17.499V60.2058H17.5V142.5H5V145H17.5H35H47.5V144.997C49.7496 145 52.2416 145 55.0001 145C75.7108 145 92.5001 128.211 92.5001 107.5C92.5001 88.4988 78.3681 72.7984 60.0413 70.3359ZM47.5 142.5V142.512H47.5031C70.6438 142.512 79.9097 124.531 73.8164 101.791C69.6235 86.1429 61.0826 75.1022 50.4897 75H50.1927C50.1481 75.0004 50.0822 75.0004 49.9965 75H35V136.106L35.0001 136.107V130.374C35.0001 139.928 42.7427 142.41 47.0327 142.498H46.5991L46.6794 142.5H47.5ZM47.499 142.498H47.0327C47.1932 142.501 47.3488 142.501 47.499 142.498ZM35 70V60.2058V58.5768V30.8538L35.0001 30.8537V39.6256C35.0001 30.4625 42.123 27.8044 46.4904 27.5254C46.8205 27.5144 47.1565 27.5072 47.4985 27.5039C54.0285 27.441 63.452 34.7351 66.0274 44.3466C69.7356 58.1857 66.0669 69.9404 51.9844 69.9404C51.4417 69.9404 50.9113 69.9614 50.3932 70H35ZM17.4989 142.498H5.46631C9.75633 142.41 17.4989 139.928 17.4989 130.374V142.498ZM5 142.498C5.15021 142.501 5.30585 142.501 5.46631 142.498H5Z" fill="#111111"/>
</svg>
