<svg width="123" height="190" viewBox="0 0 123 190" fill="none" xmlns="http://www.w3.org/2000/svg">
<path fill-rule="evenodd" clip-rule="evenodd" d="M17.2983 25H4.79834V27.5H5.02821C4.95028 27.5 4.87363 27.5008 4.79834 27.5024H5.26465C9.55467 27.5898 17.2972 30.0722 17.2972 39.6256V27.5024H5.26465C5.18524 27.5008 5.10701 27.5 5.03003 27.5H17.2983V142.5H4.79834V145H17.2983H20.3797H34.7983H47.2983H58.2325C91.3607 145 118.216 118.137 118.216 85C118.216 51.8629 91.3607 25 58.2325 25H47.2983H34.7983H21.2993H17.2983ZM34.7983 31.8926V140.301C34.7984 140.301 34.7984 140.301 34.7985 140.301V130.374C34.7985 139.928 42.541 142.41 46.8311 142.498H44.9492C44.9618 142.498 44.9744 142.499 44.987 142.5H47.2983V142.586C56.3146 142.689 65.5618 140.21 72.3085 138.401L72.6136 138.319C93.0932 132.83 103.3 104.509 95.4121 75.0613C87.6641 46.1373 68.9149 28.1473 46.4326 27.5171C42.0797 27.7465 34.7985 30.3612 34.7985 39.6256V31.8925C34.7984 31.8925 34.7984 31.8926 34.7983 31.8926ZM44.8871 27.5024H45.6759C45.5461 27.501 45.4162 27.5002 45.2863 27.5H45.155C45.0651 27.5002 44.9758 27.501 44.8871 27.5024ZM47.2974 142.498H46.8311C46.9915 142.501 47.1471 142.501 47.2974 142.498ZM17.2972 142.498H5.26465C9.55467 142.41 17.2972 139.928 17.2972 130.374V142.498ZM4.79834 142.498C4.94855 142.501 5.10419 142.501 5.26465 142.498H4.79834Z" fill="#111111"/>
<rect x="94.1775" y="69.7749" width="22.4637" height="1.62897" fill="#D9D9D9"/>
</svg>
