<svg width="90" height="191" viewBox="0 0 90 191" fill="none" xmlns="http://www.w3.org/2000/svg">
<path fill-rule="evenodd" clip-rule="evenodd" d="M45 148.5C59.3057 148.5 74.0232 141.432 79.6628 130.597L76.2232 127.665C71.5232 135.07 61.1922 140.484 54.7057 142.222C41.3691 145.796 26.2122 132.475 20.8519 112.47C20.0706 109.555 19.5406 106.658 19.2464 103.826H86.986C86.5895 81.5545 67.2615 63.5 45 63.5C21.5279 63.5 2.5 82.5279 2.5 106C2.5 129.472 21.5279 148.5 45 148.5ZM68.9547 98.8256L18.9685 98.8256C18.8754 84.4065 25.0631 72.5192 35.2943 69.7778C48.4739 66.2463 63.4311 79.2132 68.9547 98.8256Z" fill="#111111"/>
</svg>
