<svg width="135" height="190" viewBox="0 0 135 190" fill="none" xmlns="http://www.w3.org/2000/svg">
<path d="M131.609 86.8005L91.6094 86.8005V84.3005L131.609 84.3005V86.8005Z" fill="#111111"/>
<path d="M131.609 86.8029C131.459 86.7997 131.304 86.7996 131.143 86.8029H119.11V98.9261C119.11 89.3727 126.853 86.8903 131.143 86.8029H131.609Z" fill="#111111"/>
<path d="M91.6106 86.8029C91.7608 86.7997 91.9164 86.7996 92.0769 86.8029H104.109V98.9261C104.109 89.3727 96.3669 86.8903 92.0769 86.8029H91.6106Z" fill="#111111"/>
<path d="M104.111 85L104.114 121.747L103.996 121.906C97.5227 130.626 92.6714 137.161 82.6705 139.841C61.3318 145.559 37.3705 125.328 29.1514 94.6532C20.9323 63.9789 31.5676 34.4774 52.9062 28.7597C73.3838 23.2728 109.71 42.9458 112.861 65H115.361V30L107.868 30.0023C97.2175 32.9669 88.3191 21.8005 67.8906 21.8005C33.3728 21.8005 5.39062 49.7827 5.39062 84.3005C5.39062 118.818 33.3728 146.8 67.8906 146.8C88.3567 146.8 107.706 136.95 119.106 121.747L119.111 85L104.111 85Z" fill="#111111"/>
</svg>
