<svg width="98" height="191" viewBox="0 0 98 191" fill="none" xmlns="http://www.w3.org/2000/svg">
<rect x="18" y="11" width="15" height="135" fill="#111111"/>
<rect x="5.5" y="143.5" width="40" height="2.5" fill="#111111"/>
<path d="M5.5 143.498C5.65021 143.501 5.80585 143.501 5.96631 143.498H17.9989V131.374C17.9989 140.928 10.2563 143.41 5.96631 143.498H5.5Z" fill="#111111"/>
<path d="M5.5 11.0024C5.65021 10.9992 5.80585 10.9992 5.96631 11.0024H17.9989V23.1256C17.9989 13.5722 10.2563 11.0898 5.96631 11.0024H5.5Z" fill="#111111"/>
<path d="M45.4989 143.498C45.3487 143.501 45.1931 143.501 45.0326 143.498H33V131.374C33 140.928 40.7426 143.41 45.0326 143.498H45.4989Z" fill="#111111"/>
<path d="M5.5 8.50001L33 3.49915V11H5.5V8.50001Z" fill="#111111"/>
<rect x="68" y="86" width="15" height="60" fill="#111111"/>
<rect x="55.5" y="143.5" width="40" height="2.5" fill="#111111"/>
<path d="M55.5 143.498C55.6502 143.501 55.8058 143.501 55.9663 143.498H67.9989V131.374C67.9989 140.928 60.2563 143.41 55.9663 143.498H55.5Z" fill="#111111"/>
<path d="M95.4989 143.498C95.3487 143.501 95.1931 143.501 95.0326 143.498H83V131.374C83 140.928 90.7426 143.41 95.0326 143.498H95.4989Z" fill="#111111"/>
<path d="M67.9961 86C67.9961 66 38 81 28 96V91C43 66 83.0237 51 83 86C83 86 68 86 67.9961 86Z" fill="#111111"/>
</svg>
