<svg width="53" height="191" viewBox="0 0 53 191" fill="none" xmlns="http://www.w3.org/2000/svg">
<rect x="17.7985" y="26" width="17.5" height="120" fill="#111111"/>
<rect x="5.29846" y="143.5" width="42.5" height="2.5" fill="#111111"/>
<path d="M5.29846 143.498C5.44868 143.501 5.60431 143.501 5.76477 143.498H17.7974V131.374C17.7974 140.928 10.0548 143.41 5.76477 143.498H5.29846Z" fill="#111111"/>
<path d="M47.7974 143.498C47.6471 143.501 47.4915 143.501 47.3311 143.498H35.2985V131.374C35.2985 140.928 43.041 143.41 47.3311 143.498H47.7974Z" fill="#111111"/>
<rect width="42.5" height="2.5" transform="matrix(1 0 0 -1 5.29846 28.5)" fill="#111111"/>
<path d="M5.29846 28.5024C5.44868 28.4992 5.60431 28.4992 5.76477 28.5024H17.7974V40.6256C17.7974 31.0722 10.0548 28.5898 5.76477 28.5024H5.29846Z" fill="#111111"/>
<path d="M47.7974 28.5024C47.6471 28.4992 47.4915 28.4992 47.3311 28.5024H35.2985V40.6256C35.2985 31.0722 43.041 28.5898 47.3311 28.5024H47.7974Z" fill="#111111"/>
</svg>
