<svg width="148" height="191" viewBox="0 0 148 191" fill="none" xmlns="http://www.w3.org/2000/svg">
<rect x="17.5" y="71" width="15" height="75" fill="#111111"/>
<rect x="5" y="143.5" width="40" height="2.5" fill="#111111"/>
<path d="M5 143.498C5.15021 143.501 5.30585 143.501 5.46631 143.498H17.4989V131.374C17.4989 140.928 9.75633 143.41 5.46631 143.498H5Z" fill="#111111"/>
<path d="M5 68.5009L32.5 63.5V71.0009H5V68.5009Z" fill="#111111"/>
<path d="M5 71.0024C5.15021 70.9992 5.30585 70.9992 5.46631 71.0024H17.4989V83.1256C17.4989 73.5722 9.75633 71.0898 5.46631 71.0024H5Z" fill="#111111"/>
<path d="M44.9989 143.498C44.8487 143.501 44.6931 143.501 44.5326 143.498H32.5V131.374C32.5 140.928 40.2426 143.41 44.5326 143.498H44.9989Z" fill="#111111"/>
<path d="M94.9989 143.498C94.8487 143.501 94.6931 143.501 94.5326 143.498H82.5V131.374C82.5 140.928 90.2426 143.41 94.5326 143.498H94.9989Z" fill="#111111"/>
<rect x="67.5" y="86" width="15" height="60" fill="#111111"/>
<rect x="55" y="143.5" width="40" height="2.5" fill="#111111"/>
<path d="M55 143.498C55.1502 143.501 55.3058 143.501 55.4663 143.498H67.4989V131.374C67.4989 140.928 59.7563 143.41 55.4663 143.498H55Z" fill="#111111"/>
<path d="M67.4961 86.0001C67.4961 66.0001 37.5 81.0001 27.5 96.0001V91.0001C42.5 66.0001 82.5237 51.0001 82.5 86.0001C82.5 86.0001 67.5 86.0001 67.4961 86.0001Z" fill="#111111"/>
<rect x="117.5" y="86" width="15" height="60" fill="#111111"/>
<rect x="105" y="143.5" width="40" height="2.5" fill="#111111"/>
<path d="M105 143.498C105.15 143.501 105.306 143.501 105.466 143.498H117.499V131.374C117.499 140.928 109.756 143.41 105.466 143.498H105Z" fill="#111111"/>
<path d="M144.999 143.498C144.849 143.501 144.693 143.501 144.533 143.498H132.5V131.374C132.5 140.928 140.243 143.41 144.533 143.498H144.999Z" fill="#111111"/>
<path d="M117.496 86.0001C117.496 66.0001 87.5 81.0001 77.5 96.0001V91.0001C92.5 66.0001 132.524 51.0001 132.5 86.0001C132.5 86.0001 117.5 86.0001 117.496 86.0001Z" fill="#111111"/>
</svg>
