<svg width="96" height="191" viewBox="0 0 96 191" fill="none" xmlns="http://www.w3.org/2000/svg">
<rect x="15.5" y="71" width="15" height="75" fill="#111111"/>
<rect x="3" y="143.5" width="40" height="2.5" fill="#111111"/>
<path d="M3 143.498C3.15021 143.501 3.30585 143.501 3.46631 143.498H15.4989V131.374C15.4989 140.928 7.75633 143.41 3.46631 143.498H3Z" fill="#111111"/>
<path d="M3 68.5009L30.5 63.5V71.0009H3V68.5009Z" fill="#111111"/>
<path d="M3 71.0024C3.15021 70.9992 3.30585 70.9992 3.46631 71.0024H15.4989V83.1256C15.4989 73.5722 7.75633 71.0898 3.46631 71.0024H3Z" fill="#111111"/>
<path d="M42.9989 143.498C42.8487 143.501 42.6931 143.501 42.5326 143.498H30.5V131.374C30.5 140.928 38.2426 143.41 42.5326 143.498H42.9989Z" fill="#111111"/>
<rect x="65.5" y="86" width="15" height="60" fill="#111111"/>
<rect x="53" y="143.5" width="40" height="2.5" fill="#111111"/>
<path d="M53 143.498C53.1502 143.501 53.3058 143.501 53.4663 143.498H65.4989V131.374C65.4989 140.928 57.7563 143.41 53.4663 143.498H53Z" fill="#111111"/>
<path d="M92.9989 143.498C92.8487 143.501 92.6931 143.501 92.5326 143.498H80.5V131.374C80.5 140.928 88.2426 143.41 92.5326 143.498H92.9989Z" fill="#111111"/>
<path d="M65.4961 86C65.4961 66 35.5 81 25.5 96V91C40.5 66 80.5237 51 80.5 86C80.5 86 65.5 86 65.4961 86Z" fill="#111111"/>
</svg>
