<svg width="98" height="190" viewBox="0 0 98 190" fill="none" xmlns="http://www.w3.org/2000/svg">
<path fill-rule="evenodd" clip-rule="evenodd" d="M35.2493 145H47.7493V142.5H47.5184C47.5964 142.5 47.673 142.499 47.7483 142.498H47.282C47.3614 142.499 47.4396 142.5 47.5166 142.5H35.2493V111.423V109.794V100H55.7676V99.9547C76.2433 99.6819 92.7578 82.9986 92.7578 62.4581C92.7578 41.7475 75.9685 24.9581 55.2578 24.9581C50.0245 24.9581 45.5536 24.9581 41.7435 25H35.2493H17.7493H5.24927V27.5H17.7493V109.794H17.7483V111.423H17.7493V142.5H5.48096C5.55794 142.5 5.63616 142.499 5.71557 142.498H5.24927C5.32456 142.499 5.4012 142.5 5.47914 142.5H5.24927V145H17.7493H35.2493ZM5.71557 142.498H17.7482V130.374C17.7482 139.928 10.0056 142.41 5.71557 142.498ZM47.282 142.498C42.992 142.41 35.2494 139.928 35.2494 130.374V142.498H47.282ZM47.7493 27.5V27.4903C58.4782 27.3903 69.8426 40.957 74.0741 56.7489C80.1674 79.4896 78.9147 94.9542 55.774 94.9542C41.9457 94.9542 36.9894 90.5742 35.2493 85.1591V28.4932L35.2494 28.4931V39.6256C35.2494 30.0722 42.992 27.5898 47.282 27.5024H46.2134L46.373 27.5H47.7493ZM47.7483 27.5024H47.282C47.4424 27.4992 47.5981 27.4992 47.7483 27.5024ZM17.7482 27.5024H5.71557C10.0056 27.5898 17.7482 30.0722 17.7482 39.6256V27.5024ZM5.24927 27.5024C5.39948 27.4992 5.55511 27.4992 5.71557 27.5024H5.24927Z" fill="#111111"/>
</svg>
