<svg width="140" height="191" viewBox="0 0 140 191" fill="none" xmlns="http://www.w3.org/2000/svg">
<path fill-rule="evenodd" clip-rule="evenodd" d="M67.5 147.8C102.018 147.8 130 119.818 130 85.3005C130 50.7827 102.018 22.8005 67.5 22.8005C32.9822 22.8005 5 50.7827 5 85.3005C5 119.818 32.9822 147.8 67.5 147.8ZM82.2799 140.841C103.619 135.124 114.254 105.622 106.035 74.9477C97.8156 44.2734 73.8543 24.0421 52.5157 29.7597C31.177 35.4774 20.5416 64.9789 28.7607 95.6532C36.9799 126.328 60.9412 146.559 82.2799 140.841Z" fill="#111111"/>
<path d="M133.896 163.751L135 158.15C120.936 156.154 110.842 145.707 101.785 135.154C95.0747 127.335 88.2212 119.007 78.512 115.138L75 119.629C86.3041 128.653 93.2632 142.055 101.895 153.511C109.633 163.645 121.975 167.453 133.896 163.751Z" fill="black"/>
</svg>
