<svg width="98" height="190" viewBox="0 0 98 190" fill="none" xmlns="http://www.w3.org/2000/svg">
<path d="M89.9873 144.995L91.513 130.016C64.2992 126.154 55.4168 106.513 33.284 93.7088L31.6248 99.5792C51.5958 114.603 60.3256 144.995 89.9873 144.995Z" fill="black"/>
<path fill-rule="evenodd" clip-rule="evenodd" d="M54.0085 99.9581C74.7191 99.9581 91.5085 83.1688 91.5085 62.4581C91.5085 41.7475 74.7191 24.9581 54.0085 24.9581C3.56343 24.9581 23.9679 24.9581 23.9679 62.4581C23.9679 75.6489 18.7089 85.1658 28.2763 91.8506C28.2763 99.9581 16.5084 99.9581 54.0085 99.9581ZM72.8247 56.7489C68.5928 40.955 57.226 27.3869 46.4959 27.4903C34.6159 27.4903 29.6159 29.6263 28.3775 29.9581C16.6099 33.1113 27.9715 51.2167 32.7012 68.8682C34.8865 77.0238 26.5461 94.9542 54.5247 94.9542C77.6654 94.9542 78.9181 79.4896 72.8247 56.7489Z" fill="#111111"/>
<rect width="17.501" height="1.62897" transform="matrix(1 0 0 -1 16.499 111.423)" fill="#D9D9D9"/>
<rect width="17.5" height="120" transform="matrix(1 0 0 -1 16.5 145)" fill="#111111"/>
<rect width="42.5" height="2.5" transform="matrix(1 0 0 -1 4 27.5)" fill="#111111"/>
<path d="M4 27.5024C4.15021 27.4992 4.30585 27.4992 4.46631 27.5024H16.4989V39.6256C16.4989 30.0722 8.75633 27.5898 4.46631 27.5024H4Z" fill="#111111"/>
<path d="M46.499 27.5024C46.3488 27.4992 46.1932 27.4992 46.0327 27.5024H34.0001V39.6256C34.0001 30.0722 41.7427 27.5898 46.0327 27.5024H46.499Z" fill="#111111"/>
<rect x="4" y="142.5" width="42.5" height="2.5" fill="#111111"/>
<path d="M4 142.498C4.15021 142.501 4.30585 142.501 4.46631 142.498H16.4989V130.374C16.4989 139.928 8.75633 142.41 4.46631 142.498H4Z" fill="#111111"/>
<path d="M46.499 142.498C46.3488 142.501 46.1932 142.501 46.0327 142.498H34.0001V130.374C34.0001 139.928 41.7427 142.41 46.0327 142.498H46.499Z" fill="#111111"/>
<path d="M46.499 142.498C46.3488 142.501 46.1932 142.501 46.0327 142.498H34.0001V130.374C34.0001 139.928 41.7427 142.41 46.0327 142.498H46.499Z" fill="#111111"/>
<rect width="23.1204" height="5" transform="matrix(1 0 0 -1 31.3979 100)" fill="#111111"/>
</svg>
