<svg width="639" height="266" viewBox="0 0 639 266" fill="none" xmlns="http://www.w3.org/2000/svg">
<path d="M445.192 183.327C410.332 183.327 388.699 161.582 388.699 131.43C388.699 101.279 410.332 79.6455 445.192 79.6455C479.715 79.6455 501.684 101.279 501.684 131.43C501.684 161.582 479.715 183.327 445.192 183.327ZM445.192 151.943C457.185 151.83 465.704 143.2 465.704 131.43C465.704 119.773 457.185 111.142 445.192 110.806C433.086 111.142 424.568 119.773 424.568 131.43C424.568 143.2 433.086 151.83 445.192 151.943Z" fill="white"/>
<path d="M343.236 181.31V13.7373H379.217V181.31H343.236Z" fill="white"/>
<path d="M288.357 181.31V13.7373H324.338V181.31H288.357Z" fill="white"/>
<path d="M278.314 131.206V137.259H204.784C205.905 150.373 211.397 157.771 224.736 157.771C234.599 157.771 240.652 153.848 242.67 147.235H276.857C272.373 168.756 254.103 183.327 225.296 183.327C190.661 183.327 168.691 163.039 168.691 131.43C168.691 99.485 191.109 79.3091 224.287 79.3091C257.241 79.3091 278.314 99.485 278.314 131.206ZM224.736 105.874C214.872 105.874 209.38 110.021 206.689 116.971H241.773C239.195 109.797 234.039 105.874 224.736 105.874Z" fill="white"/>
<path d="M118.745 44.6738H155.286V181.31H121.435V106.547L86.7996 181.31H68.4171L34.006 106.322V181.31H0.155273V44.6738H36.9203L77.7205 133.112L118.745 44.6738Z" fill="white"/>
<path d="M11.7621 257.327V242.768L1.0384 226.569H4.24289L13.0489 240.018L21.8802 226.569H25.0595L14.361 242.718V257.327H11.7621ZM36.0355 257.731C30.1312 257.731 25.3623 252.962 25.3623 247.083C25.3623 241.179 30.1312 236.41 36.0355 236.41C41.9398 236.41 46.7087 241.179 46.7087 247.083C46.7087 252.962 41.9398 257.731 36.0355 257.731ZM36.0355 255.233C40.5268 255.233 44.1855 251.6 44.1855 247.083C44.1855 242.541 40.5268 238.933 36.0355 238.933C31.5189 238.933 27.8855 242.541 27.8855 247.083C27.8855 251.6 31.5189 255.233 36.0355 255.233ZM60.3846 257.731C55.9437 257.731 52.8149 255.157 52.8149 250.313V236.814H55.3382V250.061C55.3382 253.543 57.5081 255.233 60.3846 255.233C63.2611 255.233 65.4311 253.543 65.4311 250.061V236.814H67.929V250.313C67.929 255.157 64.8002 257.731 60.3846 257.731ZM75.852 257.327V236.814H78.3752V240.043C79.8387 237.848 82.3367 236.41 85.2888 236.41C85.9196 236.41 86.4495 236.46 86.9794 236.561V239.16C86.5 239.009 85.9196 238.933 85.2888 238.933C81.4788 238.933 78.3752 241.86 78.3752 245.847V257.327H75.852ZM111.732 236.41C115.921 236.41 119.302 239.841 119.302 244.131V257.327H116.779V244.131C116.779 241.204 114.508 238.908 111.682 238.908C108.906 238.908 106.635 241.204 106.635 244.131V257.327H104.112V219.605H106.635V238.403C107.973 237.167 109.764 236.41 111.732 236.41ZM134.315 257.731C129.874 257.731 126.745 255.157 126.745 250.313V236.814H129.269V250.061C129.269 253.543 131.439 255.233 134.315 255.233C137.192 255.233 139.361 253.543 139.361 250.061V236.814H141.859V250.313C141.859 255.157 138.731 257.731 134.315 257.731ZM160.456 236.41C166.36 236.41 171.104 241.179 171.104 247.083C171.104 252.962 166.36 257.731 160.456 257.731C157.201 257.731 154.274 256.268 152.306 253.946V257.327H149.782V219.605H152.306V240.195C154.274 237.873 157.201 236.41 160.456 236.41ZM160.456 255.233C164.947 255.233 168.606 251.6 168.606 247.083C168.606 242.541 164.947 238.933 160.456 238.933C155.939 238.933 152.306 242.541 152.306 247.083C152.306 251.6 155.939 255.233 160.456 255.233ZM199.036 236.814V239.286H193.434V257.327H190.911V239.286H187.479V236.814H190.911V224.753C190.911 221.725 193.409 219.328 196.386 219.328C197.345 219.328 198.455 219.605 198.985 219.984V221.901L196.689 221.775C194.923 221.775 193.434 223.112 193.434 225.055V236.814H199.036ZM212.409 257.731C206.504 257.731 201.736 252.962 201.736 247.083C201.736 241.179 206.504 236.41 212.409 236.41C218.313 236.41 223.082 241.179 223.082 247.083C223.082 252.962 218.313 257.731 212.409 257.731ZM212.409 255.233C216.9 255.233 220.559 251.6 220.559 247.083C220.559 242.541 216.9 238.933 212.409 238.933C207.892 238.933 204.259 242.541 204.259 247.083C204.259 251.6 207.892 255.233 212.409 255.233ZM229.567 257.327V236.814H232.09V240.043C233.553 237.848 236.051 236.41 239.004 236.41C239.634 236.41 240.164 236.46 240.694 236.561V239.16C240.215 239.009 239.634 238.933 239.004 238.933C235.194 238.933 232.09 241.86 232.09 245.847V257.327H229.567ZM257.827 257.327V236.814H260.35V239.16C261.536 237.495 263.403 236.41 265.472 236.41C267.869 236.41 270.09 237.798 271.351 239.968C272.613 237.798 274.884 236.41 277.508 236.41C281.596 236.41 284.876 239.766 284.876 244.03V257.327H282.353V244.03C282.353 241.128 280.183 238.933 277.483 238.933C274.783 238.933 272.613 241.128 272.613 244.03V257.327H270.09V244.03C270.09 241.128 267.92 238.933 265.22 238.933C262.495 238.933 260.35 241.128 260.35 244.03V257.327H257.827ZM312.228 246.806L312.202 247.361H293.429C293.556 251.751 297.164 255.233 301.58 255.233C305.011 255.233 307.938 253.164 309.124 250.136H311.799C310.461 254.552 306.399 257.731 301.58 257.731C295.675 257.731 290.906 252.962 290.906 247.083C290.906 241.179 295.675 236.41 301.58 236.41C307.383 236.41 312.026 240.926 312.228 246.806ZM301.58 238.933C297.769 238.933 294.615 241.482 293.707 245.039H309.401C308.544 241.532 305.39 238.933 301.58 238.933ZM326.585 236.41C330.597 236.41 334.154 239.867 334.154 244.181V257.327H331.656V244.181C331.656 241.229 329.31 238.908 326.408 238.908C323.456 238.908 321.109 241.229 321.109 244.181V257.327H318.586V236.814H321.109V238.933C322.472 237.394 324.44 236.41 326.585 236.41ZM350.656 239.286H345.029V252.003C345.029 253.946 346.518 255.284 348.284 255.284H350.581V257.075C350.051 257.454 348.966 257.731 348.007 257.731C345.029 257.731 342.531 255.309 342.531 252.306V239.286H339.1V236.814H342.531V227.932H345.029V236.814H350.656V239.286ZM377.983 255.284H379.345V257.327C378.714 257.605 378.109 257.731 377.529 257.731C375.308 257.731 373.769 256.091 373.365 253.744C371.422 256.141 368.47 257.731 365.114 257.731C359.21 257.731 354.441 252.962 354.441 247.083C354.441 241.179 359.21 236.41 365.114 236.41C368.394 236.41 371.321 237.899 373.264 240.22V236.814H375.787V252.483C375.787 254.426 376.721 255.284 377.983 255.284ZM365.114 255.233C369.606 255.233 373.264 251.6 373.264 247.083C373.264 242.541 369.606 238.933 365.114 238.933C360.598 238.933 356.964 242.541 356.964 247.083C356.964 251.6 360.598 255.233 365.114 255.233ZM384.745 257.327V219.605H387.268V257.327H384.745ZM415.781 236.41C419.969 236.41 423.35 239.841 423.35 244.131V257.327H420.827V244.131C420.827 241.204 418.556 238.908 415.73 238.908C412.955 238.908 410.684 241.204 410.684 244.131V257.327H408.16V219.605H410.684V238.403C412.021 237.167 413.812 236.41 415.781 236.41ZM450.652 246.806L450.626 247.361H431.854C431.98 251.751 435.588 255.233 440.004 255.233C443.435 255.233 446.362 253.164 447.548 250.136H450.223C448.885 254.552 444.823 257.731 440.004 257.731C434.099 257.731 429.33 252.962 429.33 247.083C429.33 241.179 434.099 236.41 440.004 236.41C445.807 236.41 450.45 240.926 450.652 246.806ZM440.004 238.933C436.193 238.933 433.039 241.482 432.131 245.039H447.826C446.968 241.532 443.814 238.933 440.004 238.933ZM478.71 255.284H480.072V257.327C479.442 257.605 478.836 257.731 478.256 257.731C476.035 257.731 474.496 256.091 474.092 253.744C472.149 256.141 469.197 257.731 465.841 257.731C459.937 257.731 455.168 252.962 455.168 247.083C455.168 241.179 459.937 236.41 465.841 236.41C469.122 236.41 472.048 237.899 473.991 240.22V236.814H476.515V252.483C476.515 254.426 477.448 255.284 478.71 255.284ZM465.841 255.233C470.333 255.233 473.991 251.6 473.991 247.083C473.991 242.541 470.333 238.933 465.841 238.933C461.325 238.933 457.691 242.541 457.691 247.083C457.691 251.6 461.325 255.233 465.841 255.233ZM485.472 257.327V219.605H487.995V257.327H485.472ZM504.926 239.286H499.299V252.003C499.299 253.946 500.788 255.284 502.554 255.284H504.85V257.075C504.32 257.454 503.236 257.731 502.277 257.731C499.299 257.731 496.801 255.309 496.801 252.306V239.286H493.37V236.814H496.801V227.932H499.299V236.814H504.926V239.286ZM518.173 236.41C522.362 236.41 525.743 239.841 525.743 244.131V257.327H523.219V244.131C523.219 241.204 520.949 238.908 518.123 238.908C515.347 238.908 513.076 241.204 513.076 244.131V257.327H510.553V219.605H513.076V238.403C514.413 237.167 516.205 236.41 518.173 236.41ZM555.012 257.731C549.108 257.731 544.339 252.962 544.339 247.083C544.339 241.179 549.108 236.41 555.012 236.41C559.705 236.41 563.692 239.438 565.105 243.601H562.43C561.118 240.826 558.267 238.933 555.012 238.933C550.546 238.933 546.837 242.491 546.862 247.083C546.837 251.675 550.546 255.233 555.012 255.233C558.267 255.233 561.118 253.315 562.43 250.54H565.105C563.692 254.728 559.705 257.731 555.012 257.731ZM593.062 255.284H594.425V257.327C593.794 257.605 593.188 257.731 592.608 257.731C590.388 257.731 588.848 256.091 588.445 253.744C586.502 256.141 583.55 257.731 580.194 257.731C574.289 257.731 569.521 252.962 569.521 247.083C569.521 241.179 574.289 236.41 580.194 236.41C583.474 236.41 586.401 237.899 588.344 240.22V236.814H590.867V252.483C590.867 254.426 591.801 255.284 593.062 255.284ZM580.194 255.233C584.685 255.233 588.344 251.6 588.344 247.083C588.344 242.541 584.685 238.933 580.194 238.933C575.677 238.933 572.044 242.541 572.044 247.083C572.044 251.6 575.677 255.233 580.194 255.233ZM599.824 257.327V236.814H602.348V240.043C603.811 237.848 606.309 236.41 609.261 236.41C609.892 236.41 610.422 236.46 610.952 236.561V239.16C610.472 239.009 609.892 238.933 609.261 238.933C605.451 238.933 602.348 241.86 602.348 245.847V257.327H599.824ZM634.948 246.806L634.923 247.361H616.15C616.276 251.751 619.884 255.233 624.3 255.233C627.731 255.233 630.658 253.164 631.844 250.136H634.519C633.181 254.552 629.119 257.731 624.3 257.731C618.395 257.731 613.627 252.962 613.627 247.083C613.627 241.179 618.395 236.41 624.3 236.41C630.103 236.41 634.746 240.926 634.948 246.806ZM624.3 238.933C620.49 238.933 617.336 241.482 616.427 245.039H632.122C631.264 241.532 628.11 238.933 624.3 238.933Z" fill="white"/>
<path fill-rule="evenodd" clip-rule="evenodd" d="M324.337 124.487C318.549 145.854 307.254 166.638 291.779 181.31H324.337V124.487ZM343.236 179.488V181.31H379.216V110.366C374.807 133.357 364.372 154.922 343.236 179.488ZM468.592 83.5001C489.33 90.9998 501.684 108.82 501.684 131.43C501.684 156.963 485.93 176.468 460.139 181.844C495.973 139.299 482.843 112.59 471.684 89.8898L471.683 89.8883C470.62 87.726 469.575 85.6 468.592 83.5001ZM278.314 137.259V131.206C278.314 108.025 267.06 91.0091 248.139 83.5275C255.389 98.4602 262.401 115.31 255.469 137.259H278.314ZM276.856 147.235H251.485C246.309 157.997 237.791 169.925 224.615 183.325C224.841 183.326 225.068 183.327 225.296 183.327C254.102 183.327 272.373 168.756 276.856 147.235ZM153.857 44.6738H155.285V181.31H121.435V175.082C125.025 171.498 128.938 167.137 133.147 161.854C152.433 137.644 154.995 74.1209 153.857 44.6738Z" fill="#DAF9FF"/>
</svg>
