<svg width="49" height="191" viewBox="0 0 49 191" fill="none" xmlns="http://www.w3.org/2000/svg">
<rect x="16.5" y="11" width="15" height="135" fill="#111111"/>
<rect x="4" y="143.5" width="40" height="2.5" fill="#111111"/>
<path d="M4 143.498C4.15021 143.501 4.30585 143.501 4.46631 143.498H16.4989V131.374C16.4989 140.928 8.75633 143.41 4.46631 143.498H4Z" fill="#111111"/>
<path d="M4 11.0024C4.15021 10.9992 4.30585 10.9992 4.46631 11.0024H16.4989V23.1256C16.4989 13.5722 8.75633 11.0898 4.46631 11.0024H4Z" fill="#111111"/>
<path d="M43.9989 143.498C43.8487 143.501 43.6931 143.501 43.5326 143.498H31.5V131.374C31.5 140.928 39.2426 143.41 43.5326 143.498H43.9989Z" fill="#111111"/>
<path d="M4 8.50001L31.5 3.49915V11H4V8.50001Z" fill="#111111"/>
</svg>
