<svg width="212" height="212" viewBox="0 0 212 212" fill="none" xmlns="http://www.w3.org/2000/svg">
<path d="M105.947 0.166138L129.219 19.0978L158.839 14.3387L169.528 42.3702L197.559 53.0588L192.8 82.6792L211.732 105.952L192.8 129.224L197.559 158.844L169.528 169.533L158.839 197.564L129.219 192.805L105.947 211.737L82.6741 192.805L53.0538 197.564L42.3652 169.533L14.3337 158.844L19.0928 129.224L0.161133 105.952L19.0928 82.6792L14.3337 53.0588L42.3652 42.3702L53.0538 14.3387L82.6741 19.0978L105.947 0.166138Z" fill="#101F1B"/>
<path d="M71.335 86.4667C70.335 86.4667 69.4083 86.2801 68.555 85.9067C67.7017 85.5201 66.955 84.9867 66.315 84.3067C65.6883 83.6267 65.195 82.8334 64.835 81.9267C64.4883 81.0067 64.315 80.0201 64.315 78.9667C64.315 77.9134 64.4883 76.9334 64.835 76.0267C65.195 75.1201 65.6883 74.3334 66.315 73.6667C66.955 72.9867 67.7017 72.4601 68.555 72.0867C69.4083 71.7001 70.335 71.5067 71.335 71.5067C72.4683 71.5067 73.515 71.7467 74.475 72.2267C75.435 72.6934 76.235 73.3601 76.875 74.2267C77.5283 75.0801 77.9483 76.0801 78.135 77.2267H76.555C76.4083 76.3734 76.0883 75.6201 75.595 74.9667C75.1017 74.3001 74.4883 73.7801 73.755 73.4067C73.035 73.0334 72.2283 72.8467 71.335 72.8467C70.535 72.8467 69.8017 73.0001 69.135 73.3067C68.4683 73.6134 67.8883 74.0401 67.395 74.5867C66.9017 75.1334 66.5217 75.7801 66.255 76.5267C65.9883 77.2734 65.855 78.0867 65.855 78.9667C65.855 79.8601 65.9883 80.6801 66.255 81.4267C66.5217 82.1734 66.9017 82.8267 67.395 83.3867C67.8883 83.9334 68.4683 84.3601 69.135 84.6667C69.8017 84.9734 70.535 85.1267 71.335 85.1267C72.2283 85.1267 73.0417 84.9401 73.775 84.5667C74.5083 84.1801 75.115 83.6534 75.595 82.9867C76.0883 82.3201 76.4083 81.5667 76.555 80.7267H78.135C77.9483 81.8601 77.535 82.8601 76.895 83.7267C76.255 84.5934 75.4483 85.2667 74.475 85.7467C73.515 86.2267 72.4683 86.4667 71.335 86.4667ZM87.2047 81.9267V75.6267H88.5847V86.1667H87.2847V84.2667C87.018 84.8801 86.5847 85.3867 85.9847 85.7867C85.3847 86.1734 84.698 86.3667 83.9247 86.3667C83.218 86.3667 82.5914 86.2334 82.0447 85.9667C81.5114 85.6867 81.098 85.2601 80.8047 84.6867C80.5114 84.1001 80.3647 83.3667 80.3647 82.4867V75.6267H81.7647V82.1867C81.7647 83.2534 82.0047 84.0201 82.4847 84.4867C82.9647 84.9401 83.5714 85.1667 84.3047 85.1667C84.8647 85.1667 85.358 85.0267 85.7847 84.7467C86.2247 84.4667 86.5714 84.0801 86.8247 83.5867C87.078 83.0934 87.2047 82.5401 87.2047 81.9267ZM93.017 80.5267V86.1667H91.617V75.6267H92.917V78.0267C93.2904 77.2534 93.837 76.6334 94.557 76.1667C95.277 75.7001 96.0704 75.4667 96.937 75.4667V76.9267C96.2037 76.9001 95.537 77.0267 94.937 77.3067C94.3504 77.5867 93.8837 78.0001 93.537 78.5467C93.1904 79.0934 93.017 79.7534 93.017 80.5267ZM100.048 80.5267V86.1667H98.6483V75.6267H99.9483V78.0267C100.322 77.2534 100.868 76.6334 101.588 76.1667C102.308 75.7001 103.102 75.4667 103.968 75.4667V76.9267C103.235 76.9001 102.568 77.0267 101.968 77.3067C101.382 77.5867 100.915 78.0001 100.568 78.5467C100.222 79.0934 100.048 79.7534 100.048 80.5267ZM109.8 86.3667C108.813 86.3667 107.947 86.1401 107.2 85.6867C106.467 85.2201 105.893 84.5667 105.48 83.7267C105.08 82.8867 104.88 81.9134 104.88 80.8067C104.88 79.7801 105.087 78.8667 105.5 78.0667C105.927 77.2534 106.5 76.6134 107.22 76.1467C107.953 75.6667 108.787 75.4267 109.72 75.4267C110.467 75.4267 111.14 75.5734 111.74 75.8667C112.353 76.1467 112.867 76.5467 113.28 77.0667C113.707 77.5867 114.02 78.2001 114.22 78.9067C114.433 79.6001 114.507 80.3734 114.44 81.2267H105.64V80.2667H112.98C112.927 79.0801 112.607 78.1601 112.02 77.5067C111.447 76.8401 110.673 76.5067 109.7 76.5067C109.02 76.5067 108.42 76.6867 107.9 77.0467C107.393 77.3934 106.993 77.8867 106.7 78.5267C106.407 79.1667 106.26 79.9267 106.26 80.8067C106.26 81.7134 106.4 82.5067 106.68 83.1867C106.96 83.8534 107.36 84.3667 107.88 84.7267C108.413 85.0867 109.047 85.2667 109.78 85.2667C110.66 85.2667 111.387 85.0334 111.96 84.5667C112.547 84.0867 112.927 83.4334 113.1 82.6067H114.48C114.24 83.7667 113.7 84.6867 112.86 85.3667C112.033 86.0334 111.013 86.3667 109.8 86.3667ZM118.154 80.0267V86.1667H116.754V75.6267H118.054V77.6067C118.4 76.9667 118.874 76.4467 119.474 76.0467C120.087 75.6334 120.774 75.4267 121.534 75.4267C122.627 75.4267 123.5 75.7667 124.154 76.4467C124.82 77.1267 125.154 78.0867 125.154 79.3267V86.1667H123.754V79.8067C123.754 78.7934 123.527 78.0134 123.074 77.4667C122.634 76.9201 121.98 76.6467 121.114 76.6467C120.567 76.6467 120.067 76.7934 119.614 77.0867C119.16 77.3667 118.8 77.7601 118.534 78.2667C118.28 78.7734 118.154 79.3601 118.154 80.0267ZM133.502 84.8267V86.0667C133.235 86.1867 132.982 86.2667 132.742 86.3067C132.502 86.3467 132.249 86.3667 131.982 86.3667C131.409 86.3667 130.889 86.2601 130.422 86.0467C129.955 85.8334 129.582 85.4934 129.302 85.0267C129.035 84.5601 128.902 83.9467 128.902 83.1867V76.8067H126.422V75.6267H128.902V72.5067H130.302V75.6267H133.602V76.8067H130.302V82.8867C130.302 83.7134 130.482 84.2867 130.842 84.6067C131.215 84.9267 131.689 85.0867 132.262 85.0867C132.489 85.0867 132.695 85.0667 132.882 85.0267C133.082 84.9867 133.289 84.9201 133.502 84.8267ZM137.119 86.1667H135.719V71.8067H137.119V86.1667ZM148.272 75.6267L142.872 90.0267H141.372L142.912 86.0267L138.732 75.6267H140.232L143.632 84.3467L146.852 75.6267H148.272ZM41.8213 110.227C41.8213 111.2 41.4546 111.967 40.7213 112.527C39.9879 113.087 38.9679 113.367 37.6613 113.367C36.3546 113.367 35.3146 113.053 34.5413 112.427C33.7813 111.8 33.3479 110.947 33.2413 109.867H34.5813C34.6213 110.613 34.9213 111.207 35.4813 111.647C36.0413 112.087 36.7679 112.307 37.6613 112.307C38.5279 112.307 39.2013 112.147 39.6813 111.827C40.1746 111.507 40.4213 111.047 40.4213 110.447C40.4213 109.927 40.2546 109.533 39.9213 109.267C39.5879 108.987 39.0213 108.767 38.2213 108.607L36.7013 108.307C35.7013 108.12 34.9413 107.787 34.4213 107.307C33.9013 106.813 33.6413 106.187 33.6413 105.427C33.6413 104.84 33.8013 104.32 34.1213 103.867C34.4546 103.413 34.9079 103.06 35.4813 102.807C36.0679 102.553 36.7413 102.427 37.5013 102.427C38.3146 102.427 39.0213 102.567 39.6213 102.847C40.2346 103.113 40.7213 103.5 41.0813 104.007C41.4413 104.513 41.6413 105.12 41.6813 105.827H40.3613C40.2946 105.093 40.0079 104.527 39.5013 104.127C38.9946 103.713 38.3279 103.507 37.5013 103.507C36.7546 103.507 36.1479 103.667 35.6813 103.987C35.2279 104.307 35.0013 104.747 35.0013 105.307C35.0013 105.827 35.1679 106.227 35.5013 106.507C35.8479 106.787 36.4146 107 37.2013 107.147L38.7813 107.447C39.8213 107.647 40.5879 107.973 41.0813 108.427C41.5746 108.88 41.8213 109.48 41.8213 110.227ZM48.3938 113.367C47.4071 113.367 46.5404 113.14 45.7938 112.687C45.0604 112.22 44.4871 111.567 44.0738 110.727C43.6738 109.887 43.4738 108.913 43.4738 107.807C43.4738 106.78 43.6804 105.867 44.0938 105.067C44.5204 104.253 45.0938 103.613 45.8138 103.147C46.5471 102.667 47.3804 102.427 48.3138 102.427C49.0604 102.427 49.7338 102.573 50.3338 102.867C50.9471 103.147 51.4604 103.547 51.8738 104.067C52.3004 104.587 52.6138 105.2 52.8138 105.907C53.0271 106.6 53.1004 107.373 53.0338 108.227H44.2338V107.267H51.5738C51.5204 106.08 51.2004 105.16 50.6138 104.507C50.0404 103.84 49.2671 103.507 48.2938 103.507C47.6138 103.507 47.0138 103.687 46.4938 104.047C45.9871 104.393 45.5871 104.887 45.2938 105.527C45.0004 106.167 44.8538 106.927 44.8538 107.807C44.8538 108.713 44.9938 109.507 45.2738 110.187C45.5538 110.853 45.9538 111.367 46.4738 111.727C47.0071 112.087 47.6404 112.267 48.3738 112.267C49.2538 112.267 49.9804 112.033 50.5538 111.567C51.1404 111.087 51.5204 110.433 51.6938 109.607H53.0738C52.8338 110.767 52.2938 111.687 51.4538 112.367C50.6271 113.033 49.6071 113.367 48.3938 113.367ZM59.2922 113.367C58.3055 113.367 57.4389 113.14 56.6922 112.687C55.9589 112.22 55.3855 111.567 54.9722 110.727C54.5722 109.887 54.3722 108.913 54.3722 107.807C54.3722 106.78 54.5789 105.867 54.9922 105.067C55.4189 104.253 55.9922 103.613 56.7122 103.147C57.4455 102.667 58.2789 102.427 59.2122 102.427C59.9589 102.427 60.6322 102.573 61.2322 102.867C61.8455 103.147 62.3589 103.547 62.7722 104.067C63.1989 104.587 63.5122 105.2 63.7122 105.907C63.9255 106.6 63.9989 107.373 63.9322 108.227H55.1322V107.267H62.4722C62.4189 106.08 62.0989 105.16 61.5122 104.507C60.9389 103.84 60.1655 103.507 59.1922 103.507C58.5122 103.507 57.9122 103.687 57.3922 104.047C56.8855 104.393 56.4855 104.887 56.1922 105.527C55.8989 106.167 55.7522 106.927 55.7522 107.807C55.7522 108.713 55.8922 109.507 56.1722 110.187C56.4522 110.853 56.8522 111.367 57.3722 111.727C57.9055 112.087 58.5389 112.267 59.2722 112.267C60.1522 112.267 60.8789 112.033 61.4522 111.567C62.0389 111.087 62.4189 110.433 62.5922 109.607H63.9722C63.7322 110.767 63.1922 111.687 62.3522 112.367C61.5255 113.033 60.5055 113.367 59.2922 113.367ZM67.646 113.167H66.246V98.8067H67.646V107.527L72.726 102.627H74.386L69.066 107.787L74.826 113.167H73.006L67.646 108.107V113.167ZM77.7631 113.167H76.3631V102.627H77.7631V113.167ZM78.1831 100.187C78.1831 100.493 78.0765 100.747 77.8631 100.947C77.6631 101.147 77.3898 101.247 77.0431 101.247C76.7231 101.247 76.4565 101.147 76.2431 100.947C76.0298 100.747 75.9231 100.493 75.9231 100.187C75.9231 99.8801 76.0298 99.6334 76.2431 99.4467C76.4565 99.2467 76.7231 99.1467 77.0431 99.1467C77.3898 99.1467 77.6631 99.2467 77.8631 99.4467C78.0765 99.6334 78.1831 99.8801 78.1831 100.187ZM82.1967 107.027V113.167H80.7967V102.627H82.0967V104.607C82.4434 103.967 82.9167 103.447 83.5167 103.047C84.1301 102.633 84.8167 102.427 85.5767 102.427C86.6701 102.427 87.5434 102.767 88.1967 103.447C88.8634 104.127 89.1967 105.087 89.1967 106.327V113.167H87.7967V106.807C87.7967 105.793 87.5701 105.013 87.1167 104.467C86.6767 103.92 86.0234 103.647 85.1567 103.647C84.6101 103.647 84.1101 103.793 83.6567 104.087C83.2034 104.367 82.8434 104.76 82.5767 105.267C82.3234 105.773 82.1967 106.36 82.1967 107.027ZM96.1244 117.247C95.2444 117.247 94.4711 117.093 93.8044 116.787C93.1377 116.493 92.6177 116.06 92.2444 115.487C91.8844 114.927 91.6844 114.26 91.6444 113.487H92.9844C93.0511 114.34 93.3511 114.993 93.8844 115.447C94.4177 115.9 95.1577 116.127 96.1044 116.127C97.1577 116.127 97.9511 115.853 98.4844 115.307C99.0177 114.773 99.2844 113.993 99.2844 112.967V110.747C98.9644 111.48 98.4977 112.053 97.8844 112.467C97.2844 112.88 96.5911 113.087 95.8044 113.087C94.9244 113.087 94.1511 112.867 93.4844 112.427C92.8177 111.987 92.2977 111.367 91.9244 110.567C91.5511 109.753 91.3644 108.813 91.3644 107.747C91.3644 106.68 91.5444 105.747 91.9044 104.947C92.2777 104.147 92.7977 103.527 93.4644 103.087C94.1311 102.647 94.9044 102.427 95.7844 102.427C96.5844 102.427 97.2911 102.64 97.9044 103.067C98.5311 103.493 99.0177 104.093 99.3644 104.867V102.627H100.664V112.927C100.664 114.3 100.264 115.36 99.4644 116.107C98.6777 116.867 97.5644 117.247 96.1244 117.247ZM92.7644 107.747C92.7644 109.04 93.0511 110.053 93.6244 110.787C94.2111 111.52 95.0044 111.887 96.0044 111.887C96.6711 111.887 97.2444 111.72 97.7244 111.387C98.2177 111.053 98.6044 110.587 98.8844 109.987C99.1644 109.373 99.3044 108.66 99.3044 107.847C99.3044 106.567 99.0044 105.547 98.4044 104.787C97.8177 104.013 97.0177 103.627 96.0044 103.627C95.0044 103.627 94.2111 103.993 93.6244 104.727C93.0511 105.46 92.7644 106.467 92.7644 107.747ZM110.207 113.167H108.807V103.807H106.327V102.627H108.807V101.667C108.807 100.693 109.06 99.9467 109.567 99.4267C110.073 98.9067 110.787 98.6467 111.707 98.6467C111.947 98.6467 112.167 98.6667 112.367 98.7067C112.58 98.7467 112.773 98.8001 112.947 98.8667V100.027C112.787 99.9601 112.627 99.9201 112.467 99.9067C112.307 99.8801 112.133 99.8667 111.947 99.8667C111.387 99.8667 110.953 100.013 110.647 100.307C110.353 100.587 110.207 101.04 110.207 101.667V102.627H113.307V103.807H110.207V113.167ZM121.046 113.167V111.247C120.74 111.9 120.28 112.42 119.666 112.807C119.053 113.18 118.333 113.367 117.506 113.367C116.413 113.367 115.54 113.087 114.886 112.527C114.233 111.953 113.906 111.193 113.906 110.247C113.906 109.22 114.313 108.447 115.126 107.927C115.94 107.393 117.146 107.127 118.746 107.127C119.066 107.127 119.38 107.133 119.686 107.147C119.993 107.16 120.4 107.193 120.906 107.247V106.347C120.906 105.467 120.68 104.78 120.226 104.287C119.786 103.793 119.166 103.547 118.366 103.547C117.513 103.547 116.833 103.8 116.326 104.307C115.82 104.8 115.56 105.473 115.546 106.327H114.266C114.28 105.54 114.46 104.86 114.806 104.287C115.153 103.7 115.626 103.247 116.226 102.927C116.84 102.593 117.546 102.427 118.346 102.427C119.586 102.427 120.546 102.767 121.226 103.447C121.906 104.127 122.246 105.08 122.246 106.307V113.167H121.046ZM115.246 110.207C115.246 110.847 115.473 111.367 115.926 111.767C116.38 112.153 116.973 112.347 117.706 112.347C118.693 112.347 119.473 112.053 120.046 111.467C120.62 110.867 120.906 110.073 120.906 109.087V108.147C120.453 108.107 120.06 108.08 119.726 108.067C119.406 108.053 119.1 108.047 118.806 108.047C117.62 108.047 116.726 108.227 116.126 108.587C115.54 108.933 115.246 109.473 115.246 110.207ZM126.591 113.167H125.191V98.8067H126.591V113.167ZM131.025 113.167H129.625V98.8067H131.025V113.167ZM145.978 111.947V113.167H137.818V112.367L142.138 107.487C142.698 106.873 143.138 106.333 143.458 105.867C143.778 105.4 144.011 104.967 144.158 104.567C144.305 104.167 144.378 103.753 144.378 103.327C144.378 102.82 144.265 102.367 144.038 101.967C143.811 101.567 143.491 101.253 143.078 101.027C142.678 100.8 142.211 100.687 141.678 100.687C141.131 100.687 140.645 100.807 140.218 101.047C139.805 101.273 139.478 101.6 139.238 102.027C138.998 102.44 138.878 102.933 138.878 103.507H137.518C137.518 102.707 137.698 102.007 138.058 101.407C138.418 100.793 138.911 100.313 139.538 99.9667C140.178 99.6201 140.911 99.4467 141.738 99.4467C142.525 99.4467 143.225 99.6134 143.838 99.9467C144.465 100.267 144.951 100.707 145.298 101.267C145.658 101.827 145.838 102.473 145.838 103.207C145.838 103.687 145.758 104.153 145.598 104.607C145.451 105.06 145.185 105.56 144.798 106.107C144.411 106.653 143.871 107.313 143.178 108.087L139.878 111.947H145.978ZM147.953 106.427C147.953 104.187 148.366 102.467 149.193 101.267C150.02 100.053 151.206 99.4467 152.753 99.4467C154.286 99.4467 155.466 100.053 156.293 101.267C157.133 102.467 157.553 104.187 157.553 106.427C157.553 108.667 157.14 110.387 156.313 111.587C155.5 112.773 154.313 113.367 152.753 113.367C151.193 113.367 150 112.773 149.173 111.587C148.36 110.387 147.953 108.667 147.953 106.427ZM149.393 106.427C149.393 108.28 149.673 109.693 150.233 110.667C150.806 111.64 151.646 112.127 152.753 112.127C153.846 112.127 154.68 111.647 155.253 110.687C155.826 109.727 156.113 108.307 156.113 106.427C156.113 104.533 155.826 103.107 155.253 102.147C154.68 101.173 153.846 100.687 152.753 100.687C151.66 100.687 150.826 101.173 150.253 102.147C149.68 103.12 149.393 104.547 149.393 106.427ZM167.834 111.947V113.167H159.674V112.367L163.994 107.487C164.554 106.873 164.994 106.333 165.314 105.867C165.634 105.4 165.867 104.967 166.014 104.567C166.16 104.167 166.234 103.753 166.234 103.327C166.234 102.82 166.12 102.367 165.894 101.967C165.667 101.567 165.347 101.253 164.934 101.027C164.534 100.8 164.067 100.687 163.534 100.687C162.987 100.687 162.5 100.807 162.074 101.047C161.66 101.273 161.334 101.6 161.094 102.027C160.854 102.44 160.734 102.933 160.734 103.507H159.374C159.374 102.707 159.554 102.007 159.914 101.407C160.274 100.793 160.767 100.313 161.394 99.9667C162.034 99.6201 162.767 99.4467 163.594 99.4467C164.38 99.4467 165.08 99.6134 165.694 99.9467C166.32 100.267 166.807 100.707 167.154 101.267C167.514 101.827 167.694 102.473 167.694 103.207C167.694 103.687 167.614 104.153 167.454 104.607C167.307 105.06 167.04 105.56 166.654 106.107C166.267 106.653 165.727 107.313 165.034 108.087L161.734 111.947H167.834ZM178.621 109.947H176.801V113.167H175.421V109.947H168.841V109.007L175.821 99.6467H176.801V108.727H178.621V109.947ZM170.461 108.727H175.421V101.927L170.461 108.727ZM58.4467 140.167H57.0467V129.627H58.4467V140.167ZM58.8667 127.187C58.8667 127.493 58.7601 127.747 58.5467 127.947C58.3467 128.147 58.0734 128.247 57.7267 128.247C57.4067 128.247 57.1401 128.147 56.9267 127.947C56.7134 127.747 56.6067 127.493 56.6067 127.187C56.6067 126.88 56.7134 126.633 56.9267 126.447C57.1401 126.247 57.4067 126.147 57.7267 126.147C58.0734 126.147 58.3467 126.247 58.5467 126.447C58.7601 126.633 58.8667 126.88 58.8667 127.187ZM62.8803 134.027V140.167H61.4803V129.627H62.7803V131.607C63.127 130.967 63.6003 130.447 64.2003 130.047C64.8137 129.633 65.5003 129.427 66.2603 129.427C67.3537 129.427 68.227 129.767 68.8803 130.447C69.547 131.127 69.8803 132.087 69.8803 133.327V140.167H68.4803V133.807C68.4803 132.793 68.2537 132.013 67.8003 131.467C67.3603 130.92 66.707 130.647 65.8403 130.647C65.2937 130.647 64.7937 130.793 64.3403 131.087C63.887 131.367 63.527 131.76 63.2603 132.267C63.007 132.773 62.8803 133.36 62.8803 134.027ZM78.2285 138.827V140.067C77.9618 140.187 77.7085 140.267 77.4685 140.307C77.2285 140.347 76.9751 140.367 76.7085 140.367C76.1351 140.367 75.6151 140.26 75.1485 140.047C74.6818 139.833 74.3085 139.493 74.0285 139.027C73.7618 138.56 73.6285 137.947 73.6285 137.187V130.807H71.1485V129.627H73.6285V126.507H75.0285V129.627H78.3285V130.807H75.0285V136.887C75.0285 137.713 75.2085 138.287 75.5685 138.607C75.9418 138.927 76.4151 139.087 76.9885 139.087C77.2151 139.087 77.4218 139.067 77.6085 139.027C77.8085 138.987 78.0151 138.92 78.2285 138.827ZM84.2336 140.367C83.2469 140.367 82.3803 140.14 81.6336 139.687C80.9003 139.22 80.3269 138.567 79.9136 137.727C79.5136 136.887 79.3136 135.913 79.3136 134.807C79.3136 133.78 79.5203 132.867 79.9336 132.067C80.3603 131.253 80.9336 130.613 81.6536 130.147C82.3869 129.667 83.2203 129.427 84.1536 129.427C84.9003 129.427 85.5736 129.573 86.1736 129.867C86.7869 130.147 87.3003 130.547 87.7136 131.067C88.1403 131.587 88.4536 132.2 88.6536 132.907C88.8669 133.6 88.9403 134.373 88.8736 135.227H80.0736V134.267H87.4136C87.3603 133.08 87.0403 132.16 86.4536 131.507C85.8803 130.84 85.1069 130.507 84.1336 130.507C83.4536 130.507 82.8536 130.687 82.3336 131.047C81.8269 131.393 81.4269 131.887 81.1336 132.527C80.8403 133.167 80.6936 133.927 80.6936 134.807C80.6936 135.713 80.8336 136.507 81.1136 137.187C81.3936 137.853 81.7936 138.367 82.3136 138.727C82.8469 139.087 83.4803 139.267 84.2136 139.267C85.0936 139.267 85.8203 139.033 86.3936 138.567C86.9803 138.087 87.3603 137.433 87.5336 136.607H88.9136C88.6736 137.767 88.1336 138.687 87.2936 139.367C86.4669 140.033 85.4469 140.367 84.2336 140.367ZM92.5874 134.527V140.167H91.1874V129.627H92.4874V132.027C92.8607 131.253 93.4074 130.633 94.1274 130.167C94.8474 129.7 95.6407 129.467 96.5074 129.467V130.927C95.774 130.9 95.1074 131.027 94.5074 131.307C93.9207 131.587 93.454 132 93.1074 132.547C92.7607 133.093 92.5874 133.753 92.5874 134.527ZM99.6186 134.027V140.167H98.2186V129.627H99.5186V131.607C99.8653 130.967 100.339 130.447 100.939 130.047C101.552 129.633 102.239 129.427 102.999 129.427C104.092 129.427 104.965 129.767 105.619 130.447C106.285 131.127 106.619 132.087 106.619 133.327V140.167H105.219V133.807C105.219 132.793 104.992 132.013 104.539 131.467C104.099 130.92 103.445 130.647 102.579 130.647C102.032 130.647 101.532 130.793 101.079 131.087C100.625 131.367 100.265 131.76 99.9986 132.267C99.7453 132.773 99.6186 133.36 99.6186 134.027ZM117.446 137.227C117.446 138.2 117.08 138.967 116.346 139.527C115.613 140.087 114.593 140.367 113.286 140.367C111.98 140.367 110.94 140.053 110.166 139.427C109.406 138.8 108.973 137.947 108.866 136.867H110.206C110.246 137.613 110.546 138.207 111.106 138.647C111.666 139.087 112.393 139.307 113.286 139.307C114.153 139.307 114.826 139.147 115.306 138.827C115.8 138.507 116.046 138.047 116.046 137.447C116.046 136.927 115.88 136.533 115.546 136.267C115.213 135.987 114.646 135.767 113.846 135.607L112.326 135.307C111.326 135.12 110.566 134.787 110.046 134.307C109.526 133.813 109.266 133.187 109.266 132.427C109.266 131.84 109.426 131.32 109.746 130.867C110.08 130.413 110.533 130.06 111.106 129.807C111.693 129.553 112.366 129.427 113.126 129.427C113.94 129.427 114.646 129.567 115.246 129.847C115.86 130.113 116.346 130.5 116.706 131.007C117.066 131.513 117.266 132.12 117.306 132.827H115.986C115.92 132.093 115.633 131.527 115.126 131.127C114.62 130.713 113.953 130.507 113.126 130.507C112.38 130.507 111.773 130.667 111.306 130.987C110.853 131.307 110.626 131.747 110.626 132.307C110.626 132.827 110.793 133.227 111.126 133.507C111.473 133.787 112.04 134 112.826 134.147L114.406 134.447C115.446 134.647 116.213 134.973 116.706 135.427C117.2 135.88 117.446 136.48 117.446 137.227ZM121.279 134.027V140.167H119.879V125.807H121.279V131.567C121.599 130.94 122.052 130.427 122.639 130.027C123.225 129.627 123.899 129.427 124.659 129.427C125.752 129.427 126.625 129.767 127.279 130.447C127.945 131.127 128.279 132.087 128.279 133.327V140.167H126.879V133.807C126.879 132.793 126.652 132.013 126.199 131.467C125.759 130.92 125.105 130.647 124.239 130.647C123.692 130.647 123.192 130.793 122.739 131.087C122.285 131.367 121.925 131.76 121.659 132.267C121.405 132.773 121.279 133.36 121.279 134.027ZM132.626 140.167H131.226V129.627H132.626V140.167ZM133.046 127.187C133.046 127.493 132.94 127.747 132.726 127.947C132.526 128.147 132.253 128.247 131.906 128.247C131.586 128.247 131.32 128.147 131.106 127.947C130.893 127.747 130.786 127.493 130.786 127.187C130.786 126.88 130.893 126.633 131.106 126.447C131.32 126.247 131.586 126.147 131.906 126.147C132.253 126.147 132.526 126.247 132.726 126.447C132.94 126.633 133.046 126.88 133.046 127.187ZM145.32 134.887C145.32 135.967 145.127 136.92 144.74 137.747C144.367 138.573 143.833 139.22 143.14 139.687C142.46 140.14 141.647 140.367 140.7 140.367C139.913 140.367 139.2 140.16 138.56 139.747C137.92 139.333 137.42 138.753 137.06 138.007V144.027H135.66V129.627H136.96V131.907C137.32 131.12 137.833 130.513 138.5 130.087C139.167 129.647 139.9 129.427 140.7 129.427C141.633 129.427 142.447 129.66 143.14 130.127C143.833 130.58 144.367 131.22 144.74 132.047C145.127 132.86 145.32 133.807 145.32 134.887ZM143.9 134.887C143.9 133.553 143.58 132.513 142.94 131.767C142.313 131.02 141.487 130.647 140.46 130.647C139.82 130.647 139.24 130.813 138.72 131.147C138.2 131.48 137.787 131.96 137.48 132.587C137.187 133.213 137.04 133.98 137.04 134.887C137.04 135.753 137.187 136.507 137.48 137.147C137.773 137.787 138.18 138.28 138.7 138.627C139.22 138.973 139.807 139.147 140.46 139.147C141.487 139.147 142.313 138.773 142.94 138.027C143.58 137.28 143.9 136.233 143.9 134.887ZM155.454 137.227C155.454 138.2 155.087 138.967 154.354 139.527C153.621 140.087 152.601 140.367 151.294 140.367C149.987 140.367 148.947 140.053 148.174 139.427C147.414 138.8 146.981 137.947 146.874 136.867H148.214C148.254 137.613 148.554 138.207 149.114 138.647C149.674 139.087 150.401 139.307 151.294 139.307C152.161 139.307 152.834 139.147 153.314 138.827C153.807 138.507 154.054 138.047 154.054 137.447C154.054 136.927 153.887 136.533 153.554 136.267C153.221 135.987 152.654 135.767 151.854 135.607L150.334 135.307C149.334 135.12 148.574 134.787 148.054 134.307C147.534 133.813 147.274 133.187 147.274 132.427C147.274 131.84 147.434 131.32 147.754 130.867C148.087 130.413 148.541 130.06 149.114 129.807C149.701 129.553 150.374 129.427 151.134 129.427C151.947 129.427 152.654 129.567 153.254 129.847C153.867 130.113 154.354 130.5 154.714 131.007C155.074 131.513 155.274 132.12 155.314 132.827H153.994C153.927 132.093 153.641 131.527 153.134 131.127C152.627 130.713 151.961 130.507 151.134 130.507C150.387 130.507 149.781 130.667 149.314 130.987C148.861 131.307 148.634 131.747 148.634 132.307C148.634 132.827 148.801 133.227 149.134 133.507C149.481 133.787 150.047 134 150.834 134.147L152.414 134.447C153.454 134.647 154.221 134.973 154.714 135.427C155.207 135.88 155.454 136.48 155.454 137.227Z" fill="white"/>
</svg>
