<svg width="240" height="240" viewBox="0 0 240 240" fill="none" xmlns="http://www.w3.org/2000/svg">
<path d="M120 0L146.524 21.0119L180 16.077L192.464 47.5357L223.923 60L218.988 93.4762L240 120L218.988 146.524L223.923 180L192.464 192.464L180 223.923L146.524 218.988L120 240L93.4762 218.988L60 223.923L47.5357 192.464L16.077 180L21.0119 146.524L0 120L21.0119 93.4762L16.077 60L47.5357 47.5357L60 16.077L93.4762 21.0119L120 0Z" fill="#101F1B"/>
<path d="M60.7227 99.418C60.7227 100.102 60.5427 100.732 60.1827 101.308C59.8227 101.872 59.2947 102.328 58.5987 102.676C57.9027 103.012 57.0507 103.18 56.0427 103.18C55.0347 103.18 54.1707 103.006 53.4507 102.658C52.7427 102.31 52.1907 101.83 51.7947 101.218C51.4107 100.594 51.1947 99.874 51.1467 99.058H52.5147C52.5867 99.97 52.9107 100.702 53.4867 101.254C54.0627 101.806 54.9087 102.082 56.0247 102.082C56.6367 102.082 57.1887 101.986 57.6807 101.794C58.1847 101.59 58.5807 101.302 58.8687 100.93C59.1567 100.546 59.3007 100.102 59.3007 99.598C59.3007 98.926 59.0967 98.422 58.6887 98.086C58.2807 97.738 57.6207 97.468 56.7087 97.276L55.0707 96.952C54.6387 96.868 54.2127 96.748 53.7927 96.592C53.3847 96.436 53.0127 96.232 52.6767 95.98C52.3407 95.716 52.0707 95.392 51.8667 95.008C51.6627 94.612 51.5607 94.132 51.5607 93.568C51.5607 92.872 51.7467 92.248 52.1187 91.696C52.4907 91.144 53.0067 90.706 53.6667 90.382C54.3267 90.058 55.0887 89.896 55.9527 89.896C56.8047 89.896 57.5667 90.064 58.2387 90.4C58.9107 90.736 59.4567 91.204 59.8767 91.804C60.2967 92.404 60.5247 93.118 60.5607 93.946H59.1747C59.1507 93.37 58.9947 92.86 58.7067 92.416C58.4307 91.972 58.0587 91.624 57.5907 91.372C57.1347 91.12 56.5947 90.994 55.9707 90.994C55.3107 90.994 54.7527 91.114 54.2967 91.354C53.8527 91.594 53.5107 91.9 53.2707 92.272C53.0427 92.644 52.9287 93.052 52.9287 93.496C52.9287 94 53.0547 94.402 53.3067 94.702C53.5707 95.002 53.9067 95.236 54.3147 95.404C54.7347 95.56 55.1847 95.686 55.6647 95.782L57.3027 96.124C58.3947 96.352 59.2347 96.718 59.8227 97.222C60.4227 97.714 60.7227 98.446 60.7227 99.418ZM67.1911 103.18C66.3031 103.18 65.5231 102.976 64.8511 102.568C64.1911 102.148 63.6751 101.56 63.3031 100.804C62.9431 100.048 62.7631 99.172 62.7631 98.176C62.7631 97.252 62.9491 96.43 63.3211 95.71C63.7051 94.978 64.2211 94.402 64.8691 93.982C65.5291 93.55 66.2791 93.334 67.1191 93.334C67.7911 93.334 68.3971 93.466 68.9371 93.73C69.4891 93.982 69.9511 94.342 70.3231 94.81C70.7071 95.278 70.9891 95.83 71.1691 96.466C71.3611 97.09 71.4271 97.786 71.3671 98.554H63.4471V97.69H70.0531C70.0051 96.622 69.7171 95.794 69.1891 95.206C68.6731 94.606 67.9771 94.306 67.1011 94.306C66.4891 94.306 65.9491 94.468 65.4811 94.792C65.0251 95.104 64.6651 95.548 64.4011 96.124C64.1371 96.7 64.0051 97.384 64.0051 98.176C64.0051 98.992 64.1311 99.706 64.3831 100.318C64.6351 100.918 64.9951 101.38 65.4631 101.704C65.9431 102.028 66.5131 102.19 67.1731 102.19C67.9651 102.19 68.6191 101.98 69.1351 101.56C69.6631 101.128 70.0051 100.54 70.1611 99.796H71.4031C71.1871 100.84 70.7011 101.668 69.9451 102.28C69.2011 102.88 68.2831 103.18 67.1911 103.18ZM77.3197 103.18C76.4317 103.18 75.6517 102.976 74.9797 102.568C74.3197 102.148 73.8037 101.56 73.4317 100.804C73.0717 100.048 72.8917 99.172 72.8917 98.176C72.8917 97.252 73.0777 96.43 73.4497 95.71C73.8337 94.978 74.3497 94.402 74.9977 93.982C75.6577 93.55 76.4077 93.334 77.2477 93.334C77.9197 93.334 78.5257 93.466 79.0657 93.73C79.6177 93.982 80.0797 94.342 80.4517 94.81C80.8357 95.278 81.1177 95.83 81.2977 96.466C81.4897 97.09 81.5557 97.786 81.4957 98.554H73.5757V97.69H80.1817C80.1337 96.622 79.8457 95.794 79.3177 95.206C78.8017 94.606 78.1057 94.306 77.2297 94.306C76.6177 94.306 76.0777 94.468 75.6097 94.792C75.1537 95.104 74.7937 95.548 74.5297 96.124C74.2657 96.7 74.1337 97.384 74.1337 98.176C74.1337 98.992 74.2597 99.706 74.5117 100.318C74.7637 100.918 75.1237 101.38 75.5917 101.704C76.0717 102.028 76.6417 102.19 77.3017 102.19C78.0937 102.19 78.7477 101.98 79.2637 101.56C79.7917 101.128 80.1337 100.54 80.2897 99.796H81.5317C81.3157 100.84 80.8297 101.668 80.0737 102.28C79.3297 102.88 78.4117 103.18 77.3197 103.18ZM85.158 103H83.898V90.076H85.158V97.924L89.73 93.514H91.224L86.436 98.158L91.62 103H89.982L85.158 98.446V103ZM94.5835 103H93.3235V93.514H94.5835V103ZM94.9615 91.318C94.9615 91.594 94.8655 91.822 94.6735 92.002C94.4935 92.182 94.2475 92.272 93.9355 92.272C93.6475 92.272 93.4075 92.182 93.2155 92.002C93.0235 91.822 92.9275 91.594 92.9275 91.318C92.9275 91.042 93.0235 90.82 93.2155 90.652C93.4075 90.472 93.6475 90.382 93.9355 90.382C94.2475 90.382 94.4935 90.472 94.6735 90.652C94.8655 90.82 94.9615 91.042 94.9615 91.318ZM98.8937 97.474V103H97.6337V93.514H98.8037V95.296C99.1157 94.72 99.5417 94.252 100.082 93.892C100.634 93.52 101.252 93.334 101.936 93.334C102.92 93.334 103.706 93.64 104.294 94.252C104.894 94.864 105.194 95.728 105.194 96.844V103H103.934V97.276C103.934 96.364 103.73 95.662 103.322 95.17C102.926 94.678 102.338 94.432 101.558 94.432C101.066 94.432 100.616 94.564 100.208 94.828C99.7997 95.08 99.4757 95.434 99.2357 95.89C99.0077 96.346 98.8937 96.874 98.8937 97.474ZM111.749 106.672C110.957 106.672 110.261 106.534 109.661 106.258C109.061 105.994 108.593 105.604 108.257 105.088C107.933 104.584 107.753 103.984 107.717 103.288H108.923C108.983 104.056 109.253 104.644 109.733 105.052C110.213 105.46 110.879 105.664 111.731 105.664C112.679 105.664 113.393 105.418 113.873 104.926C114.353 104.446 114.593 103.744 114.593 102.82V100.822C114.305 101.482 113.885 101.998 113.333 102.37C112.793 102.742 112.169 102.928 111.461 102.928C110.669 102.928 109.973 102.73 109.373 102.334C108.773 101.938 108.305 101.38 107.969 100.66C107.633 99.928 107.465 99.082 107.465 98.122C107.465 97.162 107.627 96.322 107.951 95.602C108.287 94.882 108.755 94.324 109.355 93.928C109.955 93.532 110.651 93.334 111.443 93.334C112.163 93.334 112.799 93.526 113.351 93.91C113.915 94.294 114.353 94.834 114.665 95.53V93.514H115.835V102.784C115.835 104.02 115.475 104.974 114.755 105.646C114.047 106.33 113.045 106.672 111.749 106.672ZM108.725 98.122C108.725 99.286 108.983 100.198 109.499 100.858C110.027 101.518 110.741 101.848 111.641 101.848C112.241 101.848 112.757 101.698 113.189 101.398C113.633 101.098 113.981 100.678 114.233 100.138C114.485 99.586 114.611 98.944 114.611 98.212C114.611 97.06 114.341 96.142 113.801 95.458C113.273 94.762 112.553 94.414 111.641 94.414C110.741 94.414 110.027 94.744 109.499 95.404C108.983 96.064 108.725 96.97 108.725 98.122ZM125.063 103H123.803V94.576H121.571V93.514H123.803V92.65C123.803 91.774 124.031 91.102 124.487 90.634C124.943 90.166 125.585 89.932 126.413 89.932C126.629 89.932 126.827 89.95 127.007 89.986C127.199 90.022 127.373 90.07 127.529 90.13V91.174C127.385 91.114 127.241 91.078 127.097 91.066C126.953 91.042 126.797 91.03 126.629 91.03C126.125 91.03 125.735 91.162 125.459 91.426C125.195 91.678 125.063 92.086 125.063 92.65V93.514H127.853V94.576H125.063V103ZM135.689 99.184V93.514H136.931V103H135.761V101.29C135.521 101.842 135.131 102.298 134.591 102.658C134.051 103.006 133.433 103.18 132.737 103.18C132.101 103.18 131.537 103.06 131.045 102.82C130.565 102.568 130.193 102.184 129.929 101.668C129.665 101.14 129.533 100.48 129.533 99.688V93.514H130.793V99.418C130.793 100.378 131.009 101.068 131.441 101.488C131.873 101.896 132.419 102.1 133.079 102.1C133.583 102.1 134.027 101.974 134.411 101.722C134.807 101.47 135.119 101.122 135.347 100.678C135.575 100.234 135.689 99.736 135.689 99.184ZM141.24 103H139.98V90.076H141.24V103ZM145.55 103H144.29V90.076H145.55V103ZM157.56 101.794V102.91C157.32 103.018 157.092 103.09 156.876 103.126C156.66 103.162 156.432 103.18 156.192 103.18C155.676 103.18 155.208 103.084 154.788 102.892C154.368 102.7 154.032 102.394 153.78 101.974C153.54 101.554 153.42 101.002 153.42 100.318V94.576H151.188V93.514H153.42V90.706H154.68V93.514H157.65V94.576H154.68V100.048C154.68 100.792 154.842 101.308 155.166 101.596C155.502 101.884 155.928 102.028 156.444 102.028C156.648 102.028 156.834 102.01 157.002 101.974C157.182 101.938 157.368 101.878 157.56 101.794ZM161.135 103H159.875V93.514H161.135V103ZM161.513 91.318C161.513 91.594 161.417 91.822 161.225 92.002C161.045 92.182 160.799 92.272 160.487 92.272C160.199 92.272 159.959 92.182 159.767 92.002C159.575 91.822 159.479 91.594 159.479 91.318C159.479 91.042 159.575 90.82 159.767 90.652C159.959 90.472 160.199 90.382 160.487 90.382C160.799 90.382 161.045 90.472 161.225 90.652C161.417 90.82 161.513 91.042 161.513 91.318ZM165.445 103H164.185V93.514H165.355V95.296C165.679 94.684 166.105 94.204 166.633 93.856C167.173 93.508 167.779 93.334 168.451 93.334C169.195 93.334 169.825 93.526 170.341 93.91C170.869 94.294 171.229 94.834 171.421 95.53C171.709 94.858 172.141 94.324 172.717 93.928C173.293 93.532 173.953 93.334 174.697 93.334C175.681 93.334 176.455 93.646 177.019 94.27C177.595 94.882 177.883 95.74 177.883 96.844V103H176.641V97.258C176.641 96.346 176.437 95.65 176.029 95.17C175.633 94.678 175.051 94.432 174.283 94.432C173.803 94.432 173.365 94.564 172.969 94.828C172.573 95.08 172.255 95.434 172.015 95.89C171.787 96.334 171.673 96.85 171.673 97.438V103H170.413V97.258C170.413 96.346 170.215 95.65 169.819 95.17C169.423 94.678 168.835 94.432 168.055 94.432C167.575 94.432 167.131 94.564 166.723 94.828C166.327 95.08 166.015 95.434 165.787 95.89C165.559 96.334 165.445 96.85 165.445 97.438V103ZM184.579 103.18C183.691 103.18 182.911 102.976 182.239 102.568C181.579 102.148 181.063 101.56 180.691 100.804C180.331 100.048 180.151 99.172 180.151 98.176C180.151 97.252 180.337 96.43 180.709 95.71C181.093 94.978 181.609 94.402 182.257 93.982C182.917 93.55 183.667 93.334 184.507 93.334C185.179 93.334 185.785 93.466 186.325 93.73C186.877 93.982 187.339 94.342 187.711 94.81C188.095 95.278 188.377 95.83 188.557 96.466C188.749 97.09 188.815 97.786 188.755 98.554H180.835V97.69H187.441C187.393 96.622 187.105 95.794 186.577 95.206C186.061 94.606 185.365 94.306 184.489 94.306C183.877 94.306 183.337 94.468 182.869 94.792C182.413 95.104 182.053 95.548 181.789 96.124C181.525 96.7 181.393 97.384 181.393 98.176C181.393 98.992 181.519 99.706 181.771 100.318C182.023 100.918 182.383 101.38 182.851 101.704C183.331 102.028 183.901 102.19 184.561 102.19C185.353 102.19 186.007 101.98 186.523 101.56C187.051 101.128 187.393 100.54 187.549 99.796H188.791C188.575 100.84 188.089 101.668 187.333 102.28C186.589 102.88 185.671 103.18 184.579 103.18ZM44.1866 122.924V128H42.9266V118.514H44.0966V120.674C44.4326 119.978 44.9246 119.42 45.5726 119C46.2206 118.58 46.9346 118.37 47.7146 118.37V119.684C47.0546 119.66 46.4546 119.774 45.9146 120.026C45.3866 120.278 44.9666 120.65 44.6546 121.142C44.3426 121.634 44.1866 122.228 44.1866 122.924ZM53.3552 128.18C52.7072 128.18 52.1072 128.06 51.5552 127.82C51.0032 127.58 50.5232 127.238 50.1152 126.794C49.7192 126.35 49.4072 125.828 49.1792 125.228C48.9632 124.628 48.8552 123.968 48.8552 123.248C48.8552 122.54 48.9632 121.886 49.1792 121.286C49.4072 120.686 49.7192 120.17 50.1152 119.738C50.5232 119.294 51.0032 118.952 51.5552 118.712C52.1072 118.472 52.7072 118.352 53.3552 118.352C54.0152 118.352 54.6212 118.472 55.1732 118.712C55.7252 118.952 56.1992 119.294 56.5952 119.738C57.0032 120.17 57.3152 120.686 57.5312 121.286C57.7592 121.886 57.8732 122.54 57.8732 123.248C57.8732 123.968 57.7592 124.628 57.5312 125.228C57.3152 125.828 57.0032 126.35 56.5952 126.794C56.1992 127.238 55.7252 127.58 55.1732 127.82C54.6212 128.06 54.0152 128.18 53.3552 128.18ZM53.3552 127.1C53.9792 127.1 54.5312 126.944 55.0112 126.632C55.5032 126.308 55.8872 125.858 56.1632 125.282C56.4512 124.706 56.5952 124.028 56.5952 123.248C56.5952 122.468 56.4512 121.796 56.1632 121.232C55.8872 120.668 55.5032 120.23 55.0112 119.918C54.5312 119.606 53.9792 119.45 53.3552 119.45C52.7432 119.45 52.1912 119.606 51.6992 119.918C51.2192 120.23 50.8352 120.668 50.5472 121.232C50.2712 121.796 50.1332 122.468 50.1332 123.248C50.1332 124.028 50.2712 124.706 50.5472 125.282C50.8352 125.858 51.2192 126.308 51.6992 126.632C52.1912 126.944 52.7432 127.1 53.3552 127.1ZM61.4907 128H60.2307V115.076H61.4907V128ZM68.2669 128.18C67.3789 128.18 66.5989 127.976 65.9269 127.568C65.2669 127.148 64.7509 126.56 64.3789 125.804C64.0189 125.048 63.8389 124.172 63.8389 123.176C63.8389 122.252 64.0249 121.43 64.3969 120.71C64.7809 119.978 65.2969 119.402 65.9449 118.982C66.6049 118.55 67.3549 118.334 68.1949 118.334C68.8669 118.334 69.4729 118.466 70.0129 118.73C70.5649 118.982 71.0269 119.342 71.3989 119.81C71.7829 120.278 72.0649 120.83 72.2449 121.466C72.4369 122.09 72.5029 122.786 72.4429 123.554H64.5229V122.69H71.1289C71.0809 121.622 70.7929 120.794 70.2649 120.206C69.7489 119.606 69.0529 119.306 68.1769 119.306C67.5649 119.306 67.0249 119.468 66.5569 119.792C66.1009 120.104 65.7409 120.548 65.4769 121.124C65.2129 121.7 65.0809 122.384 65.0809 123.176C65.0809 123.992 65.2069 124.706 65.4589 125.318C65.7109 125.918 66.0709 126.38 66.5389 126.704C67.0189 127.028 67.5889 127.19 68.2489 127.19C69.0409 127.19 69.6949 126.98 70.2109 126.56C70.7389 126.128 71.0809 125.54 71.2369 124.796H72.4789C72.2629 125.84 71.7769 126.668 71.0209 127.28C70.2769 127.88 69.3589 128.18 68.2669 128.18ZM81.9373 125.354C81.9373 126.23 81.6073 126.92 80.9473 127.424C80.2873 127.928 79.3693 128.18 78.1933 128.18C77.0173 128.18 76.0813 127.898 75.3853 127.334C74.7013 126.77 74.3113 126.002 74.2153 125.03H75.4213C75.4573 125.702 75.7273 126.236 76.2313 126.632C76.7353 127.028 77.3893 127.226 78.1933 127.226C78.9733 127.226 79.5793 127.082 80.0113 126.794C80.4553 126.506 80.6773 126.092 80.6773 125.552C80.6773 125.084 80.5273 124.73 80.2273 124.49C79.9273 124.238 79.4173 124.04 78.6973 123.896L77.3293 123.626C76.4293 123.458 75.7453 123.158 75.2773 122.726C74.8093 122.282 74.5753 121.718 74.5753 121.034C74.5753 120.506 74.7193 120.038 75.0073 119.63C75.3073 119.222 75.7153 118.904 76.2313 118.676C76.7593 118.448 77.3653 118.334 78.0493 118.334C78.7813 118.334 79.4173 118.46 79.9573 118.712C80.5093 118.952 80.9473 119.3 81.2713 119.756C81.5953 120.212 81.7753 120.758 81.8113 121.394H80.6233C80.5633 120.734 80.3053 120.224 79.8493 119.864C79.3933 119.492 78.7933 119.306 78.0493 119.306C77.3773 119.306 76.8313 119.45 76.4113 119.738C76.0033 120.026 75.7993 120.422 75.7993 120.926C75.7993 121.394 75.9493 121.754 76.2493 122.006C76.5613 122.258 77.0713 122.45 77.7793 122.582L79.2013 122.852C80.1373 123.032 80.8273 123.326 81.2713 123.734C81.7153 124.142 81.9373 124.682 81.9373 125.354ZM95.6203 125.354C95.6203 126.23 95.2903 126.92 94.6303 127.424C93.9703 127.928 93.0523 128.18 91.8763 128.18C90.7003 128.18 89.7643 127.898 89.0683 127.334C88.3843 126.77 87.9943 126.002 87.8983 125.03H89.1043C89.1403 125.702 89.4103 126.236 89.9143 126.632C90.4183 127.028 91.0723 127.226 91.8763 127.226C92.6563 127.226 93.2623 127.082 93.6943 126.794C94.1383 126.506 94.3603 126.092 94.3603 125.552C94.3603 125.084 94.2103 124.73 93.9103 124.49C93.6103 124.238 93.1003 124.04 92.3803 123.896L91.0123 123.626C90.1123 123.458 89.4283 123.158 88.9603 122.726C88.4923 122.282 88.2583 121.718 88.2583 121.034C88.2583 120.506 88.4023 120.038 88.6903 119.63C88.9903 119.222 89.3983 118.904 89.9143 118.676C90.4423 118.448 91.0483 118.334 91.7323 118.334C92.4643 118.334 93.1003 118.46 93.6403 118.712C94.1923 118.952 94.6303 119.3 94.9543 119.756C95.2783 120.212 95.4583 120.758 95.4943 121.394H94.3063C94.2463 120.734 93.9883 120.224 93.5323 119.864C93.0763 119.492 92.4763 119.306 91.7323 119.306C91.0603 119.306 90.5143 119.45 90.0943 119.738C89.6863 120.026 89.4823 120.422 89.4823 120.926C89.4823 121.394 89.6323 121.754 89.9323 122.006C90.2443 122.258 90.7543 122.45 91.4623 122.582L92.8843 122.852C93.8203 123.032 94.5103 123.326 94.9543 123.734C95.3983 124.142 95.6203 124.682 95.6203 125.354ZM102.937 126.794V127.91C102.697 128.018 102.469 128.09 102.253 128.126C102.037 128.162 101.809 128.18 101.569 128.18C101.053 128.18 100.585 128.084 100.165 127.892C99.7452 127.7 99.4092 127.394 99.1572 126.974C98.9172 126.554 98.7972 126.002 98.7972 125.318V119.576H96.5652V118.514H98.7972V115.706H100.057V118.514H103.027V119.576H100.057V125.048C100.057 125.792 100.219 126.308 100.543 126.596C100.879 126.884 101.305 127.028 101.821 127.028C102.025 127.028 102.211 127.01 102.379 126.974C102.559 126.938 102.745 126.878 102.937 126.794ZM111.084 128V126.272C110.808 126.86 110.394 127.328 109.842 127.676C109.29 128.012 108.642 128.18 107.898 128.18C106.914 128.18 106.128 127.928 105.54 127.424C104.952 126.908 104.658 126.224 104.658 125.372C104.658 124.448 105.024 123.752 105.756 123.284C106.488 122.804 107.574 122.564 109.014 122.564C109.302 122.564 109.584 122.57 109.86 122.582C110.136 122.594 110.502 122.624 110.958 122.672V121.862C110.958 121.07 110.754 120.452 110.346 120.008C109.95 119.564 109.392 119.342 108.672 119.342C107.904 119.342 107.292 119.57 106.836 120.026C106.38 120.47 106.146 121.076 106.134 121.844H104.982C104.994 121.136 105.156 120.524 105.468 120.008C105.78 119.48 106.206 119.072 106.746 118.784C107.298 118.484 107.934 118.334 108.654 118.334C109.77 118.334 110.634 118.64 111.246 119.252C111.858 119.864 112.164 120.722 112.164 121.826V128H111.084ZM105.864 125.336C105.864 125.912 106.068 126.38 106.476 126.74C106.884 127.088 107.418 127.262 108.078 127.262C108.966 127.262 109.668 126.998 110.184 126.47C110.7 125.93 110.958 125.216 110.958 124.328V123.482C110.55 123.446 110.196 123.422 109.896 123.41C109.608 123.398 109.332 123.392 109.068 123.392C108 123.392 107.196 123.554 106.656 123.878C106.128 124.19 105.864 124.676 105.864 125.336ZM116.395 122.924V128H115.135V118.514H116.305V120.674C116.641 119.978 117.133 119.42 117.781 119C118.429 118.58 119.143 118.37 119.923 118.37V119.684C119.263 119.66 118.663 119.774 118.123 120.026C117.595 120.278 117.175 120.65 116.863 121.142C116.551 121.634 116.395 122.228 116.395 122.924ZM127.223 126.794V127.91C126.983 128.018 126.755 128.09 126.539 128.126C126.323 128.162 126.095 128.18 125.855 128.18C125.339 128.18 124.871 128.084 124.451 127.892C124.031 127.7 123.695 127.394 123.443 126.974C123.203 126.554 123.083 126.002 123.083 125.318V119.576H120.851V118.514H123.083V115.706H124.343V118.514H127.313V119.576H124.343V125.048C124.343 125.792 124.505 126.308 124.829 126.596C125.165 126.884 125.591 127.028 126.107 127.028C126.311 127.028 126.497 127.01 126.665 126.974C126.845 126.938 127.031 126.878 127.223 126.794ZM130.798 128H129.538V118.514H130.798V128ZM131.176 116.318C131.176 116.594 131.08 116.822 130.888 117.002C130.708 117.182 130.462 117.272 130.15 117.272C129.862 117.272 129.622 117.182 129.43 117.002C129.238 116.822 129.142 116.594 129.142 116.318C129.142 116.042 129.238 115.82 129.43 115.652C129.622 115.472 129.862 115.382 130.15 115.382C130.462 115.382 130.708 115.472 130.888 115.652C131.08 115.82 131.176 116.042 131.176 116.318ZM135.109 122.474V128H133.849V118.514H135.019V120.296C135.331 119.72 135.757 119.252 136.297 118.892C136.849 118.52 137.467 118.334 138.151 118.334C139.135 118.334 139.921 118.64 140.509 119.252C141.109 119.864 141.409 120.728 141.409 121.844V128H140.149V122.276C140.149 121.364 139.945 120.662 139.537 120.17C139.141 119.678 138.553 119.432 137.773 119.432C137.281 119.432 136.831 119.564 136.423 119.828C136.015 120.08 135.691 120.434 135.451 120.89C135.223 121.346 135.109 121.874 135.109 122.474ZM147.964 131.672C147.172 131.672 146.476 131.534 145.876 131.258C145.276 130.994 144.808 130.604 144.472 130.088C144.148 129.584 143.968 128.984 143.932 128.288H145.138C145.198 129.056 145.468 129.644 145.948 130.052C146.428 130.46 147.094 130.664 147.946 130.664C148.894 130.664 149.608 130.418 150.088 129.926C150.568 129.446 150.808 128.744 150.808 127.82V125.822C150.52 126.482 150.1 126.998 149.548 127.37C149.008 127.742 148.384 127.928 147.676 127.928C146.884 127.928 146.188 127.73 145.588 127.334C144.988 126.938 144.52 126.38 144.184 125.66C143.848 124.928 143.68 124.082 143.68 123.122C143.68 122.162 143.842 121.322 144.166 120.602C144.502 119.882 144.97 119.324 145.57 118.928C146.17 118.532 146.866 118.334 147.658 118.334C148.378 118.334 149.014 118.526 149.566 118.91C150.13 119.294 150.568 119.834 150.88 120.53V118.514H152.05V127.784C152.05 129.02 151.69 129.974 150.97 130.646C150.262 131.33 149.26 131.672 147.964 131.672ZM144.94 123.122C144.94 124.286 145.198 125.198 145.714 125.858C146.242 126.518 146.956 126.848 147.856 126.848C148.456 126.848 148.972 126.698 149.404 126.398C149.848 126.098 150.196 125.678 150.448 125.138C150.7 124.586 150.826 123.944 150.826 123.212C150.826 122.06 150.556 121.142 150.016 120.458C149.488 119.762 148.768 119.414 147.856 119.414C146.956 119.414 146.242 119.744 145.714 120.404C145.198 121.064 144.94 121.97 144.94 123.122ZM161.278 128H160.018V119.576H157.786V118.514H160.018V117.65C160.018 116.774 160.246 116.102 160.702 115.634C161.158 115.166 161.8 114.932 162.628 114.932C162.844 114.932 163.042 114.95 163.222 114.986C163.414 115.022 163.588 115.07 163.744 115.13V116.174C163.6 116.114 163.456 116.078 163.312 116.066C163.168 116.042 163.012 116.03 162.844 116.03C162.34 116.03 161.95 116.162 161.674 116.426C161.41 116.678 161.278 117.086 161.278 117.65V118.514H164.068V119.576H161.278V128ZM167.098 122.924V128H165.838V118.514H167.008V120.674C167.344 119.978 167.836 119.42 168.484 119C169.132 118.58 169.846 118.37 170.626 118.37V119.684C169.966 119.66 169.366 119.774 168.826 120.026C168.298 120.278 167.878 120.65 167.566 121.142C167.254 121.634 167.098 122.228 167.098 122.924ZM176.266 128.18C175.618 128.18 175.018 128.06 174.466 127.82C173.914 127.58 173.434 127.238 173.026 126.794C172.63 126.35 172.318 125.828 172.09 125.228C171.874 124.628 171.766 123.968 171.766 123.248C171.766 122.54 171.874 121.886 172.09 121.286C172.318 120.686 172.63 120.17 173.026 119.738C173.434 119.294 173.914 118.952 174.466 118.712C175.018 118.472 175.618 118.352 176.266 118.352C176.926 118.352 177.532 118.472 178.084 118.712C178.636 118.952 179.11 119.294 179.506 119.738C179.914 120.17 180.226 120.686 180.442 121.286C180.67 121.886 180.784 122.54 180.784 123.248C180.784 123.968 180.67 124.628 180.442 125.228C180.226 125.828 179.914 126.35 179.506 126.794C179.11 127.238 178.636 127.58 178.084 127.82C177.532 128.06 176.926 128.18 176.266 128.18ZM176.266 127.1C176.89 127.1 177.442 126.944 177.922 126.632C178.414 126.308 178.798 125.858 179.074 125.282C179.362 124.706 179.506 124.028 179.506 123.248C179.506 122.468 179.362 121.796 179.074 121.232C178.798 120.668 178.414 120.23 177.922 119.918C177.442 119.606 176.89 119.45 176.266 119.45C175.654 119.45 175.102 119.606 174.61 119.918C174.13 120.23 173.746 120.668 173.458 121.232C173.182 121.796 173.044 122.468 173.044 123.248C173.044 124.028 173.182 124.706 173.458 125.282C173.746 125.858 174.13 126.308 174.61 126.632C175.102 126.944 175.654 127.1 176.266 127.1ZM184.402 128H183.142V118.514H184.312V120.296C184.636 119.684 185.062 119.204 185.59 118.856C186.13 118.508 186.736 118.334 187.408 118.334C188.152 118.334 188.782 118.526 189.298 118.91C189.826 119.294 190.186 119.834 190.378 120.53C190.666 119.858 191.098 119.324 191.674 118.928C192.25 118.532 192.91 118.334 193.654 118.334C194.638 118.334 195.412 118.646 195.976 119.27C196.552 119.882 196.84 120.74 196.84 121.844V128H195.598V122.258C195.598 121.346 195.394 120.65 194.986 120.17C194.59 119.678 194.008 119.432 193.24 119.432C192.76 119.432 192.322 119.564 191.926 119.828C191.53 120.08 191.212 120.434 190.972 120.89C190.744 121.334 190.63 121.85 190.63 122.438V128H189.37V122.258C189.37 121.346 189.172 120.65 188.776 120.17C188.38 119.678 187.792 119.432 187.012 119.432C186.532 119.432 186.088 119.564 185.68 119.828C185.284 120.08 184.972 120.434 184.744 120.89C184.516 121.334 184.402 121.85 184.402 122.438V128ZM73.6263 140.076V148.716C73.6263 149.7 73.4463 150.534 73.0863 151.218C72.7383 151.89 72.2403 152.4 71.5923 152.748C70.9443 153.096 70.1763 153.27 69.2883 153.27C68.4483 153.27 67.7103 153.102 67.0743 152.766C66.4503 152.43 65.9583 151.956 65.5983 151.344C65.2383 150.732 65.0343 150.012 64.9863 149.184H66.3363C66.3723 149.796 66.5163 150.318 66.7683 150.75C67.0203 151.182 67.3623 151.512 67.7943 151.74C68.2383 151.956 68.7363 152.064 69.2883 152.064C69.8883 152.064 70.4103 151.95 70.8543 151.722C71.2983 151.482 71.6463 151.122 71.8983 150.642C72.1503 150.162 72.2763 149.556 72.2763 148.824V140.076H73.6263ZM82.5178 153V151.272C82.2418 151.86 81.8278 152.328 81.2758 152.676C80.7238 153.012 80.0758 153.18 79.3318 153.18C78.3478 153.18 77.5618 152.928 76.9738 152.424C76.3858 151.908 76.0918 151.224 76.0918 150.372C76.0918 149.448 76.4578 148.752 77.1898 148.284C77.9218 147.804 79.0078 147.564 80.4478 147.564C80.7358 147.564 81.0178 147.57 81.2938 147.582C81.5698 147.594 81.9358 147.624 82.3918 147.672V146.862C82.3918 146.07 82.1878 145.452 81.7798 145.008C81.3838 144.564 80.8258 144.342 80.1058 144.342C79.3378 144.342 78.7258 144.57 78.2698 145.026C77.8138 145.47 77.5798 146.076 77.5678 146.844H76.4158C76.4278 146.136 76.5898 145.524 76.9018 145.008C77.2138 144.48 77.6398 144.072 78.1798 143.784C78.7318 143.484 79.3678 143.334 80.0878 143.334C81.2038 143.334 82.0678 143.64 82.6798 144.252C83.2918 144.864 83.5978 145.722 83.5978 146.826V153H82.5178ZM77.2978 150.336C77.2978 150.912 77.5018 151.38 77.9098 151.74C78.3178 152.088 78.8518 152.262 79.5118 152.262C80.3998 152.262 81.1018 151.998 81.6178 151.47C82.1338 150.93 82.3918 150.216 82.3918 149.328V148.482C81.9838 148.446 81.6298 148.422 81.3298 148.41C81.0418 148.398 80.7658 148.392 80.5018 148.392C79.4338 148.392 78.6298 148.554 78.0898 148.878C77.5618 149.19 77.2978 149.676 77.2978 150.336ZM87.8283 147.474V153H86.5683V143.514H87.7383V145.296C88.0503 144.72 88.4763 144.252 89.0163 143.892C89.5683 143.52 90.1863 143.334 90.8703 143.334C91.8543 143.334 92.6403 143.64 93.2283 144.252C93.8283 144.864 94.1283 145.728 94.1283 146.844V153H92.8683V147.276C92.8683 146.364 92.6643 145.662 92.2563 145.17C91.8603 144.678 91.2723 144.432 90.4923 144.432C90.0003 144.432 89.5503 144.564 89.1423 144.828C88.7343 145.08 88.4103 145.434 88.1703 145.89C87.9423 146.346 87.8283 146.874 87.8283 147.474ZM103.167 149.184V143.514H104.409V153H103.239V151.29C102.999 151.842 102.609 152.298 102.069 152.658C101.529 153.006 100.911 153.18 100.215 153.18C99.5792 153.18 99.0152 153.06 98.5232 152.82C98.0432 152.568 97.6712 152.184 97.4072 151.668C97.1432 151.14 97.0112 150.48 97.0112 149.688V143.514H98.2712V149.418C98.2712 150.378 98.4872 151.068 98.9192 151.488C99.3512 151.896 99.8972 152.1 100.557 152.1C101.061 152.1 101.505 151.974 101.889 151.722C102.285 151.47 102.597 151.122 102.825 150.678C103.053 150.234 103.167 149.736 103.167 149.184ZM113.29 153V151.272C113.014 151.86 112.6 152.328 112.048 152.676C111.496 153.012 110.848 153.18 110.104 153.18C109.12 153.18 108.334 152.928 107.746 152.424C107.158 151.908 106.864 151.224 106.864 150.372C106.864 149.448 107.23 148.752 107.962 148.284C108.694 147.804 109.78 147.564 111.22 147.564C111.508 147.564 111.79 147.57 112.066 147.582C112.342 147.594 112.708 147.624 113.164 147.672V146.862C113.164 146.07 112.96 145.452 112.552 145.008C112.156 144.564 111.598 144.342 110.878 144.342C110.11 144.342 109.498 144.57 109.042 145.026C108.586 145.47 108.352 146.076 108.34 146.844H107.188C107.2 146.136 107.362 145.524 107.674 145.008C107.986 144.48 108.412 144.072 108.952 143.784C109.504 143.484 110.14 143.334 110.86 143.334C111.976 143.334 112.84 143.64 113.452 144.252C114.064 144.864 114.37 145.722 114.37 146.826V153H113.29ZM108.07 150.336C108.07 150.912 108.274 151.38 108.682 151.74C109.09 152.088 109.624 152.262 110.284 152.262C111.172 152.262 111.874 151.998 112.39 151.47C112.906 150.93 113.164 150.216 113.164 149.328V148.482C112.756 148.446 112.402 148.422 112.102 148.41C111.814 148.398 111.538 148.392 111.274 148.392C110.206 148.392 109.402 148.554 108.862 148.878C108.334 149.19 108.07 149.676 108.07 150.336ZM118.601 147.924V153H117.341V143.514H118.511V145.674C118.847 144.978 119.339 144.42 119.987 144C120.635 143.58 121.349 143.37 122.129 143.37V144.684C121.469 144.66 120.869 144.774 120.329 145.026C119.801 145.278 119.381 145.65 119.069 146.142C118.757 146.634 118.601 147.228 118.601 147.924ZM131.473 143.514L126.613 156.474H125.263L126.649 152.874L122.887 143.514H124.237L127.297 151.362L130.195 143.514H131.473ZM144.304 151.902V153H136.96V152.28L140.848 147.888C141.352 147.336 141.748 146.85 142.036 146.43C142.324 146.01 142.534 145.62 142.666 145.26C142.798 144.9 142.864 144.528 142.864 144.144C142.864 143.688 142.762 143.28 142.558 142.92C142.354 142.56 142.066 142.278 141.694 142.074C141.334 141.87 140.914 141.768 140.434 141.768C139.942 141.768 139.504 141.876 139.12 142.092C138.748 142.296 138.454 142.59 138.238 142.974C138.022 143.346 137.914 143.79 137.914 144.306H136.69C136.69 143.586 136.852 142.956 137.176 142.416C137.5 141.864 137.944 141.432 138.508 141.12C139.084 140.808 139.744 140.652 140.488 140.652C141.196 140.652 141.826 140.802 142.378 141.102C142.942 141.39 143.38 141.786 143.692 142.29C144.016 142.794 144.178 143.376 144.178 144.036C144.178 144.468 144.106 144.888 143.962 145.296C143.83 145.704 143.59 146.154 143.242 146.646C142.894 147.138 142.408 147.732 141.784 148.428L138.814 151.902H144.304ZM146.401 146.934C146.401 144.918 146.773 143.37 147.517 142.29C148.261 141.198 149.329 140.652 150.721 140.652C152.101 140.652 153.163 141.198 153.907 142.29C154.663 143.37 155.041 144.918 155.041 146.934C155.041 148.95 154.669 150.498 153.925 151.578C153.193 152.646 152.125 153.18 150.721 153.18C149.317 153.18 148.243 152.646 147.499 151.578C146.767 150.498 146.401 148.95 146.401 146.934ZM147.697 146.934C147.697 148.602 147.949 149.874 148.453 150.75C148.969 151.626 149.725 152.064 150.721 152.064C151.705 152.064 152.455 151.632 152.971 150.768C153.487 149.904 153.745 148.626 153.745 146.934C153.745 145.23 153.487 143.946 152.971 143.082C152.455 142.206 151.705 141.768 150.721 141.768C149.737 141.768 148.987 142.206 148.471 143.082C147.955 143.958 147.697 145.242 147.697 146.934ZM164.614 151.902V153H157.27V152.28L161.158 147.888C161.662 147.336 162.058 146.85 162.346 146.43C162.634 146.01 162.844 145.62 162.976 145.26C163.108 144.9 163.174 144.528 163.174 144.144C163.174 143.688 163.072 143.28 162.868 142.92C162.664 142.56 162.376 142.278 162.004 142.074C161.644 141.87 161.224 141.768 160.744 141.768C160.252 141.768 159.814 141.876 159.43 142.092C159.058 142.296 158.764 142.59 158.548 142.974C158.332 143.346 158.224 143.79 158.224 144.306H157C157 143.586 157.162 142.956 157.486 142.416C157.81 141.864 158.254 141.432 158.818 141.12C159.394 140.808 160.054 140.652 160.798 140.652C161.506 140.652 162.136 140.802 162.688 141.102C163.252 141.39 163.69 141.786 164.002 142.29C164.326 142.794 164.488 143.376 164.488 144.036C164.488 144.468 164.416 144.888 164.272 145.296C164.14 145.704 163.9 146.154 163.552 146.646C163.204 147.138 162.718 147.732 162.094 148.428L159.124 151.902H164.614ZM170.443 153.162C169.627 153.162 168.901 152.988 168.265 152.64C167.629 152.28 167.125 151.8 166.753 151.2C166.393 150.588 166.213 149.916 166.213 149.184C166.213 148.656 166.279 148.188 166.411 147.78C166.543 147.372 166.729 146.982 166.969 146.61C167.221 146.238 167.503 145.854 167.815 145.458L171.487 140.832H172.909L169.255 145.458C169.507 145.362 169.753 145.296 169.993 145.26C170.233 145.212 170.467 145.188 170.695 145.188C171.451 145.188 172.129 145.356 172.729 145.692C173.329 146.016 173.803 146.478 174.151 147.078C174.511 147.666 174.691 148.356 174.691 149.148C174.691 149.904 174.505 150.588 174.133 151.2C173.773 151.812 173.269 152.292 172.621 152.64C171.985 152.988 171.259 153.162 170.443 153.162ZM170.461 152.118C171.025 152.118 171.529 151.992 171.973 151.74C172.417 151.488 172.765 151.14 173.017 150.696C173.269 150.24 173.395 149.736 173.395 149.184C173.395 148.572 173.269 148.044 173.017 147.6C172.765 147.144 172.417 146.79 171.973 146.538C171.529 146.286 171.025 146.16 170.461 146.16C169.621 146.16 168.919 146.418 168.355 146.934C167.791 147.45 167.509 148.188 167.509 149.148C167.509 149.724 167.635 150.24 167.887 150.696C168.151 151.14 168.505 151.488 168.949 151.74C169.393 151.992 169.897 152.118 170.461 152.118Z" fill="white"/>
</svg>
