<svg width="2640" height="764" viewBox="0 0 2640 764" fill="none" xmlns="http://www.w3.org/2000/svg">
<g clip-path="url(#clip0_92_15286)">
<rect width="2640" height="764" fill="white"/>
<line x1="21.0002" y1="-128" x2="21.0002" y2="1020" stroke="#DDDDDD" stroke-width="2" stroke-dasharray="16 16"/>
<line x1="221" y1="-128" x2="221" y2="1020" stroke="#DDDDDD" stroke-width="2" stroke-dasharray="16 16"/>
<line x1="421" y1="-128" x2="421" y2="1020" stroke="#DDDDDD" stroke-width="2" stroke-dasharray="16 16"/>
<line x1="621" y1="-128" x2="621" y2="1020" stroke="#DDDDDD" stroke-width="2" stroke-dasharray="16 16"/>
<line x1="821" y1="-128" x2="821" y2="1020" stroke="#DDDDDD" stroke-width="2" stroke-dasharray="16 16"/>
<line x1="1021" y1="-128" x2="1021" y2="1020" stroke="#DDDDDD" stroke-width="2" stroke-dasharray="16 16"/>
<line x1="1221" y1="-128" x2="1221" y2="1020" stroke="#DDDDDD" stroke-width="2" stroke-dasharray="16 16"/>
<line x1="1421" y1="-128" x2="1421" y2="1020" stroke="#DDDDDD" stroke-width="2" stroke-dasharray="16 16"/>
<line x1="1621" y1="-128" x2="1621" y2="1020" stroke="#DDDDDD" stroke-width="2" stroke-dasharray="16 16"/>
<line x1="1821" y1="-128" x2="1821" y2="1020" stroke="#DDDDDD" stroke-width="2" stroke-dasharray="16 16"/>
<line x1="2021" y1="-128" x2="2021" y2="1020" stroke="#DDDDDD" stroke-width="2" stroke-dasharray="16 16"/>
<line x1="2221" y1="-128" x2="2221" y2="1020" stroke="#DDDDDD" stroke-width="2" stroke-dasharray="16 16"/>
<line x1="2421" y1="-128" x2="2421" y2="1020" stroke="#DDDDDD" stroke-width="2" stroke-dasharray="16 16"/>
<line x1="2621" y1="-128" x2="2621" y2="1020" stroke="#DDDDDD" stroke-width="2" stroke-dasharray="16 16"/>
<line x1="2770" y1="147" x2="-130" y2="147" stroke="#DDDDDD" stroke-width="2" stroke-dasharray="16 16"/>
<line x1="2770" y1="347" x2="-130" y2="347" stroke="#DDDDDD" stroke-width="2" stroke-dasharray="16 16"/>
<line x1="2770" y1="547" x2="-130" y2="547" stroke="#DDDDDD" stroke-width="2" stroke-dasharray="16 16"/>
<line x1="2770" y1="747.001" x2="-130" y2="747" stroke="#DDDDDD" stroke-width="2" stroke-dasharray="16 16"/>
<rect x="-17" y="-42" width="2675" height="848" fill="url(#paint0_radial_92_15286)"/>
<g opacity="0.5" filter="url(#filter0_f_92_15286)">
<ellipse cx="318.849" cy="316.745" rx="78.2037" ry="13.8006" transform="rotate(12.1413 318.849 316.745)" fill="#AAAAAA"/>
</g>
<g filter="url(#filter1_d_92_15286)">
<rect x="267.282" y="119" width="184.009" height="184.009" rx="20" transform="rotate(12.1413 267.282 119)" fill="#FFD5DC"/>
</g>
<g clip-path="url(#clip1_92_15286)">
<path fill-rule="evenodd" clip-rule="evenodd" d="M313.006 194.18L313.006 194.18C313.006 194.183 313.002 194.199 313.005 194.242C313.009 194.289 313.024 194.382 313.075 194.528C313.183 194.834 313.434 195.313 313.961 195.949C315.033 197.245 316.91 198.786 319.654 200.408C325.106 203.629 333.193 206.706 342.608 208.731C352.023 210.757 360.66 211.278 366.954 210.584C370.123 210.234 372.467 209.601 373.977 208.861C374.719 208.498 375.145 208.164 375.369 207.93C375.476 207.818 375.527 207.739 375.55 207.698C375.571 207.66 375.574 207.643 375.575 207.641L375.575 207.64C375.576 207.637 375.579 207.62 375.576 207.578C375.572 207.532 375.558 207.439 375.506 207.293C375.398 206.987 375.147 206.507 374.621 205.871C373.548 204.576 371.672 203.034 368.927 201.413C363.475 198.192 355.389 195.115 345.973 193.089C336.558 191.064 327.921 190.543 321.627 191.237C318.459 191.586 316.114 192.22 314.604 192.959C313.862 193.323 313.436 193.656 313.212 193.891C313.105 194.003 313.054 194.082 313.031 194.123C313.011 194.16 313.007 194.176 313.006 194.18ZM320.75 183.285C328.108 182.473 337.634 183.112 347.656 185.268C357.678 187.424 366.623 190.76 372.996 194.525C376.164 196.396 378.898 198.492 380.783 200.77C382.632 203.004 384.113 205.992 383.396 209.323C382.679 212.655 380.101 214.77 377.497 216.045C374.841 217.346 371.488 218.132 367.831 218.536C360.473 219.347 350.948 218.708 340.925 216.552C330.903 214.396 321.958 211.061 315.585 207.296C312.417 205.424 309.684 203.329 307.798 201.051C305.949 198.817 304.469 195.829 305.185 192.497C305.902 189.166 308.48 187.051 311.084 185.775C313.74 184.474 317.093 183.688 320.75 183.285Z" fill="#4B0B16"/>
<path fill-rule="evenodd" clip-rule="evenodd" d="M309.937 189.428C312.097 189.893 313.471 192.021 313.006 194.18L301.228 248.928C301.228 248.928 301.228 248.928 301.228 248.929C301.228 248.929 301.228 248.931 301.228 248.934C301.227 248.939 301.227 248.952 301.229 248.973C301.232 249.015 301.244 249.103 301.292 249.243C301.392 249.536 301.628 250.004 302.138 250.633C303.176 251.914 305.037 253.478 307.876 255.156C313.531 258.497 321.782 261.533 330.83 263.479C339.878 265.426 348.647 266.052 355.176 265.332C358.454 264.97 360.793 264.309 362.266 263.569C362.989 263.205 363.398 262.875 363.609 262.65C363.71 262.541 363.758 262.466 363.778 262.429C363.788 262.411 363.793 262.399 363.795 262.394C363.796 262.392 363.796 262.39 363.796 262.389C363.797 262.389 363.797 262.388 363.797 262.388L375.575 207.641C376.039 205.481 378.167 204.107 380.327 204.572C382.486 205.036 383.861 207.164 383.396 209.324L371.618 264.071C370.924 267.298 368.454 269.412 365.859 270.717C363.221 272.042 359.848 272.865 356.053 273.283C348.434 274.124 338.768 273.37 329.147 271.3C319.527 269.23 310.406 265.942 303.807 262.043C300.519 260.101 297.783 257.964 295.924 255.671C294.095 253.415 292.713 250.472 293.407 247.245L305.185 192.498C305.65 190.338 307.777 188.964 309.937 189.428Z" fill="#4B0B16"/>
<path fill-rule="evenodd" clip-rule="evenodd" d="M304.048 216.802C306.208 217.267 307.582 219.394 307.117 221.554L307.117 221.554C307.117 221.554 307.117 221.554 307.117 221.555C307.117 221.556 307.117 221.557 307.117 221.56C307.116 221.565 307.116 221.578 307.118 221.599C307.121 221.641 307.133 221.729 307.181 221.869C307.281 222.162 307.517 222.631 308.027 223.259C309.065 224.54 310.926 226.104 313.765 227.782C319.42 231.123 327.671 234.159 336.719 236.105C345.767 238.052 354.536 238.678 361.065 237.958C364.343 237.596 366.682 236.935 368.155 236.195C368.878 235.831 369.287 235.502 369.498 235.276C369.599 235.168 369.647 235.092 369.667 235.056C369.677 235.037 369.682 235.025 369.684 235.02C369.685 235.018 369.685 235.016 369.685 235.016C369.686 235.015 369.686 235.015 369.686 235.015C370.15 232.855 372.278 231.481 374.438 231.945C376.597 232.41 377.971 234.537 377.507 236.697C376.813 239.924 374.343 242.038 371.748 243.343C369.11 244.669 365.737 245.491 361.942 245.909C354.323 246.75 344.657 245.996 335.036 243.926C325.416 241.857 316.295 238.569 309.696 234.669C306.408 232.727 303.672 230.591 301.813 228.297C299.984 226.041 298.602 223.098 299.296 219.871C299.761 217.711 301.888 216.337 304.048 216.802Z" fill="#4B0B16"/>
</g>
<ellipse opacity="0.5" cx="1531.03" cy="803.505" rx="78.2037" ry="13.8006" transform="rotate(8 1531.03 803.505)" fill="#AAAAAA"/>
<g filter="url(#filter3_d_92_15286)">
<rect x="1465.32" y="610" width="184.009" height="184.009" rx="20" transform="rotate(8 1465.32 610)" fill="#D5F3FF"/>
</g>
<g clip-path="url(#clip2_92_15286)">
<path fill-rule="evenodd" clip-rule="evenodd" d="M1520.86 678.276C1518.67 677.968 1516.65 679.493 1516.34 681.68L1508.55 737.135C1508.24 739.323 1509.77 741.346 1511.95 741.653L1567.41 749.447C1569.6 749.754 1571.62 748.23 1571.93 746.042L1579.72 690.587C1580.03 688.4 1578.5 686.377 1576.32 686.07L1520.86 678.276ZM1508.42 680.567C1509.34 674.004 1515.41 669.431 1521.97 670.354L1577.43 678.147C1583.99 679.07 1588.56 685.138 1587.64 691.701L1579.85 747.156C1578.93 753.719 1572.86 758.291 1566.29 757.369L1510.84 749.575C1504.28 748.653 1499.7 742.585 1500.63 736.022L1508.42 680.567Z" fill="#0A4056"/>
<path fill-rule="evenodd" clip-rule="evenodd" d="M1543.87 689.606C1545.6 690.012 1546.85 691.502 1546.95 693.269L1548.53 720.56L1552.55 713.544C1553.36 712.125 1554.95 711.343 1556.57 711.571L1564.5 712.684C1566.68 712.992 1568.21 715.015 1567.9 717.202C1567.59 719.39 1565.57 720.914 1563.38 720.607L1558.14 719.87L1548.78 736.212C1547.9 737.748 1546.12 738.523 1544.4 738.118C1542.67 737.712 1541.42 736.222 1541.32 734.455L1539.74 707.164L1535.72 714.18C1534.91 715.599 1533.31 716.381 1531.69 716.153L1523.77 715.04C1521.58 714.732 1520.06 712.71 1520.37 710.522C1520.68 708.334 1522.7 706.81 1524.89 707.118L1530.13 707.854L1539.49 691.512C1540.37 689.976 1542.15 689.201 1543.87 689.606Z" fill="#0A4056"/>
</g>
<g opacity="0.5" filter="url(#filter4_f_92_15286)">
<ellipse cx="556.213" cy="683.831" rx="78.2037" ry="13.8006" transform="rotate(-5.56161 556.213 683.831)" fill="#AAAAAA"/>
</g>
<g filter="url(#filter5_d_92_15286)">
<rect x="446.957" y="511.131" width="184.009" height="184.009" rx="20" transform="rotate(-5.56161 446.957 511.131)" fill="#FFDEC8"/>
</g>
<path fill-rule="evenodd" clip-rule="evenodd" d="M565.614 581.012C567.32 582.416 567.566 584.937 566.162 586.643L551.788 604.118C550.385 605.824 547.864 606.07 546.158 604.666C544.452 603.263 544.206 600.742 545.61 599.036L559.984 581.561C561.387 579.855 563.908 579.609 565.614 581.012Z" fill="#53270C"/>
<path fill-rule="evenodd" clip-rule="evenodd" d="M545.21 565.746C538.92 566.358 532.902 568.615 527.762 572.291C522.621 575.966 518.538 580.93 515.924 586.683C513.31 592.437 512.256 598.777 512.868 605.067C513.481 611.356 515.739 617.374 519.414 622.514C520.699 624.312 520.284 626.81 518.487 628.095C516.69 629.38 514.191 628.964 512.907 627.167C508.414 620.884 505.655 613.53 504.906 605.842C504.157 598.155 505.445 590.406 508.64 583.374C511.836 576.342 516.826 570.275 523.109 565.783C529.392 561.291 536.747 558.532 544.435 557.783C552.122 557.035 559.871 558.323 566.903 561.519C573.935 564.714 580.001 569.704 584.493 575.988C588.985 582.271 591.744 589.626 592.492 597.314C593.24 605.001 591.952 612.75 588.756 619.782C587.842 621.793 585.47 622.682 583.459 621.768C581.448 620.854 580.559 618.483 581.473 616.472C584.087 610.718 585.142 604.378 584.529 598.089C583.917 591.799 581.66 585.781 577.985 580.64C574.31 575.499 569.346 571.416 563.593 568.802C557.84 566.187 551.5 565.133 545.21 565.746Z" fill="#740F0F"/>
<g opacity="0.5" filter="url(#filter6_f_92_15286)">
<ellipse cx="852.137" cy="154.619" rx="78.2037" ry="13.8006" transform="rotate(-11 852.137 154.619)" fill="#AAAAAA"/>
</g>
<g filter="url(#filter7_d_92_15286)">
<rect x="728" y="-6.88965" width="184.009" height="184.009" rx="20" transform="rotate(-11 728 -6.88965)" fill="#E0EAFF"/>
</g>
<g clip-path="url(#clip3_92_15286)">
<path fill-rule="evenodd" clip-rule="evenodd" d="M823.362 60.8452C825.735 57.3272 829.409 54.8959 833.574 54.0862C837.74 53.2765 842.056 54.1547 845.574 56.5276C849.092 58.9006 851.523 62.5738 852.333 66.7393C852.755 68.9079 851.338 71.0075 849.17 71.4291C847.001 71.8506 844.902 70.4343 844.48 68.2658C844.075 66.183 842.86 64.3464 841.101 63.1599C839.342 61.9735 837.183 61.5344 835.101 61.9392C833.018 62.3441 831.181 63.5597 829.995 65.3187C828.808 67.0777 828.369 69.236 828.774 71.3187C829.196 73.4873 827.779 75.5869 825.611 76.0085C823.442 76.43 821.343 75.0137 820.921 72.8452C820.111 68.6797 820.99 64.3632 823.362 60.8452Z" fill="#183AA0"/>
<path fill-rule="evenodd" clip-rule="evenodd" d="M807.399 34.7251C805.837 35.0288 804.46 35.9405 803.57 37.2598C802.68 38.579 802.351 40.1977 802.654 41.7598L811.689 88.2407C813.345 87.0213 815.264 86.1696 817.321 85.7698L866.403 76.2293L856.48 25.1847L807.399 34.7251ZM864.334 23.6582C863.929 21.5755 862.713 19.7389 860.954 18.5524C859.195 17.3659 857.037 16.9268 854.954 17.3317L805.873 26.8721C802.228 27.5806 799.014 29.708 796.937 32.7862C794.861 35.8645 794.093 39.6414 794.801 43.2862L806.25 102.184C806.958 105.829 809.086 109.043 812.164 111.119C815.242 113.195 819.019 113.964 822.664 113.255L871.745 103.715C873.828 103.31 875.665 102.094 876.851 100.335C878.038 98.5764 878.477 96.4181 878.072 94.3354L864.334 23.6582ZM867.929 84.0823L818.848 93.6228C817.286 93.9264 815.908 94.8381 815.018 96.1574C814.128 97.4766 813.799 99.0953 814.103 100.657C814.406 102.219 815.318 103.597 816.637 104.487C817.957 105.377 819.575 105.706 821.137 105.402L870.219 95.8619L867.929 84.0823Z" fill="#183AA0"/>
<path fill-rule="evenodd" clip-rule="evenodd" d="M832.048 46.2327C829.879 46.6543 828.463 48.7539 828.884 50.9225C829.306 53.091 831.406 54.5073 833.574 54.0858C835.743 53.6642 837.159 51.5646 836.737 49.396C836.316 47.2275 834.216 45.8112 832.048 46.2327ZM821.031 52.449C819.767 45.9433 824.016 39.6443 830.521 38.3797C837.027 37.1152 843.326 41.3639 844.59 47.8695C845.855 54.3752 841.606 60.6742 835.101 61.9388C828.595 63.2033 822.296 58.9546 821.031 52.449Z" fill="#183AA0"/>
</g>
<g opacity="0.5" filter="url(#filter8_f_92_15286)">
<ellipse cx="2018.23" cy="234.054" rx="78.2037" ry="13.8006" transform="rotate(0.999999 2018.23 234.054)" fill="#AAAAAA"/>
</g>
<g filter="url(#filter9_d_92_15286)">
<rect x="1929.43" y="50" width="184.009" height="184.009" rx="20" transform="rotate(0.999999 1929.43 50)" fill="#FFE4BE"/>
</g>
<path fill-rule="evenodd" clip-rule="evenodd" d="M2003.05 107.866C2002.33 107.22 2001.39 106.86 2000.42 106.852C2000.41 106.852 2000.4 106.852 2000.38 106.852L1988.39 106.643C1987.83 106.634 1987.28 106.74 1986.77 106.955C1986.26 107.171 1985.8 107.491 1985.41 107.894C1985.03 108.298 1984.74 108.776 1984.55 109.299C1984.37 109.814 1984.29 110.361 1984.33 110.906C1985.38 122.652 1989.17 133.988 1995.41 143.996L1995.43 144.026C2001.09 153.295 2008.73 161.204 2017.8 167.189L2017.82 167.202L2017.83 167.21C2027.57 173.769 2038.71 177.956 2050.35 179.434C2050.9 179.489 2051.45 179.431 2051.97 179.265C2052.5 179.096 2052.99 178.818 2053.4 178.448C2053.82 178.079 2054.16 177.627 2054.39 177.12C2054.62 176.614 2054.74 176.065 2054.75 175.508L2054.75 175.491L2054.96 163.493C2054.96 163.46 2054.96 163.427 2054.96 163.394C2055.01 162.414 2054.69 161.452 2054.06 160.693C2053.45 159.937 2052.57 159.434 2051.61 159.277C2047.49 158.658 2043.45 157.576 2039.57 156.051L2039.56 156.047C2038.85 155.766 2038.07 155.694 2037.32 155.841C2036.58 155.986 2035.89 156.343 2035.33 156.867L2035.33 156.874L2030.18 161.849C2028.88 163.1 2026.91 163.331 2025.36 162.414C2014.83 156.179 2006.17 147.216 2000.31 136.472C1999.45 134.892 1999.75 132.93 2001.04 131.679L2006.2 126.697C2006.74 126.164 2007.12 125.487 2007.29 124.745C2007.47 124 2007.42 123.221 2007.17 122.5L2007.16 122.491C2005.77 118.561 2004.83 114.488 2004.36 110.347C2004.24 109.389 2003.77 108.508 2003.05 107.866ZM2000.5 98.8529C2003.41 98.8802 2006.2 99.9599 2008.37 101.892C2010.55 103.829 2011.94 106.491 2012.3 109.381C2012.3 109.393 2012.3 109.405 2012.3 109.417C2012.71 112.965 2013.51 116.455 2014.7 119.822C2015.47 121.982 2015.61 124.316 2015.09 126.549C2014.57 128.785 2013.42 130.824 2011.78 132.427L2011.77 132.443L2008.85 135.261C2013.42 142.72 2019.57 149.09 2026.87 153.921L2029.79 151.103L2029.8 151.088C2031.46 149.503 2033.54 148.428 2035.79 147.989C2038.04 147.55 2040.37 147.764 2042.5 148.607C2045.83 149.914 2049.29 150.84 2052.82 151.368C2052.83 151.37 2052.84 151.372 2052.85 151.374C2055.76 151.836 2058.39 153.35 2060.26 155.629C2062.11 157.893 2063.07 160.755 2062.96 163.677L2062.75 175.626C2062.73 177.293 2062.36 178.937 2061.66 180.453C2060.97 181.972 2059.96 183.329 2058.71 184.437C2057.46 185.545 2055.99 186.379 2054.4 186.887C2052.81 187.395 2051.13 187.564 2049.46 187.385C2049.44 187.382 2049.42 187.379 2049.39 187.376C2036.49 185.746 2024.16 181.115 2013.37 173.855C2003.34 167.227 1994.89 158.473 1988.61 148.213C1981.71 137.132 1977.51 124.581 1976.36 111.576C1976.36 111.555 1976.35 111.534 1976.35 111.513C1976.23 109.852 1976.46 108.183 1977.02 106.614C1977.58 105.045 1978.46 103.609 1979.6 102.398C1980.75 101.188 1982.13 100.229 1983.67 99.5823C1985.2 98.9358 1986.85 98.6162 1988.52 98.6437L2000.5 98.8529Z" fill="#5E1D0E"/>
<g opacity="0.5" filter="url(#filter10_f_92_15286)">
<ellipse cx="2243.94" cy="611.832" rx="78.2037" ry="13.8006" transform="rotate(11.1588 2243.94 611.832)" fill="#AAAAAA"/>
</g>
<g filter="url(#filter11_d_92_15286)">
<rect x="2188.99" y="415" width="184.009" height="184.009" rx="20" transform="rotate(11.1588 2188.99 415)" fill="#E5FBD4"/>
</g>
<g clip-path="url(#clip4_92_15286)">
<path fill-rule="evenodd" clip-rule="evenodd" d="M2265.74 479.906C2266.92 479.331 2268.25 479.157 2269.53 479.411C2270.82 479.664 2271.98 480.331 2272.86 481.309C2273.73 482.287 2274.25 483.524 2274.35 484.829C2274.36 484.857 2274.36 484.884 2274.36 484.912L2275.81 510.21C2275.81 510.21 2275.81 510.211 2275.81 510.21C2275.86 510.924 2276.09 511.614 2276.49 512.207C2276.88 512.801 2277.43 513.277 2278.08 513.586C2278.08 513.586 2278.08 513.586 2278.08 513.586L2300.93 524.539C2300.95 524.549 2300.97 524.559 2300.99 524.569C2302.16 525.157 2303.11 526.114 2303.69 527.293C2304.27 528.472 2304.45 529.808 2304.19 531.096C2303.94 532.385 2303.27 533.554 2302.29 534.425C2301.3 535.296 2300.06 535.821 2298.75 535.919C2298.73 535.92 2298.71 535.922 2298.68 535.923L2273.39 537.378C2273.39 537.378 2273.38 537.378 2273.39 537.378C2272.67 537.42 2271.98 537.651 2271.39 538.049C2270.79 538.447 2270.32 538.997 2270.01 539.642L2259.05 562.493C2259.04 562.51 2259.04 562.528 2259.03 562.545C2259.02 562.552 2259.02 562.559 2259.02 562.566C2258.43 563.735 2257.47 564.679 2256.29 565.253C2255.12 565.828 2253.78 566.002 2252.5 565.748C2251.21 565.495 2250.05 564.828 2249.18 563.85C2248.31 562.872 2247.78 561.635 2247.68 560.33C2247.68 560.302 2247.67 560.275 2247.67 560.247L2246.22 534.949C2246.22 534.949 2246.22 534.948 2246.22 534.949C2246.18 534.235 2245.94 533.545 2245.55 532.952C2245.15 532.358 2244.6 531.882 2243.95 531.573L2221.1 520.615C2221.07 520.601 2221.04 520.587 2221.02 520.572C2219.85 519.98 2218.91 519.023 2218.34 517.849C2217.77 516.675 2217.6 515.346 2217.85 514.065C2218.11 512.784 2218.77 511.621 2219.74 510.751C2220.72 509.882 2221.95 509.353 2223.25 509.247C2223.28 509.244 2223.31 509.242 2223.35 509.24L2248.65 507.777C2249.36 507.736 2250.05 507.504 2250.64 507.107C2251.24 506.709 2251.71 506.159 2252.02 505.515L2262.98 482.666C2262.99 482.642 2263 482.617 2263.02 482.593C2263.61 481.424 2264.56 480.48 2265.74 479.906ZM2249.11 515.764L2231.6 516.776L2247.41 524.359C2249.35 525.287 2251 526.715 2252.19 528.497C2253.39 530.278 2254.08 532.346 2254.2 534.487L2255.21 551.999L2262.8 536.182C2263.72 534.249 2265.15 532.599 2266.93 531.405C2268.71 530.21 2270.78 529.515 2272.92 529.392L2290.44 528.384L2274.62 520.799C2272.69 519.872 2271.04 518.444 2269.84 516.662C2268.65 514.881 2267.95 512.813 2267.83 510.672L2266.82 493.159L2259.24 508.979C2258.31 510.911 2256.88 512.56 2255.1 513.753C2253.32 514.946 2251.25 515.64 2249.11 515.764Z" fill="#214306"/>
</g>
<path d="M880.808 322.04C880.808 323.853 881.261 325.32 882.168 326.44C883.074 327.507 884.328 328.36 885.928 329C887.528 329.587 889.288 330.093 891.207 330.52C893.181 330.893 895.208 331.293 897.288 331.72C899.368 332.093 901.368 332.627 903.288 333.32C905.261 333.96 907.021 334.867 908.568 336.04C910.168 337.16 911.421 338.627 912.328 340.44C913.288 342.253 913.768 344.547 913.768 347.32C913.768 350.893 912.861 353.933 911.048 356.44C909.288 358.947 906.861 360.84 903.768 362.12C900.674 363.4 897.128 364.04 893.128 364.04C889.128 364.04 885.554 363.427 882.408 362.2C879.314 360.973 876.728 359.107 874.648 356.6C872.621 354.093 871.234 350.947 870.488 347.16H879.848C880.648 350.253 882.168 352.627 884.408 354.28C886.648 355.88 889.581 356.68 893.208 356.68C896.941 356.68 899.768 355.933 901.688 354.44C903.608 352.947 904.568 350.973 904.568 348.52C904.568 346.6 904.114 345.053 903.208 343.88C902.301 342.653 901.048 341.72 899.448 341.08C897.848 340.387 896.061 339.827 894.088 339.4C892.168 338.92 890.168 338.467 888.088 338.04C886.008 337.613 883.981 337.08 882.008 336.44C880.088 335.8 878.328 334.947 876.728 333.88C875.181 332.76 873.928 331.32 872.967 329.56C872.061 327.8 871.608 325.533 871.608 322.76C871.608 320.04 872.354 317.533 873.848 315.24C875.341 312.893 877.501 311.027 880.328 309.64C883.208 308.253 886.728 307.56 890.888 307.56C894.461 307.56 897.741 308.173 900.728 309.4C903.768 310.573 906.301 312.413 908.328 314.92C910.354 317.373 911.688 320.6 912.328 324.6H902.808C902.061 321.24 900.648 318.787 898.568 317.24C896.488 315.693 893.848 314.92 890.648 314.92C887.554 314.92 885.128 315.587 883.368 316.92C881.661 318.2 880.808 319.907 880.808 322.04ZM920.194 363V320.36H928.754V363H920.194ZM920.194 315.08V305.4H928.754V315.08H920.194ZM937.5 363V320.36H946.06V363H937.5ZM946.06 337.96H942.7C942.967 333.8 943.767 330.333 945.1 327.56C946.433 324.787 948.22 322.707 950.46 321.32C952.7 319.933 955.233 319.24 958.06 319.24C960.833 319.24 963.207 319.827 965.18 321C967.207 322.12 968.753 323.827 969.82 326.12C970.94 328.36 971.5 331.16 971.5 334.52V363H962.94V336.28C962.94 334.2 962.673 332.44 962.14 331C961.607 329.507 960.78 328.36 959.66 327.56C958.54 326.76 957.1 326.36 955.34 326.36C953.9 326.36 952.593 326.707 951.42 327.4C950.3 328.04 949.313 328.893 948.46 329.96C947.66 331.027 947.047 332.253 946.62 333.64C946.247 335.027 946.06 336.467 946.06 337.96ZM971.5 337.96H967.1C967.367 333.8 968.193 330.333 969.58 327.56C970.967 324.787 972.807 322.707 975.1 321.32C977.447 319.933 980.113 319.24 983.1 319.24C985.927 319.24 988.38 319.827 990.46 321C992.54 322.12 994.14 323.827 995.26 326.12C996.38 328.36 996.94 331.16 996.94 334.52V363H988.38V336.28C988.38 334.2 988.113 332.44 987.58 331C987.047 329.507 986.22 328.36 985.1 327.56C983.98 326.76 982.54 326.36 980.78 326.36C979.34 326.36 978.033 326.707 976.86 327.4C975.74 328.04 974.78 328.893 973.98 329.96C973.18 331.027 972.567 332.253 972.14 333.64C971.713 335.027 971.5 336.467 971.5 337.96ZM1025.9 319.24C1029.69 319.24 1032.92 320.147 1035.58 321.96C1038.3 323.72 1040.38 326.28 1041.82 329.64C1043.26 332.947 1043.98 336.92 1043.98 341.56C1043.98 348.813 1042.36 354.387 1039.1 358.28C1035.85 362.12 1031.45 364.04 1025.9 364.04C1021.1 364.04 1017.26 362.12 1014.38 358.28C1011.56 354.44 1010.14 348.867 1010.14 341.56C1010.14 337.027 1010.78 333.08 1012.06 329.72C1013.34 326.36 1015.18 323.773 1017.58 321.96C1019.98 320.147 1022.76 319.24 1025.9 319.24ZM1024.86 326.44C1021.4 326.44 1018.76 327.747 1016.94 330.36C1015.18 332.92 1014.3 336.653 1014.3 341.56C1014.3 346.467 1015.21 350.253 1017.02 352.92C1018.89 355.533 1021.5 356.84 1024.86 356.84C1028.22 356.84 1030.78 355.533 1032.54 352.92C1034.36 350.307 1035.26 346.52 1035.26 341.56C1035.26 336.707 1034.36 332.973 1032.54 330.36C1030.73 327.747 1028.17 326.44 1024.86 326.44ZM1014.3 380.6H1005.74V320.36H1014.3V380.6ZM1050.71 363V305.4H1059.27V363H1050.71ZM1068.01 363V320.36H1076.57V363H1068.01ZM1068.01 315.08V305.4H1076.57V315.08H1068.01ZM1086.28 318.12C1086.28 313.48 1087.27 310.04 1089.24 307.8C1091.27 305.507 1094.25 304.36 1098.2 304.36C1099.32 304.36 1100.28 304.44 1101.08 304.6C1101.88 304.76 1102.49 304.947 1102.92 305.16V310.92H1102.12C1099.19 310.92 1097.21 311.533 1096.2 312.76C1095.24 313.933 1094.76 315.747 1094.76 318.2V363H1086.28V318.12ZM1080.52 327V320.36H1102.92V327H1080.52ZM1109.65 381.64C1108.74 381.64 1107.84 381.533 1106.93 381.32C1106.08 381.16 1105.41 381 1104.93 380.84V374.28H1107.25C1108.42 374.28 1109.46 374.173 1110.37 373.96C1111.28 373.8 1112.1 373.373 1112.85 372.68C1113.6 372.04 1114.34 371.053 1115.09 369.72C1115.89 368.44 1116.74 366.68 1117.65 364.44L1118.93 361.48L1101.81 320.36H1111.01L1121.57 346.92L1123.89 354.44H1122.85L1125.25 346.92L1135.49 320.36H1144.21L1124.85 367.96C1123.78 370.627 1122.72 372.84 1121.65 374.6C1120.64 376.36 1119.57 377.747 1118.45 378.76C1117.33 379.827 1116.05 380.573 1114.61 381C1113.22 381.427 1111.57 381.64 1109.65 381.64ZM1148.21 363V320.36H1156.77V363H1148.21ZM1148.21 315.08V305.4H1156.77V315.08H1148.21ZM1165.52 363V320.36H1174.08V363H1165.52ZM1174.08 337.96H1170.72C1170.99 333.8 1171.81 330.333 1173.2 327.56C1174.64 324.787 1176.53 322.707 1178.88 321.32C1181.23 319.933 1183.92 319.24 1186.96 319.24C1189.95 319.24 1192.51 319.827 1194.64 321C1196.77 322.12 1198.43 323.827 1199.6 326.12C1200.77 328.36 1201.36 331.16 1201.36 334.52V363H1192.88V336.28C1192.88 334.2 1192.56 332.44 1191.92 331C1191.28 329.507 1190.35 328.36 1189.12 327.56C1187.89 326.76 1186.29 326.36 1184.32 326.36C1182.72 326.36 1181.28 326.707 1180 327.4C1178.72 328.04 1177.63 328.893 1176.72 329.96C1175.87 331.027 1175.2 332.253 1174.72 333.64C1174.29 335.027 1174.08 336.467 1174.08 337.96ZM1225.53 363.24C1221.9 363.24 1218.78 362.36 1216.17 360.6C1213.56 358.84 1211.56 356.333 1210.17 353.08C1208.78 349.773 1208.09 345.853 1208.09 341.32C1208.09 334.173 1209.64 328.707 1212.73 324.92C1215.88 321.133 1220.14 319.24 1225.53 319.24C1231.02 319.24 1235.13 321.16 1237.85 325C1240.57 328.787 1241.93 334.2 1241.93 341.24C1241.93 348.44 1240.44 353.907 1237.45 357.64C1234.52 361.373 1230.54 363.24 1225.53 363.24ZM1227.29 356.04C1230.7 356.04 1233.29 354.787 1235.05 352.28C1236.86 349.72 1237.77 346.04 1237.77 341.24C1237.77 336.547 1236.84 332.92 1234.97 330.36C1233.16 327.747 1230.6 326.44 1227.29 326.44C1223.88 326.44 1221.26 327.72 1219.45 330.28C1217.69 332.787 1216.81 336.467 1216.81 341.32C1216.81 346.013 1217.72 349.64 1219.53 352.2C1221.34 354.76 1223.93 356.04 1227.29 356.04ZM1246.33 364.36C1246.33 368.253 1245.53 371.48 1243.93 374.04C1242.33 376.6 1240.17 378.52 1237.45 379.8C1234.78 381.08 1231.74 381.72 1228.33 381.72C1223.21 381.72 1218.92 380.493 1215.45 378.04C1212.04 375.64 1209.96 371.96 1209.21 367H1217.77C1218.14 369.56 1219.26 371.507 1221.13 372.84C1223.05 374.173 1225.42 374.84 1228.25 374.84C1231.13 374.84 1233.42 374.04 1235.13 372.44C1236.89 370.84 1237.77 368.2 1237.77 364.52V320.36H1246.33V364.36ZM1303.87 319.88C1303.87 322.28 1303.39 324.307 1302.43 325.96C1301.53 327.56 1300.27 328.893 1298.67 329.96C1297.07 331.027 1295.34 331.96 1293.47 332.76C1291.61 333.507 1289.71 334.28 1287.79 335.08C1285.93 335.827 1284.19 336.733 1282.59 337.8C1280.99 338.813 1279.71 340.093 1278.75 341.64C1277.85 343.133 1277.39 345.053 1277.39 347.4C1277.39 349.213 1277.82 350.84 1278.67 352.28C1279.58 353.667 1280.91 354.787 1282.67 355.64C1284.43 356.44 1286.57 356.84 1289.07 356.84C1291.69 356.84 1294.11 356.36 1296.35 355.4C1298.59 354.387 1300.51 352.947 1302.11 351.08C1303.77 349.16 1305.05 346.813 1305.95 344.04C1306.91 341.267 1307.39 338.12 1307.39 334.6H1315.79C1315.79 338.387 1315.21 342.04 1314.03 345.56C1312.86 349.08 1311.1 352.253 1308.75 355.08C1306.46 357.853 1303.61 360.04 1300.19 361.64C1296.83 363.24 1292.91 364.04 1288.43 364.04C1284.33 364.04 1280.78 363.347 1277.79 361.96C1274.86 360.52 1272.59 358.573 1270.99 356.12C1269.45 353.613 1268.67 350.84 1268.67 347.8C1268.67 344.973 1269.15 342.6 1270.11 340.68C1271.13 338.707 1272.43 337.053 1274.03 335.72C1275.63 334.387 1277.39 333.267 1279.31 332.36C1281.23 331.4 1283.13 330.547 1284.99 329.8C1286.91 329 1288.67 328.2 1290.27 327.4C1291.87 326.547 1293.15 325.587 1294.11 324.52C1295.13 323.4 1295.63 322.04 1295.63 320.44C1295.63 319.427 1295.39 318.493 1294.91 317.64C1294.43 316.733 1293.71 316.013 1292.75 315.48C1291.85 314.893 1290.75 314.6 1289.47 314.6C1287.45 314.6 1285.82 315.16 1284.59 316.28C1283.37 317.4 1282.75 318.76 1282.75 320.36C1282.75 321.693 1283.05 322.947 1283.63 324.12C1284.27 325.24 1285.26 326.493 1286.59 327.88C1287.93 329.213 1289.58 330.867 1291.55 332.84L1322.91 363H1311.63L1286.19 338.92C1283.26 336.093 1280.91 333.693 1279.15 331.72C1277.45 329.747 1276.22 327.88 1275.47 326.12C1274.73 324.307 1274.35 322.387 1274.35 320.36C1274.35 317.8 1274.99 315.56 1276.27 313.64C1277.61 311.72 1279.42 310.227 1281.71 309.16C1284.01 308.093 1286.62 307.56 1289.55 307.56C1292.7 307.56 1295.34 308.147 1297.47 309.32C1299.61 310.493 1301.21 312.013 1302.27 313.88C1303.34 315.747 1303.87 317.747 1303.87 319.88ZM1342.38 363V308.6H1351.34V363H1342.38ZM1363.58 339.32H1348.86V333.8H1362.38C1365.74 333.8 1368.3 333 1370.06 331.4C1371.87 329.747 1372.78 327.533 1372.78 324.76C1372.78 322.04 1371.87 319.88 1370.06 318.28C1368.3 316.627 1365.79 315.8 1362.54 315.8H1348.86V308.6H1362.78C1368.64 308.6 1373.31 310.013 1376.78 312.84C1380.24 315.613 1381.98 319.427 1381.98 324.28C1381.98 329.187 1380.3 332.92 1376.94 335.48C1373.63 338.04 1369.18 339.32 1363.58 339.32ZM1375.1 363L1371.82 348.44C1371.34 346.36 1370.7 344.787 1369.9 343.72C1369.15 342.653 1368.14 341.933 1366.86 341.56C1365.58 341.187 1363.95 341 1361.98 341H1350.38V335.24H1363.26C1366.88 335.24 1369.82 335.587 1372.06 336.28C1374.35 336.92 1376.14 338.067 1377.42 339.72C1378.7 341.373 1379.71 343.693 1380.46 346.68L1384.54 363H1375.1ZM1424.29 337.48L1419.41 341.48C1419.41 336.627 1418.45 332.893 1416.53 330.28C1414.61 327.667 1411.86 326.36 1408.29 326.36C1404.66 326.36 1401.89 327.693 1399.97 330.36C1398.1 332.973 1397.17 336.76 1397.17 341.72C1397.17 346.573 1398.15 350.333 1400.13 353C1402.15 355.613 1405.01 356.92 1408.69 356.92C1411.41 356.92 1413.67 356.28 1415.49 355C1417.35 353.72 1418.66 351.747 1419.41 349.08H1428.37C1427.19 354.04 1424.85 357.773 1421.33 360.28C1417.86 362.787 1413.65 364.04 1408.69 364.04C1404.53 364.04 1400.93 363.16 1397.89 361.4C1394.85 359.587 1392.5 357 1390.85 353.64C1389.25 350.28 1388.45 346.307 1388.45 341.72C1388.45 336.867 1389.25 332.787 1390.85 329.48C1392.5 326.12 1394.82 323.587 1397.81 321.88C1400.79 320.12 1404.29 319.24 1408.29 319.24C1412.39 319.24 1415.91 320.147 1418.85 321.96C1421.78 323.72 1424.05 326.227 1425.65 329.48C1427.25 332.733 1428.05 336.653 1428.05 341.24V343.32H1391.97V337.48H1424.29ZM1451.02 364.04C1447.29 364.04 1444.06 363.16 1441.34 361.4C1438.62 359.587 1436.54 357 1435.1 353.64C1433.66 350.28 1432.94 346.307 1432.94 341.72C1432.94 334.467 1434.57 328.92 1437.82 325.08C1441.08 321.187 1445.48 319.24 1451.02 319.24C1455.82 319.24 1459.64 321.16 1462.46 325C1465.34 328.84 1466.78 334.413 1466.78 341.72C1466.78 346.307 1466.14 350.28 1464.86 353.64C1463.58 356.947 1461.74 359.507 1459.34 361.32C1457 363.133 1454.22 364.04 1451.02 364.04ZM1452.14 356.84C1455.56 356.84 1458.14 355.56 1459.9 353C1461.72 350.387 1462.62 346.627 1462.62 341.72C1462.62 336.813 1461.69 333.053 1459.82 330.44C1458.01 327.773 1455.45 326.44 1452.14 326.44C1448.73 326.44 1446.12 327.747 1444.3 330.36C1442.54 332.973 1441.66 336.76 1441.66 341.72C1441.66 346.573 1442.57 350.307 1444.38 352.92C1446.25 355.533 1448.84 356.84 1452.14 356.84ZM1462.62 363V305.4H1471.18V363H1462.62ZM1513.67 337.48L1508.79 341.48C1508.79 336.627 1507.83 332.893 1505.91 330.28C1503.99 327.667 1501.24 326.36 1497.67 326.36C1494.04 326.36 1491.27 327.693 1489.35 330.36C1487.48 332.973 1486.55 336.76 1486.55 341.72C1486.55 346.573 1487.53 350.333 1489.51 353C1491.53 355.613 1494.39 356.92 1498.07 356.92C1500.79 356.92 1503.05 356.28 1504.87 355C1506.73 353.72 1508.04 351.747 1508.79 349.08H1517.75C1516.57 354.04 1514.23 357.773 1510.71 360.28C1507.24 362.787 1503.03 364.04 1498.07 364.04C1493.91 364.04 1490.31 363.16 1487.27 361.4C1484.23 359.587 1481.88 357 1480.23 353.64C1478.63 350.28 1477.83 346.307 1477.83 341.72C1477.83 336.867 1478.63 332.787 1480.23 329.48C1481.88 326.12 1484.2 323.587 1487.19 321.88C1490.17 320.12 1493.67 319.24 1497.67 319.24C1501.77 319.24 1505.29 320.147 1508.23 321.96C1511.16 323.72 1513.43 326.227 1515.03 329.48C1516.63 332.733 1517.43 336.653 1517.43 341.24V343.32H1481.35V337.48H1513.67ZM1531.2 331.56C1531.2 333.107 1531.68 334.307 1532.64 335.16C1533.6 335.96 1534.91 336.6 1536.56 337.08C1538.21 337.507 1540 337.88 1541.92 338.2C1543.89 338.467 1545.84 338.84 1547.76 339.32C1549.68 339.747 1551.44 340.387 1553.04 341.24C1554.69 342.04 1556 343.187 1556.96 344.68C1557.97 346.173 1558.48 348.173 1558.48 350.68C1558.48 353.347 1557.73 355.693 1556.24 357.72C1554.75 359.747 1552.67 361.32 1550 362.44C1547.39 363.507 1544.35 364.04 1540.88 364.04C1535.76 364.04 1531.47 362.84 1528 360.44C1524.59 357.987 1522.48 354.2 1521.68 349.08H1530.24C1530.67 351.747 1531.84 353.8 1533.76 355.24C1535.68 356.68 1538.13 357.4 1541.12 357.4C1544 357.4 1546.19 356.813 1547.68 355.64C1549.17 354.467 1549.92 353 1549.92 351.24C1549.92 349.747 1549.44 348.573 1548.48 347.72C1547.52 346.867 1546.21 346.253 1544.56 345.88C1542.96 345.453 1541.2 345.08 1539.28 344.76C1537.36 344.44 1535.44 344.067 1533.52 343.64C1531.65 343.16 1529.92 342.493 1528.32 341.64C1526.72 340.787 1525.44 339.613 1524.48 338.12C1523.52 336.573 1523.04 334.547 1523.04 332.04C1523.04 329.8 1523.6 327.72 1524.72 325.8C1525.89 323.827 1527.65 322.253 1530 321.08C1532.4 319.853 1535.41 319.24 1539.04 319.24C1542.24 319.24 1545.09 319.773 1547.6 320.84C1550.11 321.853 1552.19 323.48 1553.84 325.72C1555.49 327.907 1556.53 330.76 1556.96 334.28H1548.4C1547.92 331.293 1546.85 329.187 1545.2 327.96C1543.55 326.68 1541.36 326.04 1538.64 326.04C1536.29 326.04 1534.45 326.573 1533.12 327.64C1531.84 328.653 1531.2 329.96 1531.2 331.56ZM1564.67 363V320.36H1573.23V363H1564.67ZM1564.67 315.08V305.4H1573.23V315.08H1564.67ZM1597.34 363.24C1593.71 363.24 1590.59 362.36 1587.98 360.6C1585.37 358.84 1583.37 356.333 1581.98 353.08C1580.59 349.773 1579.9 345.853 1579.9 341.32C1579.9 334.173 1581.45 328.707 1584.54 324.92C1587.69 321.133 1591.95 319.24 1597.34 319.24C1602.83 319.24 1606.94 321.16 1609.66 325C1612.38 328.787 1613.74 334.2 1613.74 341.24C1613.74 348.44 1612.25 353.907 1609.26 357.64C1606.33 361.373 1602.35 363.24 1597.34 363.24ZM1599.1 356.04C1602.51 356.04 1605.1 354.787 1606.86 352.28C1608.67 349.72 1609.58 346.04 1609.58 341.24C1609.58 336.547 1608.65 332.92 1606.78 330.36C1604.97 327.747 1602.41 326.44 1599.1 326.44C1595.69 326.44 1593.07 327.72 1591.26 330.28C1589.5 332.787 1588.62 336.467 1588.62 341.32C1588.62 346.013 1589.53 349.64 1591.34 352.2C1593.15 354.76 1595.74 356.04 1599.1 356.04ZM1618.14 364.36C1618.14 368.253 1617.34 371.48 1615.74 374.04C1614.14 376.6 1611.98 378.52 1609.26 379.8C1606.59 381.08 1603.55 381.72 1600.14 381.72C1595.02 381.72 1590.73 380.493 1587.26 378.04C1583.85 375.64 1581.77 371.96 1581.02 367H1589.58C1589.95 369.56 1591.07 371.507 1592.94 372.84C1594.86 374.173 1597.23 374.84 1600.06 374.84C1602.94 374.84 1605.23 374.04 1606.94 372.44C1608.7 370.84 1609.58 368.2 1609.58 364.52V320.36H1618.14V364.36ZM1626.94 363V320.36H1635.5V363H1626.94ZM1635.5 337.96H1632.14C1632.41 333.8 1633.24 330.333 1634.62 327.56C1636.06 324.787 1637.96 322.707 1640.3 321.32C1642.65 319.933 1645.34 319.24 1648.38 319.24C1651.37 319.24 1653.93 319.827 1656.06 321C1658.2 322.12 1659.85 323.827 1661.02 326.12C1662.2 328.36 1662.78 331.16 1662.78 334.52V363H1654.3V336.28C1654.3 334.2 1653.98 332.44 1653.34 331C1652.7 329.507 1651.77 328.36 1650.54 327.56C1649.32 326.76 1647.72 326.36 1645.74 326.36C1644.14 326.36 1642.7 326.707 1641.42 327.4C1640.14 328.04 1639.05 328.893 1638.14 329.96C1637.29 331.027 1636.62 332.253 1636.14 333.64C1635.72 335.027 1635.5 336.467 1635.5 337.96ZM1671.59 363V320.36H1680.15V363H1671.59ZM1671.59 315.08V305.4H1680.15V315.08H1671.59ZM1688.9 363V320.36H1697.46V363H1688.9ZM1697.46 337.96H1694.1C1694.37 333.8 1695.19 330.333 1696.58 327.56C1698.02 324.787 1699.91 322.707 1702.26 321.32C1704.61 319.933 1707.3 319.24 1710.34 319.24C1713.33 319.24 1715.89 319.827 1718.02 321C1720.15 322.12 1721.81 323.827 1722.98 326.12C1724.15 328.36 1724.74 331.16 1724.74 334.52V363H1716.26V336.28C1716.26 334.2 1715.94 332.44 1715.3 331C1714.66 329.507 1713.73 328.36 1712.5 327.56C1711.27 326.76 1709.67 326.36 1707.7 326.36C1706.1 326.36 1704.66 326.707 1703.38 327.4C1702.1 328.04 1701.01 328.893 1700.1 329.96C1699.25 331.027 1698.58 332.253 1698.1 333.64C1697.67 335.027 1697.46 336.467 1697.46 337.96ZM1748.91 363.24C1745.28 363.24 1742.16 362.36 1739.55 360.6C1736.94 358.84 1734.94 356.333 1733.55 353.08C1732.16 349.773 1731.47 345.853 1731.47 341.32C1731.47 334.173 1733.02 328.707 1736.11 324.92C1739.26 321.133 1743.52 319.24 1748.91 319.24C1754.4 319.24 1758.51 321.16 1761.23 325C1763.95 328.787 1765.31 334.2 1765.31 341.24C1765.31 348.44 1763.82 353.907 1760.83 357.64C1757.9 361.373 1753.92 363.24 1748.91 363.24ZM1750.67 356.04C1754.08 356.04 1756.67 354.787 1758.43 352.28C1760.24 349.72 1761.15 346.04 1761.15 341.24C1761.15 336.547 1760.22 332.92 1758.35 330.36C1756.54 327.747 1753.98 326.44 1750.67 326.44C1747.26 326.44 1744.64 327.72 1742.83 330.28C1741.07 332.787 1740.19 336.467 1740.19 341.32C1740.19 346.013 1741.1 349.64 1742.91 352.2C1744.72 354.76 1747.31 356.04 1750.67 356.04ZM1769.71 364.36C1769.71 368.253 1768.91 371.48 1767.31 374.04C1765.71 376.6 1763.55 378.52 1760.83 379.8C1758.16 381.08 1755.12 381.72 1751.71 381.72C1746.59 381.72 1742.3 380.493 1738.83 378.04C1735.42 375.64 1733.34 371.96 1732.59 367H1741.15C1741.52 369.56 1742.64 371.507 1744.51 372.84C1746.43 374.173 1748.8 374.84 1751.63 374.84C1754.51 374.84 1756.8 374.04 1758.51 372.44C1760.27 370.84 1761.15 368.2 1761.15 364.52V320.36H1769.71V364.36ZM895.305 430.28H886.745C887.225 427.133 888.238 424.44 889.785 422.2C891.332 419.96 893.412 418.253 896.025 417.08C898.638 415.853 901.705 415.24 905.225 415.24C909.065 415.24 912.265 415.96 914.825 417.4C917.438 418.787 919.385 420.733 920.665 423.24C921.945 425.747 922.585 428.653 922.585 431.96V448.6C922.585 451.16 922.692 453.24 922.905 454.84C923.172 456.44 923.545 457.827 924.025 459H915.065C914.585 457.933 914.292 456.6 914.185 455C914.078 453.4 914.025 451.773 914.025 450.12V432.04C914.025 428.947 913.252 426.573 911.705 424.92C910.212 423.267 907.838 422.44 904.585 422.44C901.812 422.44 899.652 423.16 898.105 424.6C896.612 425.987 895.678 427.88 895.305 430.28ZM915.225 433V438.84C910.852 438.84 907.278 439.053 904.505 439.48C901.732 439.907 899.572 440.52 898.025 441.32C896.478 442.067 895.412 442.973 894.825 444.04C894.238 445.053 893.945 446.2 893.945 447.48C893.945 449.293 894.638 450.733 896.025 451.8C897.412 452.813 899.225 453.32 901.465 453.32C903.865 453.32 905.998 452.76 907.865 451.64C909.785 450.467 911.278 448.92 912.345 447C913.465 445.08 914.025 443 914.025 440.76H917.865C917.652 444.173 916.985 447.107 915.865 449.56C914.745 452.013 913.305 454.013 911.545 455.56C909.838 457.107 907.972 458.253 905.945 459C903.918 459.693 901.892 460.04 899.865 460.04C896.985 460.04 894.452 459.587 892.265 458.68C890.078 457.773 888.372 456.413 887.145 454.6C885.918 452.787 885.305 450.52 885.305 447.8C885.305 444.867 886.105 442.36 887.705 440.28C889.305 438.2 891.705 436.6 894.905 435.48C897.892 434.467 900.985 433.8 904.185 433.48C907.385 433.16 911.065 433 915.225 433ZM931.719 459V416.36H940.279V459H931.719ZM940.279 433.96H936.919C937.185 429.8 938.012 426.333 939.399 423.56C940.839 420.787 942.732 418.707 945.079 417.32C947.425 415.933 950.119 415.24 953.159 415.24C956.145 415.24 958.705 415.827 960.839 417C962.972 418.12 964.625 419.827 965.799 422.12C966.972 424.36 967.559 427.16 967.559 430.52V459H959.079V432.28C959.079 430.2 958.759 428.44 958.119 427C957.479 425.507 956.545 424.36 955.319 423.56C954.092 422.76 952.492 422.36 950.519 422.36C948.919 422.36 947.479 422.707 946.199 423.4C944.919 424.04 943.825 424.893 942.919 425.96C942.065 427.027 941.399 428.253 940.919 429.64C940.492 431.027 940.279 432.467 940.279 433.96ZM996.29 446.76V439.72H1023.73V446.76H996.29ZM1027.17 459L1011.73 418.52L1009.89 412.44H1010.37L1008.53 418.52L993.09 459H984.13L1005.09 404.6H1015.57L1036.53 459H1027.17ZM1042.17 459V404.6H1051.13V459H1042.17ZM1075.3 459V404.6H1084.26V459H1075.3ZM1094.82 439.72H1081.78V432.52H1094.34C1098.07 432.52 1100.95 431.587 1102.98 429.72C1105 427.853 1106.02 425.347 1106.02 422.2C1106.02 419 1105 416.467 1102.98 414.6C1100.95 412.733 1098.15 411.8 1094.58 411.8H1081.78V404.6H1094.66C1098.92 404.6 1102.58 405.32 1105.62 406.76C1108.71 408.147 1111.08 410.147 1112.74 412.76C1114.39 415.32 1115.22 418.44 1115.22 422.12C1115.22 427.72 1113.35 432.067 1109.62 435.16C1105.94 438.2 1101 439.72 1094.82 439.72ZM1121.88 459V416.36H1130.44V459H1121.88ZM1130.44 435.72H1127.24C1127.46 430.92 1128.28 427.027 1129.72 424.04C1131.22 421 1133.06 418.787 1135.24 417.4C1137.48 415.96 1139.94 415.24 1142.6 415.24C1143.46 415.24 1144.26 415.347 1145 415.56C1145.75 415.72 1146.31 415.987 1146.68 416.36V423.88C1146.04 423.667 1145.35 423.533 1144.6 423.48C1143.86 423.373 1143.03 423.32 1142.12 423.32C1140.1 423.32 1138.34 423.613 1136.84 424.2C1135.4 424.787 1134.2 425.64 1133.24 426.76C1132.28 427.827 1131.56 429.133 1131.08 430.68C1130.66 432.173 1130.44 433.853 1130.44 435.72ZM1167.97 460.04C1163.86 460.04 1160.31 459.16 1157.33 457.4C1154.34 455.587 1152.05 453 1150.45 449.64C1148.85 446.28 1148.05 442.307 1148.05 437.72C1148.05 432.867 1148.85 428.787 1150.45 425.48C1152.1 422.12 1154.42 419.587 1157.41 417.88C1160.45 416.12 1163.97 415.24 1167.97 415.24C1172.13 415.24 1175.7 416.147 1178.69 417.96C1181.67 419.773 1183.94 422.36 1185.49 425.72C1187.09 429.027 1187.89 433.027 1187.89 437.72C1187.89 442.467 1187.09 446.52 1185.49 449.88C1183.89 453.187 1181.59 455.72 1178.61 457.48C1175.62 459.187 1172.07 460.04 1167.97 460.04ZM1167.97 452.84C1171.59 452.84 1174.37 451.533 1176.29 448.92C1178.21 446.307 1179.17 442.573 1179.17 437.72C1179.17 432.813 1178.21 429.053 1176.29 426.44C1174.37 423.773 1171.59 422.44 1167.97 422.44C1164.34 422.44 1161.57 423.747 1159.65 426.36C1157.73 428.973 1156.77 432.76 1156.77 437.72C1156.77 442.573 1157.73 446.307 1159.65 448.92C1161.62 451.533 1164.39 452.84 1167.97 452.84ZM1210.62 460.04C1206.89 460.04 1203.66 459.16 1200.94 457.4C1198.22 455.587 1196.14 453 1194.7 449.64C1193.26 446.28 1192.54 442.307 1192.54 437.72C1192.54 430.467 1194.17 424.92 1197.42 421.08C1200.68 417.187 1205.08 415.24 1210.62 415.24C1215.42 415.24 1219.24 417.16 1222.06 421C1224.94 424.84 1226.38 430.413 1226.38 437.72C1226.38 442.307 1225.74 446.28 1224.46 449.64C1223.18 452.947 1221.34 455.507 1218.94 457.32C1216.6 459.133 1213.82 460.04 1210.62 460.04ZM1211.74 452.84C1215.16 452.84 1217.74 451.56 1219.5 449C1221.32 446.387 1222.22 442.627 1222.22 437.72C1222.22 432.813 1221.29 429.053 1219.42 426.44C1217.61 423.773 1215.05 422.44 1211.74 422.44C1208.33 422.44 1205.72 423.747 1203.9 426.36C1202.14 428.973 1201.26 432.76 1201.26 437.72C1201.26 442.573 1202.17 446.307 1203.98 448.92C1205.85 451.533 1208.44 452.84 1211.74 452.84ZM1222.22 459V401.4H1230.78V459H1222.22ZM1274.87 416.36V459H1266.39V416.36H1274.87ZM1266.39 441.32H1269.67C1269.45 445.533 1268.63 449.027 1267.19 451.8C1265.8 454.573 1263.93 456.653 1261.59 458.04C1259.29 459.373 1256.65 460.04 1253.67 460.04C1250.79 460.04 1248.28 459.48 1246.15 458.36C1244.01 457.187 1242.36 455.48 1241.19 453.24C1240.07 451 1239.51 448.2 1239.51 444.84V416.36H1248.07V443.08C1248.07 445.107 1248.36 446.867 1248.95 448.36C1249.53 449.853 1250.44 451 1251.67 451.8C1252.89 452.547 1254.44 452.92 1256.31 452.92C1257.85 452.92 1259.24 452.6 1260.47 451.96C1261.75 451.32 1262.81 450.467 1263.67 449.4C1264.52 448.28 1265.19 447.027 1265.67 445.64C1266.15 444.253 1266.39 442.813 1266.39 441.32ZM1319.77 431.24H1311.21C1310.67 428.2 1309.5 425.987 1307.69 424.6C1305.93 423.16 1303.79 422.44 1301.29 422.44C1297.71 422.44 1294.99 423.747 1293.13 426.36C1291.26 428.973 1290.33 432.76 1290.33 437.72C1290.33 442.573 1291.29 446.333 1293.21 449C1295.18 451.613 1297.95 452.92 1301.53 452.92C1304.09 452.92 1306.22 452.227 1307.93 450.84C1309.69 449.453 1310.89 447.4 1311.53 444.68H1320.01C1319.1 450.013 1316.94 453.907 1313.53 456.36C1310.17 458.813 1306.11 460.04 1301.37 460.04C1297.26 460.04 1293.74 459.16 1290.81 457.4C1287.87 455.587 1285.61 453 1284.01 449.64C1282.41 446.28 1281.61 442.307 1281.61 437.72C1281.61 432.867 1282.41 428.787 1284.01 425.48C1285.61 422.12 1287.87 419.587 1290.81 417.88C1293.74 416.12 1297.23 415.24 1301.29 415.24C1304.49 415.24 1307.39 415.853 1310.01 417.08C1312.62 418.253 1314.78 420.013 1316.49 422.36C1318.19 424.707 1319.29 427.667 1319.77 431.24ZM1327.5 446.28V406.52H1336.06V445.8C1336.06 448.253 1336.54 450.067 1337.5 451.24C1338.52 452.413 1340.49 453 1343.42 453H1345.1V459.24C1344.68 459.507 1343.96 459.693 1342.94 459.8C1341.98 459.96 1340.92 460.04 1339.74 460.04C1335.64 460.04 1332.57 458.893 1330.54 456.6C1328.52 454.307 1327.5 450.867 1327.5 446.28ZM1321.74 423V416.36H1345.26V423H1321.74ZM1364.84 459V404.6H1373.8V459H1364.84ZM1371.32 459V451.8H1402.36V459H1371.32ZM1371.32 411.8V404.6H1402.36V411.8H1371.32ZM1371.32 434.44V427.32H1399.32V434.44H1371.32ZM1436.12 459L1427 445.88L1424.12 440.84H1425.8L1422.84 445.88L1413.96 459H1404.52L1420.28 436.84L1405.72 416.36H1416.04L1423.96 427.88L1426.84 433H1425.16L1428.12 427.88L1435.88 416.36H1445.24L1430.68 436.84L1446.44 459H1436.12ZM1470.61 415.24C1474.4 415.24 1477.63 416.147 1480.29 417.96C1483.01 419.72 1485.09 422.28 1486.53 425.64C1487.97 428.947 1488.69 432.92 1488.69 437.56C1488.69 444.813 1487.07 450.387 1483.81 454.28C1480.56 458.12 1476.16 460.04 1470.61 460.04C1465.81 460.04 1461.97 458.12 1459.09 454.28C1456.27 450.44 1454.85 444.867 1454.85 437.56C1454.85 433.027 1455.49 429.08 1456.77 425.72C1458.05 422.36 1459.89 419.773 1462.29 417.96C1464.69 416.147 1467.47 415.24 1470.61 415.24ZM1469.57 422.44C1466.11 422.44 1463.47 423.747 1461.65 426.36C1459.89 428.92 1459.01 432.653 1459.01 437.56C1459.01 442.467 1459.92 446.253 1461.73 448.92C1463.6 451.533 1466.21 452.84 1469.57 452.84C1472.93 452.84 1475.49 451.533 1477.25 448.92C1479.07 446.307 1479.97 442.52 1479.97 437.56C1479.97 432.707 1479.07 428.973 1477.25 426.36C1475.44 423.747 1472.88 422.44 1469.57 422.44ZM1459.01 476.6H1450.45V416.36H1459.01V476.6ZM1529.18 433.48L1524.3 437.48C1524.3 432.627 1523.34 428.893 1521.42 426.28C1519.5 423.667 1516.75 422.36 1513.18 422.36C1509.55 422.36 1506.78 423.693 1504.86 426.36C1502.99 428.973 1502.06 432.76 1502.06 437.72C1502.06 442.573 1503.04 446.333 1505.02 449C1507.04 451.613 1509.9 452.92 1513.58 452.92C1516.3 452.92 1518.56 452.28 1520.38 451C1522.24 449.72 1523.55 447.747 1524.3 445.08H1533.26C1532.08 450.04 1529.74 453.773 1526.22 456.28C1522.75 458.787 1518.54 460.04 1513.58 460.04C1509.42 460.04 1505.82 459.16 1502.78 457.4C1499.74 455.587 1497.39 453 1495.74 449.64C1494.14 446.28 1493.34 442.307 1493.34 437.72C1493.34 432.867 1494.14 428.787 1495.74 425.48C1497.39 422.12 1499.71 419.587 1502.7 417.88C1505.68 416.12 1509.18 415.24 1513.18 415.24C1517.28 415.24 1520.8 416.147 1523.74 417.96C1526.67 419.72 1528.94 422.227 1530.54 425.48C1532.14 428.733 1532.94 432.653 1532.94 437.24V439.32H1496.86V433.48H1529.18ZM1539.91 459V416.36H1548.47V459H1539.91ZM1548.47 435.72H1545.27C1545.48 430.92 1546.31 427.027 1547.75 424.04C1549.24 421 1551.08 418.787 1553.27 417.4C1555.51 415.96 1557.96 415.24 1560.63 415.24C1561.48 415.24 1562.28 415.347 1563.03 415.56C1563.78 415.72 1564.34 415.987 1564.71 416.36V423.88C1564.07 423.667 1563.38 423.533 1562.63 423.48C1561.88 423.373 1561.06 423.32 1560.15 423.32C1558.12 423.32 1556.36 423.613 1554.87 424.2C1553.43 424.787 1552.23 425.64 1551.27 426.76C1550.31 427.827 1549.59 429.133 1549.11 430.68C1548.68 432.173 1548.47 433.853 1548.47 435.72ZM1568.93 459V416.36H1577.49V459H1568.93ZM1568.93 411.08V401.4H1577.49V411.08H1568.93ZM1620 433.48L1615.12 437.48C1615.12 432.627 1614.16 428.893 1612.24 426.28C1610.32 423.667 1607.57 422.36 1604 422.36C1600.37 422.36 1597.6 423.693 1595.68 426.36C1593.81 428.973 1592.88 432.76 1592.88 437.72C1592.88 442.573 1593.87 446.333 1595.84 449C1597.87 451.613 1600.72 452.92 1604.4 452.92C1607.12 452.92 1609.39 452.28 1611.2 451C1613.07 449.72 1614.37 447.747 1615.12 445.08H1624.08C1622.91 450.04 1620.56 453.773 1617.04 456.28C1613.57 458.787 1609.36 460.04 1604.4 460.04C1600.24 460.04 1596.64 459.16 1593.6 457.4C1590.56 455.587 1588.21 453 1586.56 449.64C1584.96 446.28 1584.16 442.307 1584.16 437.72C1584.16 432.867 1584.96 428.787 1586.56 425.48C1588.21 422.12 1590.53 419.587 1593.52 417.88C1596.51 416.12 1600 415.24 1604 415.24C1608.11 415.24 1611.63 416.147 1614.56 417.96C1617.49 419.72 1619.76 422.227 1621.36 425.48C1622.96 428.733 1623.76 432.653 1623.76 437.24V439.32H1587.68V433.48H1620ZM1630.73 459V416.36H1639.29V459H1630.73ZM1639.29 433.96H1635.93C1636.2 429.8 1637.03 426.333 1638.41 423.56C1639.85 420.787 1641.75 418.707 1644.09 417.32C1646.44 415.933 1649.13 415.24 1652.17 415.24C1655.16 415.24 1657.72 415.827 1659.85 417C1661.99 418.12 1663.64 419.827 1664.81 422.12C1665.99 424.36 1666.57 427.16 1666.57 430.52V459H1658.09V432.28C1658.09 430.2 1657.77 428.44 1657.13 427C1656.49 425.507 1655.56 424.36 1654.33 423.56C1653.11 422.76 1651.51 422.36 1649.53 422.36C1647.93 422.36 1646.49 422.707 1645.21 423.4C1643.93 424.04 1642.84 424.893 1641.93 425.96C1641.08 427.027 1640.41 428.253 1639.93 429.64C1639.51 431.027 1639.29 432.467 1639.29 433.96ZM1711.46 431.24H1702.9C1702.37 428.2 1701.2 425.987 1699.38 424.6C1697.62 423.16 1695.49 422.44 1692.98 422.44C1689.41 422.44 1686.69 423.747 1684.82 426.36C1682.96 428.973 1682.02 432.76 1682.02 437.72C1682.02 442.573 1682.98 446.333 1684.9 449C1686.88 451.613 1689.65 452.92 1693.22 452.92C1695.78 452.92 1697.92 452.227 1699.62 450.84C1701.38 449.453 1702.58 447.4 1703.22 444.68H1711.7C1710.8 450.013 1708.64 453.907 1705.22 456.36C1701.86 458.813 1697.81 460.04 1693.06 460.04C1688.96 460.04 1685.44 459.16 1682.5 457.4C1679.57 455.587 1677.3 453 1675.7 449.64C1674.1 446.28 1673.3 442.307 1673.3 437.72C1673.3 432.867 1674.1 428.787 1675.7 425.48C1677.3 422.12 1679.57 419.587 1682.5 417.88C1685.44 416.12 1688.93 415.24 1692.98 415.24C1696.18 415.24 1699.09 415.853 1701.7 417.08C1704.32 418.253 1706.48 420.013 1708.18 422.36C1709.89 424.707 1710.98 427.667 1711.46 431.24ZM1751.84 433.48L1746.96 437.48C1746.96 432.627 1746 428.893 1744.08 426.28C1742.16 423.667 1739.41 422.36 1735.84 422.36C1732.21 422.36 1729.44 423.693 1727.52 426.36C1725.65 428.973 1724.72 432.76 1724.72 437.72C1724.72 442.573 1725.71 446.333 1727.68 449C1729.71 451.613 1732.56 452.92 1736.24 452.92C1738.96 452.92 1741.23 452.28 1743.04 451C1744.91 449.72 1746.21 447.747 1746.96 445.08H1755.92C1754.75 450.04 1752.4 453.773 1748.88 456.28C1745.41 458.787 1741.2 460.04 1736.24 460.04C1732.08 460.04 1728.48 459.16 1725.44 457.4C1722.4 455.587 1720.05 453 1718.4 449.64C1716.8 446.28 1716 442.307 1716 437.72C1716 432.867 1716.8 428.787 1718.4 425.48C1720.05 422.12 1722.37 419.587 1725.36 417.88C1728.35 416.12 1731.84 415.24 1735.84 415.24C1739.95 415.24 1743.47 416.147 1746.4 417.96C1749.33 419.72 1751.6 422.227 1753.2 425.48C1754.8 428.733 1755.6 432.653 1755.6 437.24V439.32H1719.52V433.48H1751.84Z" fill="black"/>
</g>
<defs>
<filter id="filter0_f_92_15286" x="223.937" y="277.07" width="189.823" height="79.3503" filterUnits="userSpaceOnUse" color-interpolation-filters="sRGB">
<feFlood flood-opacity="0" result="BackgroundImageFix"/>
<feBlend mode="normal" in="SourceGraphic" in2="BackgroundImageFix" result="shape"/>
<feGaussianBlur stdDeviation="9.20043" result="effect1_foregroundBlur_92_15286"/>
</filter>
<filter id="filter1_d_92_15286" x="221.767" y="114.987" width="232.221" height="232.221" filterUnits="userSpaceOnUse" color-interpolation-filters="sRGB">
<feFlood flood-opacity="0" result="BackgroundImageFix"/>
<feColorMatrix in="SourceAlpha" type="matrix" values="0 0 0 0 0 0 0 0 0 0 0 0 0 0 0 0 0 0 127 0" result="hardAlpha"/>
<feOffset dy="2.8"/>
<feGaussianBlur stdDeviation="5.6"/>
<feColorMatrix type="matrix" values="0 0 0 0 0.666667 0 0 0 0 0.666667 0 0 0 0 0.666667 0 0 0 0.25 0"/>
<feBlend mode="normal" in2="BackgroundImageFix" result="effect1_dropShadow_92_15286"/>
<feBlend mode="normal" in="SourceGraphic" in2="effect1_dropShadow_92_15286" result="shape"/>
</filter>
<filter id="filter3_d_92_15286" x="1431.74" y="604.837" width="223.753" height="223.753" filterUnits="userSpaceOnUse" color-interpolation-filters="sRGB">
<feFlood flood-opacity="0" result="BackgroundImageFix"/>
<feColorMatrix in="SourceAlpha" type="matrix" values="0 0 0 0 0 0 0 0 0 0 0 0 0 0 0 0 0 0 127 0" result="hardAlpha"/>
<feOffset dy="2.8"/>
<feGaussianBlur stdDeviation="5.6"/>
<feColorMatrix type="matrix" values="0 0 0 0 0.666667 0 0 0 0 0.666667 0 0 0 0 0.666667 0 0 0 0.25 0"/>
<feBlend mode="normal" in2="BackgroundImageFix" result="effect1_dropShadow_92_15286"/>
<feBlend mode="normal" in="SourceGraphic" in2="effect1_dropShadow_92_15286" result="shape"/>
</filter>
<filter id="filter4_f_92_15286" x="459.965" y="649.739" width="192.496" height="68.1836" filterUnits="userSpaceOnUse" color-interpolation-filters="sRGB">
<feFlood flood-opacity="0" result="BackgroundImageFix"/>
<feBlend mode="normal" in="SourceGraphic" in2="BackgroundImageFix" result="shape"/>
<feGaussianBlur stdDeviation="9.20043" result="effect1_foregroundBlur_92_15286"/>
</filter>
<filter id="filter5_d_92_15286" x="438.201" y="487.341" width="218.489" height="218.489" filterUnits="userSpaceOnUse" color-interpolation-filters="sRGB">
<feFlood flood-opacity="0" result="BackgroundImageFix"/>
<feColorMatrix in="SourceAlpha" type="matrix" values="0 0 0 0 0 0 0 0 0 0 0 0 0 0 0 0 0 0 127 0" result="hardAlpha"/>
<feOffset dy="2.8"/>
<feGaussianBlur stdDeviation="5.6"/>
<feColorMatrix type="matrix" values="0 0 0 0 0.666667 0 0 0 0 0.666667 0 0 0 0 0.666667 0 0 0 0.25 0"/>
<feBlend mode="normal" in2="BackgroundImageFix" result="effect1_dropShadow_92_15286"/>
<feBlend mode="normal" in="SourceGraphic" in2="effect1_dropShadow_92_15286" result="shape"/>
</filter>
<filter id="filter6_f_92_15286" x="756.924" y="116.064" width="190.427" height="77.1101" filterUnits="userSpaceOnUse" color-interpolation-filters="sRGB">
<feFlood flood-opacity="0" result="BackgroundImageFix"/>
<feBlend mode="normal" in="SourceGraphic" in2="BackgroundImageFix" result="shape"/>
<feGaussianBlur stdDeviation="9.20043" result="effect1_foregroundBlur_92_15286"/>
</filter>
<filter id="filter7_d_92_15286" x="720.891" y="-46.3092" width="229.956" height="229.956" filterUnits="userSpaceOnUse" color-interpolation-filters="sRGB">
<feFlood flood-opacity="0" result="BackgroundImageFix"/>
<feColorMatrix in="SourceAlpha" type="matrix" values="0 0 0 0 0 0 0 0 0 0 0 0 0 0 0 0 0 0 127 0" result="hardAlpha"/>
<feOffset dy="2.8"/>
<feGaussianBlur stdDeviation="5.6"/>
<feColorMatrix type="matrix" values="0 0 0 0 0.666667 0 0 0 0 0.666667 0 0 0 0 0.666667 0 0 0 0.25 0"/>
<feBlend mode="normal" in2="BackgroundImageFix" result="effect1_dropShadow_92_15286"/>
<feBlend mode="normal" in="SourceGraphic" in2="effect1_dropShadow_92_15286" result="shape"/>
</filter>
<filter id="filter8_f_92_15286" x="1921.64" y="201.786" width="193.186" height="64.5356" filterUnits="userSpaceOnUse" color-interpolation-filters="sRGB">
<feFlood flood-opacity="0" result="BackgroundImageFix"/>
<feBlend mode="normal" in="SourceGraphic" in2="BackgroundImageFix" result="shape"/>
<feGaussianBlur stdDeviation="9.20043" result="effect1_foregroundBlur_92_15286"/>
</filter>
<filter id="filter9_d_92_15286" x="1915.58" y="42.1659" width="208.46" height="208.46" filterUnits="userSpaceOnUse" color-interpolation-filters="sRGB">
<feFlood flood-opacity="0" result="BackgroundImageFix"/>
<feColorMatrix in="SourceAlpha" type="matrix" values="0 0 0 0 0 0 0 0 0 0 0 0 0 0 0 0 0 0 127 0" result="hardAlpha"/>
<feOffset dy="2.8"/>
<feGaussianBlur stdDeviation="5.6"/>
<feColorMatrix type="matrix" values="0 0 0 0 0.666667 0 0 0 0 0.666667 0 0 0 0 0.666667 0 0 0 0.25 0"/>
<feBlend mode="normal" in2="BackgroundImageFix" result="effect1_dropShadow_92_15286"/>
<feBlend mode="normal" in="SourceGraphic" in2="effect1_dropShadow_92_15286" result="shape"/>
</filter>
<filter id="filter10_f_92_15286" x="2148.76" y="573.123" width="190.347" height="77.4165" filterUnits="userSpaceOnUse" color-interpolation-filters="sRGB">
<feFlood flood-opacity="0" result="BackgroundImageFix"/>
<feBlend mode="normal" in="SourceGraphic" in2="BackgroundImageFix" result="shape"/>
<feGaussianBlur stdDeviation="9.20043" result="effect1_foregroundBlur_92_15286"/>
</filter>
<filter id="filter11_d_92_15286" x="2146.31" y="410.733" width="230.275" height="230.275" filterUnits="userSpaceOnUse" color-interpolation-filters="sRGB">
<feFlood flood-opacity="0" result="BackgroundImageFix"/>
<feColorMatrix in="SourceAlpha" type="matrix" values="0 0 0 0 0 0 0 0 0 0 0 0 0 0 0 0 0 0 127 0" result="hardAlpha"/>
<feOffset dy="2.8"/>
<feGaussianBlur stdDeviation="5.6"/>
<feColorMatrix type="matrix" values="0 0 0 0 0.666667 0 0 0 0 0.666667 0 0 0 0 0.666667 0 0 0 0.25 0"/>
<feBlend mode="normal" in2="BackgroundImageFix" result="effect1_dropShadow_92_15286"/>
<feBlend mode="normal" in="SourceGraphic" in2="effect1_dropShadow_92_15286" result="shape"/>
</filter>
<radialGradient id="paint0_radial_92_15286" cx="0" cy="0" r="1" gradientUnits="userSpaceOnUse" gradientTransform="translate(1320.5 382) scale(1337.5 424)">
<stop stop-color="white"/>
<stop offset="1" stop-color="white" stop-opacity="0"/>
</radialGradient>
<clipPath id="clip0_92_15286">
<rect width="2640" height="764" fill="white"/>
</clipPath>
<clipPath id="clip1_92_15286">
<rect width="96" height="96" fill="white" transform="translate(301.571 171.262) rotate(12.1413)"/>
</clipPath>
<clipPath id="clip2_92_15286">
<rect width="96" height="96" fill="white" transform="translate(1503.28 659.648) rotate(8)"/>
</clipPath>
<clipPath id="clip3_92_15286">
<rect width="96" height="96" fill="white" transform="translate(779.587 27.9062) rotate(-11)"/>
</clipPath>
<clipPath id="clip4_92_15286">
<rect width="96" height="96" fill="white" transform="translate(2223.21 466.197) rotate(11.1588)"/>
</clipPath>
</defs>
</svg>
