<svg width="612" height="792" viewBox="0 0 612 792" fill="none" xmlns="http://www.w3.org/2000/svg">
<g clip-path="url(#clip0_22_982)">
<rect width="612" height="792" fill="#151520"/>
<path fill-rule="evenodd" clip-rule="evenodd" d="M718.877 545.129L181.916 -7.16923L159.046 762.791L356.999 646.149L415.281 796.052L552.405 742.739L494.497 593.799L718.877 545.129Z" fill="white"/>
<line x1="-4.08682" y1="296.417" x2="616.342" y2="187.019" stroke="#CCCCCC" stroke-dasharray="6 6"/>
<line x1="-5.08682" y1="330.417" x2="615.342" y2="221.019" stroke="#CCCCCC" stroke-dasharray="6 6"/>
<line x1="-5.08682" y1="181.417" x2="615.342" y2="72.0189" stroke="#CCCCCC" stroke-dasharray="6 6"/>
<line x1="-4.08682" y1="478.417" x2="616.342" y2="369.019" stroke="#CCCCCC" stroke-dasharray="6 6"/>
<line x1="-5.08682" y1="363.417" x2="615.342" y2="254.019" stroke="#CCCCCC" stroke-dasharray="6 6"/>
<line y1="-0.5" x2="1251.86" y2="-0.5" transform="matrix(-0.173648 -0.984808 0.952407 -0.304828 132.692 1009.92)" stroke="#CCCCCC" stroke-dasharray="6 6"/>
<line y1="-0.5" x2="1251.86" y2="-0.5" transform="matrix(-0.173648 -0.984808 0.952407 -0.304828 656.384 1009.92)" stroke="#CCCCCC" stroke-dasharray="6 6"/>
<line x1="691.2" y1="615.361" x2="542.508" y2="-227.913" stroke="#CCCCCC" stroke-dasharray="6 6"/>
<path d="M3.83068 282.844C6.00345 282.363 7.76185 281.758 9.10589 281.031C10.5451 280.286 11.4945 278.99 11.9539 277.142C12.5085 275.277 12.4501 272.441 11.7787 268.633L2.13515 213.942C1.68193 211.372 1.29309 208.888 0.96864 206.491C0.739386 204.078 0.563248 202.244 0.440228 200.989C-1.06615 201.353 -2.95333 201.784 -5.2213 202.282C-7.50605 202.685 -9.16363 203.026 -10.194 203.306L-12.1328 192.311L29.396 184.841C38.8206 183.179 47.2118 183.172 54.5697 184.819C62.0059 186.355 68.3333 189.116 73.5517 193.104C78.8653 197.075 83.1372 201.818 86.3675 207.335C89.581 212.756 91.7081 218.417 92.7489 224.32C93.7728 230.127 93.7664 236.214 92.7295 242.58C91.7879 248.93 89.5723 255.014 86.0829 260.832C82.5766 266.554 77.5782 271.607 71.0874 275.991C64.5799 280.28 56.3283 283.305 46.3325 285.068L5.49249 292.269L3.83068 282.844ZM32.2073 263.411C32.6605 265.982 33.0494 268.465 33.3738 270.862C33.6983 273.259 33.8744 275.093 33.9022 276.364C34.8374 276.101 36.1226 275.874 37.7578 275.684C39.4713 275.382 41.2409 275.119 43.0664 274.895C44.8752 274.576 46.3508 274.316 47.4931 274.115C52.729 273.191 57.0187 271.355 60.3621 268.606C63.8008 265.841 66.3995 262.487 68.1584 258.545C69.9957 254.491 71.091 250.126 71.4445 245.45C71.7979 240.774 71.555 236.057 70.7157 231.297C69.0035 221.586 66.2691 213.872 62.5125 208.155C58.7558 202.437 54.1814 198.483 48.7891 196.292C43.4921 194.085 37.4948 193.474 30.7974 194.459C28.4958 194.766 26.5862 195.348 25.0686 196.205C23.6294 196.95 22.68 198.246 22.2206 200.094C21.7611 201.942 21.8588 204.722 22.5134 208.435L32.2073 263.411ZM146.806 269.707C139.857 270.933 133.448 270.492 127.579 268.386C121.694 266.184 116.781 262.535 112.84 257.439C108.881 252.248 106.222 245.796 104.863 238.085C103.688 231.421 104.064 224.926 105.991 218.598C107.918 212.271 111.237 206.876 115.947 202.414C120.735 197.839 126.699 194.923 133.839 193.664C137.837 192.959 141.841 192.842 145.851 193.313C149.843 193.688 153.598 194.94 157.114 197.069C160.726 199.18 163.839 202.361 166.453 206.612C169.163 210.846 171.074 216.398 172.188 223.269L125.501 232.385C126.408 237.525 127.841 242.033 129.8 245.909C131.855 249.767 134.567 252.626 137.938 254.486C141.309 256.345 145.469 256.839 150.42 255.966C152.324 255.63 154.407 254.919 156.669 253.833C159.027 252.73 161.309 251.199 163.516 249.24C165.801 247.168 167.803 244.606 169.522 241.555L177.006 246.419C174.435 251.879 171.424 256.238 167.974 259.496C164.508 262.66 160.898 265.014 157.146 266.559C153.49 268.087 150.043 269.137 146.806 269.707ZM124.596 222.238L150.87 217.605C150.07 213.623 148.945 210.583 147.495 208.482C146.123 206.27 144.488 204.792 142.59 204.047C140.692 203.302 138.6 203.131 136.316 203.534C132.127 204.272 129.111 206.374 127.268 209.84C125.409 213.211 124.518 217.344 124.596 222.238ZM222.644 256.335C218.55 257.057 214.459 257.238 210.372 256.879C206.284 256.52 203.002 255.725 200.528 254.492L201.569 258.726L190.716 260.64L185.814 236.179L195.096 234.543C195.885 237.348 197.489 239.765 199.908 241.792C202.327 243.82 205.28 245.262 208.769 246.119C212.241 246.881 215.976 246.91 219.974 246.205C221.592 245.919 223.073 245.413 224.417 244.685C225.857 243.94 226.96 242.961 227.727 241.746C228.573 240.419 228.853 238.946 228.568 237.328C228.249 235.519 227.322 234.161 225.788 233.253C224.349 232.329 222.3 231.562 219.64 230.951C217.075 230.323 213.867 229.662 210.014 228.967C206.862 228.345 203.653 227.684 200.389 226.984C197.219 226.266 194.198 225.278 191.326 224.017C188.532 222.645 186.147 220.808 184.17 218.506C182.177 216.109 180.845 213.007 180.173 209.199C179.686 206.438 179.732 203.633 180.309 200.782C180.869 197.837 182.051 195.077 183.855 192.501C185.641 189.83 188.083 187.534 191.18 185.614C194.372 183.677 198.301 182.297 202.965 181.475C205.536 181.022 208.515 180.938 211.902 181.224C215.369 181.398 218.387 182.093 220.957 183.308L220.227 179.167L231.079 177.254L235.536 202.529L226.254 204.165C225.096 200.934 223.402 198.288 221.174 196.227C219.04 194.149 216.484 192.735 213.505 191.984C210.51 191.138 207.298 191.017 203.871 191.622C201.491 192.041 199.402 192.999 197.604 194.494C195.902 195.972 195.294 198.091 195.781 200.852C196.167 203.041 197.239 204.668 198.997 205.732C200.739 206.701 203.018 207.379 205.834 207.766C208.651 208.153 211.778 208.632 215.216 209.204C220.357 209.966 224.977 211.115 229.075 212.649C233.269 214.168 236.738 216.304 239.482 219.06C242.208 221.72 243.966 225.287 244.755 229.762C245.628 234.712 245.112 239.024 243.208 242.697C241.303 246.37 238.495 249.368 234.782 251.692C231.164 253.998 227.118 255.546 222.644 256.335ZM257.068 238.339C259.733 237.869 261.545 237.01 262.502 235.761C263.46 234.512 263.914 232.911 263.864 230.957C263.892 228.89 263.688 226.62 263.252 224.144L259.072 200.44C258.77 198.727 258.473 196.767 258.182 194.56C257.875 192.259 257.631 190.044 257.453 187.916C255.946 188.28 254.154 188.694 252.077 189.158C250.077 189.511 248.563 189.827 247.532 190.107L245.619 179.254C249.998 178.482 253.669 177.59 256.631 176.576C259.593 175.563 261.873 174.572 263.469 173.604C265.16 172.619 266.288 171.782 266.854 171.093L274.565 169.733L283.353 219.569C283.588 220.902 283.876 222.815 284.217 225.307C284.541 227.703 284.801 230.013 284.997 232.236C286.487 231.777 288.136 231.388 289.945 231.069C291.832 230.639 293.251 230.339 294.203 230.171L296.117 241.024L258.704 247.621L257.068 238.339ZM261.723 160.366C258.487 160.937 255.62 160.264 253.122 158.349C250.625 156.433 249.091 153.857 248.521 150.621C247.95 147.384 248.558 144.43 250.344 141.759C252.131 139.088 254.5 137.493 257.451 136.972C260.498 136.435 263.222 137.133 265.624 139.065C268.121 140.98 269.655 143.557 270.226 146.793C270.796 150.03 270.331 152.959 268.83 155.579C267.329 158.2 264.96 159.795 261.723 160.366ZM342.945 272.668C334.758 274.112 328.125 274.349 323.046 273.379C317.984 272.505 314.202 270.816 311.699 268.313C309.196 265.809 307.659 262.939 307.089 259.702C306.736 257.703 306.812 255.629 307.316 253.478C307.821 251.328 308.857 249.133 310.425 246.893C312.105 244.732 314.55 242.731 317.759 240.889C313.671 240.53 310.617 239.351 308.595 237.351C306.653 235.24 305.446 232.851 304.976 230.186C304.54 227.711 305.052 224.774 306.514 221.375C307.96 217.881 311.158 214.863 316.108 212.321C311.824 211.408 308.095 209.464 304.921 206.491C301.746 203.517 299.635 199.619 298.589 194.797C297.391 189.119 297.93 183.822 300.204 178.905C302.461 173.894 305.847 169.714 310.361 166.366C314.875 163.018 319.845 160.866 325.271 159.909C327.746 159.473 330.661 159.302 334.015 159.398C337.369 159.494 340.379 160.141 343.044 161.339C343.571 158.204 344.417 155.208 345.582 152.352C346.826 149.385 348.495 146.882 350.59 144.844C352.667 142.71 355.182 141.384 358.133 140.863C361.37 140.293 363.948 140.721 365.869 142.149C367.868 143.466 369.111 145.504 369.597 148.265C369.799 149.407 369.74 150.743 369.42 152.272C369.179 153.688 368.477 154.99 367.312 156.177C366.242 157.347 364.565 158.134 362.28 158.537C360.852 158.788 359.332 158.517 357.719 157.721C356.09 156.831 354.998 155.649 354.444 154.176C353.273 154.775 352.254 156.231 351.386 158.544C350.517 160.856 350.131 162.838 350.226 164.49C353.406 166.383 355.987 168.775 357.969 171.665C359.951 174.554 361.261 177.808 361.899 181.426C362.872 186.947 362.166 192.127 359.78 196.965C357.472 201.69 354.061 205.727 349.547 209.075C345.112 212.311 340.086 214.425 334.469 215.415C333.232 215.633 331.843 215.829 330.303 216.002C328.746 216.081 327.254 216.246 325.826 216.497C323.732 216.867 322.037 217.558 320.744 218.571C319.45 219.585 318.921 220.758 319.156 222.091C319.475 223.899 321.073 224.894 323.952 225.073C326.83 225.253 331.634 224.945 338.365 224.151C345.763 223.239 352.309 223.067 358.004 223.633C363.777 224.088 368.464 225.617 372.064 228.221C375.664 230.826 377.951 234.889 378.925 240.41C379.647 244.504 379.086 248.283 377.243 251.749C375.417 255.311 372.69 258.491 369.061 261.29C365.544 264.168 361.498 266.55 356.922 268.437C352.364 270.418 347.705 271.829 342.945 272.668ZM345.349 262.085C352.108 260.893 356.983 258.757 359.973 255.678C363.059 252.582 364.367 249.701 363.897 247.035C363.545 245.036 362.489 243.504 360.731 242.44C358.99 241.471 356.529 240.875 353.348 240.65C350.263 240.409 346.371 240.604 341.673 241.236C339.545 241.415 337.092 241.701 334.314 242.092C331.537 242.484 329.067 242.674 326.906 242.662C325.679 244.057 324.836 245.678 324.377 247.525C323.917 249.373 323.783 251.115 323.973 252.75C324.454 256.591 326.609 259.352 330.439 261.033C334.381 262.792 339.351 263.142 345.349 262.085ZM333.353 205.747C335.924 205.294 337.923 204.107 339.351 202.186C340.875 200.249 341.847 197.967 342.267 195.341C342.782 192.698 342.814 190.091 342.36 187.521C341.773 184.189 340.782 181.075 339.388 178.18C337.977 175.19 336.2 172.902 334.055 171.317C331.989 169.62 329.576 169.015 326.815 169.502C323.007 170.173 320.358 172.407 318.868 176.203C317.378 180 317.019 184.088 317.791 188.467C318.379 191.799 319.417 194.904 320.906 197.782C322.379 200.566 324.179 202.702 326.306 204.192C328.434 205.682 330.783 206.2 333.353 205.747ZM384.907 225.368L383.27 216.086C385.936 215.616 387.747 214.757 388.705 213.508C389.663 212.26 390.116 210.658 390.066 208.704C390.095 206.637 389.891 204.367 389.454 201.892L385.224 177.902C384.922 176.188 384.634 174.276 384.36 172.165C384.069 169.958 383.834 167.791 383.655 165.663C382.149 166.027 380.357 166.441 378.279 166.906C376.28 167.258 374.765 167.574 373.735 167.854L371.821 157.002C376.2 156.229 379.871 155.337 382.833 154.324C385.796 153.31 388.075 152.32 389.671 151.351C391.362 150.366 392.491 149.529 393.057 148.84L400.054 147.606C400.462 148.81 400.717 149.698 400.818 150.269C400.918 150.84 401.019 151.411 401.12 151.983C401.299 152.442 401.649 153.313 402.169 154.595C403.805 152.736 405.759 151.017 408.033 149.438C410.29 147.764 412.597 146.376 414.955 145.273C417.296 144.075 419.418 143.308 421.322 142.973C430.08 141.428 436.713 142.86 441.22 147.268C445.806 151.563 449.072 159.233 451.019 170.276L454.393 189.41C454.628 190.743 454.917 192.655 455.258 195.147C455.582 197.544 455.842 199.854 456.038 202.077C457.623 201.601 459.32 201.204 461.128 200.885C462.92 200.471 464.292 200.18 465.244 200.012L467.158 210.865L429.745 217.462L428.108 208.18C430.774 207.71 432.586 206.851 433.543 205.602C434.596 204.337 435.098 202.727 435.047 200.772C435.076 198.706 434.872 196.435 434.435 193.96L430.717 173.708C429.626 167.52 427.916 163.11 425.587 160.478C423.336 157.734 420.116 156.731 415.928 157.47C413.548 157.889 411.26 158.833 409.065 160.299C406.965 161.749 405.231 163.331 403.865 165.044C404.1 166.377 404.343 167.758 404.595 169.186C404.83 170.518 405.065 171.851 405.3 173.184L409.555 197.317C409.79 198.649 410.078 200.562 410.419 203.054C410.744 205.45 411.004 207.76 411.2 209.983C412.689 209.524 414.338 209.135 416.147 208.817C418.034 208.386 419.454 208.086 420.406 207.918L422.32 218.771L384.907 225.368ZM509.935 205.678C502.985 206.903 496.576 206.463 490.708 204.356C484.823 202.155 479.91 198.506 475.968 193.41C472.01 188.218 469.351 181.767 467.991 174.056C466.816 167.392 467.192 160.896 469.12 154.569C471.047 148.241 474.365 142.847 479.075 138.384C483.864 133.81 489.828 130.893 496.968 129.634C500.966 128.929 504.97 128.812 508.979 129.283C512.972 129.659 516.726 130.911 520.243 133.039C523.854 135.151 526.967 138.332 529.582 142.583C532.291 146.816 534.203 152.369 535.316 159.24L488.63 168.355C489.536 173.496 490.969 178.004 492.929 181.879C494.983 185.738 497.696 188.597 501.067 190.457C504.438 192.316 508.598 192.809 513.548 191.937C515.452 191.601 517.536 190.89 519.798 189.804C522.156 188.701 524.438 187.17 526.644 185.21C528.929 183.139 530.932 180.577 532.651 177.525L540.135 182.39C537.563 187.849 534.553 192.208 531.103 195.467C527.636 198.63 524.027 200.984 520.275 202.529C516.618 204.058 513.171 205.107 509.935 205.678ZM487.724 158.208L513.999 153.576C513.199 149.594 512.074 146.553 510.624 144.453C509.252 142.241 507.617 140.762 505.719 140.017C503.821 139.272 501.729 139.101 499.444 139.504C495.256 140.243 492.24 142.345 490.397 145.811C488.537 149.182 487.646 153.314 487.724 158.208ZM580.489 193.237C574.777 194.244 569.471 193.659 564.572 191.48C559.767 189.284 555.649 185.691 552.217 180.701C548.881 175.694 546.566 169.526 545.273 162.196C543.914 154.485 544.181 147.37 546.074 140.852C547.968 134.335 551.278 128.892 556.005 124.525C560.732 120.158 566.617 117.353 573.662 116.111C576.232 115.658 578.568 115.54 580.667 115.759C582.846 115.866 584.898 116.093 586.824 116.44L585.162 107.016C584.927 105.683 584.639 103.771 584.298 101.279C583.957 98.7868 583.697 96.4768 583.518 94.3489C582.012 94.7127 580.22 95.1268 578.142 95.5913C576.064 96.0558 574.502 96.3804 573.455 96.565L571.541 85.7124C576.016 84.9235 579.686 84.0308 582.554 83.0345C585.516 82.0213 587.795 81.0305 589.391 80.062C591.082 79.0767 592.211 78.2396 592.777 77.551L600.488 76.1913L615.444 161.013C615.679 162.346 615.967 164.258 616.308 166.75C616.633 169.147 616.893 171.457 617.089 173.68C618.673 173.204 620.37 172.807 622.179 172.488C623.971 172.073 625.343 171.782 626.295 171.615L628.208 182.467L601.077 187.251C600.797 186.221 600.461 185.151 600.069 184.042C599.773 182.917 599.437 181.847 599.062 180.834C596.491 184.624 593.657 187.48 590.56 189.4C587.463 191.32 584.106 192.599 580.489 193.237ZM585.623 178.933C588.098 178.497 590.274 177.475 592.15 175.868C594.009 174.166 595.381 172.207 596.266 169.989C596.015 168.561 595.763 167.133 595.511 165.705C595.259 164.277 595.007 162.849 594.756 161.421L588.713 127.15C587.626 126.556 586.089 126.189 584.101 126.049C582.097 125.814 580.095 125.872 578.096 126.225C573.733 127.092 570.55 129.077 568.544 132.179C566.539 135.281 565.374 138.971 565.049 143.249C564.819 147.51 565.098 151.878 565.887 156.352C566.592 160.351 567.764 164.218 569.405 167.953C571.14 171.671 573.329 174.623 575.972 176.807C578.693 178.879 581.91 179.588 585.623 178.933Z" fill="white"/>
<path d="M35.498 390.388C31.5958 384.401 29.4348 380.218 29.0152 377.838L21.5225 379.601L19.5837 368.605L61.7089 361.178L63.3707 370.602C60.3075 371.044 58.0507 371.884 56.6002 373.121C55.2281 374.247 54.7435 375.952 55.1464 378.236C55.3646 379.474 55.9272 380.994 56.8341 382.798L71.1427 413.845C71.4674 414.573 72.433 416.709 74.0397 420.254C75.6295 423.704 77.4264 428.049 79.4304 433.291L79.5732 433.266L82.551 402.557L88.1263 356.52L100.978 354.253L126.523 403.932C128.628 408.077 131.55 414.629 135.289 423.589L135.432 423.564L137.384 402.901L140.118 371.646C140.584 365.38 141.771 360.704 143.681 357.619L143.656 357.476L136.306 359.214L132.761 359.986L130.823 348.991L162.952 343.326L164.614 352.75C161.315 353.528 158.639 355.325 156.583 358.142C154.511 360.863 153.04 365.049 152.171 370.699L142.316 450.914L129.607 453.155L103.743 405.004C101.431 400.799 98.8753 395.213 96.0764 388.246C95.8301 387.406 95.3823 386.258 94.7329 384.802L94.5901 384.827C94.7292 391.183 94.4483 397.662 93.7474 404.264L86.9107 460.683L74.4873 462.874L35.498 390.388ZM211.862 440.123C204.913 441.349 198.417 440.972 192.375 438.995C186.333 437.017 181.255 433.545 177.14 428.577C173.025 423.61 170.321 417.461 169.028 410.131C167.669 402.42 168.078 395.28 170.258 388.712C172.437 382.143 175.946 376.715 180.785 372.426C185.719 368.121 191.47 365.389 198.039 364.231C204.893 363.022 211.293 363.415 217.24 365.409C223.187 367.404 228.226 370.932 232.358 375.995C236.473 380.962 239.185 387.159 240.495 394.584C241.888 402.486 241.582 409.656 239.576 416.096C237.666 422.518 234.283 427.826 229.427 432.02C224.667 436.197 218.812 438.898 211.862 440.123ZM210.36 429.934C215.596 429.011 218.833 425.937 220.071 420.713C221.31 415.488 221.283 409.211 219.99 401.881C218.546 393.694 216.106 386.811 212.668 381.234C209.231 375.656 204.942 373.32 199.801 374.226C194.565 375.15 191.194 378.296 189.687 383.666C188.18 389.036 188.064 395.339 189.34 402.574C190.8 410.856 193.336 417.722 196.947 423.171C200.558 428.62 205.029 430.874 210.36 429.934ZM255.719 420.464C259.336 419.826 261.445 418.424 262.044 416.257C262.739 414.073 262.692 410.744 261.903 406.269L257.673 382.28C256.917 377.996 256.394 373.916 256.104 370.041L246.183 372.232L244.27 361.379C250.267 360.322 255.047 359.037 258.609 357.526C262.17 356.015 264.469 354.579 265.505 353.218L272.502 351.984C272.944 353.379 273.415 355.21 273.913 357.478C274.411 359.746 274.853 361.974 275.239 364.164L275.524 364.114C280.454 354.214 286.536 348.626 293.771 347.351C297.388 346.713 300.516 347.192 303.153 348.788C305.885 350.368 307.596 353.109 308.284 357.012C308.72 359.487 308.314 361.915 307.065 364.294C305.816 366.674 303.573 368.149 300.336 368.72C297.956 369.14 295.705 368.899 293.583 367.997C291.556 367.078 290.131 365.121 289.308 362.125C286.643 362.595 284.159 364.652 281.857 368.298C279.634 371.831 278.314 375.204 277.9 378.419L282.004 401.694C282.809 406.264 283.358 410.486 283.648 414.361C286.644 413.539 289.713 412.85 292.855 412.296L294.768 423.149L257.355 429.746L255.719 420.464ZM320.788 408.99C323.359 408.537 325.131 407.734 326.106 406.58C327.159 405.315 327.677 403.8 327.66 402.036C327.739 400.256 327.51 397.842 326.973 394.796L316.624 336.106C315.818 331.537 315.278 327.362 315.005 323.582L305.084 325.773L303.171 314.921C309.168 313.863 313.948 312.579 317.509 311.067C321.071 309.556 323.37 308.12 324.406 306.759L332.117 305.399L347.073 390.221C347.879 394.79 348.427 399.013 348.718 402.888C351.809 402.048 354.878 401.36 357.924 400.823L359.838 411.675L322.425 418.272L320.788 408.99ZM397.157 407.451C391.445 408.458 386.14 407.872 381.24 405.693C376.436 403.497 372.318 399.904 368.886 394.915C365.532 389.813 363.218 383.644 361.942 376.409C360.599 368.793 360.874 361.726 362.768 355.209C364.645 348.596 367.947 343.106 372.673 338.738C377.495 334.354 383.381 331.55 390.331 330.324C394.043 329.67 398.431 329.78 403.493 330.654L401.831 321.229C401.025 316.66 400.477 312.437 400.186 308.562C397.095 309.402 393.741 310.141 390.123 310.778L388.21 299.926C394.207 298.868 398.987 297.584 402.548 296.072C406.11 294.561 408.409 293.125 409.445 291.764L417.156 290.405L432.112 375.226C432.918 379.796 433.466 384.018 433.757 387.893C436.848 387.054 439.917 386.365 442.963 385.828L444.877 396.681L417.745 401.465L415.873 395.022L415.73 395.047C411.155 401.94 404.963 406.074 397.157 407.451ZM402.291 393.147C404.671 392.727 406.799 391.714 408.675 390.107C410.552 388.5 411.971 386.532 412.935 384.203L405.381 341.364C404.2 340.787 402.615 340.428 400.627 340.288C398.622 340.052 396.668 340.102 394.764 340.438C388.688 341.608 384.771 344.998 383.012 350.608C381.348 356.202 381.196 362.855 382.555 370.566C383.764 377.42 386.051 383.152 389.415 387.761C392.859 392.258 397.151 394.053 402.291 393.147ZM487.505 391.52C483.412 392.242 479.321 392.423 475.233 392.064C471.146 391.705 467.864 390.91 465.389 389.677L465.247 389.702L466.43 393.911L455.578 395.824L450.676 371.364L459.958 369.727C461.206 374.023 464.145 377.332 468.776 379.657C473.485 381.87 478.838 382.447 484.836 381.39C487.501 380.92 489.677 379.898 491.363 378.325C493.144 376.735 493.833 374.797 493.43 372.512C493.128 370.799 492.257 369.48 490.818 368.556C489.379 367.632 487.736 366.94 485.888 366.48C484.04 366.021 480.369 365.245 474.876 364.152C468.364 362.846 463.45 361.701 460.135 360.715C456.82 359.729 453.665 357.978 450.67 355.464C447.753 352.837 445.874 349.144 445.035 344.384C444.347 340.481 444.653 336.648 445.952 332.885C447.33 329.01 449.825 325.625 453.438 322.731C457.128 319.724 461.925 317.7 467.827 316.66C470.588 316.173 473.662 316.073 477.05 316.359C480.438 316.645 483.361 317.356 485.819 318.493L485.962 318.468L485.089 314.352L495.941 312.439L500.398 337.714L491.116 339.35C489.386 334.551 486.509 331.034 482.483 328.799C478.457 326.564 473.873 325.9 468.733 326.807C466.067 327.277 463.939 328.29 462.349 329.846C460.758 331.403 460.189 333.466 460.643 336.037C461.113 338.702 462.512 340.517 464.842 341.48C467.154 342.348 470.928 343.155 476.164 343.901C476.752 343.895 478.057 344.058 480.078 344.389C488.674 345.818 495.449 348.059 500.404 351.111C505.455 354.147 508.526 358.759 509.617 364.947C510.456 369.706 509.932 373.971 508.044 377.739C506.235 381.395 503.482 384.433 499.786 386.851C496.168 389.158 492.075 390.714 487.505 391.52ZM534.964 383.152C531.918 383.689 529.21 383.086 526.842 381.345C524.457 379.508 522.987 377.018 522.433 373.877C521.896 370.83 522.482 368.028 524.19 365.469C525.898 362.91 528.133 361.387 530.893 360.9C533.845 360.38 536.465 361.047 538.755 362.901C541.14 364.738 542.602 367.179 543.139 370.226C543.693 373.367 543.211 376.201 541.693 378.726C540.253 381.139 538.011 382.614 534.964 383.152Z" fill="white"/>
<path fill-rule="evenodd" clip-rule="evenodd" d="M343.512 159.043C343.339 159.792 343.183 160.557 343.044 161.339C340.586 160.202 337.728 159.578 334.469 159.465C331.193 159.258 328.127 159.405 325.271 159.909C319.845 160.866 314.875 163.018 310.361 166.366C305.925 169.602 302.562 173.631 300.271 178.452C298.075 183.256 297.447 188.324 298.387 193.655C299.277 198.701 301.287 202.861 304.417 206.138C307.625 209.302 311.522 211.363 316.108 212.321L316.133 212.464C311.625 214.732 308.489 217.542 306.724 220.896C305.055 224.233 304.473 227.33 304.976 230.186C305.496 233.137 306.759 235.565 308.763 237.469C310.863 239.356 313.861 240.496 317.759 240.889C313.318 243.537 310.254 246.482 308.568 249.724C306.994 253.044 306.501 256.371 307.089 259.702C308.045 265.129 311.357 269.158 317.024 271.791C322.786 274.407 331.426 274.699 342.945 272.668C349.514 271.51 355.716 269.386 361.551 266.295C367.481 263.188 372.063 259.387 375.294 254.891C378.621 250.378 379.831 245.551 378.925 240.41C377.548 232.604 373.473 227.58 366.697 225.34C359.922 223.099 350.478 222.703 338.365 224.151C331.349 224.996 326.449 225.32 323.666 225.124C320.961 224.815 319.458 223.804 319.156 222.091C318.921 220.758 319.45 219.585 320.744 218.571C322.037 217.558 323.732 216.867 325.826 216.497C326.778 216.33 328.318 216.156 330.446 215.977L334.469 215.415C340.086 214.425 345.16 212.303 349.69 209.05C354.204 205.702 357.607 201.618 359.897 196.797C362.172 191.88 362.839 186.757 361.899 181.426C361.595 179.705 361.129 178.068 360.5 176.516L343.512 159.043ZM390.055 206.915C390.152 208.956 389.999 210.611 389.596 211.879C388.996 214.046 386.888 215.448 383.27 216.086L384.907 225.368L404.617 221.893L390.055 206.915ZM493.13 312.934L485.089 314.352L485.962 318.468L485.819 318.493C483.361 317.356 480.438 316.645 477.05 316.359C473.662 316.073 470.588 316.173 467.827 316.66C461.925 317.7 457.128 319.724 453.438 322.731C449.825 325.625 447.33 329.01 445.952 332.885C444.652 336.648 444.347 340.481 445.035 344.384C445.874 349.144 447.753 352.837 450.67 355.464C453.665 357.978 456.82 359.729 460.135 360.715C463.45 361.701 468.364 362.847 474.876 364.152C480.369 365.245 484.04 366.021 485.888 366.48C487.736 366.94 489.379 367.632 490.818 368.556C492.257 369.48 493.128 370.799 493.43 372.512C493.833 374.797 493.144 376.735 491.363 378.325C489.677 379.898 487.501 380.92 484.836 381.39C478.838 382.447 473.485 381.87 468.776 379.657C464.145 377.333 461.206 374.023 459.958 369.728L450.676 371.364L455.578 395.825L466.43 393.911L465.247 389.703L465.389 389.677C467.864 390.91 471.146 391.705 475.233 392.064C479.321 392.423 483.412 392.242 487.505 391.52C492.075 390.714 496.168 389.158 499.786 386.851C503.482 384.433 506.235 381.395 508.044 377.739C509.932 373.971 510.456 369.707 509.617 364.947C508.526 358.759 505.455 354.147 500.404 351.111C495.449 348.059 488.674 345.818 480.078 344.389C478.057 344.058 476.752 343.895 476.164 343.901C470.928 343.155 467.154 342.349 464.842 341.48C462.512 340.517 461.113 338.702 460.643 336.037C460.189 333.466 460.758 331.403 462.349 329.846C463.939 328.29 466.067 327.277 468.733 326.807C473.873 325.9 478.457 326.564 482.483 328.799C486.509 331.034 489.386 334.551 491.116 339.35L500.398 337.714L496.671 316.576L493.13 312.934ZM177.14 428.577C174.489 425.377 172.424 421.687 170.944 417.507L171.926 384.462C174.079 379.765 177.032 375.753 180.785 372.426C185.719 368.121 191.47 365.389 198.039 364.231C204.893 363.022 211.293 363.415 217.24 365.409C223.187 367.404 228.226 370.932 232.358 375.995C236.473 380.963 239.185 387.159 240.495 394.585C241.888 402.486 241.582 409.656 239.576 416.096C237.666 422.518 234.283 427.827 229.427 432.02C224.667 436.197 218.812 438.898 211.862 440.123C204.913 441.349 198.417 440.973 192.375 438.995C186.333 437.017 181.255 433.545 177.14 428.577ZM177.006 246.419C176.671 247.143 176.323 247.85 175.963 248.541L176.044 245.794L177.006 246.419ZM255.181 156.661C257.661 158.481 260.52 159.106 263.756 158.535C266.898 157.981 269.228 156.442 270.745 153.916C272.359 151.374 272.871 148.437 272.284 145.105C271.696 141.773 270.154 139.15 267.657 137.234C265.255 135.302 262.53 134.604 259.484 135.142C256.533 135.662 254.173 137.305 252.403 140.071C250.616 142.742 250.008 145.696 250.579 148.933C251.149 152.169 252.683 154.745 255.181 156.661ZM263.393 234.132C262.794 236.299 260.685 237.701 257.067 238.339L258.704 247.621L296.117 241.024L294.203 230.171C291.062 230.725 287.993 231.414 284.997 232.236C284.706 228.361 284.158 224.139 283.353 219.57L274.565 169.733L266.854 171.093C265.818 172.454 263.519 173.89 259.957 175.401C256.396 176.912 251.616 178.197 245.619 179.254L247.532 190.107L257.452 187.916C257.743 191.791 258.283 195.966 259.072 200.44L263.252 224.145C264.041 228.619 264.088 231.948 263.393 234.132ZM222.644 256.335C218.55 257.057 214.459 257.238 210.372 256.879C206.284 256.52 203.002 255.725 200.528 254.492L200.385 254.518L201.569 258.726L190.716 260.64L185.814 236.179L195.096 234.543C196.344 238.838 199.283 242.148 203.914 244.472C208.623 246.685 213.976 247.262 219.974 246.205C222.639 245.735 224.815 244.713 226.501 243.14C228.282 241.55 228.971 239.612 228.568 237.328C228.266 235.614 227.395 234.295 225.956 233.371C224.517 232.447 222.874 231.755 221.026 231.296C219.178 230.836 215.508 230.06 210.014 228.967C203.502 227.662 198.588 226.516 195.273 225.53C191.959 224.544 188.803 222.793 185.808 220.279C182.891 217.652 181.012 213.959 180.173 209.199C179.485 205.296 179.791 201.463 181.09 197.7C182.468 193.825 184.964 190.44 188.576 187.546C192.266 184.539 197.063 182.516 202.965 181.475C205.726 180.988 208.8 180.888 212.188 181.174C215.576 181.46 218.499 182.171 220.957 183.309L221.1 183.283L220.227 179.167L231.079 177.254L235.536 202.529L226.254 204.166C224.525 199.366 221.647 195.849 217.621 193.614C213.595 191.38 209.012 190.715 203.871 191.622C201.205 192.092 199.077 193.105 197.487 194.662C195.896 196.218 195.328 198.281 195.781 200.852C196.251 203.517 197.651 205.332 199.98 206.295C202.292 207.164 206.067 207.971 211.302 208.716C211.89 208.711 213.195 208.873 215.216 209.204C223.812 210.633 230.587 212.874 235.543 215.926C240.593 218.962 243.664 223.574 244.755 229.762C245.594 234.522 245.07 238.786 243.183 242.554C241.373 246.211 238.621 249.248 234.924 251.667C231.307 253.973 227.213 255.529 222.644 256.335ZM333.353 205.747C336.971 205.109 339.542 202.987 341.065 199.381C342.684 195.758 343.116 191.805 342.36 187.521C341.404 182.095 339.525 177.567 336.726 173.938C333.927 170.309 330.623 168.83 326.815 169.502C323.198 170.14 320.588 172.317 318.986 176.035C317.384 179.753 316.986 183.897 317.791 188.467C318.731 193.798 320.632 198.174 323.493 201.596C326.354 205.018 329.641 206.402 333.353 205.747ZM345.349 262.085C349.633 261.33 353.197 260.112 356.042 258.433C358.982 256.736 361.102 254.841 362.401 252.747C363.717 250.748 364.216 248.844 363.897 247.035C363.377 244.084 361.269 242.149 357.573 241.23C353.973 240.295 348.672 240.297 341.673 241.237C340.894 241.276 339.648 241.446 337.935 241.748C336.966 241.821 335.275 241.972 332.861 242.201C330.464 242.526 328.479 242.679 326.906 242.662C325.679 244.057 324.797 245.734 324.259 247.693C323.817 249.636 323.755 251.512 324.074 253.321C324.728 257.034 326.962 259.683 330.775 261.268C334.684 262.837 339.542 263.109 345.349 262.085ZM381.24 405.693C386.14 407.872 391.445 408.458 397.157 407.451C404.963 406.074 411.154 401.94 415.73 395.047L415.873 395.022L417.745 401.465L444.877 396.681L442.963 385.828C439.917 386.365 436.848 387.054 433.757 387.893C433.466 384.018 432.918 379.796 432.112 375.226L417.156 290.405L409.445 291.764C408.409 293.125 406.11 294.561 402.548 296.073C398.987 297.584 394.207 298.868 388.21 299.926L390.123 310.779C393.741 310.141 397.095 309.402 400.186 308.562C400.477 312.437 401.025 316.66 401.831 321.229L403.493 330.654C398.431 329.78 394.043 329.67 390.331 330.324C383.381 331.55 377.495 334.355 372.673 338.738C367.947 343.106 364.645 348.596 362.768 355.209C360.874 361.727 360.599 368.793 361.942 376.409C363.218 383.644 365.532 389.813 368.886 394.915C372.318 399.904 376.436 403.497 381.24 405.693ZM408.675 390.107C406.799 391.714 404.671 392.727 402.291 393.147C397.151 394.053 392.859 392.258 389.415 387.761C386.051 383.152 383.764 377.42 382.555 370.566C381.196 362.855 381.348 356.202 383.012 350.609C384.771 344.998 388.688 341.608 394.764 340.438C396.668 340.103 398.622 340.052 400.627 340.288C402.615 340.428 404.2 340.787 405.381 341.364L412.935 384.203C411.971 386.532 410.552 388.5 408.675 390.107ZM320.788 408.99C323.359 408.537 325.131 407.734 326.106 406.581C327.159 405.315 327.677 403.8 327.66 402.037C327.739 400.256 327.51 397.842 326.972 394.796L316.624 336.106C315.818 331.537 315.278 327.362 315.005 323.582L305.084 325.773L303.171 314.921C309.168 313.863 313.948 312.579 317.509 311.067C321.071 309.556 323.37 308.12 324.406 306.759L332.117 305.399L347.073 390.221C347.879 394.79 348.427 399.013 348.718 402.888C351.809 402.048 354.878 401.36 357.924 400.823L359.838 411.675L322.425 418.272L320.788 408.99ZM210.36 429.934C215.596 429.011 218.833 425.937 220.071 420.713C221.31 415.488 221.283 409.211 219.99 401.881C218.546 393.694 216.106 386.811 212.668 381.234C209.231 375.656 204.942 373.32 199.801 374.227C194.565 375.15 191.194 378.296 189.687 383.666C188.18 389.036 188.064 395.339 189.34 402.574C190.8 410.856 193.336 417.722 196.947 423.171C200.558 428.62 205.029 430.874 210.36 429.934ZM262.044 416.257C261.445 418.424 259.336 419.826 255.719 420.464L257.355 429.746L294.768 423.149L292.855 412.296C289.713 412.85 286.644 413.539 283.648 414.361C283.358 410.486 282.809 406.264 282.004 401.695L277.9 378.419C278.314 375.204 279.634 371.831 281.857 368.298C284.159 364.652 286.643 362.595 289.308 362.125C290.131 365.121 291.556 367.078 293.583 367.997C295.705 368.899 297.956 369.14 300.336 368.72C303.573 368.149 305.816 366.674 307.065 364.294C308.314 361.915 308.72 359.487 308.284 357.012C307.596 353.109 305.885 350.368 303.153 348.788C300.516 347.192 297.388 346.713 293.771 347.351C286.536 348.626 280.454 354.214 275.524 364.114L275.239 364.164C274.853 361.974 274.411 359.746 273.913 357.478C273.415 355.21 272.944 353.379 272.502 351.984L265.505 353.218C264.469 354.579 262.17 356.015 258.608 357.526C255.047 359.037 250.267 360.322 244.27 361.379L246.183 372.232L256.104 370.041C256.394 373.916 256.917 377.996 257.673 382.28L261.903 406.27C262.692 410.744 262.739 414.073 262.044 416.257ZM526.842 381.345C529.21 383.086 531.918 383.689 534.964 383.152C538.01 382.615 540.253 381.139 541.693 378.726C543.211 376.201 543.693 373.367 543.139 370.226C542.602 367.179 541.14 364.738 538.755 362.901C536.465 361.047 533.845 360.38 530.893 360.901C528.133 361.387 525.898 362.91 524.19 365.469C522.482 368.028 521.896 370.83 522.433 373.877C522.987 377.018 524.457 379.508 526.842 381.345Z" fill="#CCCCCC"/>
<path d="M147.057 733.131L133.065 732.642L133.237 727.725C133.271 726.739 133.46 725.932 133.802 725.303C134.131 724.661 134.575 724.189 135.132 723.889C135.676 723.588 136.281 723.449 136.948 723.472C137.854 723.503 138.558 723.775 139.061 724.286C139.564 724.784 139.903 725.376 140.079 726.063C140.191 725.546 140.414 725.08 140.748 724.665C141.083 724.25 141.495 723.931 141.983 723.708C142.471 723.471 143.002 723.363 143.575 723.383C144.281 723.408 144.921 723.604 145.496 723.97C146.056 724.337 146.498 724.866 146.821 725.558C147.13 726.249 147.268 727.081 147.234 728.054L147.057 733.131ZM139.24 731.177L139.349 728.058C139.38 727.166 139.198 726.472 138.801 725.978C138.392 725.483 137.814 725.223 137.068 725.197C136.361 725.172 135.787 725.392 135.344 725.857C134.901 726.309 134.663 727.008 134.63 727.954L134.523 731.012L139.24 731.177ZM145.716 731.403L145.829 728.185C145.862 727.225 145.668 726.478 145.247 725.943C144.812 725.407 144.194 725.126 143.395 725.098C142.609 725.07 141.973 725.322 141.487 725.852C140.989 726.381 140.723 727.112 140.69 728.045L140.579 731.223L145.716 731.403ZM151.908 720.281L146.637 717.635L146.617 718.215L137.525 721.84L137.589 720.021L145.418 717.012L137.825 713.265L137.885 711.526L151.97 718.522L151.908 720.281ZM148.499 698.702C148.454 700.008 148.114 701.144 147.48 702.109C146.832 703.074 145.959 703.81 144.861 704.319C143.749 704.827 142.48 705.056 141.055 705.006C139.629 704.957 138.379 704.639 137.306 704.055C136.232 703.457 135.407 702.641 134.83 701.607C134.252 700.56 133.988 699.343 134.036 697.957C134.091 696.385 134.517 695.092 135.313 694.079C136.109 693.053 137.179 692.41 138.522 692.15L138.454 694.089C137.608 694.246 136.926 694.669 136.409 695.358C135.891 696.034 135.614 696.918 135.575 698.011C135.54 699.037 135.742 699.938 136.182 700.714C136.608 701.489 137.24 702.105 138.078 702.561C138.917 703.004 139.929 703.246 141.115 703.287C142.301 703.329 143.327 703.158 144.194 702.775C145.062 702.391 145.741 701.841 146.233 701.125C146.712 700.408 146.968 699.563 147.002 698.59C147.054 697.098 146.661 695.957 145.821 695.167C144.968 694.377 143.784 693.902 142.269 693.742L142.128 697.779L140.808 697.733L141.009 691.977L148.485 692.238L148.431 693.777L146.128 693.837C146.923 694.371 147.527 695.013 147.942 695.761C148.356 696.509 148.542 697.49 148.499 698.702ZM148.929 686.393C148.9 687.219 148.736 687.901 148.437 688.437C148.139 688.974 147.751 689.367 147.276 689.617C146.8 689.868 146.289 689.983 145.743 689.964C144.73 689.929 143.964 689.515 143.444 688.723C142.925 687.931 142.689 686.869 142.735 685.536L142.829 682.858L142.709 682.854C141.843 682.824 141.182 683.027 140.726 683.465C140.257 683.902 140.01 684.501 139.983 685.26C139.96 685.913 140.107 686.485 140.424 686.977C140.727 687.454 141.19 687.764 141.812 687.906L141.752 689.625C141.035 689.533 140.437 689.272 139.958 688.842C139.48 688.398 139.125 687.859 138.894 687.223C138.649 686.588 138.539 685.917 138.564 685.211C138.612 683.825 139.022 682.799 139.792 682.132C140.55 681.451 141.542 681.132 142.767 681.175L148.864 681.388L148.811 682.887L147.029 682.925C147.579 683.224 148.044 683.654 148.425 684.214C148.793 684.761 148.961 685.487 148.929 686.393ZM147.519 686.084C147.541 685.444 147.394 684.892 147.077 684.427C146.76 683.949 146.339 683.581 145.814 683.323C145.29 683.064 144.734 682.925 144.148 682.904L144.128 682.903L144.039 685.442C144.005 686.428 144.154 687.134 144.486 687.559C144.805 687.97 145.218 688.185 145.724 688.202C146.244 688.221 146.67 688.049 147.003 687.687C147.323 687.311 147.495 686.777 147.519 686.084ZM149.318 675.26C149.277 676.432 148.891 677.353 148.161 678.021C147.417 678.689 146.306 678.997 144.827 678.945L139.03 678.743L139.089 677.064L144.705 677.26C146.771 677.332 147.833 676.522 147.892 674.83C147.922 673.963 147.641 673.24 147.047 672.659C146.441 672.064 145.565 671.747 144.419 671.706L139.282 671.527L139.341 669.848L149.255 670.194L149.202 671.713L147.418 671.771C148.034 672.1 148.511 672.577 148.849 673.202C149.188 673.814 149.344 674.5 149.318 675.26ZM149.351 667.431L139.437 667.085L139.49 665.565L141.394 665.492C140.752 665.163 140.248 664.678 139.884 664.038C139.519 663.398 139.353 662.619 139.385 661.699L141.144 661.761L141.128 662.221C141.107 662.807 141.195 663.35 141.391 663.851C141.574 664.351 141.907 664.756 142.389 665.066C142.872 665.377 143.547 665.547 144.413 665.577L149.41 665.752L149.351 667.431ZM149.96 656.88C149.931 657.706 149.767 658.387 149.468 658.924C149.169 659.461 148.782 659.854 148.306 660.104C147.83 660.354 147.319 660.47 146.773 660.451C145.76 660.416 144.994 660.002 144.475 659.21C143.956 658.418 143.719 657.356 143.766 656.023L143.859 653.345L143.739 653.341C142.873 653.31 142.212 653.514 141.757 653.952C141.288 654.389 141.04 654.987 141.014 655.747C140.991 656.4 141.138 656.972 141.454 657.463C141.758 657.941 142.22 658.251 142.843 658.392L142.783 660.111C142.065 660.02 141.467 659.759 140.989 659.328C140.511 658.885 140.156 658.345 139.925 657.71C139.68 657.075 139.57 656.404 139.595 655.697C139.643 654.312 140.052 653.285 140.823 652.618C141.58 651.938 142.572 651.619 143.798 651.662L149.894 651.875L149.842 653.374L148.06 653.411C148.609 653.711 149.075 654.141 149.455 654.701C149.823 655.247 149.991 655.974 149.96 656.88ZM148.55 656.571C148.572 655.931 148.424 655.379 148.107 654.914C147.79 654.436 147.37 654.068 146.845 653.809C146.32 653.551 145.765 653.411 145.179 653.391L145.159 653.39L145.07 655.929C145.035 656.915 145.184 657.62 145.516 658.046C145.835 658.457 146.248 658.671 146.755 658.689C147.274 658.707 147.701 658.535 148.033 658.173C148.353 657.798 148.525 657.263 148.55 656.571ZM150.069 646.868L140.024 650.28L140.085 648.521L148.484 645.832L140.294 642.545L140.354 640.826L150.137 644.93L150.069 646.868ZM150.917 629.465C150.881 630.491 150.664 631.377 150.264 632.124C149.864 632.87 149.324 633.438 148.643 633.828C147.963 634.218 147.183 634.397 146.303 634.367L146.365 632.608C146.911 632.627 147.422 632.518 147.897 632.281C148.359 632.044 148.738 631.69 149.035 631.22C149.318 630.736 149.473 630.135 149.498 629.415C149.531 628.469 149.33 627.728 148.895 627.193C148.46 626.657 147.903 626.378 147.223 626.354C146.664 626.334 146.213 626.439 145.872 626.667C145.517 626.895 145.226 627.211 144.998 627.617C144.771 628.009 144.568 628.469 144.389 628.997C144.211 629.511 144.012 630.051 143.793 630.617C143.382 631.683 142.894 632.467 142.33 632.967C141.752 633.467 141.016 633.702 140.124 633.671C139.377 633.658 138.723 633.462 138.163 633.082C137.589 632.702 137.154 632.179 136.857 631.515C136.547 630.837 136.408 630.045 136.44 629.139C136.471 628.246 136.664 627.479 137.02 626.838C137.377 626.184 137.854 625.687 138.453 625.347C139.053 624.995 139.726 624.825 140.472 624.837L140.411 626.596C140.024 626.583 139.641 626.67 139.261 626.856C138.868 627.043 138.544 627.338 138.289 627.743C138.036 628.134 137.898 628.637 137.877 629.25C137.837 630.009 138.008 630.642 138.391 631.149C138.774 631.642 139.318 631.901 140.025 631.926C140.624 631.947 141.09 631.797 141.421 631.475C141.753 631.139 142.036 630.669 142.271 630.063C142.492 629.457 142.75 628.759 143.044 627.969C143.308 627.311 143.608 626.721 143.947 626.199C144.285 625.678 144.713 625.279 145.229 625.004C145.746 624.715 146.398 624.584 147.184 624.612C147.85 624.635 148.477 624.83 149.065 625.197C149.639 625.564 150.1 626.108 150.449 626.827C150.798 627.533 150.954 628.412 150.917 629.465ZM150.922 622.458L136.53 621.956L136.589 620.277L142.765 620.492C142.164 620.138 141.707 619.648 141.396 619.024C141.071 618.399 140.921 617.726 140.946 617.007C140.986 615.861 141.378 614.954 142.121 614.286C142.852 613.618 143.957 613.309 145.436 613.361L151.232 613.564L151.174 615.223L145.558 615.026C143.492 614.954 142.43 615.751 142.372 617.417C142.342 618.283 142.63 619.02 143.236 619.628C143.828 620.236 144.697 620.56 145.843 620.6L150.98 620.779L150.922 622.458ZM151.676 607.73C151.647 608.556 151.483 609.238 151.184 609.774C150.886 610.311 150.498 610.704 150.023 610.954C149.547 611.205 149.036 611.32 148.489 611.301C147.477 611.266 146.711 610.852 146.191 610.06C145.672 609.268 145.436 608.206 145.482 606.873L145.576 604.195L145.456 604.191C144.59 604.161 143.929 604.364 143.473 604.802C143.004 605.239 142.757 605.838 142.73 606.597C142.707 607.25 142.854 607.822 143.171 608.314C143.474 608.791 143.937 609.101 144.559 609.243L144.499 610.962C143.782 610.87 143.184 610.609 142.705 610.179C142.227 609.735 141.872 609.196 141.641 608.56C141.396 607.925 141.286 607.254 141.311 606.548C141.359 605.162 141.769 604.136 142.539 603.469C143.297 602.788 144.288 602.469 145.514 602.512L151.611 602.725L151.558 604.224L149.776 604.262C150.326 604.561 150.791 604.991 151.172 605.551C151.54 606.098 151.708 606.824 151.676 607.73ZM150.266 607.421C150.288 606.781 150.141 606.229 149.824 605.764C149.507 605.286 149.086 604.918 148.561 604.66C148.037 604.401 147.481 604.262 146.895 604.241L146.875 604.24L146.786 606.779C146.752 607.765 146.901 608.471 147.233 608.896C147.552 609.307 147.965 609.522 148.471 609.539C148.991 609.558 149.417 609.386 149.75 609.024C150.07 608.648 150.242 608.114 150.266 607.421ZM151.699 600.206L137.307 599.704L137.366 598.025L143.542 598.24C142.941 597.886 142.484 597.396 142.173 596.772C141.848 596.146 141.698 595.474 141.723 594.755C141.763 593.609 142.155 592.702 142.898 592.034C143.629 591.366 144.734 591.057 146.213 591.109L152.009 591.311L151.951 592.97L146.335 592.774C144.269 592.702 143.208 593.499 143.149 595.165C143.119 596.031 143.407 596.768 144.013 597.376C144.605 597.984 145.474 598.308 146.62 598.348L151.757 598.527L151.699 600.206Z" fill="white"/>
</g>
<defs>
<clipPath id="clip0_22_982">
<rect width="612" height="792" fill="white"/>
</clipPath>
</defs>
</svg>
