<svg width="1678" height="279" viewBox="0 0 1678 279" fill="none" xmlns="http://www.w3.org/2000/svg">
<path fill-rule="evenodd" clip-rule="evenodd" d="M184.789 273.966C191.509 277.326 199.509 279.006 208.789 279.006C218.389 279.006 226.509 277.326 233.149 273.966C239.869 270.526 244.989 265.726 248.509 259.566C252.029 253.326 253.789 246.006 253.789 237.606C253.789 229.206 252.029 221.926 248.509 215.766C244.989 209.526 239.869 204.726 233.149 201.366C226.509 197.926 218.389 196.206 208.789 196.206C199.509 196.206 191.509 197.926 184.789 201.366C178.149 204.726 173.069 209.526 169.549 215.766C166.029 221.926 164.269 229.206 164.269 237.606C164.269 246.006 166.029 253.326 169.549 259.566C173.069 265.726 178.149 270.526 184.789 273.966ZM221.509 255.846C218.469 256.886 214.229 257.406 208.789 257.406C203.349 257.406 199.149 256.886 196.189 255.846C193.229 254.726 191.149 252.726 189.949 249.846C188.829 246.966 188.269 242.886 188.269 237.606C188.269 232.246 188.829 228.166 189.949 225.366C191.149 222.486 193.229 220.526 196.189 219.486C199.149 218.366 203.349 217.806 208.789 217.806C214.229 217.806 218.469 218.366 221.509 219.486C224.549 220.526 226.669 222.486 227.869 225.366C229.149 228.166 229.789 232.246 229.789 237.606C229.789 242.886 229.149 246.966 227.869 249.846C226.669 252.726 224.549 254.726 221.509 255.846ZM482.653 279.006C473.373 279.006 465.413 277.326 458.773 273.966C452.133 270.526 447.053 265.726 443.533 259.566C440.013 253.326 438.253 246.006 438.253 237.606C438.253 229.206 440.013 221.926 443.533 215.766C447.053 209.526 452.133 204.726 458.773 201.366C465.413 197.926 473.373 196.206 482.653 196.206C491.693 196.206 499.413 197.566 505.813 200.286C512.293 203.006 517.253 206.926 520.693 212.046C524.133 217.166 525.853 223.326 525.853 230.526V232.566H500.653V230.526C500.653 225.966 499.373 222.726 496.813 220.806C494.253 218.806 489.653 217.806 483.013 217.806C477.573 217.806 473.333 218.366 470.293 219.486C467.333 220.526 465.253 222.486 464.053 225.366C462.853 228.166 462.253 232.246 462.253 237.606C462.253 242.886 462.853 246.966 464.053 249.846C465.253 252.726 467.333 254.726 470.293 255.846C473.333 256.886 477.573 257.406 483.013 257.406C489.653 257.406 494.253 256.446 496.813 254.526C499.373 252.526 500.653 249.246 500.653 244.686V242.646H525.853V244.686C525.853 251.806 524.133 257.966 520.693 263.166C517.253 268.286 512.293 272.206 505.813 274.926C499.413 277.646 491.693 279.006 482.653 279.006ZM632.646 276.006C638.566 278.006 645.606 279.006 653.766 279.006C662.806 279.006 670.086 277.806 675.606 275.406C681.126 272.926 685.126 269.726 687.606 265.806C690.166 261.806 691.446 257.526 691.446 252.966C691.446 249.526 690.726 246.206 689.286 243.006C687.846 239.806 685.326 237.046 681.726 234.726C678.126 232.326 673.046 230.646 666.486 229.686L641.286 225.966C639.846 225.726 638.686 225.446 637.806 225.126C637.006 224.806 636.406 224.366 636.006 223.806C635.686 223.166 635.526 222.446 635.526 221.646C635.526 220.446 635.886 219.486 636.606 218.766C637.406 218.046 638.806 217.526 640.806 217.206C642.806 216.806 645.726 216.606 649.566 216.606C654.606 216.606 658.366 216.846 660.846 217.326C663.406 217.806 665.086 218.606 665.886 219.726C666.766 220.846 667.206 222.366 667.206 224.286V226.086H689.766V225.366C689.766 219.366 688.366 214.206 685.566 209.886C682.846 205.486 678.686 202.126 673.086 199.806C667.566 197.406 660.526 196.206 651.966 196.206C644.686 196.206 638.566 196.966 633.606 198.486C628.646 200.006 624.646 202.046 621.606 204.606C618.566 207.086 616.366 209.886 615.006 213.006C613.646 216.126 612.966 219.286 612.966 222.486C612.966 226.806 613.806 230.566 615.486 233.766C617.166 236.966 619.686 239.566 623.046 241.566C626.406 243.486 630.566 244.806 635.526 245.526L660.726 248.886C664.006 249.286 666.166 249.846 667.206 250.566C668.326 251.286 668.886 252.366 668.886 253.806C668.886 255.006 668.566 255.966 667.926 256.686C667.366 257.326 666.006 257.806 663.846 258.126C661.686 258.366 658.326 258.486 653.766 258.486C648.726 258.486 645.006 258.286 642.606 257.886C640.206 257.486 638.606 256.806 637.806 255.846C637.086 254.806 636.726 253.406 636.726 251.646V249.126H614.166V249.846C614.166 256.646 615.766 262.206 618.966 266.526C622.166 270.766 626.726 273.926 632.646 276.006ZM558.437 277.806H580.997V217.686H609.317V197.406H580.997H558.437H529.997V217.686H558.437V277.806ZM368.494 274.806C374.574 277.606 382.294 279.006 391.654 279.006C401.014 279.006 408.694 277.606 414.694 274.806C420.774 271.926 425.294 267.886 428.254 262.686C431.214 257.406 432.694 251.206 432.694 244.086V197.406H410.134V242.286C410.134 246.126 409.654 249.126 408.694 251.286C407.734 253.446 405.934 254.966 403.294 255.846C400.654 256.726 396.774 257.166 391.654 257.166C386.614 257.166 382.734 256.726 380.014 255.846C377.374 254.966 375.574 253.446 374.614 251.286C373.654 249.126 373.174 246.126 373.174 242.286V197.406H350.614V244.086C350.614 251.206 352.094 257.406 355.054 262.686C358.014 267.886 362.494 271.926 368.494 274.806ZM301.805 277.806H283.685H266.765H261.125V197.406H266.765H283.685H301.805C310.685 197.406 318.365 199.006 324.845 202.206C331.325 205.326 336.325 209.886 339.845 215.886C343.365 221.886 345.125 229.126 345.125 237.606C345.125 246.086 343.365 253.326 339.845 259.326C336.325 265.326 331.325 269.926 324.845 273.126C318.365 276.246 310.685 277.806 301.805 277.806ZM301.805 257.526H283.685V217.686H301.805C306.605 217.686 310.405 218.086 313.205 218.886C316.005 219.686 318.005 221.486 319.205 224.286C320.405 227.086 321.005 231.526 321.005 237.606C321.005 243.606 320.405 248.046 319.205 250.926C318.005 253.726 316.005 255.526 313.205 256.326C310.405 257.126 306.605 257.526 301.805 257.526ZM102.951 277.806H80.3906V197.406H127.311C134.431 197.406 140.391 198.366 145.191 200.286C149.991 202.206 153.591 205.006 155.991 208.686C158.471 212.286 159.711 216.726 159.711 222.006C159.711 226.246 158.951 229.926 157.431 233.046C155.991 236.086 153.671 238.566 150.471 240.486C147.271 242.326 143.111 243.566 137.991 244.206V245.406C142.151 246.446 145.111 248.006 146.871 250.086C148.711 252.086 150.391 254.606 151.911 257.646L161.871 277.806H135.831L126.231 258.126C125.271 256.126 124.271 254.566 123.231 253.446C122.191 252.326 120.831 251.566 119.151 251.166C117.471 250.686 115.151 250.446 112.191 250.446H102.951V277.806ZM102.951 217.686V233.646H127.071C130.351 233.646 132.671 233.166 134.031 232.206C135.391 231.246 136.071 229.046 136.071 225.606C136.071 222.406 135.391 220.286 134.031 219.246C132.671 218.206 130.351 217.686 127.071 217.686H102.951ZM22.56 257.526H44.52C50.92 257.526 56.44 256.366 61.08 254.046C65.72 251.646 69.28 248.206 71.76 243.726C74.32 239.166 75.6 233.726 75.6 227.406C75.6 221.006 74.32 215.606 71.76 211.206C69.28 206.726 65.72 203.326 61.08 201.006C56.44 198.606 50.92 197.406 44.52 197.406H22.56H7.56H0V277.806H22.56V257.526ZM22.56 237.246V217.686H42C46 217.686 48.84 218.286 50.52 219.486C52.28 220.686 53.16 223.326 53.16 227.406C53.16 231.566 52.28 234.246 50.52 235.446C48.84 236.646 46 237.246 42 237.246H22.56Z" fill="white"/>
<path fill-rule="evenodd" clip-rule="evenodd" d="M515.21 155.165C521.21 158.525 528.41 160.205 536.81 160.205C543.13 160.205 548.17 159.325 551.93 157.565C555.77 155.805 558.65 153.525 560.57 150.725C562.57 147.925 563.93 144.965 564.65 141.845H565.85V159.005H586.85V131.645V124.925V123.245V116.165V115.085H539.33V131.645H563.999C563.727 133.078 563.264 134.238 562.61 135.125C561.57 136.565 559.41 137.525 556.13 138.005C552.85 138.405 547.97 138.605 541.49 138.605C536.05 138.605 531.81 138.085 528.77 137.045C525.81 135.925 523.73 133.925 522.53 131.045C521.33 128.165 520.73 124.085 520.73 118.805C520.73 113.445 521.37 109.365 522.65 106.565C523.93 103.685 526.13 101.725 529.25 100.685C532.45 99.5654 536.93 99.0054 542.69 99.0054C549.81 99.0054 554.73 99.8054 557.45 101.405C560.17 102.925 561.53 105.565 561.53 109.325V110.165H586.73V109.325C586.73 102.685 585.01 97.0054 581.57 92.2854C578.13 87.4854 573.17 83.8054 566.69 81.2454C560.21 78.6854 552.41 77.4054 543.29 77.4054C533.53 77.4054 525.17 79.1254 518.21 82.5654C511.25 85.9254 505.93 90.7254 502.25 96.9654C498.57 103.125 496.73 110.405 496.73 118.805C496.73 127.205 498.29 134.525 501.41 140.765C504.61 146.925 509.21 151.725 515.21 155.165ZM688.768 156.005C694.848 158.805 702.568 160.205 711.928 160.205C721.288 160.205 728.968 158.805 734.968 156.005C741.048 153.125 745.568 149.085 748.528 143.885C751.488 138.605 752.968 132.405 752.968 125.285V78.6053H730.408V123.485C730.408 127.325 729.928 130.325 728.968 132.485C728.008 134.645 726.208 136.165 723.568 137.045C720.928 137.925 717.048 138.365 711.928 138.365C706.888 138.365 703.008 137.925 700.288 137.045C697.648 136.165 695.848 134.645 694.888 132.485C693.928 130.325 693.448 127.325 693.448 123.485V78.6053H670.888V125.285C670.888 132.405 672.368 138.605 675.328 143.885C678.288 149.085 682.768 153.125 688.768 156.005ZM759.727 159.005H765.967H782.287H828.727V138.725H782.287V78.6054H759.727V159.005ZM616.115 159.005H593.555V78.6054H599.675H616.115H665.435V98.8854H616.115V110.885H663.635V131.045H616.115V159.005ZM432.13 159.005H409.57V78.6054H433.57L455.89 108.725L467.65 127.205H469.21L468.13 109.685V78.6054H490.69V159.005H466.69L442.93 128.045L432.73 112.205H431.17L432.13 127.565V159.005ZM379.805 159.005H402.365V78.6054H379.805V159.005ZM314.005 159.005H291.445V78.6054H315.445L337.765 108.725L349.525 127.205H351.085L350.005 109.685V78.6054H372.565V159.005H348.565L324.805 128.045L314.605 112.205H313.045L314.005 127.565V159.005ZM187.27 159.005H212.59L218.819 144.125H256.997L263.11 159.005H289.03L254.23 78.6054H221.95L187.27 159.005ZM248.665 123.845L244.03 112.565L238.75 99.0054H237.19L232.03 112.565L227.309 123.845H248.665ZM120.378 159.005H114.258V78.6054H120.378H136.818H185.658V98.8854H136.818V108.485H183.858V128.645H136.818V138.725H185.658V159.005H136.818H120.378ZM0 159.005H22.56V125.765L21.72 112.325H23.28L27.84 125.765L39.84 154.205H67.2L79.2 125.765L83.76 112.325H85.32L84.48 125.765V159.005H107.04V78.6054H76.44L62.4 111.965L54.84 132.725H53.28L45.36 111.965L30.6 78.6054H0V159.005Z" fill="white"/>
<path fill-rule="evenodd" clip-rule="evenodd" d="M232.813 38.8855C235.773 40.5655 239.153 41.4055 242.953 41.4055C245.353 41.4055 247.553 41.0855 249.553 40.4455C251.593 39.7655 253.333 38.7455 254.773 37.3855C256.213 35.9855 257.273 34.2055 257.953 32.0455H258.253V40.8055H262.033V26.3455V25.3855V24.3655V21.7855V21.0055H241.813V24.3655H257.773V24.9655V25.8655C257.773 28.4655 257.253 30.6055 256.213 32.2855C255.173 33.9655 253.593 35.2255 251.473 36.0655C249.393 36.8655 246.753 37.2655 243.553 37.2655C240.233 37.2655 237.393 36.6455 235.033 35.4055C232.713 34.1255 230.953 32.2655 229.753 29.8255C228.553 27.3455 227.953 24.3055 227.953 20.7055C227.953 17.0655 228.553 14.0255 229.753 11.5855C230.993 9.14549 232.773 7.30549 235.093 6.06549C237.453 4.78549 240.333 4.14549 243.733 4.14549C248.173 4.14549 251.553 5.06549 253.873 6.90549C256.233 8.74549 257.413 11.3255 257.413 14.6455V15.1855H262.033V14.6455C262.033 11.6455 261.233 9.06549 259.633 6.90549C258.073 4.70549 255.913 3.00549 253.153 1.80549C250.393 0.605493 247.273 0.00549316 243.793 0.00549316C239.793 0.00549316 236.253 0.865493 233.173 2.58549C230.133 4.26549 227.753 6.66549 226.033 9.78549C224.313 12.8655 223.453 16.5055 223.453 20.7055C223.453 24.9055 224.273 28.5655 225.913 31.6855C227.593 34.7655 229.893 37.1655 232.813 38.8855ZM182.707 40.8055H186.967V13.7455L186.847 7.02549H187.147L192.187 13.8055L213.127 40.8055H217.807V0.605484H213.547V28.0255L213.667 34.6255H213.307L208.447 27.9055L187.327 0.605484H182.707V40.8055ZM175.541 40.8055H171.281V0.605484H175.541V40.8055ZM132.713 40.8055H145.853C149.893 40.8055 153.373 39.9855 156.293 38.3455C159.253 36.7055 161.533 34.3855 163.133 31.3855C164.773 28.3855 165.593 24.8255 165.593 20.7055C165.593 16.5855 164.773 13.0255 163.133 10.0255C161.533 7.02549 159.253 4.70549 156.293 3.06549C153.373 1.42549 149.893 0.605484 145.853 0.605484H132.713H130.193H128.393V40.8055H130.193H132.713ZM132.713 36.9055H145.853C149.293 36.9055 152.133 36.3255 154.373 35.1655C156.613 33.9655 158.293 32.1655 159.413 29.7655C160.533 27.3655 161.093 24.3455 161.093 20.7055C161.093 17.0255 160.533 14.0055 159.413 11.6455C158.293 9.24549 156.613 7.46548 154.373 6.30548C152.133 5.10548 149.293 4.50548 145.853 4.50548H132.713V36.9055ZM95.0228 40.8055H93.7028V0.605484H97.9628V36.9055H123.463V40.8055H97.9628H95.0228ZM82.2769 40.8055H86.5369V0.605465H82.2769V40.8055ZM57.2648 41.4055C53.5448 41.4055 50.3248 40.7455 47.6048 39.4255C44.9248 38.0655 42.8448 36.1055 41.3648 33.5455C39.8848 30.9855 39.1448 27.8655 39.1448 24.1855V0.605484H43.4048V24.0055C43.4048 27.0455 43.9048 29.5455 44.9048 31.5055C45.9448 33.4655 47.4848 34.9055 49.5248 35.8255C51.5648 36.7455 54.1448 37.2055 57.2648 37.2055C60.3848 37.2055 62.9648 36.7455 65.0048 35.8255C67.0448 34.9055 68.5648 33.4655 69.5648 31.5055C70.6048 29.5455 71.1248 27.0455 71.1248 24.0055V0.605484H75.3848V24.1855C75.3848 27.8655 74.6448 30.9855 73.1648 33.5455C71.6848 36.1055 69.5848 38.0655 66.8648 39.4255C64.1848 40.7455 60.9848 41.4055 57.2648 41.4055ZM0 40.8055H21.72C24.28 40.8055 26.5 40.3655 28.38 39.4855C30.26 38.6055 31.72 37.3455 32.76 35.7055C33.8 34.0255 34.32 32.0255 34.32 29.7055C34.32 27.1455 33.54 25.0055 31.98 23.2855C30.42 21.5255 28.08 20.3855 24.96 19.8655V19.5055C27.72 19.0655 29.76 18.0455 31.08 16.4455C32.4 14.8055 33.06 12.8455 33.06 10.5655C33.06 8.44548 32.56 6.64548 31.56 5.16548C30.6 3.64548 29.22 2.50548 27.42 1.74548C25.66 0.985485 23.56 0.605484 21.12 0.605484H0V40.8055ZM4.26 36.9055V21.7855H21.36C24.16 21.7855 26.3 22.3855 27.78 23.5855C29.26 24.7855 30 26.6855 30 29.2855C30 31.8855 29.26 33.8055 27.78 35.0455C26.34 36.2855 24.2 36.9055 21.36 36.9055H4.26ZM4.26 18.1255V4.50548H20.76C23.48 4.50548 25.5 5.06548 26.82 6.18548C28.14 7.26548 28.8 8.98548 28.8 11.3455C28.8 13.6255 28.08 15.3255 26.64 16.4455C25.24 17.5655 23.16 18.1255 20.4 18.1255H4.26Z" fill="white"/>
<path d="M306.733 0.305542L306.741 20.9864L321.37 6.36843L306.752 20.9976L1677.03 21.0135H306.752L321.37 35.6427L306.741 21.0247L306.733 41.7055L306.725 21.0247L292.096 35.6427L306.714 21.0135L286.033 21.0055L306.714 20.9976L292.096 6.36843L306.725 20.9864L306.733 0.305542Z" fill="#D9D9D9" stroke="white" stroke-width="4.26"/>
<path d="M1459.85 63.0056C1458.85 63.0056 1457.92 62.8189 1457.07 62.4456C1456.22 62.0589 1455.47 61.5256 1454.83 60.8456C1454.2 60.1656 1453.71 59.3722 1453.35 58.4656C1453 57.5456 1452.83 56.5589 1452.83 55.5056C1452.83 54.4522 1453 53.4722 1453.35 52.5656C1453.71 51.6589 1454.2 50.8722 1454.83 50.2056C1455.47 49.5256 1456.22 48.9989 1457.07 48.6256C1457.92 48.2389 1458.85 48.0456 1459.85 48.0456C1460.98 48.0456 1462.03 48.2856 1462.99 48.7656C1463.95 49.2322 1464.75 49.8989 1465.39 50.7656C1466.04 51.6189 1466.46 52.6189 1466.65 53.7656H1465.07C1464.92 52.9122 1464.6 52.1589 1464.11 51.5056C1463.62 50.8389 1463 50.3189 1462.27 49.9456C1461.55 49.5722 1460.74 49.3856 1459.85 49.3856C1459.05 49.3856 1458.32 49.5389 1457.65 49.8456C1456.98 50.1522 1456.4 50.5789 1455.91 51.1256C1455.42 51.6722 1455.04 52.3189 1454.77 53.0656C1454.5 53.8122 1454.37 54.6256 1454.37 55.5056C1454.37 56.3989 1454.5 57.2189 1454.77 57.9656C1455.04 58.7122 1455.42 59.3656 1455.91 59.9256C1456.4 60.4722 1456.98 60.8989 1457.65 61.2056C1458.32 61.5122 1459.05 61.6656 1459.85 61.6656C1460.74 61.6656 1461.56 61.4789 1462.29 61.1056C1463.02 60.7189 1463.63 60.1922 1464.11 59.5256C1464.6 58.8589 1464.92 58.1056 1465.07 57.2656H1466.65C1466.46 58.3989 1466.05 59.3989 1465.41 60.2656C1464.77 61.1322 1463.96 61.8056 1462.99 62.2856C1462.03 62.7656 1460.98 63.0056 1459.85 63.0056ZM1473.2 62.9056C1472.48 62.9056 1471.81 62.7722 1471.2 62.5056C1470.59 62.2389 1470.05 61.8589 1469.6 61.3656C1469.16 60.8722 1468.81 60.2922 1468.56 59.6256C1468.32 58.9589 1468.2 58.2256 1468.2 57.4256C1468.2 56.6389 1468.32 55.9122 1468.56 55.2456C1468.81 54.5789 1469.16 54.0056 1469.6 53.5256C1470.05 53.0322 1470.59 52.6522 1471.2 52.3856C1471.81 52.1189 1472.48 51.9856 1473.2 51.9856C1473.93 51.9856 1474.61 52.1189 1475.22 52.3856C1475.83 52.6522 1476.36 53.0322 1476.8 53.5256C1477.25 54.0056 1477.6 54.5789 1477.84 55.2456C1478.09 55.9122 1478.22 56.6389 1478.22 57.4256C1478.22 58.2256 1478.09 58.9589 1477.84 59.6256C1477.6 60.2922 1477.25 60.8722 1476.8 61.3656C1476.36 61.8589 1475.83 62.2389 1475.22 62.5056C1474.61 62.7722 1473.93 62.9056 1473.2 62.9056ZM1473.2 61.7056C1473.89 61.7056 1474.51 61.5322 1475.04 61.1856C1475.59 60.8256 1476.01 60.3256 1476.32 59.6856C1476.64 59.0456 1476.8 58.2922 1476.8 57.4256C1476.8 56.5589 1476.64 55.8122 1476.32 55.1856C1476.01 54.5589 1475.59 54.0722 1475.04 53.7256C1474.51 53.3789 1473.89 53.2056 1473.2 53.2056C1472.52 53.2056 1471.91 53.3789 1471.36 53.7256C1470.83 54.0722 1470.4 54.5589 1470.08 55.1856C1469.77 55.8122 1469.62 56.5589 1469.62 57.4256C1469.62 58.2922 1469.77 59.0456 1470.08 59.6856C1470.4 60.3256 1470.83 60.8256 1471.36 61.1856C1471.91 61.5322 1472.52 61.7056 1473.2 61.7056ZM1481.88 62.7056H1480.48V52.1656H1481.78V54.1456C1482.14 53.4656 1482.62 52.9322 1483.2 52.5456C1483.8 52.1589 1484.48 51.9656 1485.22 51.9656C1486.05 51.9656 1486.75 52.1789 1487.32 52.6056C1487.91 53.0322 1488.31 53.6322 1488.52 54.4056C1488.84 53.6589 1489.32 53.0656 1489.96 52.6256C1490.6 52.1856 1491.34 51.9656 1492.16 51.9656C1493.26 51.9656 1494.12 52.3122 1494.74 53.0056C1495.38 53.6856 1495.7 54.6389 1495.7 55.8656V62.7056H1494.32V56.3256C1494.32 55.3122 1494.1 54.5389 1493.64 54.0056C1493.2 53.4589 1492.56 53.1856 1491.7 53.1856C1491.17 53.1856 1490.68 53.3322 1490.24 53.6256C1489.8 53.9056 1489.45 54.2989 1489.18 54.8056C1488.93 55.2989 1488.8 55.8722 1488.8 56.5256V62.7056H1487.4V56.3256C1487.4 55.3122 1487.18 54.5389 1486.74 54.0056C1486.3 53.4589 1485.65 53.1856 1484.78 53.1856C1484.25 53.1856 1483.76 53.3322 1483.3 53.6256C1482.86 53.9056 1482.52 54.2989 1482.26 54.8056C1482.01 55.2989 1481.88 55.8722 1481.88 56.5256V62.7056ZM1508.31 57.4256C1508.31 58.5056 1508.11 59.4589 1507.73 60.2856C1507.35 61.1122 1506.82 61.7589 1506.13 62.2256C1505.43 62.6789 1504.61 62.9056 1503.67 62.9056C1502.87 62.9056 1502.14 62.6922 1501.49 62.2656C1500.83 61.8389 1500.32 61.2456 1499.95 60.4856V62.7056H1498.65V48.3456H1500.05V54.3856C1500.39 53.6122 1500.88 53.0189 1501.51 52.6056C1502.15 52.1789 1502.87 51.9656 1503.67 51.9656C1504.61 51.9656 1505.43 52.1989 1506.11 52.6656C1506.8 53.1189 1507.34 53.7589 1507.73 54.5856C1508.11 55.3989 1508.31 56.3456 1508.31 57.4256ZM1506.89 57.4256C1506.89 56.0922 1506.57 55.0522 1505.93 54.3056C1505.3 53.5589 1504.47 53.1856 1503.45 53.1856C1502.79 53.1856 1502.21 53.3522 1501.69 53.6856C1501.17 54.0189 1500.76 54.4989 1500.47 55.1256C1500.17 55.7522 1500.03 56.5056 1500.03 57.3856C1500.03 58.2656 1500.17 59.0322 1500.45 59.6856C1500.74 60.3256 1501.15 60.8189 1501.67 61.1656C1502.19 61.5122 1502.78 61.6856 1503.45 61.6856C1504.47 61.6856 1505.3 61.3122 1505.93 60.5656C1506.57 59.8189 1506.89 58.7722 1506.89 57.4256ZM1511.96 62.7056H1510.56V52.1656H1511.96V62.7056ZM1512.38 49.7256C1512.38 50.0322 1512.27 50.2856 1512.06 50.4856C1511.86 50.6856 1511.59 50.7856 1511.24 50.7856C1510.92 50.7856 1510.65 50.6856 1510.44 50.4856C1510.23 50.2856 1510.12 50.0322 1510.12 49.7256C1510.12 49.4189 1510.23 49.1722 1510.44 48.9856C1510.65 48.7856 1510.92 48.6856 1511.24 48.6856C1511.59 48.6856 1511.86 48.7856 1512.06 48.9856C1512.27 49.1722 1512.38 49.4189 1512.38 49.7256ZM1516.4 56.5656V62.7056H1515V52.1656H1516.3V54.1456C1516.64 53.5056 1517.12 52.9856 1517.72 52.5856C1518.33 52.1722 1519.02 51.9656 1519.78 51.9656C1520.87 51.9656 1521.74 52.3056 1522.4 52.9856C1523.06 53.6656 1523.4 54.6256 1523.4 55.8656V62.7056H1522V56.3456C1522 55.3322 1521.77 54.5522 1521.32 54.0056C1520.88 53.4589 1520.22 53.1856 1519.36 53.1856C1518.81 53.1856 1518.31 53.3322 1517.86 53.6256C1517.4 53.9056 1517.04 54.2989 1516.78 54.8056C1516.52 55.3122 1516.4 55.8989 1516.4 56.5656ZM1527.74 62.7056H1526.34V52.1656H1527.74V62.7056ZM1528.16 49.7256C1528.16 50.0322 1528.06 50.2856 1527.84 50.4856C1527.64 50.6856 1527.37 50.7856 1527.02 50.7856C1526.7 50.7856 1526.44 50.6856 1526.22 50.4856C1526.01 50.2856 1525.9 50.0322 1525.9 49.7256C1525.9 49.4189 1526.01 49.1722 1526.22 48.9856C1526.44 48.7856 1526.7 48.6856 1527.02 48.6856C1527.37 48.6856 1527.64 48.7856 1527.84 48.9856C1528.06 49.1722 1528.16 49.4189 1528.16 49.7256ZM1532.18 56.5656V62.7056H1530.78V52.1656H1532.08V54.1456C1532.42 53.5056 1532.9 52.9856 1533.5 52.5856C1534.11 52.1722 1534.8 51.9656 1535.56 51.9656C1536.65 51.9656 1537.52 52.3056 1538.18 52.9856C1538.84 53.6656 1539.18 54.6256 1539.18 55.8656V62.7056H1537.78V56.3456C1537.78 55.3322 1537.55 54.5522 1537.1 54.0056C1536.66 53.4589 1536 53.1856 1535.14 53.1856C1534.59 53.1856 1534.09 53.3322 1533.64 53.6256C1533.18 53.9056 1532.82 54.2989 1532.56 54.8056C1532.3 55.3122 1532.18 55.8989 1532.18 56.5656ZM1546.1 66.7856C1545.22 66.7856 1544.45 66.6322 1543.78 66.3256C1543.12 66.0322 1542.6 65.5989 1542.22 65.0256C1541.86 64.4656 1541.66 63.7989 1541.62 63.0256H1542.96C1543.03 63.8789 1543.33 64.5322 1543.86 64.9856C1544.4 65.4389 1545.14 65.6656 1546.08 65.6656C1547.14 65.6656 1547.93 65.3922 1548.46 64.8456C1549 64.3122 1549.26 63.5322 1549.26 62.5056V60.2856C1548.94 61.0189 1548.48 61.5922 1547.86 62.0056C1547.26 62.4189 1546.57 62.6256 1545.78 62.6256C1544.9 62.6256 1544.13 62.4056 1543.46 61.9656C1542.8 61.5256 1542.28 60.9056 1541.9 60.1056C1541.53 59.2922 1541.34 58.3522 1541.34 57.2856C1541.34 56.2189 1541.52 55.2856 1541.88 54.4856C1542.26 53.6856 1542.78 53.0656 1543.44 52.6256C1544.11 52.1856 1544.88 51.9656 1545.76 51.9656C1546.56 51.9656 1547.27 52.1789 1547.88 52.6056C1548.51 53.0322 1549 53.6322 1549.34 54.4056V52.1656H1550.64V62.4656C1550.64 63.8389 1550.24 64.8989 1549.44 65.6456C1548.66 66.4056 1547.54 66.7856 1546.1 66.7856ZM1542.74 57.2856C1542.74 58.5789 1543.03 59.5922 1543.6 60.3256C1544.19 61.0589 1544.98 61.4256 1545.98 61.4256C1546.65 61.4256 1547.22 61.2589 1547.7 60.9256C1548.2 60.5922 1548.58 60.1256 1548.86 59.5256C1549.14 58.9122 1549.28 58.1989 1549.28 57.3856C1549.28 56.1056 1548.98 55.0856 1548.38 54.3256C1547.8 53.5522 1547 53.1656 1545.98 53.1656C1544.98 53.1656 1544.19 53.5322 1543.6 54.2656C1543.03 54.9989 1542.74 56.0056 1542.74 57.2856ZM1568.43 48.3456V57.7856C1568.43 58.8522 1568.21 59.7789 1567.77 60.5656C1567.34 61.3522 1566.73 61.9589 1565.95 62.3856C1565.16 62.7989 1564.24 63.0056 1563.19 63.0056C1562.12 63.0056 1561.19 62.7989 1560.41 62.3856C1559.62 61.9589 1559.01 61.3522 1558.57 60.5656C1558.14 59.7789 1557.93 58.8522 1557.93 57.7856V48.3456H1559.43V57.8656C1559.43 58.6389 1559.59 59.3122 1559.91 59.8856C1560.23 60.4589 1560.67 60.8989 1561.23 61.2056C1561.79 61.5122 1562.44 61.6656 1563.19 61.6656C1563.93 61.6656 1564.59 61.5122 1565.15 61.2056C1565.71 60.8989 1566.14 60.4589 1566.45 59.8856C1566.77 59.3122 1566.93 58.6389 1566.93 57.8656V48.3456H1568.43ZM1572.38 62.7056H1570.68L1575.42 55.3456L1571.04 48.3456H1572.76L1576.46 54.3256L1580.24 48.3456H1581.9L1577.46 55.3856L1582.12 62.7056H1580.4L1576.4 56.3656L1572.38 62.7056ZM1586.34 62.0456C1586.34 62.5389 1586.22 63.0056 1585.98 63.4456C1585.74 63.8856 1585.39 64.2456 1584.94 64.5256C1584.49 64.8056 1583.94 64.9522 1583.3 64.9656V64.1256C1583.87 64.0856 1584.34 63.9056 1584.7 63.5856C1585.07 63.2789 1585.27 62.8922 1585.3 62.4256C1585.22 62.4656 1585.14 62.4922 1585.06 62.5056C1584.99 62.5189 1584.92 62.5256 1584.84 62.5256C1584.52 62.5256 1584.25 62.4189 1584.04 62.2056C1583.84 61.9789 1583.74 61.7189 1583.74 61.4256C1583.74 61.0656 1583.85 60.7856 1584.08 60.5856C1584.32 60.3722 1584.61 60.2656 1584.94 60.2656C1585.41 60.2656 1585.75 60.4322 1585.98 60.7656C1586.22 61.0856 1586.34 61.5122 1586.34 62.0456ZM1603.01 57.4256C1603.01 58.5056 1602.82 59.4589 1602.43 60.2856C1602.06 61.1122 1601.53 61.7589 1600.83 62.2256C1600.14 62.6789 1599.32 62.9056 1598.37 62.9056C1597.57 62.9056 1596.85 62.6922 1596.19 62.2656C1595.54 61.8389 1595.03 61.2456 1594.65 60.4856V62.7056H1593.35V48.3456H1594.75V54.3856C1595.1 53.6122 1595.59 53.0189 1596.21 52.6056C1596.85 52.1789 1597.57 51.9656 1598.37 51.9656C1599.32 51.9656 1600.13 52.1989 1600.81 52.6656C1601.51 53.1189 1602.05 53.7589 1602.43 54.5856C1602.82 55.3989 1603.01 56.3456 1603.01 57.4256ZM1601.59 57.4256C1601.59 56.0922 1601.27 55.0522 1600.63 54.3056C1600.01 53.5589 1599.18 53.1856 1598.15 53.1856C1597.5 53.1856 1596.91 53.3522 1596.39 53.6856C1595.87 54.0189 1595.47 54.4989 1595.17 55.1256C1594.88 55.7522 1594.73 56.5056 1594.73 57.3856C1594.73 58.2656 1594.87 59.0322 1595.15 59.6856C1595.45 60.3256 1595.85 60.8189 1596.37 61.1656C1596.89 61.5122 1597.49 61.6856 1598.15 61.6856C1599.18 61.6856 1600.01 61.3122 1600.63 60.5656C1601.27 59.8189 1601.59 58.7722 1601.59 57.4256ZM1612.01 58.4656V52.1656H1613.39V62.7056H1612.09V60.8056C1611.82 61.4189 1611.39 61.9256 1610.79 62.3256C1610.19 62.7122 1609.5 62.9056 1608.73 62.9056C1608.02 62.9056 1607.4 62.7722 1606.85 62.5056C1606.32 62.2256 1605.9 61.7989 1605.61 61.2256C1605.32 60.6389 1605.17 59.9056 1605.17 59.0256V52.1656H1606.57V58.7256C1606.57 59.7922 1606.81 60.5589 1607.29 61.0256C1607.77 61.4789 1608.38 61.7056 1609.11 61.7056C1609.67 61.7056 1610.16 61.5656 1610.59 61.2856C1611.03 61.0056 1611.38 60.6189 1611.63 60.1256C1611.88 59.6322 1612.01 59.0789 1612.01 58.4656ZM1624.3 59.7656C1624.3 60.7389 1623.93 61.5056 1623.2 62.0656C1622.47 62.6256 1621.45 62.9056 1620.14 62.9056C1618.83 62.9056 1617.79 62.5922 1617.02 61.9656C1616.26 61.3389 1615.83 60.4856 1615.72 59.4056H1617.06C1617.1 60.1522 1617.4 60.7456 1617.96 61.1856C1618.52 61.6256 1619.25 61.8456 1620.14 61.8456C1621.01 61.8456 1621.68 61.6856 1622.16 61.3656C1622.65 61.0456 1622.9 60.5856 1622.9 59.9856C1622.9 59.4656 1622.73 59.0722 1622.4 58.8056C1622.07 58.5256 1621.5 58.3056 1620.7 58.1456L1619.18 57.8456C1618.18 57.6589 1617.42 57.3256 1616.9 56.8456C1616.38 56.3522 1616.12 55.7256 1616.12 54.9656C1616.12 54.3789 1616.28 53.8589 1616.6 53.4056C1616.93 52.9522 1617.39 52.5989 1617.96 52.3456C1618.55 52.0922 1619.22 51.9656 1619.98 51.9656C1620.79 51.9656 1621.5 52.1056 1622.1 52.3856C1622.71 52.6522 1623.2 53.0389 1623.56 53.5456C1623.92 54.0522 1624.12 54.6589 1624.16 55.3656H1622.84C1622.77 54.6322 1622.49 54.0656 1621.98 53.6656C1621.47 53.2522 1620.81 53.0456 1619.98 53.0456C1619.23 53.0456 1618.63 53.2056 1618.16 53.5256C1617.71 53.8456 1617.48 54.2856 1617.48 54.8456C1617.48 55.3656 1617.65 55.7656 1617.98 56.0456C1618.33 56.3256 1618.89 56.5389 1619.68 56.6856L1621.26 56.9856C1622.3 57.1856 1623.07 57.5122 1623.56 57.9656C1624.05 58.4189 1624.3 59.0189 1624.3 59.7656ZM1628.13 62.7056H1626.73V52.1656H1628.13V62.7056ZM1628.55 49.7256C1628.55 50.0322 1628.45 50.2856 1628.23 50.4856C1628.03 50.6856 1627.76 50.7856 1627.41 50.7856C1627.09 50.7856 1626.83 50.6856 1626.61 50.4856C1626.4 50.2856 1626.29 50.0322 1626.29 49.7256C1626.29 49.4189 1626.4 49.1722 1626.61 48.9856C1626.83 48.7856 1627.09 48.6856 1627.41 48.6856C1627.76 48.6856 1628.03 48.7856 1628.23 48.9856C1628.45 49.1722 1628.55 49.4189 1628.55 49.7256ZM1632.57 56.5656V62.7056H1631.17V52.1656H1632.47V54.1456C1632.81 53.5056 1633.29 52.9856 1633.89 52.5856C1634.5 52.1722 1635.19 51.9656 1635.95 51.9656C1637.04 51.9656 1637.91 52.3056 1638.57 52.9856C1639.23 53.6656 1639.57 54.6256 1639.57 55.8656V62.7056H1638.17V56.3456C1638.17 55.3322 1637.94 54.5522 1637.49 54.0056C1637.05 53.4589 1636.39 53.1856 1635.53 53.1856C1634.98 53.1856 1634.48 53.3322 1634.03 53.6256C1633.57 53.9056 1633.21 54.2989 1632.95 54.8056C1632.69 55.3122 1632.57 55.8989 1632.57 56.5656ZM1646.65 62.9056C1645.67 62.9056 1644.8 62.6789 1644.05 62.2256C1643.32 61.7589 1642.75 61.1056 1642.33 60.2656C1641.93 59.4256 1641.73 58.4522 1641.73 57.3456C1641.73 56.3189 1641.94 55.4056 1642.35 54.6056C1642.78 53.7922 1643.35 53.1522 1644.07 52.6856C1644.81 52.2056 1645.64 51.9656 1646.57 51.9656C1647.32 51.9656 1647.99 52.1122 1648.59 52.4056C1649.21 52.6856 1649.72 53.0856 1650.13 53.6056C1650.56 54.1256 1650.87 54.7389 1651.07 55.4456C1651.29 56.1389 1651.36 56.9122 1651.29 57.7656H1642.49V56.8056H1649.83C1649.78 55.6189 1649.46 54.6989 1648.87 54.0456C1648.3 53.3789 1647.53 53.0456 1646.55 53.0456C1645.87 53.0456 1645.27 53.2256 1644.75 53.5856C1644.25 53.9322 1643.85 54.4256 1643.55 55.0656C1643.26 55.7056 1643.11 56.4656 1643.11 57.3456C1643.11 58.2522 1643.25 59.0456 1643.53 59.7256C1643.81 60.3922 1644.21 60.9056 1644.73 61.2656C1645.27 61.6256 1645.9 61.8056 1646.63 61.8056C1647.51 61.8056 1648.24 61.5722 1648.81 61.1056C1649.4 60.6256 1649.78 59.9722 1649.95 59.1456H1651.33C1651.09 60.3056 1650.55 61.2256 1649.71 61.9056C1648.89 62.5722 1647.87 62.9056 1646.65 62.9056ZM1661.49 59.7656C1661.49 60.7389 1661.12 61.5056 1660.39 62.0656C1659.66 62.6256 1658.64 62.9056 1657.33 62.9056C1656.02 62.9056 1654.98 62.5922 1654.21 61.9656C1653.45 61.3389 1653.02 60.4856 1652.91 59.4056H1654.25C1654.29 60.1522 1654.59 60.7456 1655.15 61.1856C1655.71 61.6256 1656.44 61.8456 1657.33 61.8456C1658.2 61.8456 1658.87 61.6856 1659.35 61.3656C1659.84 61.0456 1660.09 60.5856 1660.09 59.9856C1660.09 59.4656 1659.92 59.0722 1659.59 58.8056C1659.26 58.5256 1658.69 58.3056 1657.89 58.1456L1656.37 57.8456C1655.37 57.6589 1654.61 57.3256 1654.09 56.8456C1653.57 56.3522 1653.31 55.7256 1653.31 54.9656C1653.31 54.3789 1653.47 53.8589 1653.79 53.4056C1654.12 52.9522 1654.58 52.5989 1655.15 52.3456C1655.74 52.0922 1656.41 51.9656 1657.17 51.9656C1657.98 51.9656 1658.69 52.1056 1659.29 52.3856C1659.9 52.6522 1660.39 53.0389 1660.75 53.5456C1661.11 54.0522 1661.31 54.6589 1661.35 55.3656H1660.03C1659.96 54.6322 1659.68 54.0656 1659.17 53.6656C1658.66 53.2522 1658 53.0456 1657.17 53.0456C1656.42 53.0456 1655.82 53.2056 1655.35 53.5256C1654.9 53.8456 1654.67 54.2856 1654.67 54.8456C1654.67 55.3656 1654.84 55.7656 1655.17 56.0456C1655.52 56.3256 1656.08 56.5389 1656.87 56.6856L1658.45 56.9856C1659.49 57.1856 1660.26 57.5122 1660.75 57.9656C1661.24 58.4189 1661.49 59.0189 1661.49 59.7656ZM1671.8 59.7656C1671.8 60.7389 1671.43 61.5056 1670.7 62.0656C1669.97 62.6256 1668.95 62.9056 1667.64 62.9056C1666.33 62.9056 1665.29 62.5922 1664.52 61.9656C1663.76 61.3389 1663.33 60.4856 1663.22 59.4056H1664.56C1664.6 60.1522 1664.9 60.7456 1665.46 61.1856C1666.02 61.6256 1666.75 61.8456 1667.64 61.8456C1668.51 61.8456 1669.18 61.6856 1669.66 61.3656C1670.15 61.0456 1670.4 60.5856 1670.4 59.9856C1670.4 59.4656 1670.23 59.0722 1669.9 58.8056C1669.57 58.5256 1669 58.3056 1668.2 58.1456L1666.68 57.8456C1665.68 57.6589 1664.92 57.3256 1664.4 56.8456C1663.88 56.3522 1663.62 55.7256 1663.62 54.9656C1663.62 54.3789 1663.78 53.8589 1664.1 53.4056C1664.43 52.9522 1664.89 52.5989 1665.46 52.3456C1666.05 52.0922 1666.72 51.9656 1667.48 51.9656C1668.29 51.9656 1669 52.1056 1669.6 52.3856C1670.21 52.6522 1670.7 53.0389 1671.06 53.5456C1671.42 54.0522 1671.62 54.6589 1671.66 55.3656H1670.34C1670.27 54.6322 1669.99 54.0656 1669.48 53.6656C1668.97 53.2522 1668.31 53.0456 1667.48 53.0456C1666.73 53.0456 1666.13 53.2056 1665.66 53.5256C1665.21 53.8456 1664.98 54.2856 1664.98 54.8456C1664.98 55.3656 1665.15 55.7656 1665.48 56.0456C1665.83 56.3256 1666.39 56.5389 1667.18 56.6856L1668.76 56.9856C1669.8 57.1856 1670.57 57.5122 1671.06 57.9656C1671.55 58.4189 1671.8 59.0189 1671.8 59.7656ZM1461.43 86.7656C1461.43 87.7389 1461.06 88.5056 1460.33 89.0656C1459.6 89.6256 1458.58 89.9056 1457.27 89.9056C1455.96 89.9056 1454.92 89.5922 1454.15 88.9656C1453.39 88.3389 1452.96 87.4856 1452.85 86.4056H1454.19C1454.23 87.1522 1454.53 87.7456 1455.09 88.1856C1455.65 88.6256 1456.38 88.8456 1457.27 88.8456C1458.14 88.8456 1458.81 88.6856 1459.29 88.3656C1459.78 88.0456 1460.03 87.5856 1460.03 86.9856C1460.03 86.4656 1459.86 86.0722 1459.53 85.8056C1459.2 85.5256 1458.63 85.3056 1457.83 85.1456L1456.31 84.8456C1455.31 84.6589 1454.55 84.3256 1454.03 83.8456C1453.51 83.3522 1453.25 82.7256 1453.25 81.9656C1453.25 81.3789 1453.41 80.8589 1453.73 80.4056C1454.06 79.9522 1454.52 79.5989 1455.09 79.3456C1455.68 79.0922 1456.35 78.9656 1457.11 78.9656C1457.92 78.9656 1458.63 79.1056 1459.23 79.3856C1459.84 79.6522 1460.33 80.0389 1460.69 80.5456C1461.05 81.0522 1461.25 81.6589 1461.29 82.3656H1459.97C1459.9 81.6322 1459.62 81.0656 1459.11 80.6656C1458.6 80.2522 1457.94 80.0456 1457.11 80.0456C1456.36 80.0456 1455.76 80.2056 1455.29 80.5256C1454.84 80.8456 1454.61 81.2856 1454.61 81.8456C1454.61 82.3656 1454.78 82.7656 1455.11 83.0456C1455.46 83.3256 1456.02 83.5389 1456.81 83.6856L1458.39 83.9856C1459.43 84.1856 1460.2 84.5122 1460.69 84.9656C1461.18 85.4189 1461.43 86.0189 1461.43 86.7656ZM1469.2 88.3656V89.6056C1468.94 89.7256 1468.68 89.8056 1468.44 89.8456C1468.2 89.8856 1467.95 89.9056 1467.68 89.9056C1467.11 89.9056 1466.59 89.7989 1466.12 89.5856C1465.66 89.3722 1465.28 89.0322 1465 88.5656C1464.74 88.0989 1464.6 87.4856 1464.6 86.7256V80.3456H1462.12V79.1656H1464.6V76.0456H1466V79.1656H1469.3V80.3456H1466V86.4256C1466 87.2522 1466.18 87.8256 1466.54 88.1456C1466.92 88.4656 1467.39 88.6256 1467.96 88.6256C1468.19 88.6256 1468.4 88.6056 1468.58 88.5656C1468.78 88.5256 1468.99 88.4589 1469.2 88.3656ZM1472.82 84.0656V89.7056H1471.42V79.1656H1472.72V81.5656C1473.09 80.7922 1473.64 80.1722 1474.36 79.7056C1475.08 79.2389 1475.87 79.0056 1476.74 79.0056V80.4656C1476.01 80.4389 1475.34 80.5656 1474.74 80.8456C1474.15 81.1256 1473.69 81.5389 1473.34 82.0856C1472.99 82.6322 1472.82 83.2922 1472.82 84.0656ZM1484.93 89.7056V87.7856C1484.63 88.4389 1484.17 88.9589 1483.55 89.3456C1482.94 89.7189 1482.22 89.9056 1481.39 89.9056C1480.3 89.9056 1479.43 89.6256 1478.77 89.0656C1478.12 88.4922 1477.79 87.7322 1477.79 86.7856C1477.79 85.7589 1478.2 84.9856 1479.01 84.4656C1479.83 83.9322 1481.03 83.6656 1482.63 83.6656C1482.95 83.6656 1483.27 83.6722 1483.57 83.6856C1483.88 83.6989 1484.29 83.7322 1484.79 83.7856V82.8856C1484.79 82.0056 1484.57 81.3189 1484.11 80.8256C1483.67 80.3322 1483.05 80.0856 1482.25 80.0856C1481.4 80.0856 1480.72 80.3389 1480.21 80.8456C1479.71 81.3389 1479.45 82.0122 1479.43 82.8656H1478.15C1478.17 82.0789 1478.35 81.3989 1478.69 80.8256C1479.04 80.2389 1479.51 79.7856 1480.11 79.4656C1480.73 79.1322 1481.43 78.9656 1482.23 78.9656C1483.47 78.9656 1484.43 79.3056 1485.11 79.9856C1485.79 80.6656 1486.13 81.6189 1486.13 82.8456V89.7056H1484.93ZM1479.13 86.7456C1479.13 87.3856 1479.36 87.9056 1479.81 88.3056C1480.27 88.6922 1480.86 88.8856 1481.59 88.8856C1482.58 88.8856 1483.36 88.5922 1483.93 88.0056C1484.51 87.4056 1484.79 86.6122 1484.79 85.6256V84.6856C1484.34 84.6456 1483.95 84.6189 1483.61 84.6056C1483.29 84.5922 1482.99 84.5856 1482.69 84.5856C1481.51 84.5856 1480.61 84.7656 1480.01 85.1256C1479.43 85.4722 1479.13 86.0122 1479.13 86.7456ZM1494.46 88.3656V89.6056C1494.19 89.7256 1493.94 89.8056 1493.7 89.8456C1493.46 89.8856 1493.2 89.9056 1492.94 89.9056C1492.36 89.9056 1491.84 89.7989 1491.38 89.5856C1490.91 89.3722 1490.54 89.0322 1490.26 88.5656C1489.99 88.0989 1489.86 87.4856 1489.86 86.7256V80.3456H1487.38V79.1656H1489.86V76.0456H1491.26V79.1656H1494.56V80.3456H1491.26V86.4256C1491.26 87.2522 1491.44 87.8256 1491.8 88.1456C1492.17 88.4656 1492.64 88.6256 1493.22 88.6256C1493.44 88.6256 1493.65 88.6056 1493.84 88.5656C1494.04 88.5256 1494.24 88.4589 1494.46 88.3656ZM1500.46 89.9056C1499.48 89.9056 1498.61 89.6789 1497.86 89.2256C1497.13 88.7589 1496.56 88.1056 1496.14 87.2656C1495.74 86.4256 1495.54 85.4522 1495.54 84.3456C1495.54 83.3189 1495.75 82.4056 1496.16 81.6056C1496.59 80.7922 1497.16 80.1522 1497.88 79.6856C1498.62 79.2056 1499.45 78.9656 1500.38 78.9656C1501.13 78.9656 1501.8 79.1122 1502.4 79.4056C1503.02 79.6856 1503.53 80.0856 1503.94 80.6056C1504.37 81.1256 1504.68 81.7389 1504.88 82.4456C1505.1 83.1389 1505.17 83.9122 1505.1 84.7656H1496.3V83.8056H1503.64C1503.59 82.6189 1503.27 81.6989 1502.68 81.0456C1502.11 80.3789 1501.34 80.0456 1500.36 80.0456C1499.68 80.0456 1499.08 80.2256 1498.56 80.5856C1498.06 80.9322 1497.66 81.4256 1497.36 82.0656C1497.07 82.7056 1496.92 83.4656 1496.92 84.3456C1496.92 85.2522 1497.06 86.0456 1497.34 86.7256C1497.62 87.3922 1498.02 87.9056 1498.54 88.2656C1499.08 88.6256 1499.71 88.8056 1500.44 88.8056C1501.32 88.8056 1502.05 88.5722 1502.62 88.1056C1503.21 87.6256 1503.59 86.9722 1503.76 86.1456H1505.14C1504.9 87.3056 1504.36 88.2256 1503.52 88.9056C1502.7 89.5722 1501.68 89.9056 1500.46 89.9056ZM1511.2 93.7856C1510.32 93.7856 1509.55 93.6322 1508.88 93.3256C1508.21 93.0322 1507.69 92.5989 1507.32 92.0256C1506.96 91.4656 1506.76 90.7989 1506.72 90.0256H1508.06C1508.13 90.8789 1508.43 91.5322 1508.96 91.9856C1509.49 92.4389 1510.23 92.6656 1511.18 92.6656C1512.23 92.6656 1513.03 92.3922 1513.56 91.8456C1514.09 91.3122 1514.36 90.5322 1514.36 89.5056V87.2856C1514.04 88.0189 1513.57 88.5922 1512.96 89.0056C1512.36 89.4189 1511.67 89.6256 1510.88 89.6256C1510 89.6256 1509.23 89.4056 1508.56 88.9656C1507.89 88.5256 1507.37 87.9056 1507 87.1056C1506.63 86.2922 1506.44 85.3522 1506.44 84.2856C1506.44 83.2189 1506.62 82.2856 1506.98 81.4856C1507.35 80.6856 1507.87 80.0656 1508.54 79.6256C1509.21 79.1856 1509.98 78.9656 1510.86 78.9656C1511.66 78.9656 1512.37 79.1789 1512.98 79.6056C1513.61 80.0322 1514.09 80.6322 1514.44 81.4056V79.1656H1515.74V89.4656C1515.74 90.8389 1515.34 91.8989 1514.54 92.6456C1513.75 93.4056 1512.64 93.7856 1511.2 93.7856ZM1507.84 84.2856C1507.84 85.5789 1508.13 86.5922 1508.7 87.3256C1509.29 88.0589 1510.08 88.4256 1511.08 88.4256C1511.75 88.4256 1512.32 88.2589 1512.8 87.9256C1513.29 87.5922 1513.68 87.1256 1513.96 86.5256C1514.24 85.9122 1514.38 85.1989 1514.38 84.3856C1514.38 83.1056 1514.08 82.0856 1513.48 81.3256C1512.89 80.5522 1512.09 80.1656 1511.08 80.1656C1510.08 80.1656 1509.29 80.5322 1508.7 81.2656C1508.13 81.9989 1507.84 83.0056 1507.84 84.2856ZM1526.9 79.1656L1521.5 93.5656H1520L1521.54 89.5656L1517.36 79.1656H1518.86L1522.26 87.8856L1525.48 79.1656H1526.9ZM1540.87 83.4256H1542.15C1542.14 83.9989 1542.06 84.5522 1541.93 85.0856C1541.81 85.6189 1541.65 86.1122 1541.45 86.5656C1541.25 87.0189 1541 87.4256 1540.71 87.7856C1540.16 88.5056 1539.52 89.0389 1538.77 89.3856C1538.02 89.7322 1537.26 89.9056 1536.49 89.9056C1535.56 89.9056 1534.75 89.7389 1534.07 89.4056C1533.39 89.0589 1532.86 88.5722 1532.47 87.9456C1532.1 87.3056 1531.91 86.5589 1531.91 85.7056C1531.91 85.0789 1532.05 84.5122 1532.33 84.0056C1532.61 83.4989 1533 83.0656 1533.49 82.7056C1533.98 82.3322 1534.53 82.0456 1535.13 81.8456L1535.87 82.7056C1535.39 82.8122 1534.95 82.9989 1534.55 83.2656C1534.15 83.5322 1533.83 83.8656 1533.59 84.2656C1533.36 84.6656 1533.25 85.1256 1533.25 85.6456C1533.25 86.1389 1533.36 86.6256 1533.59 87.1056C1533.83 87.5856 1534.2 87.9856 1534.69 88.3056C1535.18 88.6122 1535.81 88.7656 1536.57 88.7656C1537.25 88.7656 1537.9 88.6056 1538.51 88.2856C1539.12 87.9656 1539.6 87.5256 1539.95 86.9656C1540.22 86.5522 1540.42 86.0456 1540.57 85.4456C1540.73 84.8456 1540.83 84.1722 1540.87 83.4256ZM1536.53 82.1256L1543.03 89.7056H1541.29L1535.09 82.4456C1534.76 82.0322 1534.48 81.6656 1534.25 81.3456C1534.04 81.0122 1533.88 80.6789 1533.77 80.3456C1533.66 79.9989 1533.61 79.6256 1533.61 79.2256C1533.61 78.5989 1533.76 78.0456 1534.07 77.5656C1534.39 77.0722 1534.82 76.6856 1535.37 76.4056C1535.93 76.1256 1536.54 75.9856 1537.21 75.9856C1537.9 75.9856 1538.52 76.1256 1539.05 76.4056C1539.6 76.6722 1540.03 77.0522 1540.35 77.5456C1540.67 78.0389 1540.84 78.6056 1540.85 79.2456H1539.55C1539.51 78.7922 1539.38 78.4056 1539.15 78.0856C1538.92 77.7656 1538.64 77.5256 1538.29 77.3656C1537.94 77.1922 1537.58 77.1056 1537.21 77.1056C1536.81 77.1056 1536.44 77.1989 1536.09 77.3856C1535.76 77.5589 1535.49 77.8056 1535.29 78.1256C1535.1 78.4456 1535.01 78.8122 1535.01 79.2256C1535.01 79.5722 1535.07 79.8922 1535.19 80.1856C1535.31 80.4789 1535.48 80.7789 1535.71 81.0856C1535.94 81.3789 1536.21 81.7256 1536.53 82.1256ZM1553.26 89.9056C1552.27 89.9056 1551.4 89.6789 1550.66 89.2256C1549.92 88.7589 1549.35 88.1056 1548.94 87.2656C1548.54 86.4256 1548.34 85.4522 1548.34 84.3456C1548.34 83.3189 1548.54 82.4056 1548.96 81.6056C1549.38 80.7922 1549.96 80.1522 1550.68 79.6856C1551.41 79.2056 1552.24 78.9656 1553.18 78.9656C1553.92 78.9656 1554.6 79.1122 1555.2 79.4056C1555.81 79.6856 1556.32 80.0856 1556.74 80.6056C1557.16 81.1256 1557.48 81.7389 1557.68 82.4456C1557.89 83.1389 1557.96 83.9122 1557.9 84.7656H1549.1V83.8056H1556.44C1556.38 82.6189 1556.06 81.6989 1555.48 81.0456C1554.9 80.3789 1554.13 80.0456 1553.16 80.0456C1552.48 80.0456 1551.88 80.2256 1551.36 80.5856C1550.85 80.9322 1550.45 81.4256 1550.16 82.0656C1549.86 82.7056 1549.72 83.4656 1549.72 84.3456C1549.72 85.2522 1549.86 86.0456 1550.14 86.7256C1550.42 87.3922 1550.82 87.9056 1551.34 88.2656C1551.87 88.6256 1552.5 88.8056 1553.24 88.8056C1554.12 88.8056 1554.84 88.5722 1555.42 88.1056C1556 87.6256 1556.38 86.9722 1556.56 86.1456H1557.94C1557.7 87.3056 1557.16 88.2256 1556.32 88.9056C1555.49 89.5722 1554.47 89.9056 1553.26 89.9056ZM1561.61 83.5656V89.7056H1560.21V79.1656H1561.51V81.1456C1561.86 80.5056 1562.33 79.9856 1562.93 79.5856C1563.54 79.1722 1564.23 78.9656 1564.99 78.9656C1566.08 78.9656 1566.96 79.3056 1567.61 79.9856C1568.28 80.6656 1568.61 81.6256 1568.61 82.8656V89.7056H1567.21V83.3456C1567.21 82.3322 1566.98 81.5522 1566.53 81.0056C1566.09 80.4589 1565.44 80.1856 1564.57 80.1856C1564.02 80.1856 1563.52 80.3322 1563.07 80.6256C1562.62 80.9056 1562.26 81.2989 1561.99 81.8056C1561.74 82.3122 1561.61 82.8989 1561.61 83.5656ZM1575.54 93.7856C1574.66 93.7856 1573.88 93.6322 1573.22 93.3256C1572.55 93.0322 1572.03 92.5989 1571.66 92.0256C1571.3 91.4656 1571.1 90.7989 1571.06 90.0256H1572.4C1572.46 90.8789 1572.76 91.5322 1573.3 91.9856C1573.83 92.4389 1574.57 92.6656 1575.52 92.6656C1576.57 92.6656 1577.36 92.3922 1577.9 91.8456C1578.43 91.3122 1578.7 90.5322 1578.7 89.5056V87.2856C1578.38 88.0189 1577.91 88.5922 1577.3 89.0056C1576.7 89.4189 1576 89.6256 1575.22 89.6256C1574.34 89.6256 1573.56 89.4056 1572.9 88.9656C1572.23 88.5256 1571.71 87.9056 1571.34 87.1056C1570.96 86.2922 1570.78 85.3522 1570.78 84.2856C1570.78 83.2189 1570.96 82.2856 1571.32 81.4856C1571.69 80.6856 1572.21 80.0656 1572.88 79.6256C1573.54 79.1856 1574.32 78.9656 1575.2 78.9656C1576 78.9656 1576.7 79.1789 1577.32 79.6056C1577.94 80.0322 1578.43 80.6322 1578.78 81.4056V79.1656H1580.08V89.4656C1580.08 90.8389 1579.68 91.8989 1578.88 92.6456C1578.09 93.4056 1576.98 93.7856 1575.54 93.7856ZM1572.18 84.2856C1572.18 85.5789 1572.46 86.5922 1573.04 87.3256C1573.62 88.0589 1574.42 88.4256 1575.42 88.4256C1576.08 88.4256 1576.66 88.2589 1577.14 87.9256C1577.63 87.5922 1578.02 87.1256 1578.3 86.5256C1578.58 85.9122 1578.72 85.1989 1578.72 84.3856C1578.72 83.1056 1578.42 82.0856 1577.82 81.3256C1577.23 80.5522 1576.43 80.1656 1575.42 80.1656C1574.42 80.1656 1573.62 80.5322 1573.04 81.2656C1572.46 81.9989 1572.18 83.0056 1572.18 84.2856ZM1584.52 89.7056H1583.12V79.1656H1584.52V89.7056ZM1584.94 76.7256C1584.94 77.0322 1584.83 77.2856 1584.62 77.4856C1584.42 77.6856 1584.15 77.7856 1583.8 77.7856C1583.48 77.7856 1583.21 77.6856 1583 77.4856C1582.79 77.2856 1582.68 77.0322 1582.68 76.7256C1582.68 76.4189 1582.79 76.1722 1583 75.9856C1583.21 75.7856 1583.48 75.6856 1583.8 75.6856C1584.15 75.6856 1584.42 75.7856 1584.62 75.9856C1584.83 76.1722 1584.94 76.4189 1584.94 76.7256ZM1588.95 83.5656V89.7056H1587.55V79.1656H1588.85V81.1456C1589.2 80.5056 1589.67 79.9856 1590.27 79.5856C1590.89 79.1722 1591.57 78.9656 1592.33 78.9656C1593.43 78.9656 1594.3 79.3056 1594.95 79.9856C1595.62 80.6656 1595.95 81.6256 1595.95 82.8656V89.7056H1594.55V83.3456C1594.55 82.3322 1594.33 81.5522 1593.87 81.0056C1593.43 80.4589 1592.78 80.1856 1591.91 80.1856C1591.37 80.1856 1590.87 80.3322 1590.41 80.6256C1589.96 80.9056 1589.6 81.2989 1589.33 81.8056C1589.08 82.3122 1588.95 82.8989 1588.95 83.5656ZM1603.04 89.9056C1602.05 89.9056 1601.19 89.6789 1600.44 89.2256C1599.71 88.7589 1599.13 88.1056 1598.72 87.2656C1598.32 86.4256 1598.12 85.4522 1598.12 84.3456C1598.12 83.3189 1598.33 82.4056 1598.74 81.6056C1599.17 80.7922 1599.74 80.1522 1600.46 79.6856C1601.19 79.2056 1602.03 78.9656 1602.96 78.9656C1603.71 78.9656 1604.38 79.1122 1604.98 79.4056C1605.59 79.6856 1606.11 80.0856 1606.52 80.6056C1606.95 81.1256 1607.26 81.7389 1607.46 82.4456C1607.67 83.1389 1607.75 83.9122 1607.68 84.7656H1598.88V83.8056H1606.22C1606.17 82.6189 1605.85 81.6989 1605.26 81.0456C1604.69 80.3789 1603.91 80.0456 1602.94 80.0456C1602.26 80.0456 1601.66 80.2256 1601.14 80.5856C1600.63 80.9322 1600.23 81.4256 1599.94 82.0656C1599.65 82.7056 1599.5 83.4656 1599.5 84.3456C1599.5 85.2522 1599.64 86.0456 1599.92 86.7256C1600.2 87.3922 1600.6 87.9056 1601.12 88.2656C1601.65 88.6256 1602.29 88.8056 1603.02 88.8056C1603.9 88.8056 1604.63 88.5722 1605.2 88.1056C1605.79 87.6256 1606.17 86.9722 1606.34 86.1456H1607.72C1607.48 87.3056 1606.94 88.2256 1606.1 88.9056C1605.27 89.5722 1604.25 89.9056 1603.04 89.9056ZM1613.94 89.9056C1612.95 89.9056 1612.09 89.6789 1611.34 89.2256C1610.61 88.7589 1610.03 88.1056 1609.62 87.2656C1609.22 86.4256 1609.02 85.4522 1609.02 84.3456C1609.02 83.3189 1609.23 82.4056 1609.64 81.6056C1610.07 80.7922 1610.64 80.1522 1611.36 79.6856C1612.09 79.2056 1612.93 78.9656 1613.86 78.9656C1614.61 78.9656 1615.28 79.1122 1615.88 79.4056C1616.49 79.6856 1617.01 80.0856 1617.42 80.6056C1617.85 81.1256 1618.16 81.7389 1618.36 82.4456C1618.57 83.1389 1618.65 83.9122 1618.58 84.7656H1609.78V83.8056H1617.12C1617.07 82.6189 1616.75 81.6989 1616.16 81.0456C1615.59 80.3789 1614.81 80.0456 1613.84 80.0456C1613.16 80.0456 1612.56 80.2256 1612.04 80.5856C1611.53 80.9322 1611.13 81.4256 1610.84 82.0656C1610.55 82.7056 1610.4 83.4656 1610.4 84.3456C1610.4 85.2522 1610.54 86.0456 1610.82 86.7256C1611.1 87.3922 1611.5 87.9056 1612.02 88.2656C1612.55 88.6256 1613.19 88.8056 1613.92 88.8056C1614.8 88.8056 1615.53 88.5722 1616.1 88.1056C1616.69 87.6256 1617.07 86.9722 1617.24 86.1456H1618.62C1618.38 87.3056 1617.84 88.2256 1617 88.9056C1616.17 89.5722 1615.15 89.9056 1613.94 89.9056ZM1622.29 84.0656V89.7056H1620.89V79.1656H1622.19V81.5656C1622.57 80.7922 1623.11 80.1722 1623.83 79.7056C1624.55 79.2389 1625.35 79.0056 1626.21 79.0056V80.4656C1625.48 80.4389 1624.81 80.5656 1624.21 80.8456C1623.63 81.1256 1623.16 81.5389 1622.81 82.0856C1622.47 82.6322 1622.29 83.2922 1622.29 84.0656ZM1629.32 89.7056H1627.92V79.1656H1629.32V89.7056ZM1629.74 76.7256C1629.74 77.0322 1629.64 77.2856 1629.42 77.4856C1629.22 77.6856 1628.95 77.7856 1628.6 77.7856C1628.28 77.7856 1628.02 77.6856 1627.8 77.4856C1627.59 77.2856 1627.48 77.0322 1627.48 76.7256C1627.48 76.4189 1627.59 76.1722 1627.8 75.9856C1628.02 75.7856 1628.28 75.6856 1628.6 75.6856C1628.95 75.6856 1629.22 75.7856 1629.42 75.9856C1629.64 76.1722 1629.74 76.4189 1629.74 76.7256ZM1633.76 83.5656V89.7056H1632.36V79.1656H1633.66V81.1456C1634.01 80.5056 1634.48 79.9856 1635.08 79.5856C1635.69 79.1722 1636.38 78.9656 1637.14 78.9656C1638.23 78.9656 1639.11 79.3056 1639.76 79.9856C1640.43 80.6656 1640.76 81.6256 1640.76 82.8656V89.7056H1639.36V83.3456C1639.36 82.3322 1639.13 81.5522 1638.68 81.0056C1638.24 80.4589 1637.59 80.1856 1636.72 80.1856C1636.17 80.1856 1635.67 80.3322 1635.22 80.6256C1634.77 80.9056 1634.41 81.2989 1634.14 81.8056C1633.89 82.3122 1633.76 82.8989 1633.76 83.5656ZM1647.69 93.7856C1646.81 93.7856 1646.03 93.6322 1645.37 93.3256C1644.7 93.0322 1644.18 92.5989 1643.81 92.0256C1643.45 91.4656 1643.25 90.7989 1643.21 90.0256H1644.55C1644.61 90.8789 1644.91 91.5322 1645.45 91.9856C1645.98 92.4389 1646.72 92.6656 1647.67 92.6656C1648.72 92.6656 1649.51 92.3922 1650.05 91.8456C1650.58 91.3122 1650.85 90.5322 1650.85 89.5056V87.2856C1650.53 88.0189 1650.06 88.5922 1649.45 89.0056C1648.85 89.4189 1648.15 89.6256 1647.37 89.6256C1646.49 89.6256 1645.71 89.4056 1645.05 88.9656C1644.38 88.5256 1643.86 87.9056 1643.49 87.1056C1643.11 86.2922 1642.93 85.3522 1642.93 84.2856C1642.93 83.2189 1643.11 82.2856 1643.47 81.4856C1643.84 80.6856 1644.36 80.0656 1645.03 79.6256C1645.69 79.1856 1646.47 78.9656 1647.35 78.9656C1648.15 78.9656 1648.85 79.1789 1649.47 79.6056C1650.09 80.0322 1650.58 80.6322 1650.93 81.4056V79.1656H1652.23V89.4656C1652.23 90.8389 1651.83 91.8989 1651.03 92.6456C1650.24 93.4056 1649.13 93.7856 1647.69 93.7856ZM1644.33 84.2856C1644.33 85.5789 1644.61 86.5922 1645.19 87.3256C1645.77 88.0589 1646.57 88.4256 1647.57 88.4256C1648.23 88.4256 1648.81 88.2589 1649.29 87.9256C1649.78 87.5922 1650.17 87.1256 1650.45 86.5256C1650.73 85.9122 1650.87 85.1989 1650.87 84.3856C1650.87 83.1056 1650.57 82.0856 1649.97 81.3256C1649.38 80.5522 1648.58 80.1656 1647.57 80.1656C1646.57 80.1656 1645.77 80.5322 1645.19 81.2656C1644.61 81.9989 1644.33 83.0056 1644.33 84.2856ZM1664.87 88.3656V89.6056C1664.6 89.7256 1664.35 89.8056 1664.11 89.8456C1663.87 89.8856 1663.61 89.9056 1663.35 89.9056C1662.77 89.9056 1662.25 89.7989 1661.79 89.5856C1661.32 89.3722 1660.95 89.0322 1660.67 88.5656C1660.4 88.0989 1660.27 87.4856 1660.27 86.7256V80.3456H1657.79V79.1656H1660.27V76.0456H1661.67V79.1656H1664.97V80.3456H1661.67V86.4256C1661.67 87.2522 1661.85 87.8256 1662.21 88.1456C1662.58 88.4656 1663.05 88.6256 1663.63 88.6256C1663.85 88.6256 1664.06 88.6056 1664.25 88.5656C1664.45 88.5256 1664.65 88.4589 1664.87 88.3656ZM1670.95 89.9056C1670.23 89.9056 1669.57 89.7722 1668.95 89.5056C1668.34 89.2389 1667.81 88.8589 1667.35 88.3656C1666.91 87.8722 1666.57 87.2922 1666.31 86.6256C1666.07 85.9589 1665.95 85.2256 1665.95 84.4256C1665.95 83.6389 1666.07 82.9122 1666.31 82.2456C1666.57 81.5789 1666.91 81.0056 1667.35 80.5256C1667.81 80.0322 1668.34 79.6522 1668.95 79.3856C1669.57 79.1189 1670.23 78.9856 1670.95 78.9856C1671.69 78.9856 1672.36 79.1189 1672.97 79.3856C1673.59 79.6522 1674.11 80.0322 1674.55 80.5256C1675.01 81.0056 1675.35 81.5789 1675.59 82.2456C1675.85 82.9122 1675.97 83.6389 1675.97 84.4256C1675.97 85.2256 1675.85 85.9589 1675.59 86.6256C1675.35 87.2922 1675.01 87.8722 1674.55 88.3656C1674.11 88.8589 1673.59 89.2389 1672.97 89.5056C1672.36 89.7722 1671.69 89.9056 1670.95 89.9056ZM1670.95 88.7056C1671.65 88.7056 1672.26 88.5322 1672.79 88.1856C1673.34 87.8256 1673.77 87.3256 1674.07 86.6856C1674.39 86.0456 1674.55 85.2922 1674.55 84.4256C1674.55 83.5589 1674.39 82.8122 1674.07 82.1856C1673.77 81.5589 1673.34 81.0722 1672.79 80.7256C1672.26 80.3789 1671.65 80.2056 1670.95 80.2056C1670.27 80.2056 1669.66 80.3789 1669.11 80.7256C1668.58 81.0722 1668.15 81.5589 1667.83 82.1856C1667.53 82.8122 1667.37 83.5589 1667.37 84.4256C1667.37 85.2922 1667.53 86.0456 1667.83 86.6856C1668.15 87.3256 1668.58 87.8256 1669.11 88.1856C1669.66 88.5322 1670.27 88.7056 1670.95 88.7056ZM1452.77 111.426C1452.77 110.346 1452.96 109.399 1453.33 108.586C1453.72 107.759 1454.26 107.119 1454.95 106.666C1455.64 106.199 1456.46 105.966 1457.41 105.966C1458.2 105.966 1458.91 106.179 1459.55 106.606C1460.19 107.019 1460.68 107.606 1461.03 108.366V102.346H1462.43V116.706H1461.13V114.486C1460.76 115.246 1460.24 115.839 1459.59 116.266C1458.95 116.692 1458.22 116.906 1457.41 116.906C1456.46 116.906 1455.64 116.679 1454.95 116.226C1454.26 115.759 1453.72 115.112 1453.33 114.286C1452.96 113.459 1452.77 112.506 1452.77 111.426ZM1454.19 111.426C1454.19 112.772 1454.5 113.819 1455.13 114.566C1455.76 115.312 1456.58 115.686 1457.61 115.686C1458.3 115.686 1458.9 115.512 1459.41 115.166C1459.93 114.819 1460.33 114.326 1460.61 113.686C1460.9 113.032 1461.05 112.266 1461.05 111.386C1461.05 110.506 1460.9 109.752 1460.59 109.126C1460.3 108.499 1459.89 108.019 1459.37 107.686C1458.86 107.352 1458.28 107.186 1457.61 107.186C1456.58 107.186 1455.76 107.559 1455.13 108.306C1454.5 109.052 1454.19 110.092 1454.19 111.426ZM1466.86 111.066V116.706H1465.46V106.166H1466.76V108.566C1467.14 107.792 1467.68 107.172 1468.4 106.706C1469.12 106.239 1469.92 106.006 1470.78 106.006V107.466C1470.05 107.439 1469.38 107.566 1468.78 107.846C1468.2 108.126 1467.73 108.539 1467.38 109.086C1467.04 109.632 1466.86 110.292 1466.86 111.066ZM1473.9 116.706H1472.5V106.166H1473.9V116.706ZM1474.32 103.726C1474.32 104.032 1474.21 104.286 1474 104.486C1473.8 104.686 1473.52 104.786 1473.18 104.786C1472.86 104.786 1472.59 104.686 1472.38 104.486C1472.16 104.286 1472.06 104.032 1472.06 103.726C1472.06 103.419 1472.16 103.172 1472.38 102.986C1472.59 102.786 1472.86 102.686 1473.18 102.686C1473.52 102.686 1473.8 102.786 1474 102.986C1474.21 103.172 1474.32 103.419 1474.32 103.726ZM1485.05 106.166L1480.99 116.706H1479.53L1475.51 106.166H1477.01L1480.31 115.066L1483.61 106.166H1485.05ZM1490.5 116.906C1489.52 116.906 1488.65 116.679 1487.9 116.226C1487.17 115.759 1486.6 115.106 1486.18 114.266C1485.78 113.426 1485.58 112.452 1485.58 111.346C1485.58 110.319 1485.79 109.406 1486.2 108.606C1486.63 107.792 1487.2 107.152 1487.92 106.686C1488.66 106.206 1489.49 105.966 1490.42 105.966C1491.17 105.966 1491.84 106.112 1492.44 106.406C1493.06 106.686 1493.57 107.086 1493.98 107.606C1494.41 108.126 1494.72 108.739 1494.92 109.446C1495.14 110.139 1495.21 110.912 1495.14 111.766H1486.34V110.806H1493.68C1493.63 109.619 1493.31 108.699 1492.72 108.046C1492.15 107.379 1491.38 107.046 1490.4 107.046C1489.72 107.046 1489.12 107.226 1488.6 107.586C1488.1 107.932 1487.7 108.426 1487.4 109.066C1487.11 109.706 1486.96 110.466 1486.96 111.346C1486.96 112.252 1487.1 113.046 1487.38 113.726C1487.66 114.392 1488.06 114.906 1488.58 115.266C1489.12 115.626 1489.75 115.806 1490.48 115.806C1491.36 115.806 1492.09 115.572 1492.66 115.106C1493.25 114.626 1493.63 113.972 1493.8 113.146H1495.18C1494.94 114.306 1494.4 115.226 1493.56 115.906C1492.74 116.572 1491.72 116.906 1490.5 116.906ZM1505.62 120.786C1504.74 120.786 1503.96 120.632 1503.3 120.326C1502.63 120.032 1502.11 119.599 1501.74 119.026C1501.38 118.466 1501.18 117.799 1501.14 117.026H1502.48C1502.54 117.879 1502.84 118.532 1503.38 118.986C1503.91 119.439 1504.65 119.666 1505.6 119.666C1506.65 119.666 1507.44 119.392 1507.98 118.846C1508.51 118.312 1508.78 117.532 1508.78 116.506V114.286C1508.46 115.019 1507.99 115.592 1507.38 116.006C1506.78 116.419 1506.08 116.626 1505.3 116.626C1504.42 116.626 1503.64 116.406 1502.98 115.966C1502.31 115.526 1501.79 114.906 1501.42 114.106C1501.04 113.292 1500.86 112.352 1500.86 111.286C1500.86 110.219 1501.04 109.286 1501.4 108.486C1501.77 107.686 1502.29 107.066 1502.96 106.626C1503.62 106.186 1504.4 105.966 1505.28 105.966C1506.08 105.966 1506.78 106.179 1507.4 106.606C1508.02 107.032 1508.51 107.632 1508.86 108.406V106.166H1510.16V116.466C1510.16 117.839 1509.76 118.899 1508.96 119.646C1508.17 120.406 1507.06 120.786 1505.62 120.786ZM1502.26 111.286C1502.26 112.579 1502.54 113.592 1503.12 114.326C1503.7 115.059 1504.5 115.426 1505.5 115.426C1506.16 115.426 1506.74 115.259 1507.22 114.926C1507.71 114.592 1508.1 114.126 1508.38 113.526C1508.66 112.912 1508.8 112.199 1508.8 111.386C1508.8 110.106 1508.5 109.086 1507.9 108.326C1507.31 107.552 1506.51 107.166 1505.5 107.166C1504.5 107.166 1503.7 107.532 1503.12 108.266C1502.54 108.999 1502.26 110.006 1502.26 111.286ZM1514.6 111.066V116.706H1513.2V106.166H1514.5V108.566C1514.87 107.792 1515.42 107.172 1516.14 106.706C1516.86 106.239 1517.65 106.006 1518.52 106.006V107.466C1517.78 107.439 1517.12 107.566 1516.52 107.846C1515.93 108.126 1515.46 108.539 1515.12 109.086C1514.77 109.632 1514.6 110.292 1514.6 111.066ZM1524.43 116.906C1523.71 116.906 1523.04 116.772 1522.43 116.506C1521.82 116.239 1521.28 115.859 1520.83 115.366C1520.39 114.872 1520.04 114.292 1519.79 113.626C1519.55 112.959 1519.43 112.226 1519.43 111.426C1519.43 110.639 1519.55 109.912 1519.79 109.246C1520.04 108.579 1520.39 108.006 1520.83 107.526C1521.28 107.032 1521.82 106.652 1522.43 106.386C1523.04 106.119 1523.71 105.986 1524.43 105.986C1525.16 105.986 1525.84 106.119 1526.45 106.386C1527.06 106.652 1527.59 107.032 1528.03 107.526C1528.48 108.006 1528.83 108.579 1529.07 109.246C1529.32 109.912 1529.45 110.639 1529.45 111.426C1529.45 112.226 1529.32 112.959 1529.07 113.626C1528.83 114.292 1528.48 114.872 1528.03 115.366C1527.59 115.859 1527.06 116.239 1526.45 116.506C1525.84 116.772 1525.16 116.906 1524.43 116.906ZM1524.43 115.706C1525.12 115.706 1525.74 115.532 1526.27 115.186C1526.82 114.826 1527.24 114.326 1527.55 113.686C1527.87 113.046 1528.03 112.292 1528.03 111.426C1528.03 110.559 1527.87 109.812 1527.55 109.186C1527.24 108.559 1526.82 108.072 1526.27 107.726C1525.74 107.379 1525.12 107.206 1524.43 107.206C1523.75 107.206 1523.14 107.379 1522.59 107.726C1522.06 108.072 1521.63 108.559 1521.31 109.186C1521 109.812 1520.85 110.559 1520.85 111.426C1520.85 112.292 1521 113.046 1521.31 113.686C1521.63 114.326 1522.06 114.826 1522.59 115.186C1523.14 115.532 1523.75 115.706 1524.43 115.706ZM1540.28 116.706L1537.52 108.026L1534.78 116.706H1533.36L1530.28 106.166H1531.66L1534.1 114.726L1536.84 106.166H1538.22L1540.94 114.746L1543.38 106.166H1544.78L1541.68 116.706H1540.28ZM1552.41 115.366V116.606C1552.14 116.726 1551.89 116.806 1551.65 116.846C1551.41 116.886 1551.15 116.906 1550.89 116.906C1550.31 116.906 1549.79 116.799 1549.33 116.586C1548.86 116.372 1548.49 116.032 1548.21 115.566C1547.94 115.099 1547.81 114.486 1547.81 113.726V107.346H1545.33V106.166H1547.81V103.046H1549.21V106.166H1552.51V107.346H1549.21V113.426C1549.21 114.252 1549.39 114.826 1549.75 115.146C1550.12 115.466 1550.59 115.626 1551.17 115.626C1551.39 115.626 1551.6 115.606 1551.79 115.566C1551.99 115.526 1552.19 115.459 1552.41 115.366ZM1556.02 110.566V116.706H1554.62V102.346H1556.02V108.106C1556.34 107.479 1556.8 106.966 1557.38 106.566C1557.97 106.166 1558.64 105.966 1559.4 105.966C1560.5 105.966 1561.37 106.306 1562.02 106.986C1562.69 107.666 1563.02 108.626 1563.02 109.866V116.706H1561.62V110.346C1561.62 109.332 1561.4 108.552 1560.94 108.006C1560.5 107.459 1559.85 107.186 1558.98 107.186C1558.44 107.186 1557.94 107.332 1557.48 107.626C1557.03 107.906 1556.67 108.299 1556.4 108.806C1556.15 109.312 1556.02 109.899 1556.02 110.566ZM1568.29 115.546C1568.29 115.906 1568.17 116.206 1567.93 116.446C1567.7 116.686 1567.4 116.806 1567.03 116.806C1566.67 116.806 1566.37 116.686 1566.13 116.446C1565.89 116.206 1565.77 115.906 1565.77 115.546C1565.77 115.172 1565.89 114.866 1566.13 114.626C1566.37 114.386 1566.67 114.266 1567.03 114.266C1567.4 114.266 1567.7 114.386 1567.93 114.626C1568.17 114.866 1568.29 115.172 1568.29 115.546Z" fill="white"/>
</svg>
