<svg width="168" height="73" viewBox="0 0 168 73" fill="none" xmlns="http://www.w3.org/2000/svg">
<g clip-path="url(#clip0_47_2)">
<path d="M144.181 72.2802H138.101V43.5602H144.181V54.8802H156.621V43.5602H162.701V72.2802H156.621V60.1202H144.181V72.2802Z" fill="white"/>
<path d="M114.043 61.2802H126.763L128.363 66.1202H112.283L114.043 61.2802ZM128.083 72.2802L120.403 50.2002L112.563 72.2802H106.443L117.243 43.5602H123.883L134.603 72.2802H128.083Z" fill="white"/>
<path d="M84.455 72.2802H78.375V43.5602H84.455V54.8802H96.895V43.5602H102.975V72.2802H96.895V60.1202H84.455V72.2802Z" fill="white"/>
<path d="M73.8916 63.3602C73.8916 65.1735 73.4249 66.7869 72.4916 68.2002C71.5582 69.5869 70.2249 70.6802 68.4916 71.4802C66.7849 72.2802 64.7182 72.6802 62.2916 72.6802C59.8916 72.6802 57.7982 72.2802 56.0116 71.4802C54.2516 70.6535 52.8649 69.4935 51.8516 68.0002C50.8382 66.5069 50.2516 64.7469 50.0916 62.7202H56.2516C56.3316 64.3202 56.8649 65.5869 57.8516 66.5202C58.8649 67.4535 60.3049 67.9202 62.1716 67.9202C63.2116 67.9202 64.1182 67.7735 64.8916 67.4802C65.6916 67.1869 66.3181 66.7602 66.7715 66.2002C67.2248 65.6402 67.4515 64.9869 67.4515 64.2402C67.4515 63.3335 67.1181 62.6135 66.4515 62.0802C65.7848 61.5202 64.8382 61.1202 63.6116 60.8802L58.8916 59.9602C57.7982 59.7735 56.7849 59.4669 55.8516 59.0402C54.9182 58.6135 54.1049 58.0802 53.4116 57.4402C52.7182 56.8002 52.1716 56.0269 51.7716 55.1202C51.3716 54.2135 51.1716 53.1735 51.1716 52.0002C51.1716 50.2935 51.6249 48.7735 52.5316 47.4402C53.4649 46.1069 54.7316 45.0669 56.3316 44.3202C57.9582 43.5735 59.8116 43.2002 61.8916 43.2002C64.0516 43.2002 65.9716 43.6002 67.6516 44.4002C69.3316 45.2002 70.6915 46.3335 71.7315 47.8002C72.7715 49.2402 73.3448 50.9602 73.4515 52.9602H67.2916C67.2382 51.9469 66.9716 51.0669 66.4916 50.3202C66.0382 49.5469 65.4249 48.9602 64.6516 48.5602C63.8782 48.1335 62.9849 47.9202 61.9716 47.9202C60.9849 47.9202 60.1449 48.0935 59.4516 48.4402C58.7849 48.7602 58.2649 49.2002 57.8916 49.7602C57.5182 50.2935 57.3316 50.9069 57.3316 51.6002C57.3316 52.2402 57.5049 52.7735 57.8516 53.2002C58.2249 53.6269 58.7048 53.9735 59.2915 54.2402C59.8781 54.4802 60.5182 54.6669 61.2116 54.8002L66.1315 55.8002C68.6648 56.3069 70.5849 57.1735 71.8916 58.4002C73.2249 59.6002 73.8916 61.2535 73.8916 63.3602Z" fill="white"/>
<path d="M166.65 1.52039L156.25 30.2404H149.61L139.29 1.52039H145.85L153.13 23.1604L160.57 1.52039H166.65Z" fill="white"/>
<path d="M122.48 19.2404H135.2L136.8 24.0804H120.72L122.48 19.2404ZM136.52 30.2404L128.84 8.16039L121 30.2404H114.88L125.68 1.52039H132.32L143.04 30.2404H136.52Z" fill="white"/>
<path d="M96.2123 30.2404H90.1323V1.52039H101.373C104.999 1.52039 107.813 2.33372 109.813 3.96039C111.813 5.56039 112.813 7.85371 112.813 10.8404C112.813 12.7604 112.239 14.4671 111.093 15.9604C109.973 17.4271 108.386 18.4937 106.333 19.1604L113.733 30.2404H106.493L100.012 20.0804H96.2123V30.2404ZM96.2123 6.56039V15.0804H101.093C102.933 15.0804 104.333 14.7337 105.293 14.0404C106.253 13.3204 106.733 12.2537 106.733 10.8404C106.733 9.40039 106.253 8.33372 105.293 7.64039C104.333 6.92039 102.933 6.56039 101.093 6.56039H96.2123Z" fill="white"/>
<path d="M84.3172 1.52039V19.3204C84.3172 21.5871 83.8506 23.5871 82.9172 25.3204C82.0106 27.0537 80.6772 28.4137 78.9172 29.4004C77.1572 30.3604 75.0239 30.8404 72.5172 30.8404C69.9839 30.8404 67.8372 30.3604 66.0772 29.4004C64.3172 28.4137 62.9706 27.0537 62.0372 25.3204C61.1306 23.5871 60.6772 21.5871 60.6772 19.3204V1.52039H66.7572V19.4404C66.7572 20.6137 66.9572 21.6537 67.3572 22.5604C67.7572 23.4671 68.3706 24.1737 69.1972 24.6804C70.0506 25.1604 71.1572 25.4004 72.5172 25.4004C73.8506 25.4004 74.9306 25.1604 75.7572 24.6804C76.6106 24.1737 77.2372 23.4671 77.6372 22.5604C78.0372 21.6537 78.2372 20.6137 78.2372 19.4404V1.52039H84.3172Z" fill="white"/>
<path d="M37.8705 19.2404H50.5905L52.1905 24.0804H36.1105L37.8705 19.2404ZM51.9105 30.2404L44.2305 8.16039L36.3905 30.2404H30.2705L41.0705 1.52039H47.7105L58.4305 30.2404H51.9105Z" fill="white"/>
<path d="M15.518 30.8404C13.438 30.8404 11.4913 30.4804 9.67802 29.7604C7.89136 29.0137 6.31802 27.9737 4.95802 26.6404C3.62469 25.3071 2.58469 23.7204 1.83802 21.8804C1.09135 20.0137 0.718018 17.9737 0.718018 15.7604C0.718018 13.6271 1.07802 11.6671 1.79802 9.88041C2.51802 8.09374 3.53135 6.52041 4.83802 5.16041C6.14469 3.80041 7.67802 2.76041 9.43802 2.04041C11.2246 1.29374 13.1713 0.92041 15.278 0.92041C17.7046 0.92041 19.878 1.37374 21.798 2.28041C23.7446 3.16041 25.3713 4.38708 26.678 5.96041C28.0113 7.53374 28.998 9.37374 29.638 11.4804H22.478C22.1846 10.4937 21.7046 9.62708 21.038 8.88041C20.3713 8.10708 19.5446 7.49374 18.558 7.04041C17.5713 6.58708 16.4246 6.36041 15.118 6.36041C13.5713 6.36041 12.1713 6.73374 10.918 7.48041C9.69135 8.20041 8.71802 9.28041 7.99802 10.7204C7.30469 12.1337 6.95802 13.8671 6.95802 15.9204C6.95802 17.7604 7.29135 19.4137 7.95802 20.8804C8.62469 22.3471 9.61135 23.5204 10.918 24.4004C12.2513 25.2537 13.878 25.6804 15.798 25.6804C17.2113 25.6804 18.438 25.4271 19.478 24.9204C20.5446 24.3871 21.4113 23.6671 22.078 22.7604C22.7713 21.8271 23.2513 20.7737 23.518 19.6004H15.198V14.7604H29.998C30.1046 17.1071 29.838 19.2671 29.198 21.2404C28.558 23.1871 27.598 24.8804 26.318 26.3204C25.0646 27.7604 23.518 28.8804 21.678 29.6804C19.8646 30.4537 17.8113 30.8404 15.518 30.8404Z" fill="white"/>
<path d="M15.078 43.5602L15.0835 57.9069L25.232 47.7661L15.0912 57.9147L29.438 57.9202L15.0912 57.9257L25.232 68.0742L15.0835 57.9334L15.078 72.2802L15.0725 57.9334L4.92396 68.0742L15.0647 57.9257L0.718018 57.9202L15.0647 57.9147L4.92396 47.7661L15.0725 57.9069L15.078 43.5602Z" fill="white" stroke="white" stroke-width="4"/>
</g>
<defs>
<clipPath id="clip0_47_2">
<rect width="167" height="73" fill="white" transform="translate(0.0776367)"/>
</clipPath>
</defs>
</svg>
