<svg width="167" height="73" viewBox="0 0 167 73" fill="none" xmlns="http://www.w3.org/2000/svg">
<path d="M146.45 72.2802H140.37V43.5602H146.45V54.8802H158.89V43.5602H164.97V72.2802H158.89V60.1202H146.45V72.2802Z" fill="white"/>
<path d="M116.312 61.2802H129.032L130.632 66.1202H114.552L116.312 61.2802ZM130.352 72.2802L122.672 50.2002L114.832 72.2802H108.712L119.512 43.5602H126.152L136.872 72.2802H130.352Z" fill="white"/>
<path d="M86.7238 72.2802H80.6438V43.5602H86.7238V54.8802H99.1638V43.5602H105.244V72.2802H99.1638V60.1202H86.7238V72.2802Z" fill="white"/>
<path d="M76.1604 63.3602C76.1604 65.1735 75.6937 66.7869 74.7604 68.2002C73.827 69.5869 72.4937 70.6802 70.7604 71.4802C69.0537 72.2802 66.987 72.6802 64.5604 72.6802C62.1604 72.6802 60.067 72.2802 58.2804 71.4802C56.5204 70.6535 55.1337 69.4935 54.1204 68.0002C53.107 66.5069 52.5204 64.7469 52.3604 62.7202H58.5204C58.6004 64.3202 59.1337 65.5869 60.1204 66.5202C61.1337 67.4535 62.5737 67.9202 64.4404 67.9202C65.4804 67.9202 66.387 67.7735 67.1604 67.4802C67.9604 67.1869 68.587 66.7602 69.0404 66.2002C69.4937 65.6402 69.7204 64.9869 69.7204 64.2402C69.7204 63.3335 69.387 62.6135 68.7204 62.0802C68.0537 61.5202 67.107 61.1202 65.8804 60.8802L61.1604 59.9602C60.067 59.7735 59.0537 59.4669 58.1204 59.0402C57.187 58.6135 56.3737 58.0802 55.6804 57.4402C54.987 56.8002 54.4404 56.0269 54.0404 55.1202C53.6404 54.2135 53.4404 53.1735 53.4404 52.0002C53.4404 50.2935 53.8937 48.7735 54.8004 47.4402C55.7337 46.1069 57.0004 45.0669 58.6004 44.3202C60.227 43.5735 62.0804 43.2002 64.1604 43.2002C66.3204 43.2002 68.2404 43.6002 69.9204 44.4002C71.6004 45.2002 72.9604 46.3335 74.0004 47.8002C75.0404 49.2402 75.6137 50.9602 75.7204 52.9602H69.5604C69.507 51.9469 69.2404 51.0669 68.7604 50.3202C68.307 49.5469 67.6937 48.9602 66.9204 48.5602C66.147 48.1335 65.2537 47.9202 64.2404 47.9202C63.2537 47.9202 62.4137 48.0935 61.7204 48.4402C61.0537 48.7602 60.5337 49.2002 60.1604 49.7602C59.787 50.2935 59.6004 50.9069 59.6004 51.6002C59.6004 52.2402 59.7737 52.7735 60.1204 53.2002C60.4937 53.6269 60.9737 53.9735 61.5604 54.2402C62.147 54.4802 62.787 54.6669 63.4804 54.8002L68.4004 55.8002C70.9337 56.3069 72.8537 57.1735 74.1604 58.4002C75.4937 59.6002 76.1604 61.2535 76.1604 63.3602Z" fill="white"/>
<path d="M166.572 1.52039L156.172 30.2404H149.532L139.212 1.52039H145.772L153.052 23.1604L160.492 1.52039H166.572Z" fill="white"/>
<path d="M122.402 19.2404H135.122L136.722 24.0804H120.642L122.402 19.2404ZM136.442 30.2404L128.762 8.16039L120.922 30.2404H114.802L125.602 1.52039H132.242L142.962 30.2404H136.442Z" fill="white"/>
<path d="M96.1347 30.2404H90.0547V1.52039H101.295C104.921 1.52039 107.735 2.33372 109.735 3.96039C111.735 5.56039 112.735 7.85372 112.735 10.8404C112.735 12.7604 112.161 14.4671 111.015 15.9604C109.895 17.4271 108.308 18.4937 106.255 19.1604L113.655 30.2404H106.415L99.9347 20.0804H96.1347V30.2404ZM96.1347 6.56039V15.0804H101.015C102.855 15.0804 104.255 14.7337 105.215 14.0404C106.175 13.3204 106.655 12.2537 106.655 10.8404C106.655 9.40039 106.175 8.33372 105.215 7.64039C104.255 6.92039 102.855 6.56039 101.015 6.56039H96.1347Z" fill="white"/>
<path d="M84.2397 1.52039V19.3204C84.2397 21.5871 83.7731 23.5871 82.8397 25.3204C81.9331 27.0537 80.5997 28.4137 78.8397 29.4004C77.0797 30.3604 74.9464 30.8404 72.4397 30.8404C69.9064 30.8404 67.7597 30.3604 65.9997 29.4004C64.2397 28.4137 62.8931 27.0537 61.9597 25.3204C61.0531 23.5871 60.5997 21.5871 60.5997 19.3204V1.52039H66.6797V19.4404C66.6797 20.6137 66.8797 21.6537 67.2797 22.5604C67.6797 23.4671 68.2931 24.1737 69.1197 24.6804C69.9731 25.1604 71.0797 25.4004 72.4397 25.4004C73.7731 25.4004 74.8531 25.1604 75.6797 24.6804C76.5331 24.1737 77.1597 23.4671 77.5597 22.5604C77.9597 21.6537 78.1597 20.6137 78.1597 19.4404V1.52039H84.2397Z" fill="white"/>
<path d="M37.7929 19.2404H50.5129L52.1129 24.0804H36.0329L37.7929 19.2404ZM51.8329 30.2404L44.1529 8.16039L36.3129 30.2404H30.1929L40.9929 1.52039H47.6329L58.3529 30.2404H51.8329Z" fill="white"/>
<path d="M15.4404 30.8404C13.3604 30.8404 11.4137 30.4804 9.60038 29.7604C7.81372 29.0137 6.24038 27.9737 4.88038 26.6404C3.54705 25.3071 2.50705 23.7204 1.76038 21.8804C1.01371 20.0137 0.640381 17.9737 0.640381 15.7604C0.640381 13.6271 1.00038 11.6671 1.72038 9.88041C2.44038 8.09374 3.45371 6.52041 4.76038 5.16041C6.06705 3.80041 7.60038 2.76041 9.36038 2.04041C11.147 1.29374 13.0937 0.92041 15.2004 0.92041C17.627 0.92041 19.8004 1.37374 21.7204 2.28041C23.667 3.16041 25.2937 4.38708 26.6004 5.96041C27.9337 7.53374 28.9204 9.37374 29.5604 11.4804H22.4004C22.107 10.4937 21.627 9.62708 20.9604 8.88041C20.2937 8.10708 19.467 7.49374 18.4804 7.04041C17.4937 6.58708 16.347 6.36041 15.0404 6.36041C13.4937 6.36041 12.0937 6.73374 10.8404 7.48041C9.61371 8.20041 8.64038 9.28041 7.92038 10.7204C7.22705 12.1337 6.88038 13.8671 6.88038 15.9204C6.88038 17.7604 7.21371 19.4137 7.88038 20.8804C8.54705 22.3471 9.53371 23.5204 10.8404 24.4004C12.1737 25.2537 13.8004 25.6804 15.7204 25.6804C17.1337 25.6804 18.3604 25.4271 19.4004 24.9204C20.467 24.3871 21.3337 23.6671 22.0004 22.7604C22.6937 21.8271 23.1737 20.7737 23.4404 19.6004H15.1204V14.7604H29.9204C30.027 17.1071 29.7604 19.2671 29.1204 21.2404C28.4804 23.1871 27.5204 24.8804 26.2404 26.3204C24.987 27.7604 23.4404 28.8804 21.6004 29.6804C19.787 30.4537 17.7337 30.8404 15.4404 30.8404Z" fill="white"/>
<path d="M15.0004 43.5602L15.0059 57.9069L25.1544 47.7661L15.0136 57.9147L29.3604 57.9202L15.0136 57.9257L25.1544 68.0742L15.0059 57.9334L15.0004 72.2802L14.9949 57.9334L4.84632 68.0742L14.9871 57.9257L0.640381 57.9202L14.9871 57.9147L4.84632 47.7661L14.9949 57.9069L15.0004 43.5602Z" fill="white" stroke="white" stroke-width="4"/>
</svg>
