<svg width="1384" height="792" viewBox="0 0 1384 792" fill="none" xmlns="http://www.w3.org/2000/svg">
<g clip-path="url(#clip0_107_442)">
<rect width="1384" height="792" fill="#151520"/>
<path fill-rule="evenodd" clip-rule="evenodd" d="M1093.96 604.045L492.093 -15.014L466.459 848.017L688.34 717.276L753.667 885.299L907.365 825.541L842.458 658.597L1093.96 604.045Z" fill="white"/>
<line x1="-227.679" y1="507.994" x2="1741.94" y2="160.697" stroke="#CCCCCC" stroke-width="1.44704" stroke-dasharray="8.68 8.68"/>
<line x1="-229.126" y1="557.193" x2="1740.49" y2="209.897" stroke="#CCCCCC" stroke-width="1.44704" stroke-dasharray="8.68 8.68"/>
<line x1="-229.126" y1="341.584" x2="1740.49" y2="-5.7125" stroke="#CCCCCC" stroke-width="1.44704" stroke-dasharray="8.68 8.68"/>
<line x1="-227.679" y1="771.355" x2="1741.94" y2="424.059" stroke="#CCCCCC" stroke-width="1.44704" stroke-dasharray="8.68 8.68"/>
<line x1="-229.126" y1="604.945" x2="1740.49" y2="257.649" stroke="#CCCCCC" stroke-width="1.44704" stroke-dasharray="8.68 8.68"/>
<line y1="-0.72352" x2="1811.5" y2="-0.72352" transform="matrix(-0.173648 -0.984808 0.952407 -0.304828 420.821 1464.32)" stroke="#CCCCCC" stroke-width="1.44704" stroke-dasharray="8.68 8.68"/>
<line y1="-0.72352" x2="1811.5" y2="-0.72352" transform="matrix(-0.173648 -0.984808 0.952407 -0.304828 1178.62 1464.32)" stroke="#CCCCCC" stroke-width="1.44704" stroke-dasharray="8.68 8.68"/>
<line x1="1229" y1="893.377" x2="1013.84" y2="-326.874" stroke="#CCCCCC" stroke-width="1.44704" stroke-dasharray="8.68 8.68"/>
<path d="M234.307 411.949C237.451 411.252 239.995 410.377 241.94 409.324C244.023 408.247 245.397 406.371 246.061 403.697C246.864 400.999 246.779 396.895 245.808 391.385L231.853 312.244C231.197 308.525 230.635 304.931 230.165 301.463C229.833 297.97 229.579 295.316 229.401 293.501C227.221 294.028 224.49 294.651 221.208 295.372C217.902 295.955 215.503 296.449 214.012 296.854L211.207 280.943L271.301 270.134C284.939 267.729 297.081 267.719 307.728 270.102C318.489 272.324 327.645 276.32 335.196 282.091C342.885 287.837 349.066 294.701 353.741 302.683C358.391 310.528 361.469 318.72 362.975 327.261C364.457 335.664 364.447 344.472 362.947 353.685C361.584 362.874 358.378 371.677 353.329 380.096C348.255 388.376 341.022 395.688 331.63 402.032C322.213 408.237 310.273 412.615 295.809 415.166L236.711 425.586L234.307 411.949ZM275.369 383.829C276.025 387.548 276.587 391.142 277.057 394.61C277.526 398.078 277.781 400.732 277.821 402.571C279.175 402.191 281.034 401.863 283.401 401.587C285.88 401.15 288.441 400.77 291.082 400.446C293.7 399.985 295.835 399.608 297.488 399.317C305.065 397.981 311.272 395.324 316.11 391.346C321.086 387.344 324.846 382.49 327.392 376.786C330.05 370.92 331.635 364.604 332.147 357.838C332.658 351.072 332.307 344.245 331.092 337.357C328.614 323.306 324.658 312.144 319.222 303.87C313.786 295.596 307.166 289.874 299.363 286.704C291.698 283.511 283.02 282.626 273.329 284.051C269.998 284.496 267.235 285.339 265.039 286.578C262.956 287.656 261.582 289.531 260.918 292.205C260.253 294.879 260.394 298.902 261.341 304.275L275.369 383.829ZM441.198 392.939C431.142 394.712 421.868 394.075 413.376 391.027C404.86 387.841 397.751 382.561 392.047 375.186C386.319 367.674 382.472 358.339 380.504 347.18C378.804 337.538 379.348 328.138 382.137 318.982C384.925 309.826 389.728 302.019 396.543 295.562C403.472 288.943 412.103 284.722 422.434 282.901C428.22 281.88 434.014 281.711 439.815 282.393C445.593 282.936 451.026 284.748 456.114 287.828C461.34 290.883 465.845 295.487 469.628 301.637C473.549 307.764 476.315 315.798 477.926 325.741L410.369 338.932C411.681 346.37 413.754 352.894 416.59 358.501C419.563 364.085 423.488 368.222 428.366 370.913C433.243 373.604 439.264 374.318 446.427 373.055C449.182 372.569 452.197 371.54 455.47 369.969C458.882 368.373 462.184 366.157 465.377 363.321C468.684 360.324 471.581 356.617 474.07 352.201L484.898 359.24C481.178 367.14 476.822 373.448 471.829 378.163C466.813 382.741 461.59 386.147 456.161 388.383C450.869 390.594 445.881 392.113 441.198 392.939ZM409.058 324.249L447.079 317.545C445.921 311.783 444.293 307.383 442.195 304.344C440.21 301.143 437.844 299.004 435.097 297.925C432.35 296.847 429.324 296.6 426.018 297.183C419.957 298.252 415.593 301.294 412.926 306.309C410.235 311.187 408.946 317.167 409.058 324.249ZM550.938 373.589C545.014 374.633 539.095 374.896 533.18 374.376C527.265 373.857 522.516 372.706 518.935 370.922L520.441 377.048L504.737 379.818L497.644 344.422L511.075 342.054C512.217 346.114 514.538 349.611 518.038 352.544C521.538 355.478 525.812 357.565 530.86 358.806C535.884 359.909 541.289 359.95 547.075 358.93C549.417 358.517 551.56 357.784 553.505 356.731C555.587 355.653 557.184 354.235 558.294 352.477C559.518 350.557 559.924 348.426 559.511 346.084C559.049 343.467 557.708 341.501 555.488 340.188C553.406 338.851 550.44 337.741 546.592 336.857C542.88 335.949 538.238 334.992 532.663 333.986C528.101 333.086 523.458 332.13 518.734 331.116C514.148 330.078 509.776 328.647 505.62 326.824C501.577 324.838 498.125 322.18 495.265 318.849C492.381 315.38 490.453 310.891 489.481 305.381C488.777 301.386 488.842 297.326 489.678 293.202C490.489 288.94 492.199 284.945 494.809 281.218C497.394 277.353 500.927 274.031 505.409 271.253C510.028 268.45 515.712 266.453 522.462 265.263C526.182 264.607 530.493 264.486 535.395 264.9C540.411 265.152 544.778 266.157 548.497 267.916L547.441 261.924L563.145 259.155L569.594 295.729L556.163 298.097C554.486 293.421 552.035 289.592 548.811 286.61C545.724 283.603 542.025 281.557 537.714 280.47C533.379 279.246 528.732 279.071 523.773 279.946C520.329 280.553 517.307 281.938 514.705 284.101C512.242 286.24 511.362 289.307 512.066 293.302C512.625 296.471 514.176 298.825 516.721 300.365C519.24 301.767 522.538 302.748 526.614 303.307C530.69 303.867 535.215 304.561 540.19 305.388C547.629 306.491 554.314 308.153 560.245 310.374C566.314 312.571 571.333 315.663 575.303 319.65C579.249 323.499 581.792 328.661 582.934 335.136C584.197 342.299 583.451 348.539 580.695 353.854C577.939 359.169 573.875 363.508 568.502 366.87C563.267 370.207 557.412 372.447 550.938 373.589ZM600.751 347.548C604.608 346.868 607.229 345.624 608.615 343.817C610.001 342.01 610.658 339.693 610.585 336.865C610.626 333.875 610.331 330.589 609.699 327.008L603.651 292.706C603.214 290.227 602.785 287.391 602.364 284.198C601.919 280.868 601.567 277.663 601.308 274.584C599.128 275.11 596.535 275.709 593.529 276.381C590.636 276.892 588.444 277.349 586.953 277.754L584.184 262.05C590.52 260.933 595.832 259.641 600.119 258.175C604.406 256.709 607.704 255.275 610.013 253.873C612.461 252.448 614.094 251.236 614.912 250.24L626.07 248.272L638.786 320.387C639.126 322.316 639.543 325.083 640.037 328.689C640.506 332.157 640.883 335.5 641.166 338.717C643.321 338.053 645.708 337.49 648.325 337.028C651.056 336.405 653.11 335.972 654.488 335.729L657.257 351.433L603.119 360.979L600.751 347.548ZM607.488 234.717C602.804 235.543 598.656 234.57 595.042 231.799C591.428 229.027 589.209 225.299 588.383 220.615C587.557 215.932 588.437 211.658 591.022 207.793C593.608 203.928 597.035 201.619 601.306 200.866C605.714 200.089 609.656 201.098 613.132 203.894C616.745 206.666 618.965 210.394 619.791 215.077C620.617 219.761 619.944 223.999 617.772 227.791C615.599 231.583 612.172 233.892 607.488 234.717ZM725.019 397.223C713.172 399.312 703.574 399.655 696.224 398.252C688.899 396.987 683.426 394.543 679.805 390.921C676.183 387.298 673.959 383.145 673.133 378.461C672.623 375.569 672.733 372.566 673.463 369.455C674.193 366.343 675.692 363.167 677.961 359.926C680.393 356.799 683.93 353.903 688.574 351.237C682.658 350.718 678.238 349.012 675.314 346.118C672.502 343.063 670.756 339.607 670.076 335.75C669.445 332.168 670.187 327.918 672.302 323C674.394 317.944 679.021 313.577 686.185 309.899C679.986 308.578 674.59 305.765 669.996 301.462C665.402 297.158 662.348 291.518 660.834 284.541C659.101 276.324 659.88 268.659 663.171 261.545C666.437 254.293 671.336 248.245 677.868 243.4C684.4 238.555 691.592 235.441 699.444 234.056C703.026 233.425 707.243 233.178 712.097 233.317C716.951 233.455 721.306 234.392 725.163 236.126C725.925 231.589 727.149 227.254 728.835 223.121C730.635 218.827 733.05 215.205 736.081 212.256C739.088 209.169 742.726 207.249 746.997 206.496C751.68 205.67 755.412 206.291 758.191 208.358C761.083 210.262 762.882 213.212 763.586 217.207C763.878 218.86 763.792 220.792 763.33 223.005C762.981 225.055 761.964 226.938 760.278 228.656C758.73 230.349 756.303 231.487 752.997 232.07C750.931 232.435 748.731 232.041 746.398 230.891C744.04 229.602 742.46 227.892 741.658 225.761C739.964 226.627 738.489 228.734 737.233 232.08C735.976 235.427 735.417 238.295 735.554 240.686C740.156 243.425 743.891 246.886 746.759 251.067C749.627 255.249 751.523 259.957 752.446 265.192C753.855 273.181 752.833 280.677 749.38 287.677C746.04 294.516 741.105 300.357 734.573 305.202C728.155 309.885 720.882 312.943 712.754 314.376C710.963 314.692 708.954 314.975 706.725 315.226C704.473 315.339 702.313 315.578 700.247 315.942C697.216 316.476 694.765 317.477 692.893 318.943C691.021 320.41 690.255 322.107 690.595 324.036C691.056 326.653 693.37 328.092 697.535 328.351C701.7 328.611 708.652 328.167 718.392 327.017C729.096 325.698 738.569 325.448 746.81 326.268C755.164 326.925 761.946 329.138 767.156 332.907C772.365 336.676 775.675 342.555 777.083 350.545C778.128 356.468 777.317 361.938 774.65 366.953C772.008 372.106 768.061 376.708 762.81 380.759C757.72 384.923 751.865 388.37 745.245 391.1C738.649 393.968 731.907 396.009 725.019 397.223ZM728.497 381.909C738.278 380.184 745.332 377.094 749.66 372.638C754.125 368.158 756.018 363.989 755.337 360.132C754.827 357.239 753.3 355.022 750.756 353.482C748.236 352.08 744.675 351.217 740.073 350.892C735.608 350.543 729.976 350.826 723.178 351.74C720.098 351.999 716.549 352.412 712.53 352.979C708.511 353.545 704.937 353.82 701.81 353.804C700.035 355.821 698.815 358.167 698.15 360.841C697.485 363.515 697.29 366.035 697.566 368.401C698.262 373.96 701.381 377.955 706.923 380.387C712.627 382.932 719.818 383.439 728.497 381.909ZM711.14 300.386C714.859 299.73 717.752 298.012 719.819 295.233C722.023 292.43 723.429 289.128 724.038 285.328C724.784 281.503 724.829 277.731 724.173 274.012C723.323 269.19 721.889 264.685 719.872 260.495C717.831 256.168 715.258 252.858 712.155 250.564C709.166 248.108 705.673 247.233 701.678 247.937C696.168 248.909 692.335 252.141 690.179 257.635C688.023 263.129 687.503 269.044 688.621 275.38C689.471 280.202 690.973 284.695 693.128 288.861C695.259 292.888 697.863 295.98 700.942 298.136C704.021 300.291 707.42 301.041 711.14 300.386ZM785.739 328.778L783.371 315.347C787.228 314.667 789.85 313.423 791.235 311.616C792.621 309.81 793.278 307.492 793.205 304.664C793.246 301.674 792.951 298.388 792.319 294.807L786.198 260.092C785.761 257.613 785.344 254.846 784.948 251.791C784.527 248.598 784.187 245.462 783.928 242.383C781.748 242.909 779.155 243.508 776.149 244.181C773.256 244.691 771.064 245.148 769.573 245.553L766.804 229.849C773.141 228.732 778.452 227.44 782.739 225.974C787.026 224.508 790.324 223.074 792.634 221.673C795.081 220.247 796.714 219.036 797.532 218.039L807.657 216.254C808.249 217.996 808.617 219.28 808.763 220.107C808.909 220.933 809.054 221.76 809.2 222.586C809.459 223.251 809.966 224.511 810.719 226.367C813.085 223.677 815.914 221.19 819.204 218.905C822.47 216.483 825.808 214.474 829.22 212.878C832.607 211.144 835.679 210.034 838.434 209.549C851.107 207.314 860.705 209.386 867.227 215.764C873.863 221.98 878.589 233.077 881.407 249.057L886.289 276.746C886.629 278.675 887.046 281.442 887.54 285.048C888.009 288.516 888.386 291.858 888.669 295.075C890.962 294.387 893.418 293.812 896.035 293.35C898.628 292.751 900.613 292.33 901.991 292.087L904.76 307.791L850.622 317.337L848.254 303.906C852.111 303.226 854.732 301.983 856.118 300.176C857.642 298.345 858.367 296.015 858.295 293.187C858.336 290.197 858.041 286.911 857.409 283.33L852.029 254.024C850.45 245.07 847.975 238.689 844.605 234.88C841.348 230.909 836.689 229.458 830.628 230.526C827.184 231.134 823.873 232.499 820.697 234.621C817.658 236.719 815.15 239.008 813.172 241.487C813.512 243.416 813.864 245.413 814.229 247.48C814.569 249.408 814.909 251.337 815.249 253.266L821.406 288.187C821.746 290.115 822.163 292.882 822.657 296.488C823.127 299.956 823.503 303.299 823.786 306.516C825.942 305.852 828.328 305.289 830.945 304.828C833.676 304.204 835.73 303.771 837.108 303.528L839.877 319.232L785.739 328.778ZM966.66 300.286C956.604 302.059 947.33 301.421 938.838 298.374C930.322 295.188 923.212 289.908 917.509 282.533C911.781 275.021 907.933 265.686 905.966 254.527C904.266 244.884 904.81 235.485 907.599 226.329C910.387 217.173 915.189 209.366 922.005 202.909C928.934 196.29 937.564 192.069 947.896 190.247C953.682 189.227 959.476 189.058 965.277 189.739C971.055 190.283 976.488 192.095 981.576 195.175C986.802 198.23 991.307 202.834 995.09 208.984C999.011 215.111 1001.78 223.145 1003.39 233.088L935.831 246.279C937.143 253.717 939.216 260.241 942.051 265.848C945.024 271.432 948.95 275.569 953.827 278.26C958.705 280.951 964.726 281.665 971.889 280.401C974.644 279.916 977.659 278.887 980.932 277.315C984.344 275.72 987.646 273.504 990.839 270.668C994.146 267.671 997.043 263.964 999.531 259.548L1010.36 266.587C1006.64 274.487 1002.28 280.795 997.291 285.51C992.275 290.087 987.052 293.494 981.623 295.73C976.331 297.941 971.343 299.46 966.66 300.286ZM934.52 231.596L972.541 224.892C971.383 219.13 969.755 214.73 967.657 211.691C965.672 208.49 963.306 206.35 960.559 205.272C957.812 204.194 954.786 203.947 951.48 204.53C945.419 205.598 941.055 208.64 938.388 213.656C935.697 218.534 934.408 224.513 934.52 231.596ZM1068.75 282.284C1060.49 283.741 1052.81 282.893 1045.72 279.74C1038.77 276.563 1032.81 271.364 1027.84 264.143C1023.02 256.898 1019.67 247.972 1017.8 237.365C1015.83 226.207 1016.22 215.912 1018.96 206.481C1021.7 197.049 1026.49 189.174 1033.33 182.854C1040.17 176.535 1048.68 172.476 1058.88 170.679C1062.6 170.023 1065.97 169.853 1069.01 170.17C1072.17 170.324 1075.13 170.653 1077.92 171.155L1075.52 157.518C1075.18 155.589 1074.76 152.822 1074.27 149.216C1073.77 145.61 1073.4 142.267 1073.14 139.188C1070.96 139.715 1068.36 140.314 1065.36 140.986C1062.35 141.658 1060.09 142.128 1058.58 142.395L1055.81 126.691C1062.28 125.549 1067.59 124.258 1071.74 122.816C1076.03 121.35 1079.33 119.916 1081.64 118.514C1084.08 117.089 1085.72 115.877 1086.54 114.881L1097.69 112.913L1119.34 235.653C1119.68 237.582 1120.09 240.349 1120.59 243.955C1121.06 247.423 1121.43 250.766 1121.72 253.983C1124.01 253.295 1126.46 252.72 1129.08 252.258C1131.67 251.659 1133.66 251.238 1135.04 250.995L1137.81 266.699L1098.55 273.622C1098.14 272.131 1097.66 270.583 1097.09 268.978C1096.66 267.35 1096.17 265.802 1095.63 264.335C1091.91 269.82 1087.81 273.952 1083.33 276.731C1078.85 279.51 1073.99 281.361 1068.75 282.284ZM1076.18 261.585C1079.77 260.954 1082.91 259.475 1085.63 257.15C1088.32 254.687 1090.3 251.852 1091.59 248.643C1091.22 246.577 1090.86 244.51 1090.49 242.444C1090.13 240.378 1089.76 238.311 1089.4 236.245L1080.65 186.653C1079.08 185.794 1076.86 185.263 1073.98 185.06C1071.08 184.719 1068.18 184.804 1065.29 185.314C1058.98 186.569 1054.37 189.441 1051.47 193.929C1048.57 198.418 1046.88 203.758 1046.41 209.949C1046.08 216.115 1046.48 222.435 1047.62 228.91C1048.65 234.696 1050.34 240.291 1052.72 245.696C1055.23 251.077 1058.39 255.348 1062.22 258.508C1066.16 261.507 1070.81 262.533 1076.18 261.585Z" fill="white"/>
<path d="M336.55 672.459L280.13 567.569C278.048 563.817 276.303 560.36 274.893 557.2C273.621 554.015 272.791 551.321 272.403 549.117C269.81 549.716 267.492 550.267 265.45 550.769C263.521 551.109 261.674 551.506 259.907 551.959L257.102 536.049L318.059 525.3L320.463 538.938C315.342 539.699 311.724 541.331 309.609 543.835C307.631 546.314 308.096 550.564 311.005 556.585C314.455 564.073 317.906 571.561 321.357 579.048C324.808 586.536 328.259 594.024 331.71 601.511C333.775 605.977 335.655 610.19 337.348 614.153C339.178 618.091 341.297 623.257 343.702 629.651L343.909 629.615C344.12 627.589 344.424 624.481 344.822 620.292C345.22 616.103 345.637 611.626 346.076 606.862C346.627 601.935 347.057 597.527 347.366 593.637C347.788 589.586 348.072 586.766 348.218 585.178C349.183 577.764 350.08 570.362 350.907 562.972C351.872 555.558 352.769 548.156 353.596 540.766C354.562 533.352 355.458 525.95 356.286 518.56L374.883 515.281C377.929 521.277 380.975 527.274 384.02 533.271C387.204 539.243 390.319 545.228 393.365 551.224C396.411 557.221 399.457 563.218 402.503 569.214C405.686 575.187 408.801 581.171 411.847 587.168C414.188 591.585 416.359 596.244 418.36 601.147C420.474 605.887 422.532 610.709 424.532 615.612L424.739 615.575C425.202 610.948 425.64 606.184 426.054 601.282C426.581 596.217 427.084 591.015 427.563 585.675C427.896 581.924 428.229 578.172 428.561 574.42C428.894 570.669 429.227 566.917 429.56 563.165C429.868 559.276 430.189 555.455 430.521 551.704C430.854 547.952 431.187 544.2 431.52 540.449C431.763 536.997 432.27 533.427 433.04 529.741C433.786 525.916 434.998 522.72 436.676 520.151C434.496 520.677 431.697 521.313 428.277 522.058C424.833 522.665 422.366 523.172 420.875 523.576L418.069 507.666L464.562 499.468L466.966 513.106C463.96 513.778 461.213 515.114 458.725 517.116C456.35 518.955 454.34 521.653 452.695 525.21C451.05 528.767 449.805 533.389 448.962 539.078C446.682 558.371 444.333 577.676 441.916 596.993C439.499 616.311 437.093 635.697 434.7 655.152L416.31 658.395L378.883 588.719C376.145 583.663 373.707 578.695 371.569 573.817C369.543 568.776 367.567 564.011 365.639 559.522C365.776 564.327 365.751 569.019 365.564 573.597C365.353 578.038 364.971 582.721 364.42 587.648L354.527 669.289L336.55 672.459ZM535.337 639.538C525.418 641.286 516.088 640.73 507.345 637.869C498.602 635.007 491.197 630.063 485.128 623.037C479.174 615.849 475.249 606.882 473.354 596.137C471.338 584.703 471.919 574.303 475.097 564.936C478.388 555.408 483.547 547.609 490.573 541.541C497.712 535.311 505.966 531.37 515.333 529.718C525.252 527.969 534.513 528.538 543.119 531.424C551.724 534.309 559.003 539.346 564.958 546.535C570.889 553.585 574.826 562.621 576.769 573.641C578.809 585.213 578.378 595.657 575.476 604.976C572.574 614.294 567.678 621.975 560.79 628.019C553.877 633.925 545.393 637.764 535.337 639.538ZM533.576 624.721C539.062 623.612 542.855 620.954 544.954 616.749C547.191 612.52 548.363 607.484 548.469 601.641C548.575 595.799 548.118 589.985 547.098 584.199C546.199 579.102 544.875 574.009 543.125 568.92C541.514 563.807 539.505 559.261 537.099 555.282C534.693 551.303 531.812 548.26 528.458 546.153C525.241 544.021 521.579 543.389 517.471 544.255C512.122 545.34 508.192 548.022 505.679 552.3C503.305 556.554 501.926 561.626 501.545 567.517C501.277 573.246 501.677 579.141 502.746 585.202C503.984 592.228 505.957 598.982 508.662 605.465C511.368 611.947 514.762 617.101 518.845 620.927C523.042 624.59 527.953 625.855 533.576 624.721ZM598.799 611.09C602.656 610.41 605.277 609.166 606.663 607.36C608.049 605.553 608.706 603.235 608.633 600.407C608.674 597.417 608.379 594.131 607.747 590.55L601.626 555.835C601.189 553.356 600.772 550.589 600.375 547.534C599.955 544.341 599.615 541.205 599.356 538.126C597.176 538.652 594.583 539.252 591.577 539.924C588.684 540.434 586.492 540.891 585.001 541.296L582.232 525.592L590.497 524.135C595.869 523.187 600.638 521.636 604.804 519.482C609.107 517.302 611.825 515.403 612.96 513.782L623.085 511.997C623.604 513.326 624.272 515.907 625.09 519.74C625.883 523.435 626.535 526.729 627.045 529.622C629.963 524.42 632.832 520.15 635.652 516.812C638.473 513.474 641.358 510.905 644.308 509.107C647.371 507.146 650.555 505.875 653.862 505.292C658.683 504.442 663.127 505.078 667.195 507.202C671.238 509.188 673.794 513.211 674.863 519.272C675.227 521.339 675.134 523.628 674.582 526.14C674.007 528.514 672.819 530.641 671.02 532.52C669.221 534.4 666.531 535.656 662.949 536.287C660.194 536.773 657.224 536.444 654.04 535.301C650.855 534.159 648.644 531.282 647.404 526.671C644.649 527.157 642.101 528.813 639.759 531.641C637.392 534.331 635.386 537.454 633.741 541.011C632.209 544.406 631.26 547.485 630.895 550.248L636.834 583.93C637.174 585.858 637.591 588.625 638.085 592.231C638.554 595.7 638.931 599.042 639.214 602.259C641.369 601.595 643.756 601.032 646.373 600.571C649.104 599.947 651.158 599.514 652.536 599.271L655.305 614.975L601.167 624.521L598.799 611.09ZM692.957 594.487C696.814 593.807 699.436 592.564 700.822 590.757C702.345 588.926 703.071 586.596 702.998 583.768C702.902 580.802 702.537 577.529 701.906 573.947L686.931 489.021C686.494 486.541 686.065 483.705 685.644 480.512C685.199 477.182 684.847 473.977 684.588 470.898C682.408 471.424 679.815 472.024 676.809 472.696C673.916 473.206 671.724 473.663 670.233 474.068L667.464 458.364C673.938 457.223 679.25 455.931 683.399 454.489C687.686 453.023 690.984 451.589 693.293 450.188C695.741 448.762 697.374 447.551 698.192 446.554L709.35 444.587L730.993 567.327C731.333 569.256 731.75 572.023 732.244 575.629C732.713 579.097 733.089 582.439 733.372 585.656C735.666 584.968 738.121 584.393 740.738 583.931C743.331 583.332 745.317 582.911 746.694 582.668L749.463 598.372L695.325 607.918L692.957 594.487ZM803.466 592.259C795.201 593.717 787.523 592.869 780.433 589.716C773.481 586.538 767.522 581.339 762.556 574.119C757.728 566.874 754.378 557.948 752.508 547.341C750.54 536.183 750.927 525.888 753.667 516.456C756.407 507.025 761.197 499.149 768.037 492.83C774.877 486.51 783.394 482.452 793.588 480.654C797.307 479.998 800.686 479.829 803.725 480.145C806.877 480.3 809.846 480.628 812.634 481.131L810.229 467.493C809.889 465.565 809.472 462.797 808.978 459.191C808.485 455.585 808.108 452.243 807.849 449.164C805.67 449.69 803.076 450.289 800.07 450.962C797.064 451.634 794.803 452.103 793.288 452.37L790.519 436.666C796.993 435.525 802.305 434.233 806.454 432.791C810.741 431.325 814.039 429.891 816.348 428.49C818.796 427.064 820.429 425.853 821.247 424.856L832.405 422.889L854.048 545.629C854.388 547.558 854.805 550.325 855.298 553.931C855.768 557.399 856.144 560.742 856.427 563.958C858.721 563.27 861.176 562.695 863.793 562.234C866.386 561.634 868.372 561.213 869.749 560.97L872.518 576.674L833.258 583.597C832.853 582.106 832.367 580.558 831.8 578.954C831.371 577.325 830.885 575.777 830.342 574.311C826.622 579.796 822.521 583.928 818.04 586.707C813.559 589.485 808.701 591.336 803.466 592.259ZM810.895 571.561C814.477 570.929 817.625 569.451 820.34 567.126C823.031 564.663 825.016 561.827 826.297 558.618C825.933 556.552 825.568 554.486 825.204 552.419C824.84 550.353 824.475 548.287 824.111 546.22L815.366 496.628C813.795 495.769 811.57 495.238 808.694 495.035C805.793 494.695 802.896 494.779 800.003 495.289C793.691 496.544 789.084 499.416 786.182 503.905C783.281 508.394 781.595 513.733 781.124 519.924C780.791 526.09 781.195 532.411 782.336 538.885C783.357 544.671 785.053 550.267 787.427 555.672C789.938 561.052 793.106 565.323 796.93 568.484C800.868 571.483 805.523 572.508 810.895 571.561ZM934.203 569.207C928.28 570.251 922.361 570.514 916.445 569.994C910.53 569.475 905.782 568.323 902.201 566.54L903.707 572.666L888.003 575.436L880.91 540.04L894.341 537.672C895.483 541.732 897.804 545.229 901.304 548.162C904.804 551.096 909.078 553.183 914.126 554.424C919.15 555.527 924.555 555.568 930.34 554.548C932.682 554.135 934.825 553.402 936.77 552.349C938.853 551.271 940.45 549.853 941.56 548.095C942.784 546.175 943.189 544.044 942.776 541.702C942.315 539.085 940.974 537.119 938.754 535.806C936.672 534.469 933.706 533.359 929.857 532.475C926.146 531.567 921.503 530.61 915.928 529.604C911.367 528.704 906.724 527.748 902 526.734C897.413 525.696 893.042 524.265 888.885 522.442C884.842 520.456 881.391 517.797 878.531 514.467C875.647 510.998 873.719 506.509 872.747 500.999C872.043 497.004 872.108 492.944 872.943 488.82C873.754 484.558 875.464 480.563 878.074 476.836C880.66 472.971 884.193 469.649 888.674 466.871C893.294 464.068 898.978 462.071 905.728 460.881C909.448 460.225 913.758 460.104 918.661 460.518C923.676 460.77 928.044 461.775 931.763 463.534L930.706 457.542L946.41 454.773L952.859 491.347L939.428 493.715C937.752 489.039 935.301 485.21 932.076 482.228C928.989 479.221 925.291 477.175 920.98 476.088C916.645 474.864 911.998 474.689 907.039 475.564C903.595 476.171 900.572 477.556 897.971 479.719C895.507 481.858 894.628 484.925 895.332 488.92C895.891 492.088 897.442 494.443 899.986 495.983C902.506 497.385 905.804 498.366 909.88 498.925C913.955 499.485 918.481 500.178 923.456 501.006C930.895 502.109 937.579 503.771 943.51 505.992C949.579 508.189 954.599 511.281 958.569 515.268C962.514 519.117 965.058 524.279 966.2 530.754C967.463 537.917 966.716 544.156 963.961 549.472C961.205 554.787 957.141 559.126 951.768 562.488C946.533 565.825 940.678 568.065 934.203 569.207ZM1002.67 557.134C998.263 557.911 994.334 556.971 990.882 554.312C987.568 551.63 985.523 548.084 984.746 543.676C983.968 539.268 984.816 535.213 987.288 531.51C989.759 527.807 992.993 525.603 996.988 524.899C1001.26 524.146 1005.05 525.111 1008.36 527.793C1011.82 530.452 1013.93 533.985 1014.71 538.393C1015.48 542.801 1014.78 546.832 1012.58 550.487C1010.52 554.117 1007.22 556.332 1002.67 557.134Z" fill="white"/>
<path fill-rule="evenodd" clip-rule="evenodd" d="M473.862 598.787C475.877 608.349 479.635 616.451 485.138 623.094C491.093 630.282 498.442 635.307 507.185 638.169C515.927 641.03 525.327 641.575 535.383 639.802C545.439 638.028 553.912 634.12 560.8 628.076C567.826 622.008 572.722 614.327 575.486 605.033C578.388 595.715 578.831 585.339 576.815 573.905C574.921 563.16 570.996 554.194 565.041 547.005C559.062 539.679 551.77 534.573 543.165 531.688C534.56 528.802 525.298 528.233 515.38 529.982C505.875 531.658 497.552 535.611 490.413 541.841C483.411 548.047 478.333 555.903 475.18 565.407C475.056 565.78 474.936 566.155 474.82 566.531L473.862 598.787ZM792.1 293.562L820.623 322.899L785.786 329.042L783.417 315.611C788.652 314.688 791.703 312.658 792.571 309.522C793.576 306.362 793.508 301.545 792.366 295.071L792.1 293.562ZM736.104 235.967C735.67 237.753 735.503 239.414 735.601 240.949C740.065 243.713 743.731 247.186 746.599 251.367C749.605 255.525 751.569 260.221 752.492 265.455C753.852 273.17 752.887 280.584 749.596 287.698C746.281 294.674 741.358 300.585 734.826 305.429C728.27 310.136 720.928 313.206 712.801 314.64L706.978 315.453C703.899 315.712 701.671 315.963 700.293 316.206C697.263 316.74 694.811 317.741 692.939 319.207C691.067 320.673 690.301 322.371 690.641 324.299C691.079 326.779 693.254 328.242 697.168 328.688C701.195 328.972 708.285 328.503 718.439 327.281C735.966 325.185 749.632 325.758 759.436 329.001C769.24 332.243 775.138 339.513 777.13 350.808C778.442 358.247 776.69 365.232 771.876 371.762C767.2 378.268 760.571 383.769 751.989 388.265C743.545 392.737 734.57 395.811 725.065 397.487C708.397 400.426 695.894 400.003 687.556 396.218C679.357 392.408 674.564 386.577 673.18 378.725C672.33 373.904 673.043 369.091 675.321 364.286C677.761 359.595 682.194 355.333 688.62 351.501C682.98 350.933 678.641 349.284 675.603 346.552C672.703 343.797 670.876 340.284 670.123 336.014C669.394 331.881 670.238 327.4 672.653 322.571C675.206 317.718 679.744 313.65 686.268 310.37L686.231 310.163C679.595 308.776 673.956 305.794 669.313 301.215C664.784 296.474 661.876 290.453 660.589 283.152C659.229 275.438 660.137 268.104 663.315 261.152C666.63 254.176 671.496 248.347 677.915 243.664C684.446 238.819 691.638 235.705 699.49 234.32C703.623 233.591 708.06 233.377 712.8 233.678C717.516 233.841 721.652 234.745 725.209 236.39C725.79 233.122 726.575 230.053 727.564 227.183L736.104 235.967ZM480.738 367.287L481.044 356.969L484.945 359.504C483.667 362.262 482.264 364.856 480.738 367.287ZM610.476 232.332C605.793 233.158 601.656 232.254 598.067 229.62C594.453 226.848 592.233 223.12 591.408 218.437C590.582 213.753 591.461 209.479 594.047 205.614C596.608 201.611 600.024 199.234 604.294 198.481C608.702 197.703 612.644 198.713 616.12 201.509C619.734 204.28 621.966 208.077 622.816 212.898C623.666 217.72 622.924 221.97 620.59 225.648C618.393 229.303 615.022 231.53 610.476 232.332ZM600.797 347.811C606.032 346.888 609.083 344.859 609.95 341.723C610.956 338.563 610.887 333.746 609.746 327.271L603.698 292.97C602.556 286.496 601.775 280.455 601.354 274.847L586.999 278.018L584.23 262.314C592.909 260.783 599.825 258.925 604.979 256.738C610.133 254.551 613.459 252.473 614.959 250.504L626.117 248.536L638.833 320.651C639.999 327.263 640.792 333.373 641.212 338.981C645.548 337.79 649.988 336.794 654.534 335.992L657.303 351.697L603.165 361.243L600.797 347.811ZM533.226 374.64C539.142 375.159 545.061 374.897 550.984 373.852C557.597 372.687 563.52 370.435 568.755 367.097C574.104 363.597 578.087 359.202 580.705 353.911C583.437 348.458 584.195 342.288 582.981 335.4C581.402 326.446 576.958 319.772 569.65 315.379C562.479 310.962 552.675 307.72 540.237 305.652C537.312 305.173 535.424 304.938 534.573 304.946C526.997 303.867 521.536 302.699 518.189 301.443C514.818 300.049 512.793 297.423 512.113 293.566C511.457 289.847 512.28 286.861 514.582 284.608C516.883 282.356 519.963 280.89 523.82 280.21C531.258 278.898 537.891 279.859 543.716 283.093C549.542 286.327 553.706 291.416 556.209 298.361L569.64 295.993L563.191 259.419L547.487 262.188L548.75 268.144L548.544 268.18C544.987 266.535 540.757 265.505 535.855 265.091C530.953 264.677 526.504 264.822 522.509 265.527C513.968 267.033 507.027 269.961 501.687 274.312C496.46 278.5 492.849 283.398 490.855 289.005C488.975 294.45 488.532 299.996 489.528 305.644C490.743 312.532 493.46 317.877 497.682 321.678C502.016 325.316 506.582 327.849 511.379 329.276C516.176 330.703 523.286 332.361 532.709 334.25C540.658 335.831 545.97 336.954 548.644 337.619C551.317 338.284 553.696 339.285 555.778 340.622C557.86 341.96 559.12 343.868 559.557 346.348C560.14 349.654 559.143 352.457 556.566 354.758C554.127 357.035 550.978 358.513 547.121 359.193C538.443 360.724 530.696 359.888 523.882 356.686C517.181 353.323 512.928 348.533 511.122 342.318L497.69 344.686L504.784 380.081L520.488 377.312L518.775 371.223L518.982 371.186C522.563 372.969 527.311 374.121 533.226 374.64ZM722.345 291.438C720.14 296.656 716.421 299.726 711.186 300.649C705.814 301.597 701.057 299.595 696.917 294.643C692.777 289.692 690.027 283.359 688.667 275.644C687.501 269.032 688.077 263.036 690.395 257.656C692.714 252.276 696.49 249.124 701.725 248.201C707.235 247.229 712.016 249.369 716.066 254.621C720.117 259.872 722.835 266.424 724.219 274.276C725.312 280.475 724.688 286.195 722.345 291.438ZM744.017 376.888C739.9 379.318 734.743 381.08 728.544 382.173C720.141 383.654 713.111 383.26 707.456 380.991C701.938 378.697 698.705 374.864 697.758 369.491C697.296 366.874 697.386 364.159 698.026 361.348C698.805 358.512 700.081 356.085 701.856 354.068C704.133 354.092 707.006 353.87 710.474 353.4C713.966 353.069 716.413 352.85 717.815 352.745C720.295 352.308 722.098 352.061 723.224 352.004C733.353 350.644 741.023 350.641 746.233 351.995C751.581 353.325 754.631 356.125 755.384 360.395C755.846 363.013 755.124 365.768 753.219 368.66C751.339 371.691 748.272 374.433 744.017 376.888ZM803.512 592.523C795.247 593.981 787.569 593.133 780.48 589.98C773.528 586.802 767.569 581.603 762.602 574.383C757.75 567 754.4 558.074 752.554 547.605C750.611 536.584 751.01 526.358 753.75 516.927C756.466 507.357 761.243 499.413 768.083 493.094C775.061 486.75 783.578 482.691 793.634 480.918C799.006 479.971 805.355 480.13 812.68 481.395L810.275 467.757C809.11 461.145 808.316 455.035 807.896 449.428C803.423 450.643 798.569 451.711 793.334 452.634L790.565 436.93C799.244 435.4 806.16 433.541 811.314 431.354C816.468 429.167 819.794 427.089 821.293 425.12L832.452 423.153L854.094 545.893C855.26 552.505 856.053 558.615 856.474 564.222C860.947 563.008 865.388 562.012 869.796 561.234L872.565 576.938L833.304 583.861L830.595 574.538L830.389 574.575C823.767 584.548 814.808 590.531 803.512 592.523ZM810.942 571.825C814.386 571.218 817.465 569.751 820.18 567.426C822.895 565.101 824.949 562.253 826.343 558.882L815.413 496.892C813.703 496.058 811.41 495.539 808.534 495.336C805.633 494.995 802.805 495.067 800.05 495.553C791.258 497.246 785.589 502.151 783.043 510.27C780.636 518.365 780.415 527.991 782.383 539.149C784.132 549.068 787.441 557.362 792.31 564.031C797.292 570.539 803.503 573.137 810.942 571.825ZM700.698 591.264C699.288 592.933 696.723 594.095 693.004 594.751L695.372 608.182L749.51 598.636L746.741 582.932C742.333 583.709 737.892 584.706 733.419 585.92C732.998 580.313 732.205 574.203 731.039 567.591L709.397 444.851L698.239 446.818C696.739 448.787 693.413 450.865 688.259 453.052C683.105 455.239 676.189 457.098 667.51 458.628L670.279 474.332L684.634 471.162C685.03 476.632 685.812 482.673 686.977 489.285L701.952 574.211C702.73 578.619 703.061 582.112 702.948 584.689C702.971 587.241 702.222 589.433 700.698 591.264ZM547.262 611.714C545.47 619.274 540.786 623.722 533.209 625.058C525.495 626.418 519.025 623.156 513.8 615.271C508.575 607.386 504.905 597.451 502.792 585.466C500.946 574.997 501.113 565.877 503.294 558.106C505.475 550.336 510.354 545.782 517.93 544.446C525.369 543.135 531.575 546.515 536.55 554.586C541.524 562.657 545.055 572.616 547.144 584.463C549.015 595.071 549.054 604.154 547.262 611.714ZM598.845 611.354C604.08 610.431 607.131 608.401 607.998 605.266C609.004 602.106 608.935 597.288 607.794 590.814L601.673 556.099C600.58 549.9 599.823 543.997 599.402 538.39L585.047 541.56L582.278 525.856C590.957 524.326 597.873 522.467 603.027 520.28C608.181 518.093 611.507 516.015 613.007 514.046L623.132 512.261C623.771 514.279 624.452 516.928 625.172 520.21C625.893 523.492 626.533 526.717 627.092 529.886L627.505 529.813C634.638 515.487 643.439 507.402 653.908 505.556C659.143 504.633 663.668 505.326 667.484 507.636C671.438 509.922 673.913 513.888 674.909 519.536C675.541 523.118 674.953 526.631 673.145 530.074C671.338 533.518 668.092 535.653 663.409 536.478C659.965 537.086 656.707 536.737 653.636 535.432C650.703 534.102 648.641 531.27 647.451 526.935C643.594 527.615 640 530.592 636.669 535.867C633.451 540.979 631.542 545.861 630.942 550.512L636.881 584.194C638.047 590.806 638.84 596.916 639.26 602.523C643.596 601.333 648.036 600.336 652.582 599.535L655.351 615.239L601.213 624.785L598.845 611.354ZM916.492 570.258C922.407 570.778 928.326 570.515 934.25 569.471C940.862 568.305 946.786 566.053 952.021 562.715C957.369 559.215 961.353 554.82 963.971 549.529C966.702 544.076 967.461 537.906 966.246 531.018C964.667 522.064 960.224 515.39 952.915 510.997C945.745 506.58 935.94 503.338 923.503 501.27C920.577 500.791 918.689 500.556 917.839 500.564C910.262 499.485 904.801 498.318 901.455 497.061C898.084 495.667 896.059 493.041 895.378 489.184C894.723 485.465 895.545 482.479 897.847 480.226C900.149 477.974 903.228 476.508 907.085 475.828C914.524 474.516 921.156 475.477 926.982 478.711C932.807 481.945 936.972 487.034 939.475 493.979L952.906 491.611L946.457 455.037L930.753 457.806L932.016 463.762L931.809 463.798C928.252 462.153 924.023 461.123 919.12 460.709C914.218 460.295 909.769 460.44 905.774 461.145C897.234 462.651 890.293 465.579 884.952 469.93C879.725 474.118 876.115 479.016 874.121 484.623C872.24 490.068 871.798 495.615 872.793 501.263C874.008 508.15 876.726 513.495 880.947 517.296C885.282 520.935 889.847 523.467 894.644 524.894C899.441 526.321 906.551 527.979 915.975 529.868C923.924 531.45 929.235 532.573 931.909 533.237C934.583 533.902 936.961 534.903 939.043 536.241C941.126 537.578 942.385 539.486 942.823 541.966C943.406 545.272 942.409 548.076 939.831 550.377C937.392 552.653 934.244 554.132 930.387 554.812C921.708 556.342 913.962 555.506 907.147 552.305C900.447 548.941 896.193 544.151 894.387 537.936L880.956 540.304L888.049 575.699L903.753 572.93L902.04 566.841L902.247 566.804C905.828 568.587 910.577 569.739 916.492 570.258ZM1002.92 557.361C998.517 558.139 994.599 557.267 991.172 554.746C987.72 552.088 985.593 548.486 984.792 543.94C984.015 539.532 984.862 535.477 987.334 531.774C989.806 528.071 993.039 525.867 997.034 525.163C1001.3 524.41 1005.1 525.375 1008.41 528.057C1011.86 530.716 1013.98 534.249 1014.75 538.657C1015.56 543.203 1014.86 547.303 1012.66 550.957C1010.58 554.449 1007.33 556.584 1002.92 557.361Z" fill="#CCCCCC"/>
</g>
<defs>
<clipPath id="clip0_107_442">
<rect width="1384" height="792" fill="white"/>
</clipPath>
</defs>
</svg>
