<svg width="645" height="310" viewBox="0 0 645 310" fill="none" xmlns="http://www.w3.org/2000/svg">
<path d="M33.3142 94.8391L23.0766 67.2311C22.685 66.1682 22.1815 64.6578 21.5661 62.6997C20.9508 60.6858 20.3354 58.476 19.72 56.0705C19.1046 53.6649 18.5732 51.3433 18.1256 49.1055L18.0417 49.1055C17.9858 51.9586 17.9018 54.6999 17.79 57.3292C17.734 59.9585 17.6221 62.5319 17.4543 65.0494L16.5312 80.238C16.4753 81.7484 16.3634 83.2029 16.1956 84.6015C16.0277 86.0001 15.8879 87.063 15.776 87.7903C16.727 87.6784 17.8739 87.6225 19.2165 87.6225C20.6151 87.5665 21.5941 87.5386 22.1535 87.5386L21.8179 94L2.68528 94L3.02094 88.4616C4.30764 88.4057 5.37056 88.2378 6.20971 87.9581C7.1048 87.6784 7.80409 87.0351 8.30758 86.0281C8.81107 85.0211 9.14673 83.3988 9.31456 81.161L11.4963 49.0216C11.6082 47.5111 11.7201 46.0566 11.832 44.658C11.9998 43.2595 12.1397 42.1965 12.2516 41.4693C11.3565 41.5252 10.2096 41.5812 8.81107 41.6371C7.46843 41.6371 6.48942 41.6651 5.87404 41.721L6.29362 35.2596L24.2514 35.2596L35.7478 67.8186C36.6988 70.3919 37.454 72.7975 38.0135 75.0352C38.6288 77.273 39.2162 79.3988 39.7757 81.4128L39.8596 81.4128C40.6428 79.4547 41.426 77.4967 42.2092 75.5387C42.9924 73.5807 43.7476 71.7066 44.4749 69.9164C46.0973 66.0563 47.7196 62.1963 49.342 58.3362C50.9643 54.4761 52.5587 50.644 54.1251 46.8398C55.7475 42.9797 57.3698 39.1197 58.9922 35.2596L78.5443 35.2596L78.2087 40.798C76.9779 40.8539 75.887 41.0217 74.936 41.3014C73.985 41.5812 73.2297 42.2245 72.6703 43.2315C72.1668 44.1825 71.8871 45.8049 71.8312 48.0985L71.4116 80.238C71.4116 81.7484 71.3277 83.2029 71.1598 84.6015C70.992 86.0001 70.8242 87.063 70.6564 87.7903C71.6074 87.6784 72.7542 87.6225 74.0969 87.6225C75.4954 87.5665 76.4744 87.5385 77.0339 87.5385L76.6982 94L53.202 94L53.5377 88.4616C54.8244 88.4057 55.9153 88.2378 56.8104 87.9581C57.7614 87.6784 58.4887 87.0351 58.9922 86.0281C59.5516 85.0211 59.8313 83.3987 59.8313 81.161L60.0831 63.3711C60.139 62.6997 60.167 61.5249 60.167 59.8466C60.167 58.1124 60.167 56.2383 60.167 54.2243C60.167 52.1544 60.167 50.2524 60.167 48.5181L60.0831 48.5181L56.1391 58.0844L40.8666 94.8391L33.3142 94.8391ZM97.4416 94.9231C95.092 94.9231 93.1619 94.3916 91.6515 93.3287C90.1969 92.2658 89.106 90.7833 88.3788 88.8812C87.7075 86.9232 87.3718 84.6295 87.3718 82.0002C87.3718 79.9303 87.5396 77.6646 87.8753 75.2031C88.2669 72.7416 88.6305 70.2801 88.9662 67.8185C89.3578 65.357 89.5536 63.1193 89.5536 61.1054C89.5536 60.1543 89.3858 59.5669 89.0501 59.3431C88.7704 59.0634 88.4907 58.9236 88.2109 58.9236C87.5956 58.9236 86.9522 59.3991 86.2809 60.3501C85.6096 61.3012 84.9103 63.0354 84.183 65.5528L79.6516 64.2102C79.8754 63.0354 80.295 61.6928 80.9104 60.1823C81.5817 58.6718 82.4488 57.2453 83.5117 55.9026C84.5746 54.5041 85.8334 53.3572 87.2879 52.4621C88.7424 51.567 90.4207 51.1195 92.3228 51.1195C95.4556 51.1195 97.5535 51.9586 98.6164 53.6369C99.7353 55.3152 100.295 57.6369 100.295 60.6019C100.295 62.2802 100.183 64.1822 99.959 66.3081C99.7353 68.378 99.4835 70.5038 99.2038 72.6856C98.9241 74.8674 98.6723 76.9373 98.4486 78.8953C98.2248 80.7974 98.1129 82.3918 98.1129 83.6785C98.1129 84.5176 98.1968 85.2169 98.3647 85.7763C98.5325 86.2798 98.7842 86.6435 99.1199 86.8672C99.4555 87.091 99.9031 87.2029 100.463 87.2029C101.414 87.2029 102.393 86.5875 103.4 85.3568C104.462 84.126 105.469 82.4757 106.42 80.4058C107.372 78.2799 108.239 75.9583 109.022 73.4408C109.805 70.8675 110.42 68.2661 110.868 65.6368C111.371 62.9515 111.623 60.434 111.623 58.0844C111.623 57.3012 111.595 56.2663 111.539 54.9796C111.539 53.6929 111.483 52.7139 111.371 52.0425L122.196 52.0425C122.308 53.2174 122.364 54.0565 122.364 54.56C122.42 55.0075 122.448 55.511 122.448 56.0705C122.448 57.2453 122.364 58.6718 122.196 60.3501C122.085 61.9725 121.917 63.7347 121.693 65.6368C121.469 67.5388 121.217 69.4409 120.938 71.343C120.77 72.8534 120.574 74.308 120.35 75.7065C120.183 77.1051 120.015 78.4198 119.847 79.6505C119.679 80.8254 119.539 81.8883 119.427 82.8393C119.371 83.7344 119.343 84.4337 119.343 84.9372C119.343 85.8323 119.455 86.4197 119.679 86.6994C119.959 86.9791 120.238 87.119 120.518 87.119C121.134 87.119 121.777 86.6435 122.448 85.6924C123.12 84.7414 123.819 83.0071 124.546 80.4897L129.078 81.8323C128.854 83.0071 128.49 84.3498 127.987 85.8602C127.483 87.3707 126.784 88.8252 125.889 90.2238C124.994 91.5665 123.903 92.6853 122.616 93.5804C121.329 94.4755 119.763 94.9231 117.917 94.9231C116.127 94.9231 114.504 94.3916 113.05 93.3287C111.595 92.2658 110.868 90.2518 110.868 87.2868C110.868 86.1679 110.924 85.2169 111.036 84.4337C111.148 83.6505 111.232 82.7834 111.288 81.8323L111.204 81.8323C109.917 85.1889 108.518 87.8183 107.008 89.7203C105.497 91.6224 103.931 92.965 102.309 93.7483C100.686 94.5315 99.0639 94.9231 97.4416 94.9231ZM167.901 94.9231C164.824 94.9231 162.727 94.0839 161.608 92.4056C160.545 90.7273 160.013 88.4057 160.013 85.4407C160.013 83.7624 160.125 81.8883 160.349 79.8184C160.573 77.6925 160.796 75.5387 161.02 73.3569C161.3 71.1751 161.552 69.1332 161.775 67.2311C161.999 65.2731 162.111 63.6508 162.111 62.3641C162.111 61.5249 162.027 60.8536 161.859 60.3501C161.692 59.7907 161.44 59.3991 161.104 59.1753C160.768 58.9515 160.321 58.8396 159.762 58.8396C158.755 58.8396 157.692 59.455 156.573 60.6858C155.51 61.9165 154.475 63.5948 153.468 65.7207C152.461 67.7906 151.566 70.1122 150.783 72.6856C149.999 75.2031 149.356 77.8044 148.853 80.4897C148.405 83.119 148.181 85.6085 148.181 87.9581C148.181 88.6854 148.209 89.7203 148.265 91.063C148.321 92.3497 148.377 93.3287 148.433 94L137.608 94C137.496 92.8252 137.412 92.014 137.356 91.5665C137.356 91.063 137.356 90.5315 137.356 89.9721C137.356 88.7973 137.412 87.4267 137.524 85.8602C137.692 84.2379 137.888 82.5037 138.111 80.6575C138.335 78.7555 138.559 76.8814 138.783 75.0352C138.951 73.5248 139.118 72.0702 139.286 70.6717C139.51 69.2171 139.706 67.8745 139.874 66.6437C140.042 65.357 140.153 64.2382 140.209 63.2871C140.321 62.3361 140.377 61.6088 140.377 61.1054C140.377 60.1543 140.237 59.5669 139.958 59.3431C139.734 59.0634 139.482 58.9236 139.202 58.9236C138.587 58.9236 137.944 59.3991 137.272 60.3501C136.601 61.3012 135.902 63.0354 135.174 65.5528L130.559 64.2102C130.839 63.0354 131.23 61.6928 131.734 60.1823C132.237 58.6718 132.937 57.2453 133.832 55.9026C134.727 54.504 135.818 53.3572 137.104 52.4621C138.391 51.567 139.958 51.1195 141.804 51.1195C143.034 51.1195 144.181 51.3433 145.244 51.7908C146.307 52.2383 147.174 53.0216 147.846 54.1404C148.517 55.2033 148.853 56.7418 148.853 58.7557C148.853 59.8187 148.797 60.6858 148.685 61.3571C148.573 62.0284 148.461 62.8396 148.349 63.7906L148.433 63.7906C149.776 60.434 151.23 57.8327 152.797 55.9865C154.419 54.1404 156.069 52.8817 157.748 52.2104C159.482 51.4831 161.16 51.1195 162.782 51.1195C165.188 51.1195 167.118 51.6509 168.573 52.7139C170.027 53.7768 171.09 55.2873 171.761 57.2453C172.489 59.1473 172.852 61.413 172.852 64.0424C172.852 66.0563 172.684 68.2941 172.349 70.7556C172.013 73.2171 171.649 75.6786 171.258 78.1401C170.922 80.6016 170.754 82.8673 170.754 84.9372C170.754 85.8323 170.894 86.4197 171.174 86.6994C171.454 86.9791 171.733 87.119 172.013 87.119C172.628 87.119 173.272 86.6435 173.943 85.6924C174.614 84.7414 175.314 83.0071 176.041 80.4897L180.572 81.8323C180.349 83.0071 179.901 84.3498 179.23 85.8602C178.614 87.3707 177.775 88.8252 176.712 90.2238C175.649 91.5665 174.391 92.6853 172.936 93.5804C171.482 94.4755 169.803 94.9231 167.901 94.9231ZM204.014 51.1195C206.588 51.1195 208.881 51.5391 210.895 52.3782C212.965 53.2173 214.587 54.3922 215.762 55.9026C216.993 57.3572 217.608 59.1194 217.608 61.1893C217.608 62.8676 217.105 64.2382 216.098 65.3011C215.147 66.364 213.86 66.9234 212.238 66.9794C210.336 67.0353 208.993 66.4759 208.21 65.3011C207.427 64.0703 207.035 62.9795 207.035 62.0284C207.035 61.5249 207.091 60.9655 207.203 60.3501C207.371 59.6788 207.595 59.0634 207.874 58.504C207.65 58.0005 207.175 57.5809 206.448 57.2453C205.72 56.8537 204.853 56.6579 203.846 56.6579C202.056 56.6579 200.574 57.2732 199.399 58.504C198.28 59.6788 197.385 61.1893 196.714 63.0354C196.098 64.8815 195.651 66.8395 195.371 68.9094C195.091 70.9234 194.923 72.7695 194.867 74.4478C194.756 77.4688 195.035 79.9023 195.707 81.7484C196.378 83.5945 197.273 84.9372 198.392 85.7763C199.511 86.6155 200.658 87.091 201.832 87.2029C202.895 87.2588 204.098 87.119 205.441 86.7833C206.783 86.3917 208.154 85.5805 209.553 84.3498C210.951 83.0631 212.21 81.1051 213.329 78.4757L218.112 80.8254C216.545 84.4617 214.783 87.3148 212.825 89.3847C210.867 91.3986 208.797 92.8252 206.616 93.6643C204.434 94.4475 202.168 94.8671 199.818 94.9231C194.895 94.8671 190.923 93.3566 187.903 90.3917C184.882 87.4267 183.371 82.8393 183.371 76.6296C183.371 73.9443 183.791 71.1192 184.63 68.1542C185.469 65.1892 186.728 62.42 188.406 59.8466C190.14 57.2732 192.294 55.1754 194.867 53.553C197.441 51.9307 200.49 51.1195 204.014 51.1195ZM255.269 94.9231C252.192 94.9231 250.094 94.0839 248.975 92.4056C247.857 90.7273 247.297 88.4057 247.297 85.4407C247.297 83.7624 247.409 81.8883 247.633 79.8184C247.857 77.6925 248.08 75.5387 248.304 73.3569C248.584 71.1751 248.836 69.1332 249.059 67.2311C249.283 65.2731 249.395 63.6508 249.395 62.3641C249.395 61.5249 249.311 60.8536 249.143 60.3501C248.975 59.7907 248.724 59.3991 248.388 59.1753C248.052 58.9515 247.605 58.8396 247.045 58.8396C246.038 58.8396 244.976 59.455 243.857 60.6858C242.794 61.9165 241.731 63.5948 240.668 65.7207C239.661 67.7906 238.738 70.1122 237.899 72.6856C237.116 75.2031 236.472 77.8044 235.969 80.4897C235.521 83.119 235.297 85.6085 235.297 87.9581C235.297 88.6854 235.325 89.7203 235.381 91.063C235.437 92.3497 235.493 93.3287 235.549 94L224.808 94C224.696 92.8252 224.612 92.014 224.556 91.5665C224.556 91.063 224.556 90.5315 224.556 89.9721C224.556 87.2309 224.612 84.3218 224.724 81.2449C224.836 78.1121 224.976 74.9793 225.144 71.8465C225.311 68.6577 225.507 65.5528 225.731 62.5319C225.955 59.511 226.179 56.6858 226.402 54.0565C226.682 51.4272 226.934 49.1055 227.158 47.0916C227.27 46.1405 227.409 44.8818 227.577 43.3154C227.801 41.749 228.025 40.4063 228.249 39.2875L222.374 39.5392L222.71 33.1617C225.339 33.1617 227.521 33.0218 229.255 32.7421C230.99 32.4624 232.36 32.1267 233.367 31.7351C234.374 31.3435 235.074 30.9799 235.465 30.6442L239.997 30.6442C239.829 32.2666 239.605 34.1966 239.325 36.4344C239.046 38.6721 238.766 40.8539 238.486 42.9797C238.262 45.0496 238.067 46.644 237.899 47.7629C237.843 48.2104 237.759 49.0216 237.647 50.1964C237.535 51.3153 237.367 52.6579 237.143 54.2243C236.92 55.7907 236.668 57.4131 236.388 59.0914C236.164 60.7137 235.885 62.2802 235.549 63.7906L235.633 63.7906C236.92 60.434 238.374 57.8327 239.997 55.9865C241.619 54.1404 243.297 52.8817 245.031 52.2104C246.766 51.4831 248.416 51.1195 249.982 51.1195C253.563 51.1195 256.164 52.2943 257.787 54.6439C259.409 56.9376 260.22 60.0704 260.22 64.0424C260.22 66.0563 260.052 68.2941 259.717 70.7556C259.381 73.2171 259.017 75.6786 258.626 78.1401C258.29 80.6016 258.122 82.8673 258.122 84.9372C258.122 85.8323 258.234 86.4197 258.458 86.6994C258.738 86.9791 259.045 87.119 259.381 87.119C259.996 87.119 260.64 86.6434 261.311 85.6924C261.982 84.7414 262.682 83.0071 263.409 80.4897L267.94 81.8323C267.716 83.0071 267.269 84.3498 266.598 85.8602C265.982 87.3707 265.143 88.8252 264.08 90.2238C263.017 91.5665 261.759 92.6853 260.304 93.5804C258.849 94.4755 257.171 94.9231 255.269 94.9231ZM301.776 94.8391L291.539 67.2311C291.147 66.1682 290.644 64.6577 290.028 62.6997C289.413 60.6858 288.797 58.476 288.182 56.0705C287.567 53.6649 287.035 51.3432 286.588 49.1055L286.504 49.1055C286.448 51.9586 286.364 54.6998 286.252 57.3292C286.196 59.9585 286.084 62.5319 285.916 65.0493L284.993 80.2379C284.937 81.7484 284.826 83.2029 284.658 84.6015C284.49 86.0001 284.35 87.063 284.238 87.7903C285.189 87.6784 286.336 87.6225 287.679 87.6225C289.077 87.5665 290.056 87.5385 290.616 87.5385L290.28 94L271.147 94L271.483 88.4616C272.77 88.4057 273.833 88.2378 274.672 87.9581C275.567 87.6784 276.266 87.0351 276.77 86.0281C277.273 85.0211 277.609 83.3987 277.777 81.161L279.958 49.0216C280.07 47.5111 280.182 46.0566 280.294 44.658C280.462 43.2594 280.602 42.1965 280.714 41.4693C279.819 41.5252 278.672 41.5812 277.273 41.6371C275.931 41.6371 274.952 41.6651 274.336 41.721L274.756 35.2596L292.714 35.2596L304.21 67.8185C305.161 70.3919 305.916 72.7975 306.476 75.0352C307.091 77.273 307.678 79.3988 308.238 81.4128L308.322 81.4128C309.105 79.4547 309.888 77.4967 310.671 75.5387C311.454 73.5807 312.21 71.7066 312.937 69.9164C314.559 66.0563 316.182 62.1962 317.804 58.3362C319.426 54.4761 321.021 50.644 322.587 46.8398C324.21 42.9797 325.832 39.1196 327.454 35.2596L347.006 35.2596L346.671 40.7979C345.44 40.8539 344.349 41.0217 343.398 41.3014C342.447 41.5811 341.692 42.2245 341.132 43.2315C340.629 44.1825 340.349 45.8049 340.293 48.0985L339.874 80.2379C339.874 81.7484 339.79 83.2029 339.622 84.6015C339.454 86.0001 339.286 87.063 339.118 87.7903C340.069 87.6784 341.216 87.6225 342.559 87.6225C343.958 87.5665 344.937 87.5385 345.496 87.5385L345.16 94L321.664 94L322 88.4616C323.286 88.4057 324.377 88.2378 325.272 87.9581C326.224 87.6784 326.951 87.035 327.454 86.0281C328.014 85.0211 328.293 83.3987 328.293 81.161L328.545 63.371C328.601 62.6997 328.629 61.5249 328.629 59.8466C328.629 58.1124 328.629 56.2383 328.629 54.2243C328.629 52.1544 328.629 50.2524 328.629 48.5181L328.545 48.5181L324.601 58.0844L309.329 94.8391L301.776 94.8391ZM376.211 51.1195C377.778 51.1195 379.596 51.2873 381.666 51.623C383.792 51.9027 386.002 52.3223 388.295 52.8817C388.015 54.9516 387.652 57.497 387.204 60.5179C386.757 63.5389 386.309 66.6437 385.862 69.8325C385.47 72.9653 385.134 75.8744 384.855 78.5596C384.575 81.189 384.435 83.2309 384.435 84.6854C384.435 85.6924 384.547 86.3637 384.771 86.6994C385.05 86.9791 385.33 87.119 385.61 87.119C386.281 87.119 386.981 86.6434 387.708 85.6924C388.435 84.7414 389.162 83.0071 389.89 80.4897L394.421 81.8323C394.197 83.0071 393.806 84.3498 393.246 85.8602C392.687 87.3707 391.932 88.8252 390.98 90.2238C390.085 91.5665 388.939 92.6853 387.54 93.5804C386.197 94.4755 384.603 94.923 382.757 94.923C380.967 94.923 379.4 94.3916 378.058 93.3287C376.715 92.2657 376.044 90.2518 376.044 87.2868C376.044 86.5595 376.072 85.7484 376.128 84.8533C376.183 83.9582 376.267 83.147 376.379 82.4197L376.295 82.4197C375.288 84.8253 374.197 86.8392 373.023 88.4616C371.904 90.084 370.729 91.3707 369.498 92.3217C368.323 93.2727 367.093 93.944 365.806 94.3356C364.575 94.7272 363.317 94.923 362.03 94.923C358.953 94.923 356.324 93.6923 354.142 91.2308C351.96 88.7133 350.869 84.8533 350.869 79.6505C350.869 75.7905 351.429 72.1541 352.547 68.7416C353.666 65.3291 355.317 62.3081 357.498 59.6788C359.68 56.9935 362.338 54.8956 365.47 53.3852C368.603 51.8747 372.184 51.1195 376.211 51.1195ZM373.107 56.6579C371.54 56.6579 370.086 57.1613 368.743 58.1683C367.456 59.1753 366.309 60.6578 365.303 62.6158C364.351 64.5738 363.624 67.0074 363.121 69.9164C362.617 72.8255 362.365 76.21 362.365 80.0701C362.365 82.3638 362.645 84.1819 363.205 85.5246C363.764 86.8113 364.547 87.4546 365.554 87.4546C366.785 87.4546 367.932 86.8392 368.995 85.6085C370.058 84.3218 371.009 82.6155 371.848 80.4897C372.743 78.3079 373.498 75.9023 374.114 73.273C374.785 70.5877 375.316 67.8745 375.708 65.1333C376.156 62.3361 376.435 59.6788 376.547 57.1613C376.267 57.0495 375.764 56.9376 375.037 56.8257C374.365 56.7138 373.722 56.6579 373.107 56.6579ZM397.176 115.398L397.176 109.944C398.574 109.944 399.609 109.608 400.281 108.937C401.008 108.321 401.511 107.426 401.791 106.252C402.127 105.133 402.351 103.846 402.462 102.391C403.078 95.8461 403.581 90.1958 403.973 85.4407C404.364 80.6295 404.644 76.6016 404.812 73.3569C405.036 70.1122 405.176 67.5388 405.232 65.6367C405.343 63.6787 405.399 62.2522 405.399 61.3571C405.399 60.3501 405.26 59.7068 404.98 59.427C404.756 59.0914 404.476 58.9236 404.141 58.9236C403.525 58.9236 402.882 59.3991 402.211 60.3501C401.539 61.3011 400.84 63.0354 400.113 65.5528L395.581 64.2102C395.805 63.0354 396.169 61.6927 396.672 60.1823C397.176 58.6718 397.875 57.2453 398.77 55.9026C399.665 54.504 400.756 53.3572 402.043 52.4621C403.385 51.567 404.98 51.1195 406.826 51.1195C408.616 51.1195 410.211 51.6509 411.609 52.7139C413.008 53.7768 413.707 55.7907 413.707 58.7557C413.707 59.8186 413.679 60.6858 413.623 61.3571C413.567 62.0284 413.483 62.8396 413.371 63.7906L413.455 63.7906C414.798 60.434 416.28 57.8327 417.903 55.9865C419.581 54.1404 421.287 52.8817 423.022 52.2104C424.756 51.4831 426.35 51.1195 427.805 51.1195C430.49 51.1195 432.756 51.7908 434.602 53.1334C436.448 54.4761 437.847 56.3502 438.798 58.7557C439.749 61.1613 440.224 63.9584 440.224 67.1472C440.224 72.4618 439.357 77.217 437.623 81.4127C435.944 85.6085 433.343 88.9091 429.819 91.3147C426.35 93.7203 421.931 94.923 416.56 94.923C416.28 94.923 415.861 94.923 415.301 94.923C414.798 94.923 414.322 94.8951 413.875 94.8391C413.763 97.5244 413.651 99.7621 413.539 101.552C413.427 103.398 413.315 104.909 413.204 106.084C413.092 107.314 412.98 108.377 412.868 109.272C413.763 109.161 414.77 109.077 415.889 109.021C417.008 109.021 417.847 109.021 418.406 109.021L418.406 115.398L397.176 115.398ZM417.567 89.3847C419.469 89.3847 421.064 88.8532 422.35 87.7903C423.693 86.6714 424.784 85.2449 425.623 83.5106C426.462 81.7764 427.105 79.9023 427.553 77.8883C428.056 75.8744 428.392 73.9443 428.56 72.0982C428.728 70.1961 428.812 68.5738 428.812 67.2311C428.812 65.1612 428.644 63.5109 428.308 62.2801C427.973 61.0494 427.497 60.1543 426.882 59.5949C426.266 59.0354 425.539 58.7557 424.7 58.7557C423.581 58.7557 422.518 59.2033 421.511 60.0984C420.56 60.9935 419.665 62.3361 418.826 64.1263C418.043 65.9165 417.343 68.1262 416.728 70.7556C416.113 73.3849 415.581 76.4338 415.134 79.9023C414.966 81.3009 414.798 82.7554 414.63 84.2659C414.462 85.7204 414.322 87.2588 414.21 88.8812C414.826 89.049 415.441 89.1889 416.057 89.3007C416.728 89.3567 417.231 89.3847 417.567 89.3847Z" fill="white"/>
<path d="M36.517 184.693L36.517 217L32.7967 217L32.7967 196.686L33.2373 188.168L33.1883 188.168L22.5661 217L19.2375 217L8.61526 188.168L8.56631 188.168L9.00687 196.686L9.00687 217L5.28664 217L5.28664 184.693L11.3075 184.693L18.4053 204.322L20.8529 212.399L20.9508 212.399L23.4472 204.371L30.4961 184.693L36.517 184.693ZM59.1152 201.189C59.1152 199.362 58.6257 197.958 57.6467 196.979C56.6677 195.968 55.2808 195.462 53.4859 195.462C51.789 195.462 50.3531 195.837 49.1783 196.588C48.0035 197.306 47.1387 198.48 46.5839 200.112L43.4021 198.154C44.0548 196.327 45.2623 194.858 47.0245 193.749C48.7867 192.606 50.9731 192.035 53.5838 192.035C55.346 192.035 56.9451 192.345 58.381 192.965C59.8168 193.553 60.9427 194.467 61.7585 195.707C62.607 196.914 63.0312 198.48 63.0312 200.406L63.0312 212.252C63.0312 213.427 63.6513 214.014 64.8913 214.014C65.5114 214.014 66.1151 213.932 66.7025 213.769L66.5067 216.853C65.854 217.179 65.0056 217.343 63.9613 217.343C63.0149 217.343 62.1664 217.163 61.4159 216.804C60.6653 216.445 60.0779 215.907 59.6537 215.189C59.2294 214.438 59.0173 213.508 59.0173 212.399L59.0173 211.909L59.9963 212.056C59.6047 213.329 58.9357 214.373 57.9893 215.189C57.043 215.972 55.9824 216.559 54.8076 216.951C53.6328 217.31 52.4743 217.49 51.3321 217.49C49.8962 217.49 48.5582 217.245 47.3182 216.755C46.0781 216.266 45.0828 215.531 44.3322 214.552C43.6143 213.541 43.2553 212.301 43.2553 210.832C43.2553 209.005 43.859 207.504 45.0665 206.329C46.3065 205.121 48.0198 204.306 50.2062 203.881L59.8984 201.972L59.8984 205.203L52.0174 206.818C50.4184 207.145 49.2272 207.602 48.444 208.189C47.6608 208.776 47.2692 209.592 47.2692 210.636C47.2692 211.648 47.6608 212.48 48.444 213.133C49.2599 213.753 50.402 214.063 51.8706 214.063C52.8169 214.063 53.7144 213.949 54.5628 213.72C55.4439 213.459 56.2271 213.084 56.9124 212.594C57.5977 212.072 58.1362 211.436 58.5278 210.685C58.9194 209.902 59.1152 208.988 59.1152 207.944L59.1152 201.189ZM92.8129 192.525L82.2397 203.098L81.3096 204.028L73.2817 212.056L73.2817 207.161L87.869 192.525L92.8129 192.525ZM75.2398 181.266L75.2398 217L71.3237 217L71.3237 181.266L75.2398 181.266ZM82.5823 201.091L93.4003 217L88.6522 217L79.3026 203.294L82.5823 201.091ZM99.8316 187.826C98.9505 187.826 98.2325 187.565 97.6778 187.042C97.1556 186.488 96.8946 185.77 96.8946 184.889C96.8946 184.007 97.1556 183.306 97.6778 182.784C98.2325 182.229 98.9505 181.952 99.8316 181.952C100.713 181.952 101.414 182.229 101.936 182.784C102.491 183.306 102.769 184.007 102.769 184.889C102.769 185.77 102.491 186.488 101.936 187.042C101.414 187.565 100.713 187.826 99.8316 187.826ZM101.79 192.525L101.79 217L97.8736 217L97.8736 192.525L101.79 192.525ZM109.652 217L109.652 192.525L113.079 192.525L113.421 198.007L112.785 197.469C113.307 196.163 114.009 195.119 114.89 194.336C115.771 193.52 116.783 192.933 117.925 192.574C119.1 192.215 120.307 192.035 121.547 192.035C123.309 192.035 124.908 192.378 126.344 193.063C127.78 193.716 128.922 194.728 129.771 196.098C130.652 197.469 131.092 199.215 131.092 201.336L131.092 217L127.176 217L127.176 202.706C127.176 199.998 126.589 198.121 125.414 197.077C124.272 196 122.853 195.462 121.156 195.462C119.981 195.462 118.806 195.739 117.631 196.294C116.456 196.849 115.477 197.746 114.694 198.986C113.944 200.226 113.568 201.891 113.568 203.979L113.568 217L109.652 217ZM159.344 188.021L160.225 191.497C160.192 191.497 160.143 191.497 160.078 191.497C160.013 191.497 159.947 191.497 159.882 191.497C158.283 191.497 157.043 191.823 156.162 192.476C155.313 193.096 154.889 194.108 154.889 195.511L152.491 194.287C152.491 193.014 152.784 191.905 153.372 190.958C153.959 190.012 154.759 189.294 155.77 188.805C156.782 188.282 157.892 188.021 159.099 188.021C159.132 188.021 159.164 188.021 159.197 188.021C159.262 188.021 159.311 188.021 159.344 188.021ZM151.903 213.867C154.22 213.867 156.031 214.406 157.337 215.483C158.642 216.527 159.295 217.93 159.295 219.692C159.295 221.291 158.756 222.678 157.679 223.853C156.635 225.028 155.216 225.925 153.421 226.545C151.659 227.198 149.668 227.524 147.449 227.524C143.598 227.524 140.71 226.872 138.785 225.566C136.892 224.261 135.945 222.695 135.945 220.867C135.945 219.562 136.37 218.387 137.218 217.343C138.099 216.331 139.568 215.76 141.624 215.629L141.281 216.364C140.172 216.07 139.225 215.58 138.442 214.895C137.691 214.177 137.316 213.149 137.316 211.811C137.316 210.473 137.806 209.331 138.785 208.385C139.796 207.406 141.281 206.802 143.239 206.574L145.833 207.895L145.344 207.895C143.745 208.058 142.603 208.466 141.917 209.119C141.265 209.739 140.938 210.424 140.938 211.175C140.938 212.089 141.265 212.774 141.917 213.231C142.603 213.655 143.549 213.867 144.757 213.867L151.903 213.867ZM147.4 224.245C149.293 224.245 150.843 224.049 152.05 223.657C153.29 223.266 154.204 222.76 154.791 222.14C155.379 221.52 155.672 220.851 155.672 220.133C155.672 219.252 155.313 218.55 154.596 218.028C153.91 217.506 152.654 217.245 150.826 217.245L143.288 217.245C142.244 217.245 141.363 217.506 140.645 218.028C139.927 218.583 139.568 219.333 139.568 220.28C139.568 221.487 140.253 222.45 141.624 223.168C143.027 223.886 144.952 224.245 147.4 224.245ZM147.057 192.035C149.015 192.035 150.745 192.394 152.246 193.112C153.78 193.798 154.971 194.76 155.819 196C156.668 197.24 157.092 198.676 157.092 200.308C157.092 201.907 156.668 203.343 155.819 204.616C154.971 205.856 153.78 206.835 152.246 207.553C150.745 208.238 149.015 208.581 147.057 208.581C143.826 208.581 141.346 207.814 139.617 206.28C137.887 204.713 137.022 202.723 137.022 200.308C137.022 198.676 137.447 197.24 138.295 196C139.176 194.76 140.367 193.798 141.868 193.112C143.37 192.394 145.099 192.035 147.057 192.035ZM147.057 195.217C145.36 195.217 143.941 195.69 142.799 196.637C141.656 197.55 141.085 198.774 141.085 200.308C141.085 201.809 141.656 203.033 142.799 203.979C143.941 204.926 145.36 205.399 147.057 205.399C148.754 205.399 150.174 204.926 151.316 203.979C152.458 203.033 153.029 201.809 153.029 200.308C153.029 198.774 152.458 197.55 151.316 196.637C150.174 195.69 148.754 195.217 147.057 195.217ZM183.844 185.574L183.844 210.245C183.844 211.452 184.187 212.35 184.872 212.937C185.557 213.525 186.439 213.818 187.515 213.818C188.462 213.818 189.278 213.655 189.963 213.329C190.648 213.002 191.268 212.562 191.823 212.007L193.194 215.287C192.443 215.972 191.546 216.51 190.501 216.902C189.49 217.294 188.315 217.489 186.977 217.489C185.737 217.489 184.578 217.277 183.502 216.853C182.425 216.396 181.56 215.695 180.907 214.748C180.287 213.769 179.961 212.497 179.928 210.93L179.928 186.651L183.844 185.574ZM192.753 192.525L192.753 195.902L175.033 195.902L175.033 192.525L192.753 192.525ZM197.352 217L197.352 181.266L201.268 181.266L201.268 196.196C202.116 194.728 203.242 193.667 204.645 193.014C206.049 192.362 207.582 192.035 209.247 192.035C211.009 192.035 212.608 192.378 214.044 193.063C215.48 193.716 216.622 194.728 217.47 196.098C218.351 197.469 218.792 199.215 218.792 201.336L218.792 217L214.876 217L214.876 202.706C214.876 199.998 214.289 198.121 213.114 197.077C211.972 196 210.552 195.462 208.855 195.462C207.68 195.462 206.505 195.739 205.331 196.294C204.156 196.849 203.177 197.763 202.394 199.035C201.643 200.275 201.268 201.94 201.268 204.028L201.268 217L197.352 217ZM236.666 217.489C234.349 217.489 232.277 216.984 230.449 215.972C228.654 214.96 227.251 213.508 226.239 211.615C225.228 209.69 224.722 207.406 224.722 204.762C224.722 202.119 225.228 199.851 226.239 197.958C227.251 196.033 228.638 194.564 230.4 193.553C232.162 192.541 234.169 192.035 236.421 192.035C238.705 192.035 240.647 192.525 242.246 193.504C243.878 194.483 245.118 195.821 245.966 197.518C246.815 199.182 247.239 201.058 247.239 203.147C247.239 203.702 247.223 204.208 247.19 204.664C247.157 205.121 247.109 205.529 247.043 205.888L227.267 205.888L227.267 202.413L245.33 202.413L243.323 202.804C243.323 200.455 242.67 198.644 241.365 197.371C240.092 196.098 238.412 195.462 236.323 195.462C234.724 195.462 233.337 195.837 232.162 196.588C231.02 197.306 230.123 198.366 229.47 199.769C228.85 201.14 228.54 202.804 228.54 204.762C228.54 206.688 228.866 208.352 229.519 209.755C230.172 211.159 231.085 212.235 232.26 212.986C233.468 213.704 234.904 214.063 236.568 214.063C238.363 214.063 239.815 213.72 240.924 213.035C242.067 212.35 242.98 211.42 243.666 210.245L246.75 212.056C246.13 213.166 245.33 214.128 244.351 214.944C243.405 215.76 242.279 216.396 240.973 216.853C239.701 217.277 238.265 217.489 236.666 217.489ZM298.515 192.525L302.872 192.525L294.354 217L290.438 217L283.536 197.518L277.026 217L273.11 217L264.592 192.525L268.949 192.525L275.117 212.448L281.774 192.525L285.69 192.525L292.347 212.448L298.515 192.525ZM316.887 192.035C319.204 192.035 321.243 192.541 323.005 193.553C324.8 194.564 326.204 196.033 327.215 197.958C328.227 199.851 328.733 202.119 328.733 204.762C328.733 207.406 328.227 209.69 327.215 211.615C326.204 213.508 324.8 214.96 323.005 215.972C321.243 216.984 319.204 217.489 316.887 217.489C314.602 217.489 312.563 216.984 310.768 215.972C308.973 214.96 307.57 213.508 306.558 211.615C305.546 209.69 305.041 207.406 305.041 204.762C305.041 202.119 305.546 199.851 306.558 197.958C307.57 196.033 308.973 194.564 310.768 193.553C312.563 192.541 314.602 192.035 316.887 192.035ZM316.887 195.413C315.222 195.413 313.803 195.788 312.628 196.539C311.453 197.289 310.539 198.366 309.887 199.769C309.267 201.14 308.957 202.804 308.957 204.762C308.957 206.688 309.267 208.352 309.887 209.755C310.539 211.159 311.453 212.235 312.628 212.986C313.803 213.737 315.222 214.112 316.887 214.112C318.551 214.112 319.97 213.737 321.145 212.986C322.32 212.235 323.218 211.159 323.838 209.755C324.49 208.352 324.817 206.688 324.817 204.762C324.817 202.804 324.49 201.14 323.838 199.769C323.218 198.366 322.32 197.289 321.145 196.539C319.97 195.788 318.551 195.413 316.887 195.413ZM334.881 217L334.881 192.525L338.063 192.525L338.601 196.539C339.287 195.038 340.282 193.912 341.587 193.161C342.925 192.411 344.541 192.035 346.434 192.035C346.858 192.035 347.315 192.068 347.804 192.133C348.326 192.198 348.767 192.329 349.126 192.525L348.44 196.098C348.082 195.968 347.69 195.87 347.266 195.804C346.841 195.739 346.238 195.707 345.455 195.707C344.443 195.707 343.415 196 342.371 196.588C341.359 197.175 340.511 198.073 339.825 199.28C339.14 200.455 338.797 201.956 338.797 203.783L338.797 217L334.881 217ZM357.359 181.266L357.359 210.783C357.359 212.023 357.588 212.888 358.045 213.378C358.502 213.835 359.236 214.063 360.247 214.063C360.9 214.063 361.439 214.014 361.863 213.916C362.287 213.818 362.858 213.639 363.576 213.378L362.94 216.804C362.418 217.033 361.847 217.196 361.226 217.294C360.606 217.424 359.97 217.489 359.317 217.489C357.327 217.489 355.842 216.951 354.863 215.874C353.917 214.797 353.443 213.149 353.443 210.93L353.443 181.266L357.359 181.266ZM376.923 217.489C374.9 217.489 373.04 216.984 371.343 215.972C369.646 214.96 368.292 213.508 367.28 211.615C366.268 209.69 365.762 207.406 365.762 204.762C365.762 202.054 366.301 199.753 367.378 197.86C368.455 195.968 369.874 194.532 371.636 193.553C373.399 192.541 375.291 192.035 377.315 192.035C379.338 192.035 381.084 192.557 382.552 193.602C384.054 194.646 385.049 196.033 385.538 197.762L385.049 198.105L385.049 181.266L388.965 181.266L388.965 217L385.538 217L385.196 211.077L385.734 210.783C385.506 212.219 384.951 213.443 384.07 214.455C383.221 215.434 382.161 216.184 380.888 216.706C379.648 217.228 378.326 217.489 376.923 217.489ZM377.315 214.063C378.881 214.063 380.235 213.671 381.378 212.888C382.552 212.105 383.45 210.995 384.07 209.56C384.723 208.091 385.049 206.378 385.049 204.42C385.049 202.56 384.723 200.961 384.07 199.623C383.45 198.285 382.569 197.257 381.427 196.539C380.317 195.821 379.012 195.462 377.51 195.462C375.03 195.462 373.105 196.31 371.734 198.007C370.364 199.704 369.678 201.956 369.678 204.762C369.678 207.569 370.347 209.821 371.685 211.518C373.023 213.214 374.9 214.063 377.315 214.063ZM426.597 201.189C426.597 199.362 426.107 197.958 425.128 196.979C424.149 195.968 422.762 195.462 420.967 195.462C419.27 195.462 417.835 195.837 416.66 196.588C415.485 197.306 414.62 198.48 414.065 200.112L410.884 198.154C411.536 196.327 412.744 194.858 414.506 193.749C416.268 192.606 418.455 192.035 421.065 192.035C422.827 192.035 424.426 192.345 425.862 192.965C427.298 193.553 428.424 194.466 429.24 195.707C430.088 196.914 430.513 198.48 430.513 200.406L430.513 212.252C430.513 213.427 431.133 214.014 432.373 214.014C432.993 214.014 433.597 213.932 434.184 213.769L433.988 216.853C433.335 217.179 432.487 217.343 431.443 217.343C430.496 217.343 429.648 217.163 428.897 216.804C428.147 216.445 427.559 215.907 427.135 215.189C426.711 214.438 426.499 213.508 426.499 212.399L426.499 211.909L427.478 212.056C427.086 213.329 426.417 214.373 425.471 215.189C424.524 215.972 423.464 216.559 422.289 216.951C421.114 217.31 419.956 217.489 418.814 217.489C417.378 217.489 416.04 217.245 414.8 216.755C413.56 216.266 412.564 215.531 411.814 214.552C411.096 213.541 410.737 212.301 410.737 210.832C410.737 209.005 411.34 207.504 412.548 206.329C413.788 205.121 415.501 204.306 417.688 203.881L427.38 201.972L427.38 205.203L419.499 206.818C417.9 207.145 416.709 207.602 415.925 208.189C415.142 208.776 414.751 209.592 414.751 210.636C414.751 211.648 415.142 212.48 415.925 213.133C416.741 213.753 417.883 214.063 419.352 214.063C420.298 214.063 421.196 213.949 422.044 213.72C422.925 213.459 423.709 213.084 424.394 212.594C425.079 212.072 425.618 211.436 426.009 210.685C426.401 209.902 426.597 208.988 426.597 207.944L426.597 201.189ZM465.11 217.489C463.74 217.489 462.467 217.245 461.292 216.755C460.117 216.266 459.106 215.58 458.257 214.699C457.409 213.818 456.772 212.823 456.348 211.713L456.887 211.028L456.544 217L453.117 217L453.117 181.266L457.033 181.266L457.033 198.056L456.544 197.322C457.197 195.788 458.29 194.532 459.824 193.553C461.39 192.541 463.169 192.035 465.159 192.035C467.182 192.035 469.043 192.541 470.74 193.553C472.436 194.564 473.791 196.017 474.802 197.909C475.814 199.802 476.32 202.086 476.32 204.762C476.32 207.406 475.798 209.69 474.753 211.615C473.742 213.508 472.388 214.96 470.691 215.972C468.994 216.984 467.134 217.489 465.11 217.489ZM464.719 214.063C467.134 214.063 469.01 213.214 470.348 211.518C471.719 209.821 472.404 207.569 472.404 204.762C472.404 201.956 471.735 199.704 470.397 198.007C469.059 196.31 467.182 195.462 464.768 195.462C463.234 195.462 461.88 195.853 460.705 196.637C459.563 197.42 458.665 198.513 458.012 199.916C457.36 201.32 457.033 202.968 457.033 204.86C457.033 206.72 457.343 208.352 457.963 209.755C458.616 211.126 459.514 212.187 460.656 212.937C461.831 213.688 463.185 214.063 464.719 214.063ZM492.814 217.489C490.497 217.489 488.425 216.984 486.597 215.972C484.802 214.96 483.399 213.508 482.387 211.615C481.376 209.69 480.87 207.406 480.87 204.762C480.87 202.119 481.376 199.851 482.387 197.958C483.399 196.033 484.786 194.564 486.548 193.553C488.31 192.541 490.317 192.035 492.569 192.035C494.853 192.035 496.795 192.525 498.394 193.504C500.026 194.483 501.266 195.821 502.114 197.518C502.963 199.182 503.387 201.058 503.387 203.147C503.387 203.702 503.371 204.208 503.338 204.664C503.306 205.121 503.257 205.529 503.191 205.888L483.415 205.888L483.415 202.413L501.478 202.413L499.471 202.804C499.471 200.455 498.818 198.644 497.513 197.371C496.24 196.098 494.56 195.462 492.471 195.462C490.872 195.462 489.485 195.837 488.31 196.588C487.168 197.306 486.271 198.366 485.618 199.769C484.998 201.14 484.688 202.804 484.688 204.762C484.688 206.688 485.014 208.352 485.667 209.755C486.32 211.159 487.233 212.235 488.408 212.986C489.616 213.704 491.052 214.063 492.716 214.063C494.511 214.063 495.963 213.72 497.073 213.035C498.215 212.35 499.128 211.42 499.814 210.245L502.898 212.056C502.278 213.166 501.478 214.128 500.499 214.944C499.553 215.76 498.427 216.396 497.121 216.853C495.849 217.277 494.413 217.489 492.814 217.489ZM514.67 185.574L514.67 210.245C514.67 211.452 515.013 212.35 515.698 212.937C516.383 213.525 517.265 213.818 518.341 213.818C519.288 213.818 520.104 213.655 520.789 213.329C521.474 213.002 522.094 212.562 522.649 212.007L524.02 215.287C523.269 215.972 522.372 216.51 521.327 216.902C520.316 217.294 519.141 217.489 517.803 217.489C516.563 217.489 515.404 217.277 514.328 216.853C513.251 216.396 512.386 215.695 511.733 214.748C511.113 213.769 510.787 212.497 510.754 210.93L510.754 186.651L514.67 185.574ZM523.579 192.525L523.579 195.902L505.859 195.902L505.859 192.525L523.579 192.525ZM530.799 185.574L530.799 210.245C530.799 211.452 531.142 212.35 531.827 212.937C532.512 213.525 533.393 213.818 534.47 213.818C535.417 213.818 536.232 213.655 536.918 213.329C537.603 213.002 538.223 212.562 538.778 212.007L540.148 215.287C539.398 215.972 538.5 216.51 537.456 216.902C536.445 217.294 535.27 217.489 533.932 217.489C532.692 217.489 531.533 217.277 530.456 216.853C529.379 216.396 528.515 215.695 527.862 214.748C527.242 213.769 526.916 212.497 526.883 210.93L526.883 186.651L530.799 185.574ZM539.708 192.525L539.708 195.902L521.988 195.902L521.988 192.525L539.708 192.525ZM554.537 217.489C552.22 217.489 550.148 216.984 548.32 215.972C546.526 214.96 545.122 213.508 544.111 211.615C543.099 209.69 542.593 207.406 542.593 204.762C542.593 202.119 543.099 199.851 544.111 197.958C545.122 196.033 546.509 194.564 548.272 193.553C550.034 192.541 552.041 192.035 554.292 192.035C556.577 192.035 558.518 192.525 560.118 193.504C561.749 194.483 562.989 195.821 563.838 197.518C564.686 199.182 565.11 201.058 565.11 203.147C565.11 203.702 565.094 204.208 565.061 204.664C565.029 205.121 564.98 205.529 564.915 205.888L545.139 205.888L545.139 202.413L563.201 202.413L561.194 202.804C561.194 200.455 560.542 198.644 559.236 197.371C557.964 196.098 556.283 195.462 554.195 195.462C552.595 195.462 551.209 195.837 550.034 196.588C548.892 197.306 547.994 198.366 547.341 199.769C546.721 201.14 546.411 202.804 546.411 204.762C546.411 206.688 546.738 208.352 547.39 209.755C548.043 211.159 548.957 212.235 550.132 212.986C551.339 213.704 552.775 214.063 554.439 214.063C556.234 214.063 557.686 213.72 558.796 213.035C559.938 212.35 560.852 211.42 561.537 210.245L564.621 212.056C564.001 213.166 563.201 214.128 562.222 214.944C561.276 215.76 560.15 216.396 558.845 216.853C557.572 217.277 556.136 217.489 554.537 217.489ZM571.334 217L571.334 192.525L574.516 192.525L575.055 196.539C575.74 195.038 576.735 193.912 578.041 193.161C579.379 192.411 580.994 192.035 582.887 192.035C583.311 192.035 583.768 192.068 584.257 192.133C584.779 192.198 585.22 192.329 585.579 192.525L584.894 196.098C584.535 195.968 584.143 195.87 583.719 195.804C583.295 195.739 582.691 195.707 581.908 195.707C580.896 195.707 579.868 196 578.824 196.588C577.812 197.175 576.964 198.073 576.278 199.28C575.593 200.455 575.25 201.956 575.25 203.783L575.25 217L571.334 217ZM4.55239 300.28L4.55239 265.525L7.97891 265.525L8.32157 271.497L7.78311 270.811C8.20735 269.669 8.8437 268.674 9.69218 267.825C10.5406 266.944 11.5686 266.259 12.776 265.77C13.9835 265.28 15.2888 265.035 16.6921 265.035C18.6827 265.035 20.5102 265.541 22.1745 266.553C23.8715 267.564 25.2258 269.017 26.2374 270.909C27.249 272.802 27.7549 275.086 27.7549 277.762C27.7549 280.406 27.2327 282.69 26.1884 284.615C25.1768 286.508 23.8225 287.96 22.1256 288.972C20.4286 289.984 18.5685 290.49 16.5452 290.49C14.5219 290.49 12.7434 290 11.2096 289.021C9.70849 288.009 8.63159 286.737 7.97891 285.203L8.46842 284.469L8.46842 300.28L4.55239 300.28ZM16.1536 287.063C18.5685 287.063 20.4449 286.215 21.7829 284.518C23.1535 282.821 23.8388 280.569 23.8388 277.762C23.8388 274.956 23.1698 272.704 21.8319 271.007C20.5265 269.31 18.6827 268.462 16.3005 268.462C14.7341 268.462 13.3635 268.853 12.1886 269.637C11.0138 270.387 10.1001 271.464 9.44742 272.867C8.79475 274.238 8.46842 275.87 8.46842 277.762C8.46842 279.623 8.77844 281.254 9.39847 282.657C10.0511 284.061 10.9486 285.154 12.0907 285.937C13.2656 286.688 14.6198 287.063 16.1536 287.063ZM37.7384 254.266L37.7384 283.783C37.7384 285.023 37.9669 285.888 38.4237 286.378C38.8806 286.835 39.6149 287.063 40.6265 287.063C41.2792 287.063 41.8176 287.014 42.2419 286.916C42.6661 286.818 43.2372 286.639 43.9551 286.378L43.3188 289.804C42.7966 290.033 42.2256 290.196 41.6055 290.294C40.9855 290.424 40.3491 290.49 39.6965 290.49C37.7058 290.49 36.221 289.951 35.242 288.874C34.2956 287.797 33.8224 286.149 33.8224 283.93L33.8224 254.266L37.7384 254.266ZM62.0503 274.189C62.0503 272.362 61.5608 270.958 60.5818 269.979C59.6028 268.968 58.2159 268.462 56.421 268.462C54.7241 268.462 53.2882 268.837 52.1134 269.588C50.9386 270.306 50.0738 271.48 49.519 273.112L46.3373 271.154C46.9899 269.327 48.1974 267.858 49.9596 266.749C51.7218 265.606 53.9082 265.035 56.5189 265.035C58.2811 265.035 59.8802 265.345 61.3161 265.965C62.7519 266.553 63.8778 267.467 64.6936 268.707C65.5421 269.914 65.9663 271.48 65.9663 273.406L65.9663 285.252C65.9663 286.427 66.5864 287.014 67.8265 287.014C68.4465 287.014 69.0502 286.932 69.6376 286.769L69.4418 289.853C68.7892 290.179 67.9407 290.343 66.8964 290.343C65.95 290.343 65.1016 290.163 64.351 289.804C63.6004 289.445 63.013 288.907 62.5888 288.189C62.1645 287.438 61.9524 286.508 61.9524 285.399L61.9524 284.909L62.9314 285.056C62.5398 286.329 61.8708 287.373 60.9245 288.189C59.9781 288.972 58.9175 289.559 57.7427 289.951C56.5679 290.31 55.4094 290.49 54.2672 290.49C52.8313 290.49 51.4934 290.245 50.2533 289.755C49.0132 289.266 48.0179 288.531 47.2673 287.552C46.5494 286.541 46.1904 285.301 46.1904 283.832C46.1904 282.005 46.7941 280.504 48.0016 279.329C49.2416 278.121 50.9549 277.306 53.1414 276.881L62.8335 274.972L62.8335 278.203L54.9525 279.818C53.3535 280.145 52.1623 280.602 51.3791 281.189C50.5959 281.776 50.2043 282.592 50.2043 283.636C50.2043 284.648 50.5959 285.48 51.3791 286.133C52.195 286.753 53.3372 287.063 54.8057 287.063C55.752 287.063 56.6495 286.949 57.4979 286.72C58.379 286.459 59.1622 286.084 59.8476 285.594C60.5329 285.072 61.0713 284.436 61.4629 283.685C61.8545 282.902 62.0503 281.988 62.0503 280.944L62.0503 274.189ZM84.3916 265.035C86.0885 265.035 87.5733 265.296 88.846 265.819C90.1514 266.341 91.2772 267.091 92.2236 268.07C93.17 269.049 93.9369 270.208 94.5243 271.546L90.8041 273.308C90.2819 271.742 89.4824 270.55 88.4055 269.735C87.3612 268.886 85.9906 268.462 84.2937 268.462C82.662 268.462 81.2587 268.837 80.0839 269.588C78.9091 270.306 78.0117 271.366 77.3917 272.769C76.7716 274.14 76.4616 275.804 76.4616 277.762C76.4616 279.688 76.7716 281.352 77.3917 282.755C78.0117 284.159 78.9091 285.235 80.0839 285.986C81.2587 286.704 82.662 287.063 84.2937 287.063C85.5664 287.063 86.6596 286.867 87.5733 286.476C88.5197 286.084 89.2866 285.513 89.874 284.762C90.494 284.012 90.9183 283.098 91.1467 282.021L94.769 283.294C94.2143 284.795 93.4474 286.084 92.4684 287.161C91.522 288.238 90.3635 289.07 88.9929 289.657C87.6549 290.212 86.1211 290.489 84.3916 290.489C82.1072 290.49 80.0676 289.984 78.2728 288.972C76.4779 287.96 75.0747 286.508 74.063 284.615C73.0514 282.69 72.5456 280.406 72.5456 277.762C72.5456 275.119 73.0514 272.851 74.063 270.958C75.0747 269.033 76.4779 267.564 78.2728 266.553C80.0676 265.541 82.1072 265.035 84.3916 265.035ZM110.657 290.489C108.34 290.489 106.268 289.984 104.44 288.972C102.645 287.96 101.242 286.508 100.23 284.615C99.2188 282.69 98.713 280.406 98.713 277.762C98.713 275.119 99.2188 272.851 100.23 270.958C101.242 269.033 102.629 267.564 104.391 266.553C106.153 265.541 108.16 265.035 110.412 265.035C112.696 265.035 114.638 265.525 116.237 266.504C117.869 267.483 119.109 268.821 119.957 270.518C120.806 272.182 121.23 274.058 121.23 276.147C121.23 276.702 121.214 277.208 121.181 277.665C121.149 278.121 121.1 278.529 121.034 278.888L101.258 278.888L101.258 275.413L119.321 275.413L117.314 275.804C117.314 273.455 116.661 271.644 115.356 270.371C114.083 269.098 112.403 268.462 110.314 268.462C108.715 268.462 107.328 268.837 106.153 269.588C105.011 270.306 104.114 271.366 103.461 272.769C102.841 274.14 102.531 275.804 102.531 277.762C102.531 279.688 102.857 281.352 103.51 282.755C104.163 284.159 105.077 285.235 106.251 285.986C107.459 286.704 108.895 287.063 110.559 287.063C112.354 287.063 113.806 286.72 114.916 286.035C116.058 285.35 116.971 284.42 117.657 283.245L120.741 285.056C120.121 286.166 119.321 287.128 118.342 287.944C117.396 288.76 116.27 289.396 114.965 289.853C113.692 290.277 112.256 290.489 110.657 290.489ZM129.412 284.126C130.195 284.126 130.848 284.338 131.37 284.762C131.925 285.154 132.349 285.709 132.643 286.427C132.937 287.112 133.083 287.928 133.083 288.874C133.083 289.951 132.888 291.012 132.496 292.056C132.137 293.1 131.566 294.063 130.783 294.944C130 295.825 128.988 296.559 127.748 297.147L125.692 295.238C126.573 294.944 127.34 294.536 127.993 294.014C128.678 293.492 129.233 292.904 129.657 292.252C130.081 291.599 130.359 290.93 130.489 290.245L130.293 290.147C130.163 290.245 130 290.326 129.804 290.392C129.608 290.457 129.314 290.489 128.923 290.489C128.531 290.489 128.123 290.375 127.699 290.147C127.307 289.918 126.965 289.592 126.671 289.168C126.377 288.711 126.23 288.124 126.23 287.406C126.23 286.818 126.377 286.28 126.671 285.79C126.965 285.268 127.34 284.86 127.797 284.567C128.286 284.273 128.825 284.126 129.412 284.126ZM164.825 265.035C167.142 265.035 169.182 265.541 170.944 266.553C172.739 267.564 174.142 269.033 175.154 270.958C176.165 272.851 176.671 275.119 176.671 277.762C176.671 280.406 176.165 282.69 175.154 284.615C174.142 286.508 172.739 287.96 170.944 288.972C169.182 289.984 167.142 290.489 164.825 290.489C162.541 290.489 160.501 289.984 158.706 288.972C156.911 287.96 155.508 286.508 154.497 284.615C153.485 282.69 152.979 280.406 152.979 277.762C152.979 275.119 153.485 272.851 154.497 270.958C155.508 269.033 156.911 267.564 158.706 266.553C160.501 265.541 162.541 265.035 164.825 265.035ZM164.825 268.413C163.161 268.413 161.741 268.788 160.566 269.539C159.392 270.289 158.478 271.366 157.825 272.769C157.205 274.14 156.895 275.804 156.895 277.762C156.895 279.688 157.205 281.352 157.825 282.755C158.478 284.159 159.392 285.235 160.566 285.986C161.741 286.737 163.161 287.112 164.825 287.112C166.489 287.112 167.909 286.737 169.084 285.986C170.259 285.235 171.156 284.159 171.776 282.755C172.429 281.352 172.755 279.688 172.755 277.762C172.755 275.804 172.429 274.14 171.776 272.769C171.156 271.366 170.259 270.289 169.084 269.539C167.909 268.788 166.489 268.413 164.825 268.413ZM182.82 290L182.82 265.525L186.246 265.525L186.589 271.007L185.952 270.469C186.475 269.163 187.176 268.119 188.057 267.336C188.938 266.52 189.95 265.933 191.092 265.574C192.267 265.215 193.475 265.035 194.715 265.035C196.477 265.035 198.076 265.378 199.512 266.063C200.948 266.716 202.09 267.728 202.938 269.098C203.819 270.469 204.26 272.215 204.26 274.336L204.26 290L200.344 290L200.344 275.706C200.344 272.998 199.756 271.121 198.582 270.077C197.439 269 196.02 268.462 194.323 268.462C193.148 268.462 191.973 268.739 190.799 269.294C189.624 269.849 188.645 270.746 187.862 271.986C187.111 273.226 186.736 274.891 186.736 276.979L186.736 290L182.82 290ZM222.134 290.489C219.817 290.489 217.744 289.984 215.917 288.972C214.122 287.96 212.719 286.508 211.707 284.615C210.696 282.69 210.19 280.406 210.19 277.762C210.19 275.119 210.696 272.851 211.707 270.958C212.719 269.033 214.106 267.564 215.868 266.553C217.63 265.541 219.637 265.035 221.889 265.035C224.173 265.035 226.115 265.525 227.714 266.504C229.346 267.483 230.586 268.821 231.434 270.518C232.283 272.182 232.707 274.058 232.707 276.147C232.707 276.702 232.691 277.208 232.658 277.665C232.625 278.121 232.576 278.529 232.511 278.888L212.735 278.888L212.735 275.413L230.798 275.413L228.791 275.804C228.791 273.455 228.138 271.644 226.833 270.371C225.56 269.098 223.88 268.462 221.791 268.462C220.192 268.462 218.805 268.837 217.63 269.588C216.488 270.306 215.591 271.366 214.938 272.769C214.318 274.14 214.008 275.804 214.008 277.762C214.008 279.688 214.334 281.352 214.987 282.755C215.64 284.159 216.553 285.235 217.728 285.986C218.936 286.704 220.371 287.063 222.036 287.063C223.831 287.063 225.283 286.72 226.392 286.035C227.535 285.35 228.448 284.42 229.134 283.245L232.217 285.056C231.597 286.166 230.798 287.128 229.819 287.944C228.872 288.76 227.747 289.396 226.441 289.853C225.169 290.277 223.733 290.489 222.134 290.489ZM254.39 300.28L254.39 265.525L257.817 265.525L258.16 271.497L257.621 270.811C258.045 269.669 258.682 268.674 259.53 267.825C260.379 266.944 261.407 266.259 262.614 265.77C263.822 265.28 265.127 265.035 266.53 265.035C268.521 265.035 270.348 265.541 272.013 266.553C273.709 267.564 275.064 269.017 276.075 270.909C277.087 272.802 277.593 275.086 277.593 277.762C277.593 280.406 277.071 282.69 276.026 284.615C275.015 286.508 273.661 287.96 271.964 288.972C270.267 289.984 268.407 290.489 266.383 290.489C264.36 290.489 262.581 290 261.048 289.021C259.547 288.009 258.47 286.737 257.817 285.203L258.306 284.469L258.306 300.28L254.39 300.28ZM265.992 287.063C268.407 287.063 270.283 286.214 271.621 284.518C272.992 282.821 273.677 280.569 273.677 277.762C273.677 274.956 273.008 272.704 271.67 271.007C270.365 269.31 268.521 268.462 266.139 268.462C264.572 268.462 263.201 268.853 262.027 269.637C260.852 270.387 259.938 271.464 259.285 272.867C258.633 274.238 258.306 275.87 258.306 277.762C258.306 279.623 258.616 281.254 259.237 282.657C259.889 284.061 260.787 285.154 261.929 285.937C263.104 286.688 264.458 287.063 265.992 287.063ZM287.576 254.266L287.576 283.783C287.576 285.023 287.805 285.888 288.262 286.378C288.719 286.835 289.453 287.063 290.465 287.063C291.117 287.063 291.656 287.014 292.08 286.916C292.504 286.818 293.075 286.639 293.793 286.378L293.157 289.804C292.635 290.033 292.064 290.196 291.444 290.294C290.823 290.424 290.187 290.489 289.534 290.489C287.544 290.489 286.059 289.951 285.08 288.874C284.134 287.797 283.66 286.149 283.66 283.93L283.66 254.266L287.576 254.266ZM311.888 274.189C311.888 272.362 311.399 270.958 310.42 269.979C309.441 268.968 308.054 268.462 306.259 268.462C304.562 268.462 303.126 268.837 301.951 269.588C300.777 270.306 299.912 271.48 299.357 273.112L296.175 271.154C296.828 269.327 298.035 267.858 299.798 266.749C301.56 265.606 303.746 265.035 306.357 265.035C308.119 265.035 309.718 265.345 311.154 265.965C312.59 266.553 313.716 267.467 314.532 268.707C315.38 269.914 315.804 271.48 315.804 273.406L315.804 285.252C315.804 286.427 316.424 287.014 317.664 287.014C318.285 287.014 318.888 286.932 319.476 286.769L319.28 289.853C318.627 290.179 317.779 290.343 316.734 290.343C315.788 290.343 314.94 290.163 314.189 289.804C313.438 289.445 312.851 288.907 312.427 288.189C312.003 287.438 311.79 286.508 311.79 285.399L311.79 284.909L312.769 285.056C312.378 286.329 311.709 287.373 310.762 288.189C309.816 288.972 308.756 289.559 307.581 289.951C306.406 290.31 305.247 290.489 304.105 290.489C302.669 290.489 301.331 290.245 300.091 289.755C298.851 289.266 297.856 288.531 297.105 287.552C296.387 286.541 296.028 285.301 296.028 283.832C296.028 282.005 296.632 280.504 297.84 279.329C299.08 278.121 300.793 277.306 302.979 276.881L312.672 274.972L312.672 278.203L304.791 279.818C303.191 280.145 302 280.602 301.217 281.189C300.434 281.776 300.042 282.592 300.042 283.636C300.042 284.648 300.434 285.48 301.217 286.133C302.033 286.753 303.175 287.063 304.644 287.063C305.59 287.063 306.487 286.949 307.336 286.72C308.217 286.459 309 286.084 309.686 285.594C310.371 285.072 310.909 284.436 311.301 283.685C311.693 282.902 311.888 281.988 311.888 280.944L311.888 274.189ZM328.917 258.574L328.917 283.245C328.917 284.452 329.26 285.35 329.945 285.937C330.63 286.525 331.511 286.818 332.588 286.818C333.535 286.818 334.35 286.655 335.036 286.329C335.721 286.002 336.341 285.562 336.896 285.007L338.266 288.287C337.516 288.972 336.618 289.51 335.574 289.902C334.563 290.294 333.388 290.489 332.05 290.489C330.81 290.489 329.651 290.277 328.574 289.853C327.497 289.396 326.633 288.695 325.98 287.748C325.36 286.769 325.034 285.497 325.001 283.93L325.001 259.651L328.917 258.574ZM337.826 265.525L337.826 268.902L320.106 268.902L320.106 265.525L337.826 265.525ZM352.655 290.489C350.338 290.489 348.266 289.984 346.439 288.972C344.644 287.96 343.24 286.508 342.229 284.615C341.217 282.69 340.711 280.406 340.711 277.762C340.711 275.119 341.217 272.851 342.229 270.958C343.24 269.033 344.627 267.564 346.39 266.553C348.152 265.541 350.159 265.035 352.41 265.035C354.695 265.035 356.637 265.525 358.236 266.504C359.867 267.483 361.107 268.821 361.956 270.518C362.804 272.182 363.228 274.058 363.228 276.147C363.228 276.702 363.212 277.208 363.18 277.664C363.147 278.121 363.098 278.529 363.033 278.888L343.257 278.888L343.257 275.413L361.319 275.413L359.312 275.804C359.312 273.455 358.66 271.644 357.354 270.371C356.082 269.098 354.401 268.462 352.313 268.462C350.714 268.462 349.327 268.837 348.152 269.588C347.01 270.306 346.112 271.366 345.46 272.769C344.839 274.14 344.529 275.804 344.529 277.762C344.529 279.688 344.856 281.352 345.508 282.755C346.161 284.159 347.075 285.235 348.25 285.986C349.457 286.704 350.893 287.063 352.557 287.063C354.352 287.063 355.804 286.72 356.914 286.035C358.056 285.35 358.97 284.42 359.655 283.245L362.739 285.056C362.119 286.166 361.319 287.128 360.34 287.944C359.394 288.76 358.268 289.396 356.963 289.853C355.69 290.277 354.254 290.489 352.655 290.489ZM399.205 274.189C399.205 272.362 398.716 270.958 397.737 269.979C396.758 268.968 395.371 268.462 393.576 268.462C391.879 268.462 390.443 268.837 389.269 269.588C388.094 270.306 387.229 271.48 386.674 273.112L383.492 271.154C384.145 269.327 385.352 267.858 387.115 266.749C388.877 265.606 391.063 265.035 393.674 265.035C395.436 265.035 397.035 265.345 398.471 265.965C399.907 266.553 401.033 267.467 401.849 268.707C402.697 269.914 403.121 271.48 403.121 273.406L403.121 285.252C403.121 286.427 403.742 287.014 404.982 287.014C405.602 287.014 406.205 286.932 406.793 286.769L406.597 289.853C405.944 290.179 405.096 290.343 404.052 290.343C403.105 290.343 402.257 290.163 401.506 289.804C400.756 289.445 400.168 288.907 399.744 288.189C399.32 287.438 399.108 286.508 399.108 285.399L399.108 284.909L400.087 285.056C399.695 286.329 399.026 287.373 398.08 288.189C397.133 288.972 396.073 289.559 394.898 289.951C393.723 290.31 392.565 290.489 391.422 290.489C389.986 290.489 388.648 290.245 387.408 289.755C386.168 289.266 385.173 288.531 384.422 287.552C383.705 286.541 383.346 285.301 383.346 283.832C383.346 282.005 383.949 280.504 385.157 279.329C386.397 278.121 388.11 277.306 390.296 276.881L399.989 274.972L399.989 278.203L392.108 279.818C390.509 280.145 389.317 280.602 388.534 281.189C387.751 281.776 387.359 282.592 387.359 283.636C387.359 284.648 387.751 285.48 388.534 286.133C389.35 286.753 390.492 287.063 391.961 287.063C392.907 287.063 393.805 286.949 394.653 286.72C395.534 286.459 396.317 286.084 397.003 285.594C397.688 285.072 398.226 284.436 398.618 283.685C399.01 282.902 399.205 281.988 399.205 280.944L399.205 274.189ZM416.234 258.574L416.234 283.245C416.234 284.452 416.577 285.35 417.262 285.937C417.947 286.525 418.828 286.818 419.905 286.818C420.852 286.818 421.668 286.655 422.353 286.329C423.038 286.002 423.658 285.562 424.213 285.007L425.584 288.287C424.833 288.972 423.936 289.51 422.891 289.902C421.88 290.294 420.705 290.489 419.367 290.489C418.127 290.489 416.968 290.277 415.891 289.853C414.814 289.396 413.95 288.695 413.297 287.748C412.677 286.769 412.351 285.497 412.318 283.93L412.318 259.651L416.234 258.574ZM425.143 265.525L425.143 268.902L407.423 268.902L407.423 265.525L425.143 265.525ZM459.495 274.189C459.495 272.362 459.005 270.958 458.026 269.979C457.047 268.968 455.66 268.462 453.865 268.462C452.168 268.462 450.733 268.837 449.558 269.588C448.383 270.306 447.518 271.48 446.963 273.112L443.782 271.154C444.434 269.327 445.642 267.858 447.404 266.749C449.166 265.606 451.353 265.035 453.963 265.035C455.726 265.035 457.325 265.345 458.76 265.965C460.196 266.553 461.322 267.466 462.138 268.707C462.986 269.914 463.411 271.48 463.411 273.406L463.411 285.252C463.411 286.427 464.031 287.014 465.271 287.014C465.891 287.014 466.495 286.932 467.082 286.769L466.886 289.853C466.234 290.179 465.385 290.343 464.341 290.343C463.394 290.343 462.546 290.163 461.795 289.804C461.045 289.445 460.457 288.907 460.033 288.189C459.609 287.438 459.397 286.508 459.397 285.399L459.397 284.909L460.376 285.056C459.984 286.329 459.315 287.373 458.369 288.189C457.422 288.972 456.362 289.559 455.187 289.951C454.012 290.31 452.854 290.489 451.712 290.489C450.276 290.489 448.938 290.245 447.698 289.755C446.458 289.266 445.462 288.531 444.712 287.552C443.994 286.541 443.635 285.301 443.635 283.832C443.635 282.005 444.239 280.504 445.446 279.329C446.686 278.121 448.399 277.306 450.586 276.881L460.278 274.972L460.278 278.203L452.397 279.818C450.798 280.145 449.607 280.602 448.824 281.189C448.04 281.776 447.649 282.592 447.649 283.636C447.649 284.648 448.04 285.48 448.824 286.133C449.639 286.753 450.782 287.063 452.25 287.063C453.196 287.063 454.094 286.949 454.942 286.72C455.823 286.459 456.607 286.084 457.292 285.594C457.977 285.072 458.516 284.436 458.907 283.685C459.299 282.902 459.495 281.988 459.495 280.944L459.495 274.189ZM490.836 258.574L490.836 283.245C490.836 284.452 491.178 285.35 491.864 285.937C492.549 286.525 493.43 286.818 494.507 286.818C495.453 286.818 496.269 286.655 496.954 286.329C497.64 286.002 498.26 285.562 498.814 285.007L500.185 288.287C499.434 288.972 498.537 289.51 497.493 289.902C496.481 290.294 495.306 290.489 493.968 290.489C492.728 290.489 491.57 290.277 490.493 289.853C489.416 289.396 488.551 288.695 487.899 287.748C487.278 286.769 486.952 285.497 486.92 283.93L486.92 259.651L490.836 258.574ZM499.745 265.525L499.745 268.902L482.024 268.902L482.024 265.525L499.745 265.525ZM506.301 260.826C505.42 260.826 504.702 260.564 504.147 260.042C503.625 259.488 503.364 258.77 503.364 257.889C503.364 257.007 503.625 256.306 504.147 255.784C504.702 255.229 505.42 254.952 506.301 254.952C507.182 254.952 507.884 255.229 508.406 255.784C508.961 256.306 509.238 257.007 509.238 257.889C509.238 258.77 508.961 259.488 508.406 260.042C507.884 260.564 507.182 260.826 506.301 260.826ZM508.259 265.525L508.259 290L504.343 290L504.343 265.525L508.259 265.525ZM516.122 290L516.122 265.525L519.548 265.525L519.793 269.343C520.674 267.842 521.816 266.749 523.22 266.063C524.656 265.378 526.124 265.035 527.625 265.035C529.355 265.035 530.986 265.427 532.52 266.21C534.054 266.993 535.229 268.201 536.045 269.832C536.567 268.723 537.301 267.825 538.247 267.14C539.194 266.422 540.222 265.9 541.331 265.574C542.473 265.215 543.55 265.035 544.562 265.035C546.128 265.035 547.613 265.362 549.016 266.014C550.452 266.667 551.627 267.679 552.541 269.049C553.455 270.42 553.912 272.182 553.912 274.336L553.912 290L549.995 290L549.995 274.727C549.995 272.508 549.441 270.909 548.331 269.93C547.222 268.951 545.851 268.462 544.219 268.462C542.947 268.462 541.756 268.772 540.646 269.392C539.536 270.012 538.639 270.926 537.954 272.133C537.301 273.341 536.975 274.825 536.975 276.588L536.975 290L533.059 290L533.059 274.727C533.059 272.508 532.504 270.909 531.394 269.93C530.285 268.951 528.914 268.462 527.283 268.462C526.206 268.462 525.096 268.756 523.954 269.343C522.844 269.898 521.914 270.795 521.164 272.035C520.413 273.275 520.038 274.907 520.038 276.93L520.038 290L516.122 290ZM571.785 290.489C569.468 290.489 567.395 289.984 565.568 288.972C563.773 287.96 562.37 286.508 561.358 284.615C560.346 282.69 559.841 280.406 559.841 277.762C559.841 275.119 560.346 272.851 561.358 270.958C562.37 269.033 563.757 267.564 565.519 266.553C567.281 265.541 569.288 265.035 571.54 265.035C573.824 265.035 575.766 265.525 577.365 266.504C578.997 267.483 580.237 268.821 581.085 270.518C581.934 272.182 582.358 274.058 582.358 276.147C582.358 276.702 582.341 277.208 582.309 277.664C582.276 278.121 582.227 278.529 582.162 278.888L562.386 278.888L562.386 275.413L580.449 275.413L578.442 275.804C578.442 273.455 577.789 271.644 576.484 270.371C575.211 269.098 573.53 268.462 571.442 268.462C569.843 268.462 568.456 268.837 567.281 269.588C566.139 270.306 565.242 271.366 564.589 272.769C563.969 274.14 563.659 275.804 563.659 277.762C563.659 279.688 563.985 281.352 564.638 282.755C565.29 284.159 566.204 285.235 567.379 285.986C568.586 286.704 570.022 287.063 571.687 287.063C573.481 287.063 574.934 286.72 576.043 286.035C577.185 285.35 578.099 284.42 578.784 283.245L581.868 285.056C581.248 286.166 580.449 287.128 579.47 287.944C578.523 288.76 577.398 289.396 576.092 289.853C574.819 290.277 573.384 290.489 571.785 290.489Z" fill="white"/>
</svg>
