<svg width="408" height="408" viewBox="0 0 408 408" fill="none" xmlns="http://www.w3.org/2000/svg">
<path d="M272 101.993L128.962 247.955C122.585 254.333 119.002 262.983 119.002 272.002C119.002 281.021 122.585 289.671 128.962 296.048C135.34 302.426 143.99 306.009 153.009 306.009C162.028 306.009 170.678 302.426 177.055 296.048L320.093 150.086C332.846 137.333 340.011 120.037 340.011 102.002C340.011 83.9666 332.846 66.6701 320.093 53.9173C307.341 41.1644 290.044 34 272.009 34C253.974 34 236.677 41.1644 223.924 53.9173L81.4815 199.284C71.8832 208.727 64.2497 219.977 59.0211 232.386C53.7924 244.794 51.0723 258.114 51.0174 271.579C50.9626 285.043 53.5742 298.386 58.7016 310.836C63.829 323.286 71.3707 334.598 80.8917 344.119C90.4127 353.64 101.725 361.182 114.175 366.309C126.625 371.436 139.967 374.048 153.432 373.993C166.897 373.938 180.217 371.218 192.625 365.99C205.033 360.761 216.283 353.127 225.726 343.529L368.169 198.162" stroke="#993A18" stroke-width="34" stroke-linecap="round" stroke-linejoin="round"/>
</svg>
